<svg width="26" height="16" viewBox="0 0 26 16" fill="none" xmlns="http://www.w3.org/2000/svg">
<path d="M8.34958 0.831721L1.16861 7.02533C1.06676 7.11256 1.01583 7.19979 0.913971 7.28703C0.863042 7.33064 0.863042 7.37426 0.812113 7.41788C0.761184 7.46149 0.761184 7.50511 0.710256 7.59235C0.710256 7.63596 0.659327 7.67958 0.659327 7.76681C0.659327 7.81043 0.608398 7.85405 0.608398 7.89766L0.608398 8.15937C0.608398 8.2466 0.608398 8.37745 0.659327 8.46468C0.659327 8.5083 0.710256 8.55192 0.710256 8.59554C0.710256 8.63915 0.761184 8.68277 0.761184 8.72639C0.761184 8.77 0.812113 8.81362 0.863042 8.85724C0.863042 8.98809 0.913971 9.0317 0.913971 9.0317C0.9649 9.11894 1.06676 9.20617 1.16862 9.29341L8.34958 15.487C8.70608 15.7923 9.16444 15.9668 9.67373 15.9668C10.183 15.9668 10.6414 15.7923 10.9979 15.487C11.3544 15.1817 11.5581 14.7891 11.5581 14.353C11.5581 13.9168 11.3544 13.5242 10.9979 13.2189L7.02543 9.81681L23.1699 9.81681C24.1884 9.81681 25.0542 9.07532 25.0542 8.20298C25.0542 7.33064 24.1884 6.58916 23.1699 6.58916L7.02543 6.58916L10.9979 3.18704C11.3544 2.88172 11.5581 2.48916 11.5581 2.053C11.5581 1.61683 11.3544 1.22427 10.9979 0.918954C10.6414 0.613637 10.183 0.439168 9.67373 0.439168C9.21537 0.39555 8.70608 0.526402 8.34958 0.831721Z" fill="#22242C"/>
</svg>
