<svg width="834" height="286" viewBox="0 0 834 286" fill="none" xmlns="http://www.w3.org/2000/svg">
<path d="M615.939 92.2063C615.033 92.2119 614.121 92.1868 613.229 92.2421C612.65 92.2745 612.429 91.9868 612.061 91.8111C611.938 91.7505 611.811 91.6411 611.692 91.6412C610.795 91.6478 609.897 91.6663 609 91.6848C608.707 91.8908 608.507 92.1845 608.08 92.2563C607.662 92.323 607.182 92.2748 606.724 92.2832C606.12 92.289 605.516 92.2948 604.912 92.2945C604.61 92.2944 604.355 92.3835 604.236 92.5888C604.215 92.6229 604.406 92.7325 604.51 92.7973C604.857 93.0131 605.192 93.2519 605.578 93.4295C605.947 93.5993 606.438 93.4313 606.831 93.6397C607.712 94.1084 607.722 94.1033 608.426 94.1016C609.03 94.0958 609.635 94.0841 610.237 94.0963C610.356 94.0962 610.484 94.1995 610.607 94.2601C610.976 94.4299 611.193 94.7535 611.766 94.6963C612.2 94.6493 612.672 94.6786 613.121 94.6754C613.477 94.8861 613.804 95.118 614.19 95.2956C614.55 95.4645 614.65 95.5771 614.435 95.7306C614.239 95.8739 613.979 95.9142 613.643 95.8925C613.343 95.8685 613.039 95.8922 612.737 95.8921C612.582 95.8946 612.436 95.892 612.289 95.8954C611.712 95.9039 611.712 95.9039 610.704 95.4165C610.31 95.226 609.829 95.389 609.452 95.2063C609.198 95.0843 608.984 94.918 608.739 94.7909C608.634 94.7381 608.463 94.7148 608.326 94.7131C607.869 94.7095 607.413 94.6939 606.971 94.728C606.658 94.7509 606.462 94.9002 606.483 95.0713C606.486 95.138 606.695 95.2555 606.821 95.2743C607.11 95.3153 607.426 95.2625 607.703 95.3326C607.971 95.4017 608.242 95.5495 608.429 95.7011C608.812 96.0172 609.296 95.8184 609.68 95.9293C610.081 96.0479 610.394 96.3208 610.771 96.5035C610.868 96.5494 611.063 96.5086 611.219 96.5062C611.667 96.5089 612.114 96.5176 612.562 96.5203C612.918 96.731 613.303 96.9266 613.621 97.1576C614.196 97.5774 614.836 97.7804 615.64 97.6861C616.093 97.635 616.524 97.7145 616.857 97.9833C617.198 98.2589 617.617 98.2768 618.084 98.2754C618.514 98.2703 618.961 98.1824 619.381 98.3935C620.29 98.8589 620.298 98.8778 621.425 98.8461C621.764 98.8379 622.019 98.8514 622.26 99.0145C622.485 99.1637 622.729 99.2968 622.963 99.441C623.411 99.4437 623.868 99.4473 624.316 99.4441C624.893 99.4356 625.203 99.5511 625.309 99.8997C625.372 100.111 625.392 100.3 625.579 100.458C625.799 100.649 626.054 100.668 626.402 100.655C626.732 100.646 626.974 100.604 627.129 100.402C627.191 100.318 627.308 100.245 627.414 100.183C627.5 100.138 627.635 100.067 627.706 100.086C627.84 100.124 628.015 100.208 628.054 100.29C628.433 101.058 628.432 101.064 628.867 101.319C629.344 101.602 629.842 101.863 630.272 102.172C630.659 102.446 631.075 102.386 631.52 102.43C631.855 102.464 632.059 102.641 632.017 102.794C631.991 102.882 631.852 103.001 631.743 103.002C630.844 103.032 629.937 103.044 629.033 103.037C628.923 103.038 628.797 102.917 628.675 102.851C628.43 102.717 628.219 102.527 627.95 102.464C627.681 102.401 627.356 102.459 627.054 102.459C626.753 102.459 626.429 102.505 626.161 102.429C625.893 102.354 625.691 102.159 625.448 102.02C625.335 101.954 625.179 101.86 625.077 101.868C624.403 101.945 623.931 101.699 623.483 101.388C623.389 101.324 623.22 101.271 623.092 101.27C622.031 101.267 620.978 101.282 619.917 101.29C619.487 101.295 619.161 101.051 619.102 100.689C619.074 100.487 619.001 100.281 619.019 100.083C619.051 99.7243 618.57 99.4769 618.204 99.4824C617.601 99.4821 616.989 99.469 616.392 99.4996C615.905 99.5232 615.504 99.4105 615.197 99.1624C614.838 98.879 614.399 98.8832 613.958 98.9053C613.627 98.9204 613.519 99.1087 613.492 99.6069C613.475 100.009 613.309 100.12 612.714 100.126C611.964 100.135 611.204 100.144 610.446 100.134C610.327 100.134 610.2 100.019 610.087 99.9532C609.843 99.82 609.632 99.6238 609.363 99.5606C609.095 99.4915 608.77 99.5494 608.467 99.5552C608.166 99.5551 607.841 99.607 607.573 99.5379C607.305 99.4687 607.094 99.2666 606.86 99.1284C606.747 99.0627 606.609 98.9704 606.49 98.9705C605.887 98.9583 605.283 98.9701 604.679 98.9759C604.002 98.9803 604.002 98.9803 603.083 98.514C602.663 98.3029 602.216 98.3908 601.786 98.3959C601.329 98.3983 600.9 98.3794 600.568 98.1047C600.347 97.9255 600.093 97.8035 599.809 97.8052C599.05 97.8015 598.299 97.8166 597.54 97.8129C597.412 97.8121 597.243 97.7649 597.148 97.7011C596.69 97.4017 596.237 97.157 595.555 97.2153C594.965 97.2647 594.339 97.2079 593.75 97.2514C593.428 97.2734 593.266 97.4502 593.316 97.6061C593.345 97.6875 593.527 97.7964 593.654 97.8091C593.944 97.8442 594.269 97.7862 594.538 97.8494C595.093 97.9776 595.329 98.5082 596.075 98.4443C596.518 98.4042 596.974 98.4198 597.429 98.4414C597.547 98.4472 597.664 98.5736 597.786 98.6461C598.134 98.844 598.432 99.0852 598.967 99.0303C599.41 98.9902 599.874 99.0127 600.323 99.0094C601.037 99.0026 601.036 99.0086 601.919 99.4653C602.338 99.6824 602.786 99.5885 603.215 99.5894C603.535 99.5913 603.84 99.5615 604.086 99.6707C604.464 99.8354 604.72 100.151 605.202 100.181C605.656 100.208 606.108 100.169 606.564 100.185C606.846 100.195 607.101 100.317 607.313 100.501C607.534 100.687 607.781 100.784 608.092 100.779C608.541 100.776 608.999 100.761 609.455 100.777C609.583 100.784 609.723 100.852 609.836 100.912C610.081 101.045 610.314 101.195 610.548 101.333C610.996 101.342 611.45 101.375 611.892 101.347C612.232 101.327 612.465 101.375 612.726 101.522C613.056 101.718 613.312 102.033 613.886 101.952C614.173 101.914 614.497 101.965 614.784 101.933C615.135 101.89 615.368 101.944 615.596 102.148C616.028 102.535 616.608 102.599 617.218 102.528C617.883 102.449 618.358 102.666 618.823 102.978C619.315 103.305 619.316 103.299 619.655 104.003C619.756 104.207 620.083 104.33 620.367 104.322C620.844 104.31 621.249 104.381 621.573 104.642C621.913 104.924 622.351 104.938 622.801 104.916C623.398 104.886 623.994 104.867 624.444 105.262C624.664 105.454 624.914 105.521 625.235 105.511C626.142 105.493 627.054 105.518 627.945 105.475C628.488 105.445 628.778 105.667 629.126 105.865C629.596 106.136 630.113 106.387 630.071 106.859C630.064 106.937 630.183 107.039 630.286 107.11C630.51 107.259 630.755 107.392 630.989 107.537C631.335 107.752 631.675 107.937 632.182 107.892C632.624 107.858 633.088 107.88 633.537 107.871C633.986 107.862 634.397 107.873 634.775 108.14C635.214 108.443 635.682 108.738 636.19 108.982C636.549 109.157 637.06 108.973 637.442 109.198C637.677 109.336 637.9 109.492 638.155 109.614C638.26 109.666 638.435 109.654 638.581 109.656C638.882 109.663 639.192 109.676 639.487 109.645C639.828 109.613 640.081 109.65 640.322 109.813C640.547 109.962 640.767 110.159 641.036 110.223C641.439 110.317 641.913 110.124 642.296 110.44C642.492 110.598 642.744 110.756 643.012 110.825C643.28 110.894 643.605 110.837 643.894 110.872C644.021 110.884 644.167 110.996 644.232 111.081C644.274 111.127 644.2 111.234 644.132 111.288C644.044 111.351 643.917 111.435 643.798 111.435C642.891 111.453 641.986 111.453 641.08 111.464C640.54 111.47 640.54 111.47 639.495 110.985C639.249 110.87 638.967 110.86 638.646 110.87C638.215 110.881 637.771 110.939 637.336 110.787C636.793 110.322 636.08 110.214 635.305 110.293C634.982 110.327 634.691 110.298 634.466 110.161C633.988 109.883 633.481 109.621 633.061 109.308C632.735 109.064 632.574 109.029 632.403 109.302C632.35 109.387 632.296 109.478 632.297 109.563C632.325 109.867 632.398 110.17 632.426 110.475C632.437 110.561 632.356 110.649 632.302 110.734C632.135 110.971 631.946 110.934 631.648 110.693C631.349 110.451 630.981 110.276 630.465 110.32C630.022 110.361 629.552 110.301 629.109 110.347C628.426 110.412 627.972 110.173 627.515 109.867C627.42 109.804 627.25 109.756 627.123 109.756C625.76 109.758 624.405 109.779 623.042 109.781C622.749 109.781 622.494 109.665 622.282 109.481C622.061 109.296 621.806 109.186 621.513 109.187C620.305 109.192 619.099 109.186 617.888 109.221C617.393 109.238 617.011 109.121 616.694 108.878C616.454 108.697 616.223 108.626 615.904 108.612C615.558 108.595 615.308 108.63 615.12 108.786C614.942 108.938 615.051 109.051 615.401 109.219C615.778 109.402 616.124 109.623 616.481 109.828C616.782 109.834 617.085 109.816 617.375 109.852C617.502 109.864 617.61 109.984 617.731 110.056C618.078 110.266 618.398 110.473 618.923 110.429C619.366 110.389 619.83 110.418 620.279 110.409C620.901 110.405 620.901 110.405 621.864 110.881C622.109 111.003 622.381 111.024 622.713 111.003C622.997 110.989 623.28 111.102 623.463 111.301C623.538 111.381 623.5 111.498 623.293 111.876C623.267 112.169 623.469 112.056 623.549 111.871C623.674 111.606 623.491 111.497 623.115 111.611C622.852 111.693 622.711 111.836 622.763 111.968C622.794 112.037 622.958 112.138 623.293 111.876C624.123 111.597 624.734 111.616 625.322 111.579C625.671 111.559 625.887 111.605 626.145 111.788C626.454 112.006 626.763 112.236 627.306 112.194C627.896 112.145 628.513 112.195 629.11 112.164C629.662 112.135 629.919 112.426 630.25 112.616C630.65 112.844 631.131 112.681 631.502 112.826C631.891 112.974 632.148 113.265 632.606 113.36C633.291 113.265 633.69 113.607 634.18 113.856C634.566 114.045 635.049 113.961 635.481 113.938C635.967 113.914 636.36 114.02 636.676 114.269C637.035 114.553 637.466 114.541 637.906 114.531C638.932 114.514 638.969 114.499 639.529 114.887C639.933 115.169 640.351 115.103 640.78 115.115C641.137 115.314 641.484 115.524 641.861 115.707C641.957 115.753 642.153 115.712 642.308 115.709C642.757 115.706 643.214 115.704 643.663 115.7C643.964 115.701 644.29 115.643 644.558 115.706C644.826 115.775 645.038 115.971 645.272 116.109C645.507 116.248 645.75 116.387 645.975 116.53C646.322 116.746 646.652 116.93 647.168 116.891C647.61 116.857 648.065 116.879 648.523 116.87C649.1 116.862 649.08 116.878 650.109 117.343C650.662 117.598 651.272 117.418 651.855 117.452C652.146 117.469 652.421 117.563 652.605 117.757C652.68 117.837 652.642 117.953 652.66 118.058C651.15 118.069 649.633 118.056 648.138 118.105C647.56 118.125 647.281 117.88 646.989 117.67C646.507 117.332 645.798 117.683 645.351 117.264C645.081 117.014 644.675 116.846 644.167 116.904C643.872 116.935 643.564 116.898 643.26 116.921C642.487 116.977 641.789 116.913 641.219 116.439C641.023 116.274 640.731 116.167 640.526 116.007C640.286 115.832 640.048 115.724 639.747 115.724C638.383 115.732 637.029 115.741 635.674 115.762C635.555 115.762 635.429 115.84 635.323 115.895C635.055 116.037 635.124 116.177 635.523 116.326C635.655 116.375 635.757 116.464 635.879 116.537C636.113 116.675 636.324 116.877 636.592 116.946C636.86 117.015 637.185 116.963 637.487 116.964C637.788 116.964 638.114 116.906 638.382 116.969C638.65 117.038 638.861 117.234 639.105 117.367C639.218 117.433 639.355 117.537 639.474 117.543C640.075 117.567 640.67 117.561 641.273 117.567C641.63 117.766 641.927 118.031 642.366 118.129C642.644 118.193 642.949 118.157 643.237 118.198C643.364 118.217 643.519 118.323 643.575 118.407C643.607 118.459 643.479 118.567 643.383 118.617C643.018 118.81 642.551 118.721 642.118 118.75C641.649 118.781 641.234 118.716 640.902 118.447C640.68 118.268 640.424 118.158 640.132 118.158C639.372 118.161 638.621 118.176 637.863 118.166C637.735 118.165 637.586 118.096 637.472 118.042C636.553 117.582 636.554 117.57 635.876 117.58C634.878 117.595 634.878 117.595 634.245 117.211C634.124 117.139 633.998 117.012 633.889 117.007C632.829 116.997 631.778 116.988 630.723 117.021C630.375 117.028 630.14 117.005 629.9 116.824C629.694 116.67 629.454 116.495 629.185 116.432C628.907 116.368 628.591 116.427 628.289 116.427C627.987 116.427 627.663 116.472 627.405 116.398C627.137 116.323 626.916 116.132 626.692 115.989C626.458 115.839 626.195 115.818 625.855 115.832C624.81 115.866 624.802 115.847 623.811 115.374C623.697 115.32 623.547 115.257 623.419 115.256C622.661 115.252 621.91 115.267 621.151 115.264C620.858 115.264 620.584 115.159 620.4 114.965C620.325 114.885 620.363 114.768 620.33 114.529C620.271 114.469 620.335 114.572 620.345 114.664C620.482 114.665 620.644 114.694 620.748 114.656C621.012 114.568 621.152 114.431 621.1 114.299C621.07 114.23 620.905 114.129 620.797 114.118C620.597 114.098 620.413 114.212 620.33 114.529C619.741 114.67 619.13 114.65 618.532 114.687C618.182 114.712 617.968 114.661 617.71 114.478C617.401 114.254 617.082 114.035 616.539 114.077C615.949 114.126 615.331 114.082 614.725 114.106C614.028 114.132 613.777 113.564 613.196 113.518C612.597 113.47 611.99 113.511 611.385 113.523C610.854 113.53 610.854 113.53 609.801 113.032C609.415 112.849 608.925 113.011 608.549 112.822C608.295 112.7 608.081 112.534 607.836 112.407C607.731 112.354 607.559 112.337 607.422 112.335C606.663 112.331 605.898 112.303 605.161 112.361C604.322 112.434 603.712 112.204 603.155 111.792C602.405 111.783 601.65 111.743 600.906 111.783C600.363 111.814 600.073 111.585 599.725 111.387C599.603 111.321 599.502 111.22 599.368 111.183C599.235 111.145 599.067 111.176 598.92 111.18C598.316 111.186 597.697 111.154 597.108 111.203C596.379 111.269 596.151 110.751 595.604 110.636C595.206 110.892 594.971 111.272 594.234 111.228C593.634 111.192 593.027 111.228 592.423 111.234C592.121 111.234 591.819 111.24 591.517 111.239C591.032 111.245 590.784 111.456 590.852 111.824C590.889 112.027 590.916 112.229 590.944 112.431C591.003 112.793 590.749 113.069 590.365 113.073C589.303 113.081 588.25 113.096 587.19 113.092C586.906 113.094 586.643 112.965 586.431 112.781C586.21 112.596 585.954 112.498 585.661 112.498C584.6 112.507 583.547 112.522 582.486 112.518C582.367 112.518 582.219 112.443 582.105 112.383C581.861 112.25 581.628 112.1 581.393 111.961C580.79 111.955 580.198 111.932 579.602 111.945C578.641 111.957 578.64 111.963 577.972 111.564C577.851 111.491 577.734 111.365 577.616 111.359C577.16 111.338 576.711 111.353 576.253 111.361C574.907 111.383 574.906 111.383 574.533 111.164C574.194 110.961 573.895 110.726 573.352 110.768C572.762 110.818 572.143 110.792 571.539 110.791C571.091 110.789 570.643 110.792 570.198 110.759C570.08 110.754 569.963 110.627 569.841 110.555C569.496 110.333 569.155 110.148 568.648 110.2C568.352 110.23 568.043 110.211 567.741 110.211C566.954 110.217 566.954 110.217 565.709 109.729C565.585 109.681 565.435 109.624 565.306 109.629C564.245 109.631 563.192 109.646 562.132 109.642C562.004 109.641 561.853 109.59 561.729 109.547C560.328 109.057 560.328 109.057 558.79 109.071C558.205 109.073 558.185 109.095 557.606 108.717C557.346 108.552 557.126 108.464 556.805 108.474C555.596 108.497 554.382 108.472 553.179 108.52C552.638 108.538 552.346 108.328 551.998 108.13C551.876 108.064 551.751 107.93 551.641 107.925C550.435 107.919 549.226 107.937 548.02 107.93C547.91 107.931 547.785 107.798 547.663 107.731C547.427 107.599 547.206 107.414 546.938 107.351C546.66 107.287 546.344 107.345 546.033 107.344C545.274 107.347 545.274 107.341 544.436 106.901C544.322 106.841 544.174 106.76 544.055 106.76C542.848 106.759 541.634 106.74 540.431 106.794C539.742 106.822 539.296 106.602 538.838 106.302C538.743 106.239 538.573 106.197 538.445 106.197C537.082 106.199 535.727 106.22 534.364 106.222C534.081 106.223 533.818 106.094 533.605 105.916C533.265 105.634 532.836 105.622 532.378 105.63C531.325 105.651 531.316 105.644 530.725 105.295C530.604 105.223 530.502 105.134 530.369 105.09C530.245 105.048 530.08 105.049 529.943 105.048C529.339 105.047 528.735 105.053 528.131 105.059C527.527 105.065 526.917 105.04 526.318 105.082C525.582 105.135 525.273 104.712 524.781 104.481C524.031 104.484 523.265 104.456 522.52 104.508C521.95 104.547 521.71 104.258 521.351 104.083C521.229 104.022 521.102 103.907 520.983 103.907C519.621 103.903 518.257 103.911 516.901 103.938C516.572 103.941 516.359 103.871 516.1 103.701C515.522 103.317 515.493 103.326 514.467 103.344C514.018 103.353 513.588 103.358 513.229 103.075C512.914 102.82 512.511 102.725 512.024 102.748C511.427 102.779 510.816 102.766 510.212 102.766C509.608 102.771 509.002 102.801 508.401 102.771C507.918 102.753 507.653 102.442 507.285 102.261C507.171 102.207 507.009 102.185 506.872 102.183C506.269 102.177 505.649 102.157 505.059 102.2C504.341 102.255 503.981 101.887 503.5 101.645C503.395 101.593 503.211 101.598 503.074 101.603C502.013 101.605 500.96 101.62 499.898 101.628C499.541 101.429 499.174 101.235 498.817 101.037C498.214 101.036 497.61 101.042 497.006 101.042C496.549 101.044 496.085 101.016 495.651 101.063C495.087 101.127 494.84 100.819 494.481 100.644C494.359 100.583 494.232 100.468 494.113 100.468C493.355 100.458 492.596 100.455 491.844 100.482C491.128 100.512 490.895 99.9459 490.315 99.8936C489.716 99.8396 489.093 99.8555 488.503 99.905C487.821 99.9632 487.367 99.7245 486.91 99.4191C486.815 99.3553 486.645 99.3081 486.517 99.3073C485.759 99.3036 485.007 99.3188 484.249 99.315C484.121 99.3143 483.969 99.2689 483.846 99.2203C482.445 98.7237 482.446 98.7177 481.814 98.7267C481.366 98.73 480.907 98.7443 480.451 98.7288C480.323 98.728 480.174 98.6587 480.06 98.599C479.151 98.1395 479.151 98.1336 478.465 98.1371C477.861 98.1429 477.257 98.1486 476.653 98.1544C476.296 97.9556 475.929 97.7619 475.572 97.5631C474.822 97.5663 474.055 97.5497 473.311 97.5836C472.963 97.5969 472.738 97.5563 472.488 97.3804C472.178 97.1682 471.871 96.9261 471.318 96.9732C470.728 97.0227 470.111 96.9728 469.513 97.0033C468.797 97.0401 468.556 96.4667 467.984 96.4154C467.385 96.3613 466.762 96.3772 466.172 96.4266C465.491 96.4849 465.036 96.2463 464.579 95.9409C464.484 95.877 464.315 95.8299 464.187 95.8291C462.522 95.837 460.866 95.8457 459.2 95.8656C458.174 95.8774 458.174 95.8834 456.273 95.3607C456.139 95.3231 455.996 95.2846 455.859 95.283C455.256 95.2768 454.636 95.2567 454.047 95.3002C453.329 95.3549 452.968 94.9928 452.487 94.7453C452.382 94.6926 452.208 94.6992 452.062 94.6966C451.605 94.693 451.156 94.7023 450.698 94.7047C450.094 94.7105 449.49 94.7162 448.886 94.7219C448.529 94.5291 448.162 94.3294 447.805 94.1366C447.055 94.1398 446.29 94.1053 445.544 94.1572C444.974 94.1965 444.733 93.9189 444.375 93.7381C444.252 93.6775 444.125 93.5622 444.007 93.5563C442.645 93.5524 441.282 93.5544 439.926 93.5873C439.366 93.6036 439.137 93.3089 438.777 93.134C438.654 93.0794 438.516 92.9872 438.397 92.9873C437.493 92.981 436.586 92.9926 435.68 93.0042C435.167 93.0131 435.167 93.0131 434.095 92.5313C433.971 92.4767 433.83 92.4203 433.702 92.4195C430.83 92.433 427.964 92.4653 425.092 92.4787C424.799 92.4795 424.544 92.3634 424.332 92.1792C424.111 91.994 423.856 91.8839 423.563 91.8847C422.355 91.8903 421.14 91.8829 419.939 91.9193C419.443 91.936 419.06 91.819 418.744 91.576C418.504 91.3951 418.274 91.3116 417.953 91.3157C417.349 91.3274 416.745 91.3272 416.141 91.3329C415.537 91.3387 414.933 91.3445 414.329 91.3503C413.725 91.356 413.115 91.3309 412.516 91.3735C411.78 91.4263 411.46 91.0201 410.978 90.7846C410.073 90.7843 409.167 90.7839 408.27 90.7905C407.063 90.796 405.854 90.8135 404.647 90.8131C404.537 90.8141 404.411 90.6928 404.289 90.6262C403.931 90.4394 403.678 90.2028 403.119 90.2131C400.408 90.2609 397.683 90.2589 394.963 90.2998C394.395 90.3092 394.174 90.0274 393.805 89.8517C393.682 89.7971 393.545 89.6988 393.426 89.699C391.917 89.6984 390.407 89.7157 388.897 89.7271C388.284 89.732 388.284 89.732 387.302 89.2593C387.188 89.2056 387.038 89.1363 386.91 89.1355C384.944 89.1433 382.985 89.164 381.017 89.1778C380.725 89.1786 380.469 89.0685 380.248 88.8833C380.036 88.6991 379.772 88.5821 379.489 88.5838C377.677 88.5951 375.857 88.5995 374.053 88.6296C373.567 88.6412 373.173 88.5474 372.848 88.2975C372.617 88.1174 372.378 88.0271 372.067 88.032C369.349 88.0549 366.632 88.0659 363.912 88.1068C363.39 88.1148 363.038 87.9647 362.729 87.7346C362.48 87.5527 362.257 87.5001 361.928 87.4912C361.581 87.4866 361.367 87.5314 361.16 87.6918C360.895 87.9005 360.714 88.1781 360.133 88.1378C359.533 88.0957 358.919 88.1066 358.321 88.1492C357.75 88.1944 357.511 87.8989 357.172 87.7019C356.92 87.5619 356.677 87.5194 356.336 87.5396C356.024 87.5565 355.825 87.639 355.626 87.8122C355.191 88.1789 355.155 88.1753 354.688 87.869C354.438 87.705 354.212 87.5737 353.919 87.5686C352.712 87.5681 351.504 87.5796 350.296 87.5971C349.6 87.6058 349.59 87.6168 349.1 87.2659C348.86 87.0909 348.621 86.9946 348.319 87.0004C344.997 87.0291 341.676 87.0459 338.352 87.0925C337.839 87.1014 337.506 86.9412 337.16 86.7253C337.047 86.6537 336.937 86.5581 336.803 86.5206C336.669 86.483 336.513 86.4915 336.367 86.4889C333.951 86.5059 331.528 86.5101 329.118 86.558C328.568 86.5692 328.296 86.3488 327.938 86.156C327.816 86.0894 327.715 85.9947 327.581 85.9572C327.447 85.9256 327.28 85.951 327.133 85.9544C324.717 85.9715 322.294 85.9757 319.884 86.0236C319.307 86.032 319.085 85.7563 318.725 85.5874C318.603 85.5268 318.475 85.4234 318.356 85.4235C317.598 85.4138 316.847 85.429 316.087 85.4312C314.275 85.4485 312.464 85.4539 310.651 85.4771C309.955 85.4857 309.704 84.9234 309.122 84.8891C308.367 84.8435 307.613 84.8885 306.853 84.8968C306.249 84.9025 305.646 84.9023 305.041 84.9141C304.446 84.9207 304.446 84.9207 303.009 84.4264C302.885 84.3838 302.735 84.3265 302.607 84.3257C300.493 84.3369 298.371 84.3472 296.265 84.3772C295.78 84.3828 295.383 84.3129 295.059 84.057C294.828 83.877 294.581 83.7737 294.279 83.7796C291.104 83.8049 287.937 83.8311 284.762 83.8504C284.643 83.8506 284.495 83.7753 284.381 83.7156C284.137 83.5825 283.903 83.4323 283.669 83.2941C283.475 83.4135 283.229 83.5154 283.097 83.6591C282.915 83.8521 282.692 83.8901 282.344 83.8914C281.997 83.8927 281.78 83.8589 281.522 83.6761C281.213 83.452 280.891 83.2688 280.351 83.2749C277.027 83.3215 273.707 83.3323 270.384 83.3729C269.834 83.3782 269.604 83.0895 269.236 82.9137C269.113 82.8591 268.974 82.7788 268.855 82.779C267.492 82.781 266.137 82.7959 264.774 82.8039C260.995 82.8349 257.217 82.8481 253.444 82.904C252.757 82.9135 252.309 82.7176 251.851 82.4122C251.756 82.3483 251.587 82.3011 251.459 82.3004C246.17 82.3368 240.88 82.3793 235.6 82.4226C235.316 82.4243 235.053 82.3013 234.84 82.1231C234.619 81.938 234.363 81.8338 234.071 81.8346C231.655 81.8517 229.239 81.8688 226.823 81.8918C226.219 81.8976 226.209 81.9026 225.619 81.5536C225.497 81.4811 225.372 81.3539 225.271 81.3558C225.06 81.3648 224.847 81.4943 224.684 81.6831C224.519 81.8838 224.287 81.9209 223.948 81.9291C223.6 81.9364 223.375 81.8958 223.125 81.7259C222.806 81.5128 222.513 81.3084 221.964 81.3136C215.016 81.3888 208.072 81.434 201.125 81.5032C200.566 81.5076 200.335 81.2309 199.967 81.0552C199.844 81.0006 199.722 80.928 199.587 80.9024C199.443 80.8759 199.286 80.8963 199.139 80.8997C187.81 80.9878 176.481 81.0818 165.152 81.1699C164.475 81.1744 164.484 81.1753 163.7 81.6519C163.604 81.7086 163.478 81.7864 163.35 81.7856C159.88 81.8237 156.403 81.8489 152.926 81.874C151.416 81.8854 149.906 81.9029 148.396 81.9083C147.857 81.9084 147.857 81.9085 146.521 82.4262C146.407 82.4691 146.274 82.5281 146.146 82.5273C140.106 82.5789 134.066 82.6305 128.017 82.6693C127.542 82.6698 127.152 82.7393 126.908 83.0045C126.736 83.1924 126.526 83.292 126.224 83.2979C121.996 83.3322 117.767 83.3725 113.531 83.394C113.028 83.3978 112.714 83.5352 112.447 83.7619C112.358 83.8374 112.276 83.9258 112.153 83.9738C112.04 84.0167 111.875 84.0183 111.737 84.0226C108.114 84.0512 104.489 84.0917 100.857 84.1014C100.318 84.1016 100.08 84.301 99.7966 84.5079C99.699 84.5766 99.6258 84.6779 99.5032 84.7199C99.3811 84.7559 99.2089 84.7386 99.0628 84.736C96.043 84.7589 93.0227 84.7876 90.0029 84.8105C89.4256 84.7223 89.2675 85.0565 88.9678 85.2376C88.8616 85.2994 88.7807 85.3878 88.6586 85.4239C88.5274 85.459 88.3646 85.4366 88.2094 85.4331C85.7937 85.4501 83.3764 85.4851 80.9532 85.4833C80.3956 85.4817 80.2594 85.7758 79.9415 85.9551C79.8359 86.0109 79.7272 86.1026 79.6078 86.1087C78.0968 86.1321 76.587 86.1435 75.0776 86.1489C74.5743 86.1527 74.5748 86.1467 73.6426 86.6506C73.537 86.7064 73.4126 86.7664 73.2841 86.7716C71.023 86.7981 68.754 86.8118 66.4843 86.8314C66.1916 86.8322 65.9794 86.9557 65.8161 87.1445C65.6529 87.3334 65.4327 87.444 65.14 87.4448C63.3278 87.4621 61.5149 87.4853 59.7043 87.4846C59.2015 87.4825 58.8619 87.5993 58.6202 87.8466C58.4389 88.0336 58.2304 88.1152 57.9099 88.1192C56.0983 88.1305 54.285 88.1598 52.4664 88.1463C51.9365 88.1414 51.6462 88.3174 51.4062 88.5468C51.2158 88.7329 51.0099 88.7846 50.6714 88.7869C47.3503 88.8036 44.0203 88.8194 40.7051 88.8729C40.1464 88.8832 39.8841 88.6456 39.535 88.4597C39.0372 88.1985 38.5773 87.923 38.6192 87.4565C38.6256 87.3848 38.479 87.2856 38.3756 87.2148C37.6092 86.6853 37.6092 86.6853 37.5252 86.1941C37.479 85.8938 37.4243 85.5865 37.3876 85.2811C37.3138 84.7788 37.0349 84.6241 36.1931 84.6302C35.8913 84.63 35.5885 84.6419 35.2872 84.6358C34.8394 84.6331 34.5218 84.402 34.4724 84.035C34.4448 83.8331 34.4082 83.6302 34.3806 83.4283C34.838 83.4259 34.8294 83.4191 35.6918 82.7754C36.0545 82.5041 36.0547 82.504 35.4385 82.1344C35.204 81.9962 34.9796 81.8469 34.7264 81.7129C34.6129 81.6532 34.4615 81.6079 34.3336 81.6071C33.5749 81.6034 32.8242 81.6125 32.0736 81.6217C30.8654 81.6332 30.8653 81.6332 29.7055 80.9012C29.6101 80.8433 29.4641 80.7382 29.4865 80.6922C29.606 80.4809 29.8593 80.4097 30.1696 80.4167C30.626 80.4263 31.0754 80.4111 31.5238 80.4078C31.8256 80.4079 32.1279 80.4021 32.4296 80.4022C32.731 80.2031 33.041 80.0109 33.3247 79.804C33.7738 79.487 33.7747 79.475 33.2263 79.1665C32.8788 78.9626 32.5025 78.774 32.1448 78.5812C31.6965 78.5845 31.2385 78.5928 30.7906 78.5901C30.2239 78.5875 30.0075 78.4511 29.8973 78.0478C29.801 77.6942 29.9814 77.4166 30.4228 77.3885C30.8734 77.3613 31.2947 77.3553 31.5487 77.073C31.7925 76.8018 32.1833 76.7263 32.6567 76.7497C32.9574 76.7617 33.2602 76.7499 33.5625 76.7441C33.9565 76.7353 34.1924 76.4512 34.1414 76.1021C34.1159 75.8763 34.0419 75.6817 33.6927 75.5984C32.1436 75.2317 32.1248 75.2359 31.3818 74.7509C31.3126 74.7078 31.2679 74.5947 31.3 74.5436C31.3533 74.4584 31.4648 74.3368 31.5752 74.3298C32.6293 74.3028 33.6822 74.2878 34.7325 74.3027C35.0796 74.3074 35.3372 74.2909 35.4748 74.0814C35.6653 73.7928 35.618 73.5044 35.3196 73.2632C35.2258 73.1874 35.07 73.0873 34.9607 73.0824C33.7547 73.07 32.5552 73.0884 31.3492 73.076C31.2394 73.077 31.0492 72.9554 31.0108 72.8731C30.9331 72.7204 31.0861 72.5427 31.4092 72.5087C31.8342 72.4608 32.2607 72.4976 32.5684 72.2267C32.9962 71.8412 33.5114 71.5007 33.9829 71.1376C34.0618 71.0731 34.1922 70.9473 34.166 70.9326C33.9513 70.7783 33.6975 70.6503 33.4731 70.501C33.0931 70.2516 33.1193 69.9586 33.2352 69.6866C33.328 69.4666 33.608 69.4041 33.9433 69.4378C34.0883 69.4523 34.2696 69.4706 34.3922 69.4286C34.7122 69.3279 34.8269 69.1704 34.6841 69.0293C34.5999 68.9484 34.446 68.8305 34.3362 68.8315C32.3789 68.8342 30.413 68.83 28.4606 68.8815C27.8832 68.896 27.6409 68.6423 27.311 68.4463C27.0594 68.2943 26.8189 68.2218 26.4845 68.2788C26.1689 68.3316 25.8742 68.2538 25.7016 68.0373C25.562 67.8604 25.8461 67.7501 26.5942 67.6683C26.7328 67.652 26.8885 67.6495 26.9935 67.5997C28.1028 67.0592 28.1033 67.0533 28.8358 67.0423C29.5497 67.0355 29.5504 67.0296 29.9531 66.7199C30.1398 66.5757 30.3445 66.4333 30.5226 66.2822C30.592 66.2228 30.7116 66.1141 30.6786 66.0746C30.4958 65.8691 30.2275 65.8 29.9066 65.81C29.1905 65.8408 28.3644 65.6734 27.9418 66.2043C27.7775 66.405 27.5455 66.4421 27.216 66.4452C23.9041 66.4629 20.5898 66.5044 17.2699 66.5092C16.7303 66.5093 16.4659 66.7061 16.2355 66.9304C16.036 67.1156 15.8312 67.1553 15.4836 67.1567C15.1359 67.158 14.8623 67.1486 14.6806 66.9313C14.5735 66.7998 14.6883 66.6423 14.9752 66.5022C15.3863 66.302 15.3406 65.9957 15.2389 65.7019C15.1649 65.5073 14.8958 65.3475 14.5956 65.3295C14.1494 65.3089 13.7176 65.3319 13.3675 65.0554C13.1623 64.896 12.899 64.7729 12.665 64.6288C12.2157 64.3362 11.7669 64.0378 11.0908 64.1328C10.643 64.0276 10.3451 63.7804 9.9976 63.5766C9.41504 63.2405 9.36442 63.1931 9.82573 62.9437C10.3446 62.6639 10.0025 62.195 10.3034 61.8993C10.6245 61.5815 11.0508 61.3166 11.4332 61.0291C11.5314 60.9545 11.6199 60.8849 11.7181 60.8102C11.5203 60.6697 11.3435 60.5011 11.1063 60.3928C10.7987 60.2533 10.6474 60.1053 10.6987 59.7363C10.6401 59.6761 10.6548 59.8164 10.7241 59.8595C10.8024 59.9036 11.0047 59.8938 11.1081 59.8619C11.3721 59.7737 11.5122 59.6369 11.4601 59.5049C11.4297 59.4355 11.2651 59.3345 11.1564 59.3236C10.957 59.3036 10.773 59.4179 10.6897 59.7354C9.65261 59.8788 8.59039 59.8929 7.53048 59.883C7.42065 59.8841 7.29551 59.7508 7.17399 59.6783C6.77532 59.4331 6.77473 59.439 5.55657 59.2564C5.43022 59.2377 5.26561 59.1367 5.20968 59.0466C4.97956 58.6554 5.02464 58.2556 4.93262 57.8541C5.19078 57.6265 5.44823 57.4049 5.71493 57.1843C6.24886 56.7369 6.92257 56.364 7.35203 55.858C7.29675 55.5567 7.21425 55.2527 7.63449 55.0535C8.7942 54.8681 8.78521 54.8672 9.1191 54.6111C10.0712 53.8859 11.0147 53.1538 12.0019 52.4442C12.2654 52.2594 12.2756 52.1458 11.8486 52.0124C11.7148 51.9748 11.5702 51.9543 11.4241 51.9517C10.9672 51.9481 10.5044 52.0102 10.0624 51.9417C9.61993 51.8792 9.31725 51.5833 8.96921 51.3854C8.61263 51.1807 8.25662 50.9699 7.90058 50.7592C7.473 50.7344 7.0321 50.8591 6.63026 50.5472C6.32276 50.3051 5.92836 50.1146 5.57232 49.9039C5.89404 49.4775 6.45089 49.1834 6.89467 48.8236C7.29898 48.496 7.3073 48.5029 8.32946 48.3219C8.81254 48.2376 9.0363 47.5781 8.65522 47.3407C8.19632 47.0532 7.70874 46.781 7.23971 46.5046C6.81213 46.4798 6.3627 46.5977 5.97899 46.2876C5.68002 46.0524 5.32976 45.8784 4.79713 45.9034C3.89714 45.9459 2.98494 45.9207 2.07804 45.9383C1.76667 45.9433 1.43338 45.8857 1.31567 45.6687C1.23791 45.5161 1.51846 45.3451 1.8213 45.3332C2.27982 45.3189 2.69405 45.2881 2.94745 45.0117C3.19178 44.7345 3.59857 44.6848 4.07361 44.6902C4.20156 44.691 4.35312 44.6338 4.423 44.5684C4.78038 44.2542 5.16975 43.9916 5.86654 44.0736C6.16729 43.9831 6.33468 43.8489 6.25692 43.6963C6.20951 43.6131 6.02839 43.4924 5.91856 43.4934C5.16096 43.4777 4.40338 43.4621 3.65961 43.496C3.31091 43.5093 3.04687 43.4948 2.84545 43.2936C2.7021 43.1585 2.79814 43.0052 3.10372 42.8608C3.37089 42.7368 3.45903 42.5706 3.45914 42.3654C3.4562 41.8884 3.19659 41.7235 2.32384 41.6661C1.69634 41.6273 1.54923 41.5341 1.44975 41.1137C1.42208 41.0144 1.34341 40.8737 1.41275 40.8143C1.83894 40.4467 2.13778 39.9698 2.88906 39.8521C3.18551 39.8094 3.49354 39.8403 3.68875 39.703C3.88396 39.5657 4.06327 39.4026 4.267 39.2722C4.51873 39.1164 4.69672 38.9653 4.59816 38.8408C4.43513 38.6192 4.14681 38.5722 3.80504 38.6103C3.50966 38.641 3.20099 38.616 2.89868 38.6219C2.35806 38.634 1.93706 38.4349 1.89722 38.1653C1.78724 37.4542 1.6676 36.7482 1.57574 36.039C1.56513 35.9534 1.61998 35.8503 1.69892 35.7858C1.97521 35.56 2.26867 35.3481 2.55349 35.1292C2.88685 34.8791 3.37151 34.982 3.79324 34.9701C4.38932 34.9514 4.38859 34.9573 5.22857 34.4623C5.5571 34.2659 6.08381 34.4094 6.41925 34.2378C6.52485 34.182 6.68858 34.0898 6.66675 34.0273C6.63747 33.9459 6.46167 33.8679 6.32894 33.8184C6.20527 33.7697 6.05284 33.7364 5.91528 33.7407C4.25023 33.7486 2.59322 33.7694 0.928703 33.7713C0.645063 33.773 0.348705 33.6105 0.265637 33.4151C0.181497 33.2316 0.227375 33.0249 0.226948 32.8257C0.511771 32.6069 0.831121 32.4096 1.0813 32.1692C1.27174 31.9831 1.47921 31.9134 1.82468 31.936C2.27945 31.9636 2.73002 31.9364 3.24239 31.9335C4.26326 31.1549 5.2697 30.3326 6.36309 29.5612C6.80258 29.2492 6.73522 28.8803 6.85058 28.5117C6.96326 28.173 7.56563 28.2878 7.98259 28.2271C8.31637 28.1761 8.44215 27.9956 8.32707 27.8513C8.26153 27.7662 8.10653 27.6601 7.97965 27.6474C7.68056 27.6174 7.37666 27.6412 7.07489 27.6411C6.77313 27.641 6.43035 27.5885 6.17653 27.6656C5.9323 27.7377 5.75991 27.9255 5.59028 28.0835C5.40092 28.2576 5.16859 28.3007 4.82312 28.2781C4.37795 28.2455 3.92906 28.2547 3.48121 28.252C3.01272 27.9696 2.52545 27.6915 2.07616 27.3989C1.98982 27.342 1.98393 27.2026 2.00103 27.1138C2.04008 26.8824 1.91704 26.7251 1.62815 26.5815C1.38296 26.4603 1.18683 26.3018 0.961911 26.1586C1.15766 26.0153 1.37107 25.8798 1.53163 25.7209C1.88156 25.3878 2.30398 25.1648 2.9917 25.2459C3.28452 25.0399 3.52772 24.7746 3.89566 24.6486C4.24495 24.5267 4.80201 24.7395 5.08742 24.4121C5.22986 24.2514 5.43799 24.0731 5.68914 24.0259C6.08904 23.9514 6.5912 24.0622 6.84782 23.75C7.00093 23.5722 7.2158 23.4187 7.48292 23.3973C7.78683 23.3735 8.09597 23.3925 8.32368 23.3006C8.44686 23.2527 8.58235 23.1697 8.58985 23.086C8.59468 23.0321 8.42107 22.9302 8.2974 22.8816C8.18334 22.8279 8.03177 22.7825 7.89475 22.7808C7.43837 22.7712 6.98839 22.7924 6.53201 22.7828C6.40405 22.7821 6.26284 22.7257 6.13011 22.6761C5.73991 22.5404 5.77777 22.4235 6.11429 22.2401C6.45028 22.0625 6.70112 21.8161 6.98594 21.5973C7.27972 21.5845 7.64058 21.6388 7.85016 21.5452C8.20213 21.3934 8.46184 21.1479 8.75466 20.942C9.05696 20.9361 9.36616 20.9551 9.65302 20.9175C9.77298 20.9054 9.83921 20.7793 9.94588 20.7115C10.1405 20.5802 10.3141 20.3803 10.5652 20.3331C10.9736 20.2655 11.4593 20.3565 11.7244 20.0511C11.8775 19.8734 12.1041 19.691 12.359 19.7045C13.068 19.7515 13.3966 19.4525 13.7871 19.1779C14.0799 18.9719 14.6492 19.1498 14.9692 18.9465C15.182 18.817 15.3437 18.6461 15.556 18.5226C15.6429 18.471 15.8177 18.4584 15.9553 18.4541C16.7065 18.439 17.4646 18.4486 18.2164 18.4275C18.3358 18.4214 18.4527 18.3427 18.5498 18.28C18.7541 18.1436 18.8911 17.9401 19.1358 17.862C19.3806 17.784 19.7159 17.8177 20.0086 17.8169C20.9501 17.8208 21.0206 17.852 21.4921 17.3864C21.8735 17.0082 22.6902 17.3859 23.012 16.9596C23.1987 16.7128 23.517 16.5275 24.0544 16.5512C24.8104 16.5849 25.5637 16.5458 26.3229 16.5435C27 16.5391 26.991 16.5381 27.7659 16.0547C28.1147 15.8362 28.592 15.9204 29.0222 15.9153C29.4797 15.9129 29.903 15.883 30.1473 15.6058C30.3911 15.3345 30.7984 15.2788 31.2644 15.2833C31.6941 15.2842 32.1719 15.3624 32.5287 15.1568C33.3958 14.6645 33.3873 14.6575 33.9637 14.655C34.8695 14.6494 35.7753 14.6437 36.6817 14.6321C37.2858 14.6263 37.9122 14.6772 38.4859 14.602C38.9023 14.5472 39.1136 14.2305 39.3973 14.0236C40.1485 14.0084 40.8997 13.9933 41.6504 13.9841C42.7034 13.9691 43.7644 13.967 44.8259 13.9589C45.2994 13.7771 45.4081 13.281 46.1715 13.3335C46.6257 13.367 47.0768 13.3339 47.5342 13.3315C48.294 13.3233 49.0468 13.2902 49.8028 13.3238C50.3765 13.3512 50.505 13.0382 50.8223 12.8648C50.9284 12.8031 51.0283 12.7105 51.1477 12.7044C52.3409 12.6552 53.5585 12.7412 54.7315 12.6115C54.8515 12.5994 54.9715 12.4847 55.0068 12.3977C55.0292 12.3517 54.8832 12.2465 54.7872 12.1947C54.6737 12.135 54.524 12.0717 54.396 12.0709C50.617 12.096 46.8375 12.127 43.0585 12.1521C42.5275 12.1592 42.528 12.1531 41.1911 12.6828C41.0775 12.7257 40.9451 12.7728 40.8076 12.7771C40.203 12.7888 39.592 12.7698 38.9948 12.8004C38.5081 12.8239 38.1159 12.7121 37.7908 12.4622C37.56 12.2821 37.3104 12.2088 37.0012 12.1899C36.6552 12.1733 36.4228 12.2163 36.2089 12.3578C35.9263 12.5527 35.7645 12.8261 35.2063 12.8305C32.6365 12.8321 30.0639 12.8635 27.5015 12.884C27.1555 12.7648 26.9946 12.6219 27.0987 12.4815C27.1611 12.3972 27.2806 12.2885 27.3904 12.2875C28.444 12.2665 29.5049 12.2643 30.5579 12.2493C30.7045 12.2459 30.9028 12.2778 30.9898 12.2262C31.4127 11.9971 31.597 11.5751 32.3519 11.6206C32.7886 11.6464 33.2406 11.6012 33.6651 11.5593C33.785 11.5472 33.9051 11.4326 33.9403 11.3456C33.9537 11.2986 33.8167 11.1943 33.7117 11.1415C33.3285 10.9281 32.8475 11.0911 32.4595 10.9314C32.3273 10.8759 32.1422 10.797 32.1215 10.7225C32.1092 10.6549 32.273 10.5627 32.3876 10.5078C32.4927 10.458 32.6334 10.4178 32.771 10.4135C33.9796 10.396 35.189 10.3725 36.395 10.3849C36.8882 10.3922 37.2459 10.2772 37.4881 10.0239C37.6695 9.83693 37.8785 9.74931 38.1893 9.75033C40.3028 9.73915 42.4183 9.70404 44.5392 9.71171C45.0691 9.71662 45.3588 9.54657 45.5994 9.31121C45.7899 9.12514 45.9957 9.07337 46.3343 9.07114C49.3621 9.0612 52.3749 9.01356 55.4016 9.01559C55.9593 9.01725 56.1456 8.77643 56.4464 8.58333C56.553 8.51558 56.6249 8.42624 56.7561 8.39112C56.8873 8.35601 57.0499 8.37831 57.205 8.38181C59.6207 8.36476 62.0382 8.32983 64.4614 8.33164C65.0282 8.3342 65.1636 8.04601 65.4724 7.86578C65.578 7.80999 65.6783 7.71147 65.7978 7.70535C67.6105 7.6821 69.4221 7.6708 71.2343 7.65353C72.4425 7.64201 73.6506 7.63048 74.8582 7.62494C75.4527 7.62426 75.4532 7.61824 76.3017 7.13009C76.3983 7.07339 76.5322 7.00837 76.6517 7.00225C80.13 6.96512 83.5975 6.94507 87.0753 6.91391C87.368 6.91311 87.5888 6.7964 87.7521 6.60759C87.9153 6.41879 88.1363 6.30217 88.4199 6.30046C91.1385 6.27156 93.8565 6.24865 96.5825 6.23861C97.0762 6.23988 97.4334 6.13088 97.675 5.88356C97.8564 5.69657 98.0654 5.60896 98.3763 5.60998C101.094 5.59304 103.813 5.55813 106.539 5.55406C107.06 5.55208 107.332 5.37421 107.607 5.16043C107.705 5.0858 107.79 4.9555 107.9 4.95446C109.256 4.92161 110.604 4.88186 111.965 4.90375C112.531 4.91229 112.744 4.68018 112.992 4.46368C113.19 4.29048 113.405 4.24563 113.751 4.25627C114.508 4.27794 115.261 4.25089 116.004 4.22289C116.114 4.21586 116.262 4.09791 116.279 4.01509C116.311 3.8614 116.112 3.73279 115.772 3.6444C112.148 3.67296 108.515 3.7006 104.892 3.72917C104.297 3.73584 104.297 3.73587 103.448 4.22403C103.351 4.28072 103.217 4.34574 103.089 4.35095C99.6112 4.38211 96.1431 4.40821 92.6653 4.43936C92.3726 4.44016 92.1519 4.55681 91.9886 4.74561C91.8254 4.93441 91.6044 5.05104 91.3208 5.05274C87.9986 5.08142 84.6761 5.11611 81.3465 5.12593C80.8528 5.12466 80.4962 5.22761 80.254 5.48091C80.0726 5.66789 79.8636 5.75558 79.5527 5.75456C76.3778 5.77387 73.2101 5.81198 70.0272 5.81841C69.7073 5.81648 69.4874 5.61939 69.52 5.45972C69.5365 5.3769 69.6846 5.25302 69.7945 5.25197C71.4526 5.21924 73.1024 5.1796 74.7653 5.19562C75.3224 5.20326 75.509 4.95644 75.8098 4.76334C75.9074 4.69468 75.9891 4.60029 76.1107 4.57024C76.2418 4.53513 76.4044 4.5575 76.5596 4.561C80.4858 4.52657 84.4126 4.48618 88.3457 4.47658C88.913 4.47316 89.0478 4.19095 89.3566 4.01072C89.4628 3.94895 89.5631 3.85043 89.682 3.85029C90.8912 3.82681 92.0988 3.82125 93.3064 3.81572C95.4204 3.79856 97.5343 3.78138 99.6573 3.76513C100.27 3.76028 100.271 3.76025 101.1 3.27626C101.197 3.21956 101.331 3.14863 101.45 3.1485C107.042 3.10018 112.634 3.05185 118.225 3.00951C118.518 3.00871 118.739 2.89207 118.902 2.70327C119.065 2.52045 119.286 2.39781 119.57 2.39012C127.129 2.32803 134.679 2.265 142.237 2.21486C142.731 2.21015 143.087 2.1191 143.33 1.85982C143.502 1.67192 143.72 1.58521 144.032 1.58025C152.341 1.51499 160.65 1.44974 168.969 1.37941C174.56 1.33707 180.153 1.28278 185.743 1.2524C186.255 1.24951 186.544 1.09134 186.819 0.871585C186.908 0.796037 187.002 0.666654 187.112 0.665607C188.313 0.635239 189.512 0.616849 190.712 0.598443C191.069 0.797225 191.427 0.990054 191.784 1.18884C192.085 0.989754 192.378 0.783781 192.679 0.584698C194.49 0.591348 196.281 0.499564 198.101 0.597749C198.219 0.603593 198.336 0.729977 198.458 0.802523C199.267 1.26392 199.75 1.28223 200.329 0.833482C200.536 0.673152 200.713 0.528035 201.006 0.527237C201.913 0.509628 202.826 0.52883 203.726 0.492368C204.212 0.474786 204.605 0.574591 204.93 0.824474C205.161 1.00454 205.409 1.09585 205.711 1.08998C207.377 1.07609 209.033 1.06726 210.699 1.04141C210.818 1.04127 210.936 0.950462 211.033 0.887785C211.237 0.751379 211.416 0.600328 211.611 0.457031C211.847 0.583269 212.112 0.688326 212.299 0.839921C212.539 1.0209 212.775 1.0445 213.123 1.0372C219.768 0.973865 226.42 0.929393 233.065 0.860074C233.633 0.856659 233.855 1.13245 234.224 1.30224C234.346 1.36282 234.468 1.43533 234.603 1.46094C234.747 1.48745 234.904 1.46706 235.05 1.46367C240.038 1.42111 245.025 1.3845 250.013 1.34194C250.672 1.33565 250.672 1.33566 251.609 1.80381C251.722 1.86349 251.871 1.93278 252 1.92757C254.268 1.91989 256.539 1.89429 258.799 1.87972C259.091 1.87892 259.328 1.99917 259.578 2.16311C260.07 2.4841 260.107 2.48775 260.523 2.1312C260.72 1.96398 260.921 1.86939 261.225 1.84557C261.557 1.81851 261.818 1.86291 262.062 1.99604C262.411 2.18195 262.652 2.4595 263.21 2.44919C265.628 2.40822 268.051 2.41601 270.46 2.36815C271.01 2.35693 271.282 2.58939 271.631 2.7753C271.753 2.84187 271.863 2.93742 271.997 2.96901C272.132 3.0006 272.299 2.97506 272.445 2.97167C275.465 2.94886 278.493 2.933 281.506 2.88535C282.074 2.87596 282.296 3.15766 282.665 3.32745C282.787 3.38803 282.925 3.48635 283.043 3.48622C284.855 3.48091 286.676 3.4645 288.488 3.44723C289.138 3.44004 289.137 3.446 290.084 3.90908C290.197 3.96876 290.347 4.03209 290.475 4.03287C292.588 4.02169 294.711 4.00542 296.825 3.98826C297.475 3.98107 297.475 3.98109 299.305 4.47857C299.439 4.51614 299.581 4.56662 299.718 4.5683C302.134 4.55125 304.558 4.54105 306.975 4.50606C307.46 4.50044 307.855 4.5883 308.18 4.83819C308.411 5.01825 308.659 5.10954 308.961 5.10367C311.679 5.08075 314.405 5.07073 317.116 5.02895C317.638 5.02099 317.961 5.18616 318.308 5.396C318.421 5.46763 318.531 5.56322 318.665 5.60079C318.799 5.63836 318.955 5.62988 319.101 5.62649C321.819 5.60357 324.545 5.59951 327.256 5.55175C327.806 5.54054 328.078 5.77299 328.427 5.95891C328.549 6.02547 328.675 6.14677 328.784 6.15171C329.845 6.15554 330.904 6.17137 331.96 6.12645C332.529 6.09911 332.749 6.39875 333.118 6.56854C333.241 6.62314 333.378 6.72745 333.497 6.72731C335.766 6.71963 338.035 6.70002 340.297 6.67349C340.617 6.66944 340.848 6.74686 341.087 6.92783C341.404 7.17083 341.786 7.29368 342.282 7.27701C343.336 7.24405 344.396 7.25389 345.458 7.24577C346.08 7.24183 346.08 7.24185 347.937 7.74206C348.071 7.77963 348.213 7.83004 348.35 7.83172C350.161 7.82043 351.981 7.81603 353.786 7.78589C354.271 7.77429 354.665 7.86813 354.991 8.11802C355.221 8.29808 355.46 8.38846 355.771 8.3835C357.437 8.36961 359.094 8.35482 360.759 8.34094C361.363 8.33518 361.972 8.28154 362.57 8.34158C363.004 8.39122 363.296 8.71014 363.673 8.89279C363.778 8.94558 363.963 8.91597 364.109 8.91857C366.223 8.9014 368.345 8.90307 370.452 8.85509C371.002 8.84387 371.274 9.07633 371.623 9.26224C371.745 9.32881 371.871 9.45011 371.98 9.45504C372.739 9.46475 373.49 9.44961 374.249 9.44735C375.155 9.44171 376.068 9.46089 376.968 9.41845C377.702 9.38356 377.927 9.93118 378.506 10.0073C378.948 10.0699 379.411 10.0137 379.859 10.0104C380.765 10.0047 381.672 9.98715 382.577 9.99346C382.896 9.99539 383.15 9.92423 383.269 9.71892C383.291 9.67887 383.145 9.57373 383.05 9.5099C381.899 8.77885 381.899 8.7788 380.673 8.7885C379.913 8.79674 379.162 8.8059 378.404 8.80218C378.276 8.80141 378.135 8.73901 378.011 8.69039C377.658 8.55233 377.705 8.43636 378.032 8.25197C378.36 8.06757 378.619 7.82807 378.904 7.60922C379.261 7.80203 379.61 7.99388 379.968 8.18668C380.27 8.18679 380.572 8.18098 380.874 8.18109C382.383 8.17566 383.893 8.16424 385.401 8.17078C385.511 8.16974 385.636 8.30301 385.758 8.37556C386.105 8.58539 386.418 8.76763 386.949 8.7546C388.306 8.71577 389.668 8.72569 391.022 8.71078C391.617 8.70412 391.618 8.70413 392.617 9.17865C392.732 9.23234 392.881 9.29565 393.009 9.29642C394.372 9.29439 395.727 9.2795 397.09 9.27148C397.383 9.27068 397.657 9.37664 397.85 9.57101C397.925 9.65097 397.896 9.76875 398.152 10.7842C399.15 11.687 399.892 11.677 400.642 11.6798C400.962 11.6818 401.245 11.68 401.464 11.5813C401.579 11.5264 401.724 11.4444 401.731 11.3666C401.736 11.3068 401.545 11.1911 401.419 11.1664C400.533 10.9567 399.658 11.1224 398.774 11.088C398.364 11.071 398.03 10.8262 397.988 10.478C397.978 10.3805 397.96 10.2761 397.941 10.1777C397.923 10.0793 397.914 9.97578 397.895 9.87735C397.545 9.81197 397.326 9.89869 397.154 10.0866C397.012 10.2413 396.814 10.4145 396.561 10.4797C396.308 10.5508 395.974 10.4992 395.672 10.4991C395.38 10.4999 395.055 10.5458 394.787 10.4767C394.52 10.4015 394.318 10.2062 394.074 10.0731C393.961 10.0074 393.823 9.91518 393.704 9.91531C392.652 9.91239 391.61 9.91034 390.565 9.93823C390.015 9.95542 389.765 9.67697 389.435 9.48689C389.174 9.33998 388.899 9.34255 388.829 9.61313C388.652 10.2592 389.045 10.5762 389.98 10.5434C390.751 10.5121 391.442 10.5634 392.003 11.0301C392.08 11.0921 392.268 11.1351 392.387 11.135C393.137 11.1378 393.879 11.1218 394.628 11.1246C394.765 11.1263 394.909 11.1647 395.033 11.2014C396.853 11.7099 396.853 11.7159 397.484 11.7069C397.787 11.701 398.079 11.7002 398.134 10.7884C398.792 9.87076 399.704 9.89595 400.596 9.84064C401.175 9.80823 401.396 10.096 401.756 10.2708C401.878 10.3314 402.006 10.4407 402.125 10.4406C404.091 10.4388 406.049 10.4241 408.008 10.3974C408.338 10.3943 408.57 10.4538 408.81 10.6348C409.119 10.8649 409.47 11.0269 409.993 11.007C411.039 10.9672 412.098 10.983 413.161 10.9689C413.701 10.9627 413.701 10.9627 414.746 11.4417C414.86 11.4954 415.01 11.5587 415.138 11.5595C416.198 11.5633 417.252 11.5424 418.304 11.5393C418.596 11.5385 418.852 11.6486 419.064 11.8329C419.276 12.0171 419.54 12.1281 419.824 12.1264C420.885 12.1243 421.938 12.1093 422.99 12.1062C423.118 12.107 423.268 12.1643 423.382 12.218C424.455 12.6998 424.455 12.6998 424.967 12.6909C425.719 12.6758 426.484 12.7103 427.229 12.6644C427.955 12.6166 428.296 13.0008 428.768 13.2413C430.122 13.2384 431.482 13.2603 432.83 13.2265C433.38 13.2093 433.652 13.4358 434.001 13.6277C434.123 13.6942 434.239 13.8206 434.358 13.8265C434.813 13.848 435.263 13.8268 435.712 13.8236C436.16 13.8203 436.617 13.8179 437.066 13.8146C437.558 14.039 437.857 14.4794 438.594 14.4146C439.037 14.3745 439.5 14.403 439.949 14.3997C440.397 14.3964 440.855 14.394 441.303 14.3908C441.605 14.3909 441.915 14.4038 442.209 14.3791C442.752 14.3431 442.989 14.6626 443.358 14.8323C443.481 14.8869 443.619 14.9732 443.738 14.9731C444.643 14.9794 445.556 14.9986 446.447 14.9492C447.136 14.9098 447.583 15.1357 448.04 15.4351C448.135 15.4989 448.305 15.5461 448.433 15.5469C449.493 15.5507 450.547 15.5297 451.599 15.5266C451.882 15.5249 452.146 15.6479 452.358 15.8261C452.579 16.0113 452.835 16.1155 453.128 16.1147C454.18 16.1116 455.242 16.0975 456.294 16.0944C456.422 16.0952 456.572 16.1585 456.685 16.2182C457.667 16.6909 457.667 16.6969 458.271 16.6851C458.418 16.6817 458.573 16.6852 458.72 16.6818C459.47 16.6727 460.243 16.7201 460.981 16.6493C461.829 16.5715 462.418 16.8358 462.977 17.2359C463.727 17.2387 464.492 17.2732 465.227 17.2264C465.779 17.1912 466.049 17.4476 466.398 17.6335C466.52 17.7001 466.646 17.8214 466.756 17.8203C467.817 17.8242 468.876 17.84 469.923 17.7942C470.492 17.7668 470.713 18.0605 471.081 18.2363C471.203 18.2968 471.332 18.3943 471.451 18.3941C472.053 18.4063 472.658 18.3946 473.262 18.3888C473.967 18.3811 473.966 18.387 474.858 18.8447C475.277 19.0618 475.725 18.9679 476.155 18.9688C476.612 18.9664 477.041 18.9733 477.382 19.2549C477.594 19.4331 477.858 19.5561 478.141 19.5604C478.744 19.5666 479.356 19.5737 479.953 19.5431C480.431 19.5187 480.834 19.6074 481.159 19.8633C481.39 20.0433 481.636 20.1466 481.939 20.1407C483.293 20.1318 484.657 20.1178 486.01 20.1148C486.129 20.1147 486.288 20.1849 486.391 20.2496C486.636 20.3828 486.87 20.5269 487.104 20.6711C487.698 20.6764 488.307 20.7135 488.894 20.688C489.518 20.6661 490.083 20.6926 490.534 21.0697C490.627 21.1515 490.763 21.2677 490.881 21.2735C491.336 21.2951 491.786 21.2799 492.234 21.2766C492.683 21.2733 493.14 21.2709 493.589 21.2677C494.092 21.469 494.38 21.9324 495.117 21.8676C495.559 21.8276 496.023 21.856 496.472 21.8527C496.92 21.8495 497.378 21.8411 497.826 21.8438C497.972 21.8464 498.138 21.8329 498.263 21.8695C498.396 21.9071 498.507 22.0026 498.619 22.0743C498.966 22.2841 499.286 22.4913 499.812 22.4414C500.254 22.4014 500.718 22.4298 501.167 22.4205C501.78 22.4157 501.78 22.4157 502.752 22.8935C503.146 23.0899 503.626 22.9329 504.004 23.1036C504.259 23.2197 504.472 23.392 504.717 23.5191C504.822 23.5719 504.993 23.6071 505.121 23.6079C505.724 23.6141 506.336 23.6212 506.933 23.5906C507.42 23.5671 507.812 23.6789 508.128 23.9278C508.359 24.1079 508.597 24.1983 508.909 24.1933C510.419 24.1759 511.928 24.1824 513.431 24.1462C513.944 24.1313 514.343 24.274 514.604 24.5175C515.051 24.9365 515.77 24.5681 516.242 24.9172C516.534 25.1335 516.823 25.3798 517.392 25.3465C518.44 25.2947 519.498 25.3164 520.55 25.3133C520.907 25.5121 521.265 25.7109 521.631 25.9106C522.235 25.9049 522.839 25.8991 523.442 25.8993C523.891 25.896 524.349 25.8877 524.797 25.8904C524.943 25.893 525.099 25.8845 525.232 25.9281C525.365 25.9716 525.467 26.0603 525.589 26.1329C526.188 26.4887 526.187 26.4947 527.231 26.4788C527.68 26.4695 528.109 26.4764 528.459 26.7529C528.784 27.0088 529.188 27.0915 529.665 27.073C530.564 27.0426 531.47 27.0429 532.383 27.0501C532.667 27.0484 532.921 27.1765 533.142 27.3556C533.474 27.6363 533.911 27.6561 534.361 27.6349C534.958 27.6103 535.545 27.5847 536.014 27.9697C536.107 28.0515 536.252 28.1686 536.361 28.1735C537.109 28.2003 537.864 28.2399 538.599 28.199C539.335 28.1582 539.655 28.5644 540.137 28.7939C540.887 28.7907 541.646 28.7885 542.397 28.7853C542.543 28.7819 542.72 28.7454 542.844 28.788C543.368 28.9673 543.636 29.4468 544.382 29.3829C544.815 29.3479 545.28 29.3704 545.725 29.397C545.844 29.4029 545.989 29.52 546.063 29.6059C546.105 29.6523 546.049 29.7614 545.99 29.8158C545.811 29.9669 545.598 30.1024 545.438 30.2613C545.417 30.2834 545.58 30.4083 545.675 30.4662C545.91 30.5984 546.193 30.6087 546.523 30.5936C546.808 30.5799 547.091 30.6927 547.274 30.8922C547.349 30.9721 547.311 31.089 547.103 31.4665C547.077 31.7596 547.279 31.647 547.36 31.462C547.484 31.1969 547.302 31.0881 546.926 31.2012C546.663 31.2834 546.522 31.4262 546.574 31.5582C546.604 31.6276 546.769 31.7286 547.103 31.4665C547.933 31.1877 548.537 31.182 549.141 31.1762C549.297 31.1737 549.484 31.1321 549.589 31.1789C549.966 31.3615 550.313 31.5714 550.679 31.7711C551.118 31.7788 551.533 31.73 551.938 32.006C552.507 32.395 552.537 32.3679 553.123 32.3603C553.425 32.3544 553.727 32.3546 554.029 32.3547C554.331 32.3548 554.558 32.4681 554.809 32.6321C555.318 32.9668 555.363 32.9714 555.751 32.6241C555.981 32.4117 556.133 32.3485 556.386 32.4826C557.223 32.9347 557.23 32.9596 557.983 32.9265C558.607 32.8986 559.189 32.9329 559.612 33.3193C559.899 33.5895 560.003 33.5457 560.27 33.319C560.982 32.7206 561.28 32.7626 562.461 33.3638C563.012 33.6484 563.623 33.4624 564.206 33.4907C564.697 33.5159 565.029 33.694 565.031 34.0744C565.037 34.3104 565.104 34.4861 565.423 34.5966C565.547 34.6392 565.698 34.6965 565.826 34.6973C566.584 34.701 567.335 34.6919 568.095 34.6836C568.479 34.68 568.713 34.4198 568.674 34.0417C568.628 33.6388 568.785 33.5097 569.339 33.4507C569.671 33.4176 569.933 33.456 570.187 33.5901C570.466 33.7388 570.375 33.8383 570.102 34.0281C569.447 34.4935 569.491 34.8237 570.237 35.2668C570.498 35.4197 570.705 35.5552 570.752 35.747C570.78 35.8463 570.732 35.9683 570.807 36.0482C571.215 36.4935 571.809 36.8126 572.48 37.0731C573.156 36.978 573.585 37.2926 574.074 37.5588C574.457 37.7663 574.942 37.6701 575.373 37.6531C575.859 37.6355 576.254 37.7233 576.578 37.9792C576.809 38.1593 577.056 38.2565 577.358 38.2566C577.962 38.2508 578.573 38.2699 579.171 38.2334C579.686 38.2006 580.056 38.3584 580.355 38.5936C580.73 38.8908 581.19 38.7619 581.604 38.8396C582.162 38.9379 582.395 39.4984 583.142 39.4285C583.585 39.3885 584.041 39.404 584.496 39.4256C584.614 39.4314 584.75 39.5477 584.843 39.6295C585.294 40.0066 585.858 40.0451 586.483 40.0112C586.915 39.9882 587.337 39.9702 587.733 40.2394C588.388 40.6913 589.119 41.1027 589.813 41.5283C589.888 41.8134 589.786 42.1291 590.288 42.3424C590.552 42.4534 590.795 42.6046 590.991 42.763C591.23 42.95 591.462 43.0155 591.792 43.0064C592.389 42.9818 593.007 43.0257 593.597 42.9762C594.14 42.9342 594.457 43.1653 594.767 43.3834C595.017 43.5593 595.255 43.6556 595.582 43.5798C595.917 43.5109 596.147 43.6003 596.395 43.7882C596.747 44.0468 596.776 44.0256 598.003 44.2151C598.129 44.2338 598.275 44.3389 598.341 44.424C598.373 44.4695 598.281 44.581 598.212 44.6344C598.124 44.698 597.99 44.769 597.87 44.7751C596.515 44.796 595.152 44.798 593.797 44.8189C593.66 44.8232 593.511 44.8505 593.406 44.9004C593.291 44.9552 593.147 45.0312 593.14 45.115C593.134 45.1748 593.309 45.2648 593.432 45.3194C593.819 45.4969 594.309 45.3349 594.685 45.5296C594.938 45.6576 595.143 45.8229 595.397 45.945C595.502 45.9978 595.675 46.0091 595.812 46.0108C596.269 46.0144 596.718 45.9992 597.175 46.0088C597.302 46.0155 597.442 46.0899 597.555 46.1496C598.393 46.5958 598.393 46.5958 599.152 46.5935C599.454 46.5936 599.779 46.5357 600.057 46.5998C600.326 46.663 600.547 46.8482 600.783 46.9744C601.271 47.2406 601.732 47.4982 601.727 47.9683C601.729 48.1496 602.014 48.3351 602.312 48.3771C602.601 48.4181 602.915 48.3833 603.217 48.3774C603.93 48.3766 603.93 48.3766 604.813 48.8333C605.058 48.9605 605.329 48.9997 605.66 48.9726C605.789 48.9615 605.941 49.0009 606.075 49.0444C606.511 49.1787 606.5 49.2923 606.191 49.4785C605.755 49.7546 605.788 49.7882 606.906 50.1719C607.332 50.3173 607.65 50.5423 607.998 50.7462C608.563 51.0744 608.554 51.0735 608.132 51.3873C608.035 51.4559 607.946 51.5315 607.848 51.6061C607.564 51.813 607.333 52.0433 606.787 52.0126C606.186 51.9765 605.58 52.0122 604.976 52.018C604.39 52.0255 604.223 52.1536 604.241 52.5657C604.26 53.0626 604.373 53.1282 605.416 53.2269C605.715 53.2569 605.974 53.3311 606.186 53.5153C606.06 53.6958 605.847 53.8253 605.554 53.8321C604.802 53.8472 604.043 53.8495 603.293 53.8527C602.689 53.8584 602.085 53.8642 601.481 53.8699C601.106 53.8745 600.842 54.1619 600.911 54.5188C600.947 54.7216 600.975 54.9235 601.002 55.1255C601.067 55.5302 601.248 55.651 601.857 55.694C602.011 55.7035 602.161 55.6702 602.305 55.6967C602.89 55.7977 603.126 56.3223 603.842 56.2915C604.439 56.2669 605.057 56.3109 605.647 56.2614C606.19 56.2194 606.47 56.4648 606.827 56.6636C606.949 56.7301 607.075 56.8574 607.184 56.8623C607.942 56.872 608.7 56.8818 609.445 56.8418C609.793 56.8285 609.999 56.8853 610.258 57.0561C610.879 57.4685 610.899 57.4524 611.878 57.4421C612.593 57.4293 612.601 57.4422 613.474 57.898C613.719 58.0251 613.991 58.0524 614.321 58.0373C614.753 58.0202 615.205 57.9691 615.641 58.1034C615.775 58.1409 615.941 58.23 615.979 58.3123C616.002 58.3689 615.863 58.4877 615.751 58.5187C614.925 58.7497 613.996 58.6021 613.115 58.6404C612.84 58.649 612.578 58.5081 612.366 58.3238C612.145 58.1387 611.897 58.0475 611.586 58.0465C610.982 58.0522 610.371 58.0331 609.774 58.0697C609.258 58.1025 608.917 57.9294 608.58 57.7085C608.468 57.6369 608.342 57.5096 608.224 57.5038C606.872 57.4888 605.511 57.4729 604.164 57.5067C603.622 57.5248 603.331 57.3025 602.983 57.1046C602.861 57.038 602.745 56.9116 602.626 56.9058C602.171 56.8842 601.721 56.9055 601.263 56.9078C599.598 56.9217 597.941 56.9365 596.277 56.9384C596.167 56.9395 596.042 56.8002 595.92 56.7336C595.685 56.6014 595.44 56.4743 595.196 56.3471C594.738 56.3495 594.289 56.3647 593.832 56.3551C593.504 56.3463 593.207 56.401 593.141 56.6237C593.1 56.7705 593.387 56.9381 593.705 56.9579C594.015 56.9769 594.329 56.936 594.576 57.0393C595.801 57.5485 595.801 57.5545 596.596 57.5559C597.292 57.5532 597.224 57.4861 597.802 57.876C598.052 58.0459 598.28 58.1534 598.583 58.1475C599.333 58.1383 600.093 58.1301 600.852 58.1338C600.971 58.1337 601.119 58.209 601.233 58.2686C602.089 58.7166 602.088 58.7286 602.83 58.7125C603.8 58.7013 603.839 58.675 604.45 59.1045C604.872 59.4002 605.295 59.2677 605.722 59.2985C606.19 59.5809 606.706 59.8439 607.127 60.1517C607.625 60.5154 608.182 60.517 608.789 60.4873C609.239 60.4661 609.676 60.4859 610.016 60.7675C610.34 61.0293 610.755 61.0951 611.232 61.0826C611.662 61.0715 612.108 61.0015 612.54 61.1777C612.655 61.2254 612.828 61.3333 612.814 61.3862C612.797 61.4691 612.669 61.5769 612.548 61.6009C611.692 61.7625 610.777 61.6646 609.888 61.69C609.768 61.6961 609.62 61.6149 609.507 61.5552C609.263 61.4221 609.029 61.2719 608.795 61.1337C608.347 61.125 607.893 61.0915 607.452 61.1196C607.112 61.1398 606.858 61.1084 606.626 60.9403C606.411 60.7859 606.181 60.5999 605.913 60.5307C605.645 60.4616 605.32 60.5195 605.018 60.5253C604.715 60.5312 604.372 60.4787 604.128 60.5507C603.884 60.6228 603.72 60.8176 603.551 60.9696C603.362 61.1377 603.121 61.1739 602.775 61.1573C602.456 61.1434 602.205 61.094 601.984 60.9028C601.891 60.8211 601.76 60.7536 601.628 60.6921C601.505 60.6375 601.366 60.5571 601.247 60.5572C599.884 60.5593 598.53 60.5742 597.166 60.5822C596.489 60.5867 596.498 60.5876 595.134 60.0946C595.01 60.052 594.86 59.9946 594.732 59.9939C593.973 59.9902 593.222 59.9993 592.463 60.0076C591.694 60.0149 591.704 60.0038 590.442 59.4969C590.212 59.4015 589.859 59.4627 589.58 59.4225C588.993 59.3335 588.748 58.802 588.051 58.8285C587.454 58.8532 586.836 58.8092 586.237 58.8577C585.694 58.8998 585.405 58.6595 585.057 58.4617C584.935 58.3951 584.809 58.2618 584.7 58.2629C583.337 58.2589 581.983 58.2738 580.186 58.1117C579.742 58.0671 579.931 58.2127 580.217 58.2837C580.628 58.3913 580.775 58.2794 580.57 58.0174C580.422 57.8336 580.194 57.7261 580 57.7489C579.898 57.7628 579.761 57.8637 580.186 58.1117C580.637 58.3862 580.599 58.5091 580.674 58.5891C580.858 58.7825 581.133 58.8825 581.425 58.8877C581.882 58.8913 582.331 58.8761 582.787 58.8857C582.915 58.8864 583.066 58.9438 583.179 59.0034C584.143 59.4743 584.15 59.4992 585.223 59.4621C585.562 59.4538 585.807 59.4784 586.06 59.6184C586.408 59.8103 586.647 60.0998 587.208 60.0716C587.952 60.0316 588.71 60.0414 589.468 60.0511C589.587 60.0509 589.704 60.1713 589.836 60.2328C590.195 60.4137 590.443 60.7101 591.006 60.6519C591.44 60.605 591.904 60.6274 592.359 60.6549C592.477 60.6608 592.65 60.7747 592.697 60.8579C592.794 61.0063 592.643 61.1542 592.325 61.237C592.194 61.2721 592.023 61.2428 591.876 61.2462C591.272 61.252 590.667 61.2637 590.064 61.2575C589.744 61.2555 589.437 61.3153 589.381 61.5329C589.341 61.6797 589.655 61.844 589.964 61.863C590.419 61.8905 590.876 61.8882 591.318 61.8541C592.101 61.7998 592.768 61.903 593.36 62.3426C593.78 62.6503 593.762 62.5519 594.163 63.3767C594.263 63.5859 594.615 63.6394 594.924 63.6583C595.67 63.703 596.006 63.8273 595.926 64.0063C595.824 64.2254 595.555 64.2708 595.217 64.267C594.615 64.2548 594.01 64.2726 593.406 64.2784C593.259 64.2818 593.093 64.3012 592.958 64.2756C592.823 64.25 592.702 64.1655 592.589 64.0999C592.346 63.9608 592.144 63.7655 591.876 63.6963C591.608 63.6271 591.282 63.685 590.98 63.6909C590.678 63.6908 590.353 63.7487 590.085 63.6795C589.817 63.6104 589.606 63.4082 589.371 63.276C589.258 63.2104 589.121 63.112 589.002 63.1062C588.4 63.094 587.795 63.1118 587.191 63.1115C586.45 63.1156 586.45 63.1156 585.595 62.6556C585.351 62.5225 585.088 62.5021 584.748 62.5163C584.014 62.5393 584.007 62.5204 582.715 62.0407C582.591 61.992 582.441 61.9347 582.312 61.9399C580.949 61.9419 579.595 61.9568 578.241 61.9658C577.078 61.9758 577.078 61.9759 576.39 62.5103C575.879 62.9056 575.87 62.9047 576.314 63.1544C576.671 63.3592 576.984 63.6381 577.384 63.7687C577.757 63.8906 578.253 63.6688 578.645 63.9858C578.841 64.1443 579.099 64.3211 579.36 64.3714C579.774 64.4431 580.234 64.3143 580.609 64.6174C580.797 64.769 581.083 64.9367 581.337 64.9681C581.78 65.0247 582.241 64.9744 582.689 64.9771C582.826 64.9788 582.98 64.9942 583.105 65.0369C583.237 65.0864 583.349 65.17 583.461 65.2417C583.805 65.4814 584.187 65.6162 584.667 65.5618C585.452 65.4717 586.134 65.6245 586.698 66.0674C586.774 66.1294 586.973 66.1554 587.102 66.1442C587.434 66.1171 587.715 66.1393 587.95 66.2775C588.045 66.3354 588.183 66.4336 588.16 66.4856C588.124 66.5726 588.005 66.6813 587.884 66.6994C587.014 66.8173 586.097 66.7494 585.208 66.7688C585.089 66.7689 584.951 66.6766 584.838 66.6109C584.594 66.4778 584.393 66.2766 584.124 66.2074C583.856 66.1383 583.532 66.1842 583.23 66.1841C582.929 66.184 582.603 66.2418 582.335 66.1787C582.067 66.1095 581.826 65.9345 581.62 65.7811C581.38 65.6061 581.137 65.5636 580.796 65.5898C580.354 65.6239 579.9 65.5903 579.452 65.5876C579.218 65.4494 578.984 65.2992 578.74 65.1661C578.627 65.1004 578.488 65.0201 578.361 65.0134C577.758 65.0012 577.153 65.0129 576.549 65.0186C575.945 65.0244 575.945 65.0245 574.964 64.5518C574.849 64.4981 574.7 64.4348 574.572 64.434C573.813 64.4303 573.062 64.4453 572.303 64.4416C572.01 64.4424 571.755 64.3323 571.534 64.1472C571.322 63.9629 571.058 63.8459 570.774 63.8476C569.567 63.8532 568.36 63.8527 567.15 63.8822C566.664 63.8938 566.261 63.7991 565.954 63.551C565.596 63.2676 565.164 63.2846 564.716 63.2879C563.699 63.3066 563.691 63.2996 563.074 62.93C562.953 62.8575 562.836 62.7311 562.718 62.7253C561.668 62.7104 560.609 62.6886 559.563 62.7285C559.012 62.7516 558.741 62.5132 558.392 62.3213C558.27 62.2547 558.144 62.1275 558.034 62.1285C557.276 62.1188 556.519 62.1031 555.774 62.1491C555.029 62.195 554.798 61.6106 554.244 61.5611C553.492 61.4916 552.736 61.5545 551.985 61.5637C551.381 61.5695 550.777 61.5752 550.173 61.5809C549.569 61.5867 548.966 61.5805 548.361 61.5982C548.04 61.6082 547.809 61.5307 547.56 61.3548C547.242 61.1238 546.858 60.9283 546.511 60.7125C545.981 60.3999 545.981 60.3998 545.304 60.4043C545.158 60.4077 545.002 60.4041 544.856 60.4075C543.747 60.4291 543.748 60.4171 542.386 59.9002C542.325 59.8759 542.156 59.9254 542.088 59.9668C541.883 60.1033 541.696 60.2534 541.51 60.3976C541.274 60.2774 540.979 60.1935 540.829 60.0396C540.401 59.6044 539.628 60.064 539.191 59.6339C539.032 59.473 538.744 59.3174 538.475 59.2542C538.198 59.1902 537.873 59.2421 537.58 59.2488C536.819 59.2631 536.82 59.2571 536.129 59.7248C535.779 59.9552 535.312 59.8601 534.881 59.8771C534.431 59.8984 534.001 59.8915 533.652 59.609C533.336 59.354 532.933 59.2593 532.447 59.2829C531.849 59.3134 531.237 59.3063 530.634 59.3001C530.507 59.2993 530.355 59.254 530.231 59.2054C528.876 58.7133 528.877 58.7073 528.199 58.7178C527.897 58.7236 527.588 58.7046 527.293 58.7294C526.795 58.7759 526.435 58.6131 526.098 58.3862C525.986 58.3146 525.86 58.1873 525.742 58.1815C525.141 58.1513 524.547 58.146 523.953 58.1407C523.496 58.1371 523.041 58.1156 522.598 58.1557C521.861 58.2204 521.542 57.7962 521.06 57.5667C520.31 57.5699 519.553 57.5482 518.8 57.5813C518.451 57.5946 518.226 57.5539 517.976 57.384C517.657 57.1709 517.367 56.9366 516.815 56.9718C516.079 57.0186 515.314 56.9841 514.565 56.9813C514.083 56.7458 513.754 56.3326 513.026 56.3983C512.583 56.4384 512.12 56.4099 511.671 56.4132C511.067 56.419 510.464 56.4188 509.859 56.4305C509.209 56.4377 509.22 56.4207 508.263 55.9687C507.711 55.702 507.101 55.8761 506.518 55.8538C506.062 55.8382 505.811 56.0906 505.888 56.4544C505.965 56.8182 505.696 57.0688 505.274 57.0748C504.222 57.0838 503.16 57.0979 502.108 57.0949C501.98 57.0942 501.83 57.0369 501.716 56.9832C500.635 56.4945 500.635 56.5005 500.131 56.5043C499.38 56.5194 498.615 56.4908 497.87 56.5308C497.356 56.5576 496.995 56.3948 496.687 56.1587C496.447 55.9777 496.215 55.9181 495.886 55.9213C492.261 55.9618 488.638 55.9724 485.021 56.0258C484.481 56.032 484.189 55.8276 483.841 55.6297C483.719 55.5632 483.611 55.4377 483.484 55.425C483.185 55.3949 482.881 55.4188 482.579 55.4246C481.225 55.4336 479.868 55.4724 478.508 55.4445C477.932 55.435 477.754 55.6947 477.488 55.8974C477.283 56.0518 477.059 56.1017 476.721 56.092C476.393 56.0832 476.16 56.0296 475.92 55.8486C475.612 55.6125 475.252 55.4496 474.737 55.4824C474.139 55.519 473.537 55.5008 472.924 55.5057C472.613 55.5047 472.368 55.5887 472.249 55.794C472.227 55.828 472.41 55.9369 472.514 56.0016C472.86 56.2175 473.186 56.4614 473.582 56.6279C473.988 56.7953 474.454 56.6972 474.892 56.705C475.047 56.7085 475.195 56.6872 475.34 56.7077C475.475 56.7273 475.636 56.7737 475.731 56.8375C476.178 57.1539 476.66 57.3894 477.327 57.2934C477.882 57.4275 478.127 57.9531 478.855 57.8933C479.297 57.8592 479.753 57.8688 480.209 57.8844C480.328 57.8903 480.445 58.0106 480.567 58.0772C480.916 58.2631 481.185 58.5315 481.738 58.4844C482.327 58.4349 482.945 58.4788 483.542 58.4542C483.872 58.4391 484.104 58.5046 484.344 58.6856C484.652 58.9157 485.011 59.1025 485.527 59.0578C485.969 59.0177 486.433 59.0461 486.882 59.0369C487.468 59.0293 487.468 59.0353 488.467 59.5098C488.582 59.5635 488.731 59.6268 488.859 59.6276C489.618 59.6313 490.369 59.6162 491.128 59.6199C491.421 59.6191 491.695 59.725 491.878 59.9185C491.954 59.9985 491.915 60.1154 491.934 60.2198C490.424 60.2312 488.916 60.2187 487.412 60.2669C486.843 60.2882 486.611 60.0175 486.252 59.8427C486.129 59.7821 486.003 59.6668 485.884 59.6669C484.823 59.6631 483.771 59.6661 482.717 59.6931C482.387 59.7022 482.145 59.6537 481.916 59.4557C481.332 58.9324 480.548 59.1072 479.835 59.1021C479.287 59.0953 479.098 59.2635 479.126 59.6646C479.166 60.1393 479.479 60.3156 480.32 60.3156C480.622 60.3157 480.925 60.3038 481.226 60.3099C481.518 60.3151 481.774 60.4192 481.995 60.6043C482.208 60.7886 482.472 60.8996 482.755 60.9039C483.358 60.9101 483.97 60.9172 484.558 60.8857C485.045 60.8621 485.438 60.962 485.754 61.2169C486.103 61.4994 486.543 61.4893 486.983 61.4791C488.009 61.4613 488.017 61.4683 488.625 61.831C488.747 61.9035 488.863 62.0299 488.982 62.0358C490.032 62.0507 491.09 62.0784 492.127 62.0376C492.668 62.0195 492.96 62.2418 493.299 62.4328C493.421 62.4994 493.537 62.6318 493.656 62.6316C494.414 62.6413 495.172 62.651 495.917 62.611C496.266 62.5918 496.471 62.6486 496.739 62.8203C497.378 63.2405 497.397 63.2304 498.359 63.2122C498.652 63.2054 498.976 63.1715 499.243 63.2466C499.511 63.3218 499.713 63.5171 499.957 63.6502C500.07 63.7099 500.209 63.7902 500.337 63.791C500.94 63.8031 501.544 63.7914 502.149 63.7857C502.716 63.7763 502.716 63.7823 503.734 64.2586C504.146 64.4569 504.602 64.3699 505.032 64.3648C505.499 64.3573 505.916 64.3992 506.249 64.6679C506.581 64.9367 507.008 64.9674 507.466 64.965C507.896 64.9599 508.343 64.8721 508.763 65.0772C509.727 65.5481 509.727 65.554 510.349 65.5441C511.256 65.5325 512.152 65.5259 513.067 65.5272C513.186 65.527 513.333 65.6143 513.447 65.674C513.691 65.8071 513.892 66.0083 514.161 66.0775C514.428 66.1526 514.752 66.1127 515.045 66.1059C515.989 66.086 516.056 66.0505 516.646 66.508C517.143 66.8837 517.837 66.4827 518.293 66.9026C518.555 67.1402 518.921 67.3458 519.456 67.2969C519.898 67.2568 520.353 67.2784 520.811 67.276C521.534 67.2701 521.533 67.2762 522.407 67.726C522.521 67.7857 522.67 67.8609 522.789 67.8607C523.391 67.8729 524.002 67.892 524.592 67.8426C525.283 67.7852 525.697 68.0561 526.185 68.3284C526.568 68.5419 527.053 68.4456 527.484 68.4285C527.952 68.4151 528.367 68.4749 528.69 68.7427C529.031 69.0183 529.46 69.0312 529.917 69.0288C530.347 69.0297 530.794 68.9358 531.214 69.1469C532.115 69.6114 532.115 69.6114 532.801 69.6079C533.405 69.6021 534.01 69.5904 534.612 69.6026C534.731 69.6025 534.869 69.6947 534.982 69.7604C535.226 69.8935 535.427 70.0948 535.696 70.164C535.964 70.2331 536.288 70.1872 536.59 70.1873C536.891 70.1874 537.217 70.1295 537.485 70.1927C537.754 70.2559 537.995 70.4309 538.2 70.5843C538.44 70.7653 538.674 70.8069 539.024 70.7816C539.466 70.7475 539.92 70.7751 540.368 70.7778C540.603 70.916 540.846 71.0551 541.071 71.2043C541.304 71.3605 541.568 71.3749 541.907 71.3667C543.034 71.335 543.042 71.3539 543.942 71.8184C544.353 72.0286 544.81 71.9356 545.239 71.9365C545.697 71.9341 546.125 71.953 546.457 72.2277C546.781 72.4895 547.204 72.5621 547.664 72.5359C547.958 72.5171 548.269 72.5182 548.57 72.5303C548.706 72.5379 548.867 72.5782 548.962 72.6361C549.42 72.9355 549.871 73.2101 550.547 73.115C551.123 73.2211 551.369 73.7406 552.076 73.7149C552.672 73.6903 553.29 73.7342 553.88 73.6847C554.423 73.6427 554.789 73.8484 555.042 74.0851C555.498 74.505 556.232 74.0717 556.689 74.4857C556.951 74.7232 557.298 74.9271 557.85 74.8919C558.457 74.8563 558.636 75.0009 558.774 75.395C558.855 75.6203 558.821 75.792 558.625 75.9413C558.428 76.0966 558.231 76.0467 557.959 75.8202C557.643 75.5652 557.248 75.4833 556.764 75.4829C556.288 75.4835 556.026 75.1434 555.647 74.9847C555.268 74.8199 554.788 74.9829 554.394 74.7805C553.467 74.3073 553.467 74.3072 552.808 74.3135C552.36 74.3168 551.896 74.2943 551.453 74.3344C550.927 74.3842 550.609 74.1651 550.27 73.9622C550.149 73.8897 550.032 73.7633 549.922 73.7583C548.872 73.7434 547.813 73.7217 546.767 73.7675C546.216 73.7907 545.945 73.5463 545.596 73.3604C545.474 73.2938 545.348 73.1725 545.238 73.1735C544.333 73.1672 543.435 73.1857 542.529 73.1974C542.342 73.3416 542.138 73.4779 541.959 73.635C541.771 73.7972 541.529 73.8513 541.185 73.8108C540.614 73.7535 540.029 73.9483 539.487 73.574C538.927 73.1919 538.88 73.2053 538.302 73.2257C537.568 73.2546 536.799 73.1534 536.099 73.3184C535.977 73.3485 535.84 73.4493 535.832 73.5331C535.819 73.586 536.002 73.6829 536.116 73.7425C536.501 73.9261 536.982 73.7632 537.368 73.9527C537.622 74.0748 537.827 74.2401 538.08 74.3682C538.185 74.421 538.349 74.4314 538.495 74.44C538.649 74.4495 538.798 74.4222 538.942 74.4427C539.078 74.4623 539.22 74.5127 539.324 74.5775C539.802 74.8548 540.309 75.1169 540.729 75.4306C541.14 75.7374 541.564 75.5989 542 75.6306C543.702 76.224 543.702 76.2299 544.883 76.2157C545.176 76.2149 545.478 76.2091 545.777 76.245C545.904 76.2578 546.012 76.3772 546.133 76.4497C546.48 76.6656 546.81 76.8616 547.326 76.8169C547.768 76.7768 548.232 76.8053 548.681 76.796C549.285 76.7902 549.285 76.7902 550.266 77.2689C550.511 77.3901 550.784 77.4055 551.115 77.3904C551.4 77.3767 551.682 77.4955 551.865 77.6889C551.94 77.7689 551.903 77.8858 551.921 77.9902C551.015 77.9959 550.103 77.9707 549.22 78.0269C548.65 78.0602 548.419 77.7776 548.06 77.6027C547.937 77.5421 547.81 77.4268 547.692 77.427C546.795 77.4275 545.898 77.44 544.999 77.4705C544.889 77.4715 544.741 77.5955 544.724 77.6783C544.692 77.832 544.905 78.0042 545.232 78.031C545.668 78.0687 546.103 78.0098 546.471 78.2941C546.778 78.5422 547.177 78.6788 547.666 78.6314C547.961 78.6066 548.269 78.6376 548.563 78.6188C549.346 78.5526 550.041 78.6525 550.585 79.1174C551.019 79.2697 551.464 79.2117 551.895 79.2006C552.216 79.1906 552.527 79.1796 552.744 79.316C553.203 79.6034 553.653 79.89 554.329 79.7949C555.03 80.0342 555.542 80.4417 556.114 80.7888C556.383 80.9546 556.593 81.0542 556.928 80.9972C557.067 80.975 557.23 80.9913 557.377 80.9879C557.678 80.988 558.004 80.9301 558.272 80.9933C558.54 81.0624 558.751 81.2587 558.987 81.3909C559.099 81.4565 559.227 81.5599 559.346 81.5657C559.801 81.5813 560.251 81.5661 560.699 81.5628C561.147 81.5655 561.595 81.5682 562.043 81.5709C562.401 81.7637 562.767 81.9575 563.125 82.1503C563.729 82.1445 564.333 82.1387 564.928 82.138C565.596 82.1327 565.595 82.1386 566.513 82.605C566.924 82.8152 567.387 82.753 567.802 82.7162C568.493 82.6588 568.926 82.9316 569.385 83.2191C569.48 83.2769 569.659 83.325 569.779 83.3129C570.258 83.2764 570.659 83.3831 570.984 83.639C571.215 83.8191 571.453 83.9155 571.755 83.9156C572.807 83.9065 573.86 83.8915 574.911 83.8944C575.039 83.8952 575.18 83.9636 575.293 84.0232C576.185 84.4809 576.192 84.4997 576.881 84.4722C577.495 84.4494 578.061 84.4699 578.511 84.8471C578.605 84.9289 578.75 85.046 578.859 85.051C579.607 85.0657 580.366 85.0755 581.109 85.0475C581.449 85.0333 581.683 85.0749 581.933 85.2388C582.253 85.4459 582.533 85.6853 583.093 85.663C584.645 85.5955 584.65 85.6322 586.426 86.2268C586.55 86.2694 586.727 86.2389 586.874 86.2295C587.187 86.2006 587.406 86.3071 587.666 86.472C588.245 86.8439 588.265 86.8278 588.851 86.8202C589.3 86.811 589.763 86.8454 590.206 86.7993C590.889 86.7351 591.312 87.0129 591.791 87.2843C592.174 87.4977 592.649 87.4006 593.08 87.3895C593.547 87.3761 593.963 87.4358 594.287 87.6977C594.508 87.8768 594.754 87.9861 595.056 87.9862C596.108 87.9831 597.161 87.9681 598.213 87.965C598.341 87.9658 598.491 88.0291 598.605 88.0828C599.605 88.5573 599.603 88.5753 600.64 88.5405C600.97 88.5314 601.243 88.5467 601.476 88.6969C601.701 88.8401 601.945 88.9792 602.179 89.1174C602.627 89.1201 603.081 89.1537 603.523 89.1256C603.863 89.1054 604.096 89.153 604.348 89.305C604.678 89.501 604.943 89.8112 605.499 89.7282C605.786 89.6906 606.11 89.7413 606.397 89.7097C606.739 89.6656 606.961 89.7362 607.21 89.9181C607.52 90.1362 607.838 90.3612 608.372 90.3183C608.962 90.2689 609.58 90.3128 610.176 90.2882C610.507 90.2731 610.729 90.3437 610.978 90.5256C611.287 90.7557 611.647 90.9186 612.162 90.8918C613.208 90.846 613.214 90.8767 614.187 91.3545C614.432 91.4756 614.705 91.491 615.036 91.4759C615.32 91.4622 615.602 91.5811 615.786 91.7745C615.959 91.985 615.93 92.1028 615.939 92.2063ZM540.015 30.1576C539.713 30.1575 539.411 30.1633 539.022 29.5993C539.003 29.5069 539.031 29.4011 538.975 29.317C538.844 29.1409 538.628 29.0045 538.357 28.9593C537.87 28.8863 537.263 29.0304 537.258 29.1869C537.255 29.3194 537.399 29.4484 537.688 29.5861C537.811 29.6407 537.905 29.7225 538.018 29.7822C538.351 29.9543 538.598 30.2508 539.109 30.1633C539.052 29.7833 539.08 29.9733 539.109 30.1633C539.043 30.386 539.165 30.5611 539.485 30.6597C539.574 30.6867 539.711 30.6884 539.787 30.6598C540.08 30.5564 540.141 30.3815 539.975 29.8881C539.932 29.9622 539.947 30.1025 540.025 30.1465C540.103 30.1906 540.305 30.1807 540.409 30.1489C540.673 30.0607 540.813 29.9239 540.761 29.7919C540.731 29.7225 540.566 29.6215 540.457 29.6106C540.267 29.5915 540.083 29.7058 540.015 30.1576ZM607.079 106.875C606.408 106.922 605.65 106.804 604.968 106.971C604.846 107.001 604.719 107.097 604.702 107.18C604.688 107.233 604.863 107.329 604.968 107.381C605.204 107.502 605.478 107.499 605.798 107.501C606.282 107.507 606.538 107.81 606.898 107.985C607.012 108.039 607.163 108.084 607.291 108.085C608.032 108.087 608.764 108.082 609.505 108.072C609.634 108.067 609.773 108.039 609.887 107.996C610.265 107.859 610.239 107.741 609.897 107.574C609.521 107.392 609.234 107.121 608.845 106.968C608.289 106.749 607.689 106.906 607.079 106.875ZM555.218 106.076C554.77 106.079 554.33 106.083 553.882 106.086C553.735 106.09 553.581 106.08 553.443 106.091C553.158 106.104 552.938 106.209 552.785 106.393C552.979 106.569 553.225 106.684 553.508 106.694C553.955 106.703 554.397 106.669 554.843 106.696C555.325 106.72 555.582 107.017 555.941 107.192C556.055 107.246 556.2 107.266 556.335 107.286C557.004 107.377 557.439 107.107 557.352 106.658C557.292 106.308 556.965 106.07 556.545 106.07C556.106 106.068 555.658 106.071 555.218 106.076ZM610.972 98.3461C611.09 98.2554 611.214 98.1954 611.276 98.1112C611.467 97.8225 611.424 97.5888 611.146 97.3196C610.81 96.9901 610.348 97.143 609.938 97.1319C609.837 97.1279 609.717 97.2426 609.656 97.3149C609.615 97.3651 609.605 97.4788 609.656 97.5141C610.079 97.7979 610.531 98.0665 610.972 98.3461ZM533.933 72.7873C533.494 72.7915 533.047 72.7828 532.606 72.8049C532.495 72.812 532.385 72.9156 532.315 72.987C532.184 73.1187 532.293 73.3288 532.663 73.384C533.087 73.4507 533.54 73.3936 533.989 73.3903C534.556 73.3869 534.911 73.1992 534.72 72.9869C534.537 72.7815 534.269 72.7184 533.933 72.7873ZM58.0033 12.1252C58.296 12.1244 58.5972 12.1304 58.8909 12.1177C59.1666 12.1031 59.387 11.9924 59.5407 11.8087C59.328 11.6305 59.0817 11.5213 58.7991 11.511C58.3518 11.5023 57.9125 11.5065 57.4721 11.5226C57.197 11.5312 56.9225 11.6365 56.8408 11.8334C56.7634 11.9826 57.3624 12.1333 58.0033 12.1252ZM496.834 55.2379C496.947 55.3036 497.055 55.4231 497.173 55.4349C497.463 55.464 497.765 55.4581 498.043 55.4256C498.163 55.4135 498.263 55.3149 498.325 55.2367C498.366 55.1865 498.365 55.0899 498.315 55.0366C498.078 54.7231 497.018 54.7193 496.816 55.031C496.792 55.0889 496.831 55.1712 496.834 55.2379ZM471.177 19.6158C471.195 19.7142 471.196 19.8108 471.223 19.9102C471.28 20.0969 471.467 20.2485 471.749 20.3673C471.989 20.2405 472.122 20.0849 472.129 19.9046C472.129 19.808 472.11 19.7095 472.082 19.6101C472.026 19.4234 471.839 19.2719 471.557 19.1531C471.317 19.2739 471.193 19.4304 471.177 19.6158ZM630.639 114.695C630.551 114.765 630.462 114.834 630.365 114.897C630.594 115.095 630.816 115.172 630.997 115.093C631.111 115.044 631.182 114.961 631.271 114.891C631.042 114.693 630.828 114.624 630.639 114.695ZM624.929 114.943C625.042 115.008 625.144 115.091 625.268 115.14C625.471 115.221 625.67 115.138 625.835 114.937C625.722 114.871 625.62 114.789 625.496 114.74C625.293 114.659 625.093 114.742 624.929 114.943ZM628.598 114.207C628.522 114.344 628.638 114.476 628.964 114.612C629.053 114.542 629.168 114.481 629.23 114.403C629.333 114.274 629.19 114.133 628.872 114.005C628.775 114.068 628.686 114.137 628.598 114.207ZM610.044 105.839C609.968 105.976 610.084 106.108 610.41 106.244C610.498 106.174 610.614 106.113 610.676 106.035C610.779 105.907 610.636 105.766 610.318 105.637C610.221 105.7 610.132 105.769 610.044 105.839ZM587.773 60.9008C587.685 60.9704 587.596 61.04 587.499 61.1026C587.728 61.3007 587.95 61.3772 588.131 61.2988C588.245 61.2499 588.317 61.1665 588.405 61.097C588.176 60.899 587.963 60.8293 587.773 60.9008ZM564.818 35.9419C565.032 36.0056 565.221 35.9401 565.394 35.7343C565.281 35.6686 565.179 35.5859 565.055 35.5373C564.852 35.4566 564.653 35.5392 564.489 35.74C564.601 35.8116 564.714 35.8772 564.818 35.9419ZM551.685 33.2057C551.596 33.2752 551.507 33.3448 551.41 33.4075C551.64 33.6055 551.861 33.682 552.042 33.6036C552.156 33.5547 552.228 33.4714 552.316 33.4018C552.087 33.2038 551.873 33.1401 551.685 33.2057ZM462.259 18.7148C462.171 18.7843 462.082 18.8539 461.985 18.9166C462.214 19.1146 462.436 19.1912 462.617 19.1127C462.731 19.0638 462.802 18.9805 462.891 18.9109C462.662 18.7129 462.448 18.6492 462.259 18.7148ZM10.1837 22.4432C10.0707 22.3776 9.95786 22.312 9.85446 22.2413C9.57715 22.3764 9.4822 22.5177 9.61702 22.6459C9.70121 22.7268 9.8333 22.7823 9.94629 22.8479C10.2327 22.7137 10.309 22.5765 10.1837 22.4432Z" fill="#E8BB2E"/>
<path d="M138.426 163.514C137.192 163.505 135.966 163.527 134.736 163.476C134.084 163.447 133.827 163.681 133.54 163.893C133.31 164.063 133.059 164.098 132.663 164.095C129.317 164.055 125.979 164.034 122.643 164.008C122.235 163.888 122.044 163.742 122.153 163.603C122.214 163.518 122.353 163.405 122.482 163.406C124.768 163.412 127.044 163.411 129.337 163.466C129.99 163.483 130.195 163.238 130.544 163.056C130.657 162.995 130.752 162.896 130.894 162.868C131.036 162.834 131.238 162.86 131.42 162.866C135.111 162.892 138.801 162.924 142.492 162.95C142.9 163.07 143.091 163.215 142.981 163.355C142.92 163.44 142.781 163.552 142.653 163.551C141.237 163.536 139.831 163.522 138.426 163.514Z" fill="#E8BB2E"/>
<path d="M805.27 261.298C804.711 261.314 803.999 261.345 803.456 260.942C803.194 260.747 802.901 260.664 802.536 260.663C802.009 260.67 801.473 260.665 800.938 260.647C800.799 260.639 800.624 260.556 800.49 260.488C800.202 260.351 799.963 260.147 799.648 260.067C799.333 259.987 798.938 260.08 798.611 260.017C798.178 259.932 798.012 259.753 798.142 259.615C798.213 259.538 798.352 259.432 798.492 259.428C800.48 259.405 800.49 259.406 801.025 259.676C801.435 259.885 801.812 260.109 802.428 260.069C802.946 260.037 803.49 260.073 804.017 260.072C804.747 260.073 804.746 260.079 805.883 260.572C806.172 260.697 806.492 260.723 806.88 260.708C807.213 260.699 807.524 260.826 807.776 261.014C807.587 261.199 807.331 261.306 806.998 261.309C806.46 261.315 805.935 261.304 805.27 261.298Z" fill="#E8BB2E"/>
<path d="M785.861 257.514C787.213 257.523 788.574 257.551 789.927 257.542C790.486 257.538 790.916 257.647 791.281 257.889C791.676 258.151 792.146 258.18 792.661 258.19C792.982 258.198 793.282 258.324 793.48 258.513C793.559 258.587 793.527 258.705 793.551 258.803C792.37 258.794 791.179 258.789 789.99 258.766C789.85 258.764 789.685 258.687 789.562 258.627C789.284 258.496 789.055 258.292 788.75 258.226C788.097 258.076 787.423 258.171 786.75 258.134C786.43 258.114 786.129 257.993 785.931 257.81C785.853 257.724 785.884 257.613 785.861 257.514Z" fill="#E8BB2E"/>
<path d="M306.272 157.911C307.678 157.92 309.083 157.935 310.488 157.943C310.896 158.068 311.077 158.207 310.978 158.347C310.917 158.431 310.778 158.544 310.649 158.543C307.837 158.531 305.027 158.508 302.227 158.486C301.819 158.361 301.638 158.223 301.737 158.082C301.798 157.998 301.937 157.886 302.066 157.887C303.461 157.888 304.866 157.903 306.272 157.911Z" fill="#E8BB2E"/>
<path d="M88.4324 170.716C87.8033 170.665 87.1237 170.821 86.4362 170.582C86.3005 170.538 86.1175 170.423 86.1329 170.37C86.1623 170.282 86.3002 170.181 86.4418 170.158C87.0619 170.069 87.8193 170.127 88.1656 169.738C88.3339 169.537 88.6171 169.493 88.9934 169.488C89.3915 169.48 89.6665 169.525 89.964 169.682C90.3539 169.885 90.6677 170.219 91.3203 170.127C91.3437 170.227 91.4083 170.342 91.3683 170.429C91.3284 170.516 91.1827 170.586 91.0491 170.639C90.9266 170.688 90.762 170.726 90.6114 170.729C89.9024 170.73 89.1945 170.72 88.4324 170.716Z" fill="#E8BB2E"/>
<path d="M641.789 223.557C642.315 223.562 642.86 223.592 643.378 223.56C643.789 223.534 644.04 223.602 644.346 223.777C644.867 224.083 644.901 224.062 646.228 224.232C646.376 224.253 646.549 224.36 646.627 224.447C646.677 224.494 646.592 224.6 646.523 224.654C646.42 224.722 646.273 224.81 646.145 224.797C645.303 224.73 644.42 224.998 643.637 224.509C643.24 224.264 642.791 224.122 642.219 224.156C641.874 224.175 641.51 224.163 641.156 224.152C640.814 224.141 640.469 224.04 640.272 223.84C639.987 223.545 640.177 223.462 640.729 223.535C641.079 223.583 641.436 223.552 641.789 223.557Z" fill="#E8BB2E"/>
<path d="M830.74 284.313C831.416 284.32 832.093 284.316 832.778 284.336C832.918 284.338 833.082 284.421 833.206 284.476C833.701 284.708 833.599 285.007 833.596 285.28C833.582 285.563 832.38 285.673 831.896 285.43C831.362 285.158 830.884 284.862 830.106 284.917C829.804 284.935 829.462 284.792 829.286 284.598C829.021 284.317 829.19 284.23 829.731 284.303C830.05 284.347 830.396 284.315 830.74 284.313Z" fill="#E8BB2E"/>
<path d="M500.615 168.547C501.313 168.551 502.014 168.518 502.706 168.582C503.111 168.616 503.295 168.834 503.187 168.968C503.125 169.052 502.986 169.165 502.858 169.164C501.461 169.169 500.067 169.15 498.672 169.143C498.275 169.019 498.084 168.873 498.193 168.739C498.254 168.654 498.393 168.547 498.522 168.542C499.221 168.528 499.918 168.543 500.615 168.547Z" fill="#E8BB2E"/>
<path d="M819.297 263.221C819.973 263.228 820.662 263.207 821.335 263.244C821.687 263.267 821.952 263.433 821.981 263.593C821.995 263.667 821.814 263.775 821.673 263.791C820.697 263.899 819.662 263.819 818.653 263.821C818.331 263.819 817.999 263.689 817.823 263.502C817.558 263.216 817.727 263.136 818.268 263.208C818.608 263.248 818.954 263.217 819.297 263.221Z" fill="#E8BB2E"/>
<path d="M659.291 226.097C659.635 226.101 659.993 226.058 660.321 226.115C660.669 226.18 660.878 226.378 660.968 226.563C661.068 226.774 661.04 226.959 660.919 227.117C660.723 227.389 660.553 227.36 660.176 227.128C659.596 226.766 659.551 226.797 658.347 226.689C658.208 226.675 658.046 226.567 657.947 226.478C657.798 226.342 657.9 226.163 658.282 226.092C658.566 226.042 658.948 226.092 659.291 226.097Z" fill="#E8BB2E"/>
<path d="M794.55 258.789C795.054 258.791 795.561 258.763 796.061 258.814C796.413 258.843 796.678 259.009 796.696 259.162C796.7 259.235 796.53 259.339 796.399 259.362C795.778 259.464 795.096 259.407 794.431 259.395C794.12 259.388 793.788 259.258 793.612 259.07C793.347 258.789 793.527 258.692 794.046 258.781C794.204 258.809 794.378 258.79 794.55 258.789Z" fill="#E8BB2E"/>
<path d="M716.56 243.635C715.809 243.632 715.114 243.472 715.181 243.321C715.274 243.124 715.595 243.023 715.917 243.019C716.433 243.01 716.948 243.014 717.473 243.03C717.805 243.039 718.095 243.159 718.347 243.342C718.17 243.518 717.913 243.631 717.59 243.641C717.257 243.65 716.903 243.639 716.56 243.635Z" fill="#E8BB2E"/>
<path d="M711.737 242.385C712.242 242.387 712.749 242.359 713.249 242.409C713.601 242.439 713.865 242.604 713.884 242.758C713.888 242.831 713.718 242.935 713.587 242.958C712.966 243.059 712.283 243.003 711.619 242.991C711.308 242.984 710.976 242.854 710.799 242.666C710.535 242.385 710.715 242.288 711.233 242.377C711.392 242.405 711.565 242.386 711.737 242.385Z" fill="#E8BB2E"/>
<path d="M653.271 225.46C653.776 225.462 654.283 225.434 654.784 225.479C655.135 225.508 655.399 225.674 655.418 225.827C655.422 225.9 655.253 225.998 655.121 226.028C654.5 226.129 653.818 226.072 653.153 226.06C652.842 226.053 652.51 225.923 652.334 225.736C652.069 225.455 652.249 225.358 652.768 225.446C652.926 225.474 653.1 225.455 653.271 225.46Z" fill="#E8BB2E"/>
<path d="M650.484 224.829C651.02 224.834 651.193 224.821 651.363 224.838C651.683 224.87 652.006 224.975 652.182 225.169C652.447 225.45 652.27 225.505 651.747 225.465C651.076 225.409 650.405 225.469 649.732 225.426C649.38 225.403 649.116 225.231 649.108 225.078C649.104 225.005 649.275 224.895 649.405 224.884C649.86 224.839 650.354 224.834 650.484 224.829Z" fill="#E8BB2E"/>
<path d="M711.749 194.706C711.405 194.702 711.036 194.75 710.719 194.688C710.297 194.603 710.142 194.423 710.262 194.284C710.333 194.206 710.461 194.097 710.59 194.092C711.279 194.076 711.976 194.092 712.662 194.1C713.059 194.231 713.228 194.375 713.108 194.515C713.037 194.593 712.909 194.695 712.78 194.706C712.444 194.733 712.092 194.71 711.749 194.706Z" fill="#E8BB2E"/>
<path d="M298.582 157.886C298.912 157.913 299.203 158.021 299.445 158.197C299.268 158.373 299.023 158.476 298.699 158.498C298.537 158.506 298.354 158.506 298.184 158.495C297.852 158.474 297.562 158.359 297.32 158.183C297.497 158.007 297.753 157.906 298.066 157.882C298.228 157.874 298.41 157.887 298.582 157.886Z" fill="#E8BB2E"/>
<path d="M815.666 262.838C815.671 262.663 816.338 262.53 816.923 262.594C817.231 262.631 817.543 262.748 817.709 262.928C817.964 263.202 817.796 263.282 817.276 263.212C816.957 263.168 816.608 263.236 816.29 263.186C815.929 263.143 815.728 262.99 815.666 262.838Z" fill="#E8BB2E"/>
<path d="M662.314 227.124C662.31 227.056 662.263 226.973 662.301 226.916C662.532 226.605 663.766 226.626 664.06 226.947C664.108 227.006 664.121 227.099 664.074 227.149C664.002 227.226 663.876 227.323 663.746 227.334C663.41 227.361 663.067 227.357 662.726 227.329C662.577 227.314 662.447 227.198 662.314 227.124Z" fill="#E8BB2E"/>
<path d="M92.3209 170.122C91.0535 170.122 91.0333 170.108 91.2837 169.829C91.5102 169.579 91.8973 169.454 92.4402 169.509C92.5999 169.525 92.7713 169.53 92.9075 169.568C93.0538 169.613 93.2615 169.694 93.287 169.77C93.3385 169.914 93.1439 170.047 92.8154 170.117C92.6727 170.151 92.4929 170.121 92.3209 170.122Z" fill="#E8BB2E"/>
<path d="M314.374 158.556C313.992 158.621 313.676 158.553 313.459 158.337C313.242 158.121 313.635 157.929 314.289 157.94C314.461 157.945 314.646 157.915 314.803 157.956C314.962 157.99 315.115 158.078 315.204 158.16C315.364 158.297 315.243 158.449 314.89 158.553C314.747 158.594 314.545 158.561 314.374 158.556Z" fill="#E8BB2E"/>
<path d="M813.48 262.163C813.583 262.094 813.686 262.025 813.799 261.964C814.184 262.106 814.343 262.244 814.224 262.372C814.153 262.45 814.018 262.51 813.916 262.579C813.53 262.436 813.382 262.294 813.48 262.163Z" fill="#E8BB2E"/>
<path d="M102.794 240.996C102.801 240.924 102.96 240.826 103.079 240.813C103.306 240.794 103.576 240.906 103.752 241.093C103.997 241.359 103.826 241.469 103.342 241.353C103.006 241.271 102.782 241.128 102.794 240.996Z" fill="#E8BB2E"/>
<path d="M667.153 221.891C667.287 221.959 667.421 222.027 667.543 222.1C667.342 222.303 667.11 222.377 666.881 222.293C666.735 222.242 666.614 222.157 666.48 222.09C666.681 221.886 666.901 221.824 667.153 221.891Z" fill="#E8BB2E"/>
<path d="M663.498 221.258C663.719 221.19 663.97 221.263 664.252 221.467C664.15 221.535 664.056 221.617 663.934 221.665C663.723 221.74 663.461 221.666 663.19 221.457C663.281 221.394 663.384 221.325 663.498 221.258Z" fill="#E8BB2E"/>
<path d="M660.652 221.255C660.786 221.322 660.919 221.39 661.042 221.463C660.841 221.667 660.619 221.741 660.38 221.656C660.234 221.605 660.113 221.521 659.979 221.453C660.18 221.249 660.401 221.181 660.652 221.255Z" fill="#E8BB2E"/>
<path d="M658.617 220.724C658.766 220.861 658.668 220.997 658.345 221.129C658.211 221.061 658.055 221.002 657.955 220.919C657.795 220.787 657.893 220.645 658.228 220.514C658.35 220.587 658.484 220.655 658.617 220.724Z" fill="#E8BB2E"/>
</svg>
