<svg width="1112" height="257" viewBox="0 0 1112 257" fill="none" xmlns="http://www.w3.org/2000/svg">
<g clip-path="url(#clip0_1116_50)">
<path d="M1049.41 199.32C1047.87 199.332 1046.32 199.277 1044.8 199.398C1043.81 199.468 1043.43 198.843 1042.8 198.461C1042.6 198.33 1042.38 198.092 1042.18 198.092C1040.65 198.106 1039.12 198.147 1037.59 198.187C1037.09 198.634 1036.75 199.273 1036.02 199.428C1035.31 199.573 1034.49 199.469 1033.71 199.487C1032.68 199.499 1031.65 199.512 1030.62 199.512C1030.11 199.511 1029.67 199.705 1029.47 200.151C1029.43 200.225 1029.76 200.463 1029.94 200.604C1030.53 201.073 1031.1 201.591 1031.76 201.977C1032.38 202.346 1033.22 201.981 1033.89 202.434C1035.39 203.452 1035.41 203.441 1036.61 203.437C1037.64 203.425 1038.67 203.399 1039.7 203.426C1039.9 203.425 1040.12 203.65 1040.33 203.782C1040.95 204.15 1041.33 204.854 1042.3 204.729C1043.04 204.627 1043.85 204.691 1044.61 204.684C1045.22 205.142 1045.77 205.645 1046.43 206.031C1047.05 206.398 1047.22 206.643 1046.85 206.976C1046.52 207.287 1046.07 207.375 1045.5 207.328C1044.99 207.276 1044.47 207.327 1043.96 207.327C1043.69 207.332 1043.44 207.327 1043.19 207.334C1042.21 207.353 1042.21 207.353 1040.49 206.294C1039.82 205.88 1039 206.234 1038.36 205.837C1037.92 205.572 1037.56 205.211 1037.14 204.935C1036.96 204.82 1036.67 204.769 1036.44 204.766C1035.66 204.758 1034.88 204.724 1034.13 204.798C1033.6 204.848 1033.26 205.172 1033.3 205.544C1033.3 205.689 1033.66 205.944 1033.87 205.985C1034.37 206.074 1034.9 205.959 1035.38 206.111C1035.83 206.262 1036.29 206.583 1036.61 206.912C1037.27 207.599 1038.09 207.167 1038.75 207.408C1039.43 207.666 1039.96 208.258 1040.61 208.655C1040.77 208.755 1041.1 208.666 1041.37 208.661C1042.13 208.667 1042.9 208.686 1043.66 208.692C1044.27 209.15 1044.92 209.574 1045.46 210.076C1046.44 210.988 1047.53 211.429 1048.9 211.224C1049.68 211.113 1050.41 211.286 1050.98 211.87C1051.56 212.469 1052.27 212.508 1053.07 212.505C1053.8 212.494 1054.56 212.302 1055.28 212.761C1056.83 213.772 1056.84 213.813 1058.76 213.744C1059.34 213.727 1059.78 213.756 1060.19 214.11C1060.57 214.434 1060.99 214.724 1061.39 215.037C1062.15 215.043 1062.93 215.051 1063.69 215.043C1064.68 215.025 1065.2 215.276 1065.38 216.033C1065.49 216.493 1065.52 216.904 1065.84 217.246C1066.22 217.661 1066.65 217.703 1067.25 217.674C1067.81 217.655 1068.22 217.563 1068.49 217.125C1068.59 216.942 1068.79 216.784 1068.97 216.65C1069.12 216.55 1069.35 216.396 1069.47 216.438C1069.7 216.52 1070 216.702 1070.06 216.881C1070.71 218.55 1070.71 218.563 1071.45 219.116C1072.26 219.732 1073.11 220.299 1073.84 220.97C1074.5 221.565 1075.21 221.434 1075.97 221.53C1076.54 221.604 1076.89 221.989 1076.82 222.321C1076.77 222.512 1076.54 222.77 1076.35 222.772C1074.82 222.838 1073.27 222.864 1071.73 222.85C1071.54 222.852 1071.33 222.589 1071.12 222.444C1070.7 222.155 1070.34 221.741 1069.89 221.604C1069.43 221.467 1068.87 221.593 1068.36 221.593C1067.84 221.592 1067.29 221.692 1066.84 221.529C1066.38 221.366 1066.04 220.941 1065.62 220.639C1065.43 220.497 1065.16 220.292 1064.99 220.309C1063.84 220.477 1063.04 219.941 1062.27 219.267C1062.11 219.128 1061.82 219.013 1061.6 219.011C1059.8 219.003 1058 219.035 1056.19 219.053C1055.46 219.064 1054.91 218.534 1054.8 217.748C1054.76 217.309 1054.63 216.861 1054.66 216.432C1054.72 215.652 1053.9 215.115 1053.27 215.127C1052.25 215.126 1051.2 215.098 1050.19 215.164C1049.36 215.215 1048.67 214.97 1048.15 214.432C1047.54 213.816 1046.79 213.825 1046.04 213.873C1045.47 213.906 1045.29 214.315 1045.24 215.397C1045.21 216.272 1044.93 216.511 1043.92 216.526C1042.64 216.545 1041.34 216.563 1040.05 216.542C1039.85 216.543 1039.63 216.292 1039.44 216.149C1039.02 215.86 1038.66 215.434 1038.21 215.297C1037.75 215.146 1037.2 215.272 1036.68 215.285C1036.17 215.285 1035.61 215.397 1035.16 215.247C1034.7 215.097 1034.34 214.658 1033.94 214.358C1033.75 214.215 1033.51 214.014 1033.31 214.015C1032.28 213.988 1031.25 214.014 1030.22 214.026C1029.07 214.036 1029.07 214.036 1027.5 213.023C1026.79 212.564 1026.03 212.755 1025.29 212.766C1024.51 212.772 1023.78 212.731 1023.22 212.134C1022.84 211.745 1022.41 211.479 1021.92 211.483C1020.63 211.475 1019.35 211.508 1018.06 211.5C1017.84 211.498 1017.55 211.396 1017.39 211.257C1016.61 210.606 1015.83 210.075 1014.67 210.202C1013.67 210.309 1012.6 210.186 1011.6 210.28C1011.05 210.328 1010.77 210.712 1010.86 211.051C1010.91 211.227 1011.22 211.464 1011.43 211.492C1011.93 211.568 1012.48 211.442 1012.94 211.579C1013.89 211.858 1014.29 213.01 1015.56 212.872C1016.31 212.784 1017.09 212.818 1017.87 212.865C1018.07 212.878 1018.27 213.152 1018.47 213.31C1019.07 213.74 1019.58 214.264 1020.49 214.144C1021.24 214.057 1022.03 214.106 1022.8 214.099C1024.02 214.084 1024.01 214.097 1025.52 215.09C1026.23 215.561 1027 215.357 1027.73 215.359C1028.27 215.363 1028.79 215.299 1029.21 215.536C1029.86 215.894 1030.29 216.579 1031.11 216.644C1031.89 216.704 1032.66 216.619 1033.44 216.653C1033.92 216.675 1034.35 216.94 1034.71 217.341C1035.09 217.743 1035.51 217.954 1036.04 217.943C1036.81 217.936 1037.59 217.905 1038.36 217.939C1038.58 217.954 1038.82 218.102 1039.01 218.232C1039.43 218.521 1039.83 218.847 1040.23 219.147C1040.99 219.166 1041.76 219.239 1042.52 219.178C1043.1 219.134 1043.49 219.238 1043.94 219.557C1044.5 219.983 1044.94 220.668 1045.91 220.491C1046.4 220.41 1046.96 220.52 1047.45 220.451C1048.04 220.357 1048.44 220.474 1048.83 220.917C1049.57 221.758 1050.55 221.898 1051.59 221.742C1052.73 221.573 1053.54 222.043 1054.33 222.722C1055.17 223.432 1055.17 223.419 1055.75 224.948C1055.92 225.39 1056.48 225.658 1056.96 225.641C1057.77 225.614 1058.46 225.768 1059.02 226.336C1059.6 226.948 1060.34 226.978 1061.11 226.932C1062.13 226.866 1063.14 226.825 1063.91 227.683C1064.29 228.099 1064.71 228.245 1065.26 228.223C1066.8 228.185 1068.36 228.24 1069.88 228.145C1070.8 228.08 1071.3 228.563 1071.89 228.993C1072.69 229.58 1073.57 230.126 1073.5 231.152C1073.49 231.321 1073.69 231.544 1073.87 231.697C1074.25 232.022 1074.67 232.311 1075.06 232.624C1075.65 233.093 1076.23 233.495 1077.1 233.396C1077.85 233.321 1078.64 233.37 1079.41 233.35C1080.17 233.33 1080.87 233.354 1081.52 233.935C1082.27 234.594 1083.06 235.234 1083.93 235.764C1084.54 236.144 1085.41 235.744 1086.06 236.234C1086.46 236.534 1086.84 236.871 1087.28 237.136C1087.46 237.251 1087.75 237.224 1088 237.229C1088.52 237.242 1089.05 237.271 1089.55 237.204C1090.13 237.134 1090.56 237.216 1090.97 237.57C1091.35 237.894 1091.73 238.322 1092.19 238.459C1092.87 238.665 1093.68 238.244 1094.34 238.931C1094.67 239.275 1095.1 239.618 1095.56 239.769C1096.01 239.919 1096.57 239.793 1097.06 239.869C1097.28 239.897 1097.52 240.138 1097.64 240.323C1097.71 240.424 1097.58 240.657 1097.46 240.773C1097.31 240.911 1097.1 241.094 1096.9 241.094C1095.35 241.132 1093.81 241.131 1092.26 241.157C1091.34 241.17 1091.34 241.17 1089.56 240.116C1089.14 239.866 1088.66 239.844 1088.11 239.865C1087.38 239.889 1086.62 240.016 1085.88 239.685C1084.96 238.675 1083.74 238.441 1082.42 238.613C1081.87 238.686 1081.37 238.623 1080.99 238.325C1080.18 237.722 1079.31 237.153 1078.6 236.472C1078.04 235.942 1077.77 235.867 1077.48 236.459C1077.38 236.644 1077.29 236.842 1077.29 237.026C1077.34 237.688 1077.47 238.346 1077.51 239.008C1077.53 239.193 1077.39 239.386 1077.3 239.571C1077.02 240.085 1076.7 240.004 1076.19 239.48C1075.68 238.956 1075.05 238.575 1074.17 238.672C1073.42 238.759 1072.62 238.63 1071.86 238.73C1070.7 238.87 1069.92 238.351 1069.14 237.688C1068.98 237.549 1068.69 237.447 1068.47 237.445C1066.15 237.449 1063.84 237.495 1061.52 237.499C1061.02 237.501 1060.59 237.249 1060.23 236.848C1059.85 236.446 1059.41 236.207 1058.91 236.209C1056.86 236.221 1054.8 236.207 1052.74 236.284C1051.89 236.32 1051.24 236.066 1050.7 235.538C1050.29 235.145 1049.9 234.99 1049.35 234.959C1048.76 234.923 1048.34 235 1048.02 235.339C1047.72 235.668 1047.9 235.914 1048.5 236.279C1049.14 236.676 1049.73 237.158 1050.34 237.602C1050.85 237.616 1051.37 237.577 1051.86 237.653C1052.08 237.681 1052.26 237.94 1052.47 238.098C1053.06 238.554 1053.61 239.004 1054.5 238.909C1055.25 238.821 1056.05 238.883 1056.81 238.863C1057.87 238.855 1057.87 238.855 1059.51 239.891C1059.93 240.154 1060.39 240.2 1060.96 240.154C1061.44 240.124 1061.93 240.37 1062.24 240.803C1062.37 240.977 1062.3 241.231 1061.95 242.051C1061.9 242.687 1062.25 242.443 1062.38 242.041C1062.6 241.465 1062.29 241.229 1061.65 241.474C1061.2 241.653 1060.96 241.963 1061.05 242.25C1061.1 242.401 1061.38 242.62 1061.95 242.051C1063.36 241.445 1064.4 241.486 1065.41 241.405C1066 241.363 1066.37 241.462 1066.81 241.86C1067.34 242.333 1067.86 242.834 1068.79 242.742C1069.79 242.635 1070.85 242.743 1071.86 242.677C1072.8 242.613 1073.24 243.246 1073.8 243.659C1074.49 244.153 1075.31 243.799 1075.94 244.116C1076.6 244.437 1077.04 245.07 1077.82 245.274C1078.99 245.07 1079.67 245.812 1080.5 246.352C1081.16 246.764 1081.98 246.58 1082.72 246.53C1083.55 246.479 1084.22 246.709 1084.76 247.25C1085.37 247.866 1086.1 247.842 1086.85 247.82C1088.6 247.781 1088.67 247.75 1089.62 248.593C1090.31 249.206 1091.02 249.061 1091.75 249.089C1092.36 249.52 1092.95 249.976 1093.59 250.373C1093.76 250.473 1094.09 250.384 1094.36 250.379C1095.12 250.372 1095.9 250.367 1096.67 250.36C1097.18 250.36 1097.73 250.234 1098.19 250.371C1098.65 250.522 1099.01 250.948 1099.41 251.248C1099.81 251.548 1100.22 251.85 1100.61 252.162C1101.2 252.631 1101.76 253.03 1102.64 252.946C1103.39 252.872 1104.17 252.919 1104.95 252.901C1105.93 252.882 1105.9 252.917 1107.65 253.928C1108.59 254.482 1109.64 254.09 1110.63 254.165C1111.12 254.202 1111.59 254.406 1111.91 254.826C1112.03 255 1111.97 255.254 1112 255.481C1109.43 255.506 1106.84 255.476 1104.29 255.583C1103.31 255.628 1102.83 255.095 1102.33 254.638C1101.51 253.903 1100.31 254.667 1099.54 253.756C1099.08 253.212 1098.39 252.849 1097.53 252.974C1097.02 253.04 1096.5 252.96 1095.98 253.012C1094.66 253.132 1093.47 252.993 1092.5 251.964C1092.17 251.606 1091.67 251.372 1091.32 251.026C1090.91 250.646 1090.51 250.411 1089.99 250.41C1087.67 250.428 1085.36 250.447 1083.05 250.492C1082.85 250.493 1082.63 250.662 1082.45 250.783C1081.99 251.092 1082.11 251.395 1082.79 251.718C1083.02 251.826 1083.19 252.018 1083.4 252.176C1083.8 252.476 1084.16 252.915 1084.61 253.066C1085.07 253.216 1085.62 253.103 1086.14 253.103C1086.65 253.104 1087.21 252.978 1087.67 253.115C1088.12 253.265 1088.48 253.692 1088.9 253.981C1089.09 254.123 1089.32 254.35 1089.53 254.363C1090.55 254.415 1091.56 254.401 1092.59 254.414C1093.2 254.846 1093.71 255.422 1094.46 255.636C1094.93 255.775 1095.45 255.697 1095.94 255.786C1096.16 255.827 1096.42 256.057 1096.52 256.24C1096.57 256.352 1096.35 256.586 1096.19 256.696C1095.57 257.115 1094.77 256.921 1094.03 256.984C1093.23 257.052 1092.53 256.91 1091.96 256.326C1091.58 255.937 1091.15 255.697 1090.65 255.699C1089.35 255.704 1088.07 255.737 1086.78 255.716C1086.56 255.714 1086.31 255.564 1086.11 255.447C1084.55 254.447 1084.55 254.421 1083.39 254.444C1081.69 254.475 1081.69 254.475 1080.61 253.642C1080.41 253.485 1080.19 253.208 1080.01 253.197C1078.2 253.176 1076.41 253.157 1074.61 253.228C1074.02 253.244 1073.62 253.193 1073.21 252.8C1072.86 252.466 1072.45 252.086 1071.99 251.949C1071.52 251.81 1070.98 251.937 1070.46 251.937C1069.95 251.937 1069.4 252.037 1068.96 251.875C1068.5 251.712 1068.12 251.297 1067.74 250.986C1067.34 250.66 1066.89 250.615 1066.31 250.646C1064.53 250.72 1064.52 250.679 1062.83 249.65C1062.64 249.533 1062.38 249.396 1062.16 249.394C1060.87 249.386 1059.59 249.419 1058.3 249.411C1057.8 249.412 1057.33 249.182 1057.02 248.762C1056.89 248.588 1056.95 248.334 1056.9 247.816C1056.8 247.685 1056.91 247.909 1056.92 248.107C1057.16 248.111 1057.43 248.173 1057.61 248.09C1058.06 247.899 1058.3 247.602 1058.21 247.315C1058.16 247.164 1057.88 246.945 1057.69 246.921C1057.35 246.877 1057.04 247.126 1056.9 247.816C1055.89 248.12 1054.85 248.078 1053.83 248.158C1053.24 248.213 1052.87 248.1 1052.43 247.703C1051.91 247.216 1051.36 246.74 1050.44 246.832C1049.43 246.939 1048.38 246.844 1047.35 246.895C1046.16 246.953 1045.73 245.718 1044.74 245.618C1043.72 245.513 1042.68 245.604 1041.65 245.629C1040.75 245.645 1040.75 245.645 1038.95 244.563C1038.3 244.164 1037.46 244.516 1036.82 244.106C1036.39 243.841 1036.02 243.48 1035.6 243.204C1035.43 243.089 1035.13 243.052 1034.9 243.048C1033.61 243.04 1032.3 242.978 1031.04 243.106C1029.62 243.264 1028.58 242.763 1027.62 241.868C1026.35 241.849 1025.06 241.763 1023.79 241.85C1022.87 241.915 1022.37 241.419 1021.78 240.99C1021.57 240.845 1021.4 240.626 1021.17 240.545C1020.94 240.463 1020.66 240.531 1020.41 240.539C1019.38 240.551 1018.32 240.482 1017.32 240.589C1016.08 240.732 1015.69 239.607 1014.76 239.357C1014.08 239.912 1013.68 240.739 1012.42 240.644C1011.4 240.566 1010.36 240.644 1009.33 240.656C1008.82 240.656 1008.3 240.669 1007.79 240.668C1006.96 240.681 1006.54 241.138 1006.66 241.939C1006.72 242.38 1006.77 242.818 1006.81 243.257C1006.91 244.044 1006.48 244.644 1005.83 244.652C1004.02 244.669 1002.22 244.702 1000.42 244.694C999.932 244.697 999.484 244.417 999.123 244.017C998.746 243.615 998.309 243.402 997.81 243.403C996.001 243.421 994.206 243.454 992.399 243.445C992.196 243.446 991.943 243.282 991.749 243.152C991.333 242.863 990.935 242.537 990.536 242.237C989.508 242.223 988.499 242.173 987.483 242.2C985.845 242.227 985.844 242.24 984.705 241.373C984.498 241.215 984.299 240.941 984.097 240.928C983.321 240.881 982.555 240.914 981.775 240.932C979.48 240.98 979.48 240.98 978.843 240.505C978.266 240.064 977.757 239.553 976.831 239.644C975.826 239.752 974.77 239.695 973.741 239.695C972.978 239.689 972.214 239.696 971.455 239.625C971.253 239.613 971.055 239.338 970.847 239.181C970.258 238.699 969.678 238.297 968.813 238.409C968.31 238.476 967.783 238.435 967.268 238.434C965.927 238.446 965.927 238.446 963.804 237.388C963.593 237.282 963.337 237.158 963.118 237.169C961.31 237.174 959.515 237.206 957.708 237.198C957.49 237.196 957.233 237.085 957.021 236.992C954.633 235.926 954.633 235.926 952.013 235.958C951.015 235.962 950.98 236.01 949.994 235.189C949.551 234.831 949.175 234.638 948.628 234.66C946.567 234.711 944.498 234.656 942.449 234.761C941.527 234.8 941.029 234.343 940.436 233.914C940.228 233.769 940.015 233.479 939.828 233.469C937.772 233.455 935.711 233.493 933.655 233.479C933.468 233.481 933.255 233.192 933.047 233.047C932.646 232.76 932.269 232.357 931.811 232.22C931.338 232.081 930.799 232.209 930.269 232.207C928.975 232.211 928.976 232.199 927.547 231.242C927.353 231.113 927.101 230.936 926.898 230.936C924.841 230.935 922.771 230.893 920.721 231.011C919.548 231.071 918.787 230.593 918.006 229.943C917.845 229.804 917.555 229.715 917.337 229.713C915.014 229.718 912.704 229.763 910.382 229.767C909.898 229.771 909.45 229.491 909.088 229.104C908.508 228.492 907.777 228.464 906.997 228.482C905.201 228.528 905.186 228.513 904.18 227.755C903.973 227.597 903.799 227.404 903.572 227.31C903.361 227.217 903.08 227.221 902.846 227.217C901.818 227.217 900.788 227.229 899.759 227.241C898.729 227.254 897.688 227.2 896.669 227.292C895.414 227.407 894.886 226.487 894.049 225.987C892.77 225.993 891.465 225.931 890.195 226.044C889.223 226.13 888.815 225.501 888.203 225.121C887.994 224.989 887.777 224.739 887.575 224.739C885.253 224.73 882.93 224.748 880.619 224.806C880.057 224.813 879.694 224.662 879.252 224.29C878.267 223.456 878.219 223.476 876.47 223.515C875.705 223.535 874.972 223.546 874.36 222.93C873.823 222.377 873.136 222.171 872.306 222.222C871.289 222.288 870.246 222.26 869.218 222.259C868.188 222.272 867.155 222.336 866.131 222.271C865.308 222.231 864.856 221.557 864.229 221.163C864.035 221.046 863.758 220.997 863.524 220.994C862.497 220.98 861.44 220.937 860.436 221.031C859.212 221.15 858.598 220.35 857.778 219.826C857.599 219.711 857.286 219.724 857.051 219.733C855.243 219.738 853.448 219.77 851.639 219.788C851.03 219.356 850.405 218.935 849.797 218.503C848.768 218.503 847.739 218.515 846.71 218.515C845.93 218.52 845.14 218.458 844.4 218.56C843.44 218.7 843.019 218.03 842.407 217.65C842.198 217.518 841.982 217.268 841.779 217.268C840.487 217.247 839.194 217.239 837.912 217.298C836.691 217.364 836.295 216.134 835.305 216.02C834.285 215.903 833.223 215.937 832.218 216.045C831.055 216.171 830.281 215.653 829.502 214.989C829.34 214.851 829.051 214.748 828.833 214.746C827.54 214.738 826.26 214.771 824.967 214.763C824.749 214.761 824.491 214.663 824.28 214.557C821.893 213.479 821.894 213.466 820.817 213.485C820.053 213.492 819.272 213.523 818.495 213.49C818.277 213.488 818.022 213.337 817.829 213.208C816.278 212.209 816.279 212.196 815.109 212.204C814.08 212.217 813.05 212.229 812.021 212.242C811.412 211.81 810.787 211.389 810.178 210.957C808.9 210.964 807.593 210.928 806.326 211.002C805.731 211.031 805.348 210.942 804.923 210.56C804.394 210.099 803.87 209.573 802.928 209.676C801.923 209.783 800.87 209.675 799.853 209.741C798.631 209.821 798.22 208.575 797.246 208.464C796.226 208.346 795.164 208.381 794.159 208.488C792.996 208.615 792.222 208.096 791.443 207.433C791.281 207.294 790.992 207.192 790.774 207.19C787.936 207.207 785.114 207.226 782.274 207.269C780.527 207.295 780.526 207.308 777.286 206.173C777.058 206.091 776.814 206.007 776.581 206.004C775.553 205.99 774.496 205.947 773.492 206.041C772.268 206.16 771.653 205.373 770.834 204.836C770.655 204.721 770.358 204.736 770.109 204.73C769.33 204.722 768.565 204.742 767.785 204.747C766.756 204.76 765.726 204.772 764.697 204.785C764.087 204.366 763.463 203.932 762.853 203.513C761.575 203.52 760.271 203.445 759.001 203.558C758.028 203.643 757.619 203.04 757.007 202.648C756.798 202.516 756.582 202.265 756.381 202.253C754.059 202.244 751.736 202.249 749.425 202.32C748.471 202.355 748.08 201.715 747.468 201.335C747.258 201.217 747.023 201.016 746.82 201.017C745.278 201.003 743.733 201.028 742.188 201.053C741.314 201.073 741.314 201.073 739.486 200.026C739.276 199.907 739.036 199.785 738.818 199.783C733.922 199.812 729.038 199.882 724.142 199.912C723.643 199.913 723.209 199.661 722.848 199.261C722.471 198.859 722.035 198.619 721.537 198.621C719.478 198.633 717.407 198.617 715.359 198.696C714.515 198.733 713.863 198.479 713.323 197.951C712.914 197.557 712.522 197.376 711.976 197.385C710.946 197.411 709.917 197.41 708.887 197.423C707.858 197.435 706.828 197.448 705.799 197.46C704.769 197.473 703.729 197.418 702.709 197.511C701.454 197.625 700.908 196.743 700.087 196.231C698.544 196.231 697.001 196.23 695.473 196.244C693.414 196.256 691.354 196.294 689.297 196.293C689.11 196.295 688.895 196.032 688.687 195.887C688.076 195.481 687.645 194.967 686.693 194.99C682.072 195.093 677.428 195.089 672.792 195.178C671.825 195.199 671.447 194.586 670.819 194.205C670.609 194.086 670.375 193.872 670.172 193.873C667.601 193.872 665.026 193.909 662.453 193.934C661.408 193.945 661.408 193.945 659.735 192.918C659.54 192.801 659.286 192.65 659.067 192.649C655.715 192.666 652.377 192.711 649.024 192.741C648.525 192.742 648.09 192.503 647.713 192.101C647.352 191.701 646.902 191.446 646.418 191.45C643.33 191.475 640.228 191.484 637.153 191.55C636.325 191.575 635.654 191.371 635.1 190.828C634.706 190.437 634.3 190.241 633.769 190.251C629.136 190.301 624.505 190.325 619.87 190.414C618.981 190.431 618.38 190.105 617.854 189.605C617.43 189.21 617.048 189.096 616.489 189.077C615.897 189.067 615.532 189.164 615.18 189.512C614.728 189.966 614.42 190.569 613.429 190.481C612.406 190.39 611.361 190.414 610.341 190.506C609.368 190.604 608.961 189.962 608.383 189.534C607.953 189.23 607.538 189.138 606.959 189.182C606.426 189.218 606.086 189.398 605.748 189.774C605.006 190.571 604.944 190.563 604.149 189.897C603.723 189.541 603.337 189.256 602.839 189.245C600.782 189.244 598.723 189.269 596.663 189.307C595.477 189.325 595.46 189.35 594.625 188.587C594.216 188.207 593.809 187.998 593.294 188.01C587.632 188.073 581.972 188.109 576.307 188.21C575.433 188.23 574.865 187.882 574.275 187.413C574.083 187.257 573.895 187.05 573.667 186.968C573.439 186.886 573.173 186.905 572.924 186.899C568.807 186.936 564.675 186.945 560.569 187.049C559.632 187.074 559.167 186.595 558.558 186.176C558.35 186.031 558.177 185.826 557.949 185.744C557.72 185.675 557.435 185.731 557.186 185.738C553.068 185.775 548.937 185.784 544.831 185.888C543.848 185.907 543.469 185.308 542.856 184.941C542.647 184.809 542.429 184.584 542.226 184.585C540.934 184.564 539.654 184.597 538.36 184.601C535.271 184.639 532.184 184.651 529.095 184.701C527.909 184.72 527.48 183.498 526.488 183.424C525.202 183.325 523.917 183.422 522.622 183.44C521.592 183.453 520.564 183.452 519.533 183.478C518.519 183.492 518.519 183.492 516.07 182.419C515.858 182.326 515.602 182.201 515.384 182.2C511.782 182.224 508.164 182.246 504.575 182.312C503.748 182.324 503.073 182.172 502.52 181.616C502.126 181.225 501.706 181.001 501.191 181.013C495.778 181.068 490.382 181.125 484.97 181.167C484.768 181.167 484.514 181.004 484.321 180.874C483.905 180.585 483.507 180.259 483.107 179.959C482.777 180.218 482.357 180.439 482.132 180.752C481.822 181.171 481.442 181.253 480.849 181.256C480.257 181.259 479.888 181.186 479.449 180.789C478.922 180.302 478.373 179.904 477.452 179.917C471.788 180.018 466.128 180.042 460.464 180.13C459.528 180.141 459.136 179.514 458.509 179.132C458.299 179.014 458.061 178.839 457.859 178.84C455.536 178.844 453.227 178.876 450.904 178.894C444.462 178.961 438.023 178.99 431.593 179.111C430.423 179.132 429.658 178.706 428.878 178.043C428.717 177.904 428.428 177.801 428.21 177.8C419.196 177.879 410.18 177.971 401.181 178.065C400.697 178.069 400.248 177.802 399.886 177.415C399.509 177.012 399.073 176.786 398.574 176.788C394.457 176.825 390.34 176.862 386.222 176.912C385.192 176.925 385.175 176.936 384.169 176.178C383.962 176.02 383.748 175.744 383.576 175.748C383.216 175.767 382.853 176.049 382.575 176.459C382.295 176.895 381.9 176.975 381.322 176.993C380.728 177.009 380.345 176.921 379.919 176.552C379.375 176.089 378.876 175.645 377.94 175.656C366.099 175.819 354.262 175.918 342.422 176.068C341.471 176.077 341.076 175.476 340.449 175.095C340.239 174.976 340.032 174.818 339.802 174.763C339.557 174.705 339.288 174.75 339.039 174.757C319.73 174.948 300.42 175.153 281.111 175.344C279.957 175.354 279.973 175.356 278.637 176.391C278.473 176.514 278.258 176.683 278.04 176.682C272.127 176.764 266.201 176.819 260.274 176.874C257.701 176.898 255.127 176.936 252.554 176.948C251.635 176.948 251.635 176.948 249.358 178.073C249.164 178.166 248.937 178.295 248.719 178.293C238.424 178.405 228.13 178.517 217.821 178.601C217.011 178.602 216.346 178.753 215.931 179.33C215.637 179.738 215.279 179.954 214.764 179.967C207.558 180.041 200.352 180.129 193.132 180.176C192.274 180.184 191.739 180.482 191.283 180.975C191.131 181.139 190.993 181.331 190.783 181.435C190.589 181.528 190.309 181.532 190.074 181.541C183.898 181.603 177.72 181.691 171.531 181.713C170.611 181.713 170.206 182.146 169.723 182.596C169.557 182.745 169.432 182.965 169.223 183.056C169.015 183.134 168.721 183.097 168.472 183.091C163.325 183.141 158.178 183.203 153.031 183.253C152.047 183.061 151.778 183.787 151.267 184.181C151.086 184.315 150.948 184.507 150.74 184.585C150.516 184.662 150.239 184.613 149.974 184.605C145.857 184.642 141.737 184.719 137.607 184.715C136.657 184.711 136.425 185.35 135.883 185.739C135.703 185.861 135.518 186.06 135.314 186.073C132.739 186.124 130.165 186.149 127.593 186.16C126.735 186.169 126.736 186.156 125.147 187.25C124.967 187.372 124.755 187.502 124.536 187.513C120.682 187.571 116.815 187.601 112.947 187.643C112.448 187.645 112.086 187.913 111.808 188.323C111.53 188.734 111.155 188.974 110.656 188.976C107.567 189.013 104.477 189.064 101.391 189.062C100.534 189.058 99.9555 189.311 99.5437 189.849C99.2346 190.255 98.8792 190.432 98.3331 190.441C95.2453 190.465 92.1549 190.529 89.0554 190.5C88.1522 190.489 87.6575 190.871 87.2484 191.37C86.9238 191.774 86.573 191.886 85.9959 191.891C80.3357 191.928 74.6602 191.962 69.0099 192.078C68.0576 192.101 67.6106 191.584 67.0156 191.181C66.1672 190.613 65.3834 190.015 65.4547 189.001C65.4657 188.845 65.2158 188.63 65.0396 188.476C63.7334 187.326 63.7334 187.326 63.5902 186.259C63.5114 185.606 63.4181 184.939 63.3557 184.275C63.2299 183.184 62.7546 182.848 61.3198 182.861C60.8054 182.861 60.2893 182.887 59.7759 182.873C59.0126 182.867 58.4713 182.366 58.3872 181.568C58.3401 181.129 58.2777 180.689 58.2306 180.25C59.0103 180.245 58.9956 180.23 60.4655 178.832C61.0836 178.242 61.0839 178.242 60.0338 177.439C59.6341 177.139 59.2516 176.815 58.8201 176.524C58.6266 176.394 58.3686 176.295 58.1506 176.294C56.8575 176.286 55.5781 176.306 54.2986 176.325C52.2396 176.35 52.2393 176.35 50.2627 174.76C50.1001 174.634 49.8512 174.406 49.8894 174.306C50.0931 173.847 50.5248 173.692 51.0536 173.708C51.8314 173.728 52.5975 173.695 53.3617 173.688C53.876 173.688 54.3912 173.676 54.9055 173.676C55.4191 173.244 55.9475 172.826 56.4311 172.377C57.1965 171.688 57.1981 171.662 56.2633 170.992C55.671 170.549 55.0297 170.139 54.4201 169.72C53.6559 169.727 52.8754 169.745 52.1121 169.739C51.1461 169.734 50.7773 169.438 50.5896 168.561C50.4254 167.793 50.7328 167.19 51.4852 167.129C52.2531 167.07 52.9713 167.057 53.4041 166.444C53.8196 165.854 54.4856 165.69 55.2925 165.741C55.805 165.767 56.3211 165.742 56.8364 165.729C57.5079 165.71 57.9099 165.093 57.823 164.334C57.7796 163.844 57.6534 163.421 57.0583 163.24C54.418 162.444 54.386 162.453 53.1197 161.399C53.0016 161.305 52.9256 161.06 52.9802 160.949C53.0711 160.764 53.2612 160.499 53.4493 160.484C55.2458 160.426 57.0404 160.393 58.8305 160.425C59.422 160.435 59.861 160.4 60.0957 159.945C60.4203 159.318 60.3397 158.691 59.8311 158.167C59.6712 158.002 59.4057 157.785 59.2194 157.774C57.164 157.747 55.1195 157.787 53.0641 157.76C52.8769 157.763 52.5527 157.498 52.4874 157.32C52.3549 156.988 52.6157 156.602 53.1664 156.528C53.8906 156.424 54.6175 156.504 55.1421 155.915C55.8712 155.078 56.7492 154.338 57.5528 153.549C57.6874 153.409 57.9095 153.136 57.865 153.104C57.4989 152.769 57.0664 152.491 56.684 152.166C56.0363 151.625 56.081 150.988 56.2784 150.397C56.4367 149.919 56.9139 149.783 57.4854 149.857C57.7325 149.888 58.0415 149.928 58.2505 149.837C58.7958 149.618 58.9914 149.276 58.748 148.969C58.6045 148.794 58.3421 148.537 58.1549 148.54C54.8191 148.545 51.4685 148.536 48.1409 148.648C47.1567 148.68 46.7438 148.128 46.1815 147.703C45.7528 147.372 45.3428 147.215 44.773 147.339C44.235 147.454 43.7327 147.285 43.4385 146.814C43.2006 146.43 43.6849 146.19 44.9599 146.012C45.1961 145.977 45.4614 145.972 45.6404 145.863C47.531 144.689 47.5319 144.676 48.7804 144.653C49.9972 144.638 49.9984 144.625 50.6847 143.952C51.0029 143.639 51.3517 143.33 51.6553 143.001C51.7735 142.872 51.9774 142.636 51.9211 142.55C51.6096 142.104 51.1524 141.954 50.6053 141.976C49.385 142.042 47.9768 141.679 47.2567 142.832C46.9766 143.268 46.5813 143.349 46.0197 143.355C40.3749 143.394 34.7263 143.484 29.0679 143.494C28.1483 143.495 27.6976 143.922 27.3049 144.409C26.9649 144.812 26.6158 144.898 26.0233 144.901C25.4309 144.904 24.9645 144.884 24.6548 144.411C24.4723 144.126 24.6679 143.784 25.1569 143.479C25.8577 143.044 25.7797 142.379 25.6064 141.741C25.4803 141.318 25.0216 140.971 24.51 140.932C23.7494 140.887 23.0136 140.937 22.4168 140.336C22.0671 139.99 21.6183 139.722 21.2195 139.409C20.4537 138.774 19.6888 138.125 18.5365 138.332C17.7733 138.103 17.2656 137.566 16.6733 137.123C15.6804 136.393 15.5942 136.29 16.3804 135.749C17.2648 135.141 16.6817 134.122 17.1945 133.48C17.7418 132.789 18.4683 132.214 19.1201 131.589C19.2874 131.427 19.4384 131.276 19.6056 131.114C19.2686 130.808 18.9672 130.442 18.5629 130.207C18.0387 129.904 17.7808 129.582 17.8683 128.781C17.7684 128.65 17.7934 128.955 17.9115 129.048C18.0451 129.144 18.3897 129.123 18.566 129.054C19.0159 128.862 19.2548 128.565 19.1659 128.278C19.1141 128.127 18.8337 127.908 18.6483 127.884C18.3085 127.841 17.9949 128.089 17.8529 128.779C16.0853 129.09 14.2749 129.121 12.4685 129.099C12.2813 129.102 12.068 128.812 11.8609 128.655C11.1814 128.122 11.1804 128.135 9.10421 127.738C8.88887 127.698 8.60832 127.478 8.51299 127.282C8.12079 126.433 8.19761 125.564 8.04077 124.692C8.48078 124.197 8.91956 123.716 9.37411 123.237C10.2841 122.265 11.4324 121.455 12.1643 120.355C12.0701 119.701 11.9295 119.04 12.6457 118.608C14.6223 118.205 14.607 118.203 15.176 117.646C16.7987 116.071 18.4068 114.48 20.0894 112.939C20.5384 112.538 20.5559 112.291 19.8281 112.001C19.6001 111.919 19.3535 111.875 19.1045 111.869C18.3258 111.861 17.537 111.996 16.7838 111.847C16.0296 111.712 15.5138 111.069 14.9206 110.639C14.3128 110.194 13.7061 109.736 13.0992 109.278C12.3705 109.225 11.619 109.495 10.9342 108.818C10.4101 108.292 9.73787 107.878 9.13106 107.42C9.67938 106.494 10.6285 105.855 11.3848 105.073C12.0739 104.362 12.0881 104.377 13.8302 103.984C14.6536 103.8 15.0349 102.368 14.3854 101.852C13.6033 101.227 12.7723 100.636 11.9729 100.036C11.2441 99.9817 10.4781 100.238 9.82418 99.5642C9.31462 99.0533 8.71765 98.6753 7.80985 98.7296C6.27594 98.8218 4.72124 98.7671 3.17555 98.8054C2.64487 98.8162 2.07682 98.6911 1.8762 98.2197C1.74367 97.8881 2.22183 97.5166 2.73797 97.4908C3.51946 97.4597 4.22546 97.3927 4.65734 96.7925C5.07377 96.1902 5.76708 96.0821 6.57671 96.0939C6.7948 96.0956 7.0531 95.9713 7.1722 95.8292C7.78131 95.1467 8.44493 94.5762 9.63251 94.7543C10.1451 94.5577 10.4304 94.2664 10.2979 93.9348C10.2171 93.754 9.90837 93.4917 9.72118 93.494C8.42995 93.4599 7.13876 93.4259 5.87111 93.4997C5.27681 93.5285 4.82679 93.4971 4.48349 93.0599C4.23917 92.7664 4.40286 92.4333 4.92367 92.1198C5.37904 91.8503 5.52926 91.4893 5.52945 91.0435C5.52443 90.0072 5.08196 89.6491 3.59449 89.5243C2.52499 89.44 2.27427 89.2374 2.10473 88.3242C2.05756 88.1084 1.92348 87.8028 2.04166 87.6737C2.76804 86.8752 3.27737 85.8391 4.55782 85.5834C5.06309 85.4907 5.58807 85.5578 5.92077 85.2595C6.25348 84.9612 6.55909 84.6069 6.90633 84.3236C7.33537 83.9851 7.63873 83.657 7.47073 83.3864C7.19288 82.9051 6.70149 82.8029 6.11898 82.8857C5.61554 82.9524 5.08945 82.8981 4.57422 82.9109C3.6528 82.9372 2.93528 82.5046 2.86737 81.919C2.67992 80.3743 2.47602 78.8405 2.31946 77.2997C2.30137 77.1138 2.39485 76.8897 2.52939 76.7496C3.0003 76.2592 3.50045 75.7988 3.98589 75.3233C4.55405 74.7798 5.38009 75.0035 6.09887 74.9775C7.1148 74.937 7.11355 74.9499 8.54518 73.8744C9.10512 73.4478 10.0028 73.7594 10.5745 73.3868C10.7545 73.2656 11.0336 73.0653 10.9964 72.9294C10.9465 72.7526 10.6468 72.5831 10.4206 72.4755C10.2098 72.3699 9.95004 72.2974 9.71559 72.3067C6.87775 72.3239 4.0536 72.3691 1.21667 72.3732C0.733247 72.377 0.228147 72.0239 0.0865701 71.5994C-0.0568355 71.2008 0.0213576 70.7519 0.0206305 70.3191C0.50607 69.8437 1.05036 69.4151 1.47675 68.8928C1.80132 68.4886 2.15493 68.3372 2.74374 68.3863C3.51882 68.4461 4.28676 68.387 5.16002 68.3807C6.89996 66.6892 8.61529 64.9028 10.4788 63.2271C11.2279 62.5494 11.1131 61.748 11.3097 60.9472C11.5017 60.2113 12.5284 60.4608 13.239 60.3288C13.8079 60.218 14.0223 59.8258 13.8261 59.5123C13.7144 59.3276 13.4503 59.0971 13.234 59.0694C12.7243 59.0042 12.2063 59.056 11.692 59.0557C11.1777 59.0555 10.5934 58.9415 10.1608 59.109C9.7446 59.2656 9.45077 59.6736 9.16167 60.0168C8.83892 60.3951 8.44296 60.4888 7.85415 60.4396C7.09543 60.3688 6.33035 60.3888 5.56706 60.383C4.76858 59.7695 3.9381 59.1652 3.17234 58.5297C3.02519 58.406 3.01515 58.1032 3.04431 57.9103C3.11085 57.4075 2.90116 57.0659 2.40878 56.7538C1.99089 56.4906 1.65661 56.1463 1.27327 55.8351C1.60689 55.5238 1.97061 55.2294 2.24427 54.8842C2.84068 54.1607 3.56063 53.6761 4.73276 53.8522C5.23182 53.4048 5.64632 52.8285 6.27343 52.5547C6.86873 52.29 7.81817 52.7522 8.30462 52.0409C8.54739 51.6918 8.90212 51.3045 9.33015 51.202C10.0117 51.0401 10.8676 51.2808 11.305 50.6025C11.5659 50.2164 11.9321 49.883 12.3874 49.8363C12.9054 49.7846 13.4323 49.8259 13.8203 49.6264C14.0303 49.5222 14.2612 49.3419 14.274 49.16C14.2822 49.0431 13.9863 48.8216 13.7756 48.716C13.5812 48.5993 13.3228 48.5008 13.0893 48.4971C12.3115 48.4763 11.5445 48.5223 10.7667 48.5015C10.5486 48.4998 10.3079 48.3773 10.0817 48.2697C9.41669 47.9748 9.48122 47.7209 10.0548 47.3223C10.6274 46.9367 11.0549 46.4013 11.5404 45.9259C12.0411 45.8982 12.6561 46.0162 13.0133 45.8128C13.6132 45.4831 14.0558 44.9497 14.5549 44.5023C15.0701 44.4895 15.5971 44.5308 16.086 44.4491C16.2905 44.4228 16.4034 44.1488 16.5852 44.0017C16.9169 43.7163 17.2127 43.2822 17.6407 43.1796C18.3368 43.0327 19.1645 43.2303 19.6164 42.5671C19.8774 42.1809 20.2636 41.7846 20.6979 41.814C21.9065 41.9162 22.4665 41.2666 23.1319 40.67C23.631 40.2225 24.6013 40.6089 25.1467 40.1674C25.5094 39.886 25.785 39.5148 26.1468 39.2464C26.295 39.1342 26.5929 39.1069 26.8274 39.0976C28.1077 39.0647 29.3998 39.0857 30.6811 39.0399C30.8847 39.0266 31.0839 38.8555 31.2493 38.7193C31.5975 38.423 31.831 37.9808 32.2481 37.8113C32.6653 37.6418 33.2367 37.7149 33.7356 37.7132C35.3404 37.7218 35.4604 37.7895 36.2641 36.778C36.9142 35.9565 38.3061 36.777 38.8544 35.8508C39.1727 35.3146 39.7151 34.9121 40.6311 34.9637C41.9196 35.0368 43.2035 34.9519 44.4975 34.947C45.6516 34.9373 45.6362 34.9353 46.9569 33.885C47.5514 33.4104 48.3648 33.5932 49.0981 33.5821C49.8777 33.5769 50.5992 33.512 51.0156 32.9097C51.4311 32.3205 52.1253 32.1994 52.9195 32.2092C53.6519 32.2111 54.4662 32.3809 55.0743 31.9343C56.5523 30.8648 56.5378 30.8497 57.5201 30.8443C59.064 30.832 60.6078 30.8198 62.1526 30.7945C63.1821 30.782 64.2497 30.8924 65.2276 30.729C65.9373 30.6101 66.2973 29.922 66.7809 29.4725C68.0613 29.4397 69.3416 29.4067 70.621 29.3868C72.4157 29.3542 74.224 29.3496 76.0332 29.3319C76.8402 28.937 77.0254 27.8594 78.3266 27.9734C79.1008 28.0462 79.8695 27.9742 80.6492 27.969C81.9441 27.9511 83.2271 27.8792 84.5156 27.9523C85.4934 28.0118 85.7124 27.3318 86.2532 26.9552C86.4341 26.8211 86.6042 26.62 86.8078 26.6067C88.8415 26.4998 90.9167 26.6866 92.9159 26.4048C93.1204 26.3786 93.325 26.1294 93.3851 25.9404C93.4233 25.8404 93.1744 25.612 93.0108 25.4993C92.8173 25.3697 92.5621 25.2321 92.3441 25.2304C85.9033 25.2849 79.4617 25.3524 73.0209 25.4068C72.1158 25.4222 72.1168 25.4091 69.8382 26.5598C69.6446 26.653 69.419 26.7552 69.1845 26.7645C68.1541 26.79 67.1127 26.7487 66.095 26.8152C65.2653 26.8664 64.5969 26.6234 64.0428 26.0805C63.6495 25.6893 63.2241 25.5301 62.6971 25.4889C62.1073 25.4528 61.7113 25.5464 61.3468 25.8537C60.865 26.2772 60.5894 26.8712 59.638 26.8806C55.2581 26.884 50.8734 26.9524 46.5062 26.9968C45.9166 26.7378 45.6423 26.4275 45.8196 26.1224C45.926 25.9393 46.1298 25.7032 46.317 25.7009C48.1125 25.6553 49.9208 25.6507 51.7154 25.618C51.9653 25.6107 52.3033 25.68 52.4515 25.5679C53.1723 25.0701 53.4864 24.1532 54.7731 24.2523C55.5173 24.3082 56.2878 24.2101 57.0111 24.1191C57.2156 24.0928 57.4202 23.8437 57.4803 23.6547C57.503 23.5527 57.2696 23.3261 57.0906 23.2115C56.4374 22.7477 55.6178 23.1019 54.9564 22.755C54.7311 22.6344 54.4157 22.4629 54.3803 22.3011C54.3595 22.1542 54.6385 21.9539 54.834 21.8347C55.013 21.7265 55.2528 21.6392 55.4873 21.6299C57.5473 21.5918 59.6085 21.5408 61.664 21.5678C62.5045 21.5836 63.1142 21.3338 63.527 20.7835C63.8361 20.3773 64.1924 20.1869 64.7221 20.1891C68.3242 20.1649 71.9298 20.0886 75.5445 20.1053C76.4478 20.1159 76.9415 19.7465 77.3516 19.2352C77.6761 18.8309 78.027 18.7185 78.604 18.7136C83.7645 18.692 88.8994 18.5886 94.058 18.593C95.0085 18.5966 95.326 18.0734 95.8387 17.6539C96.0205 17.5067 96.1429 17.3126 96.3665 17.2363C96.5901 17.1601 96.8672 17.2085 97.1316 17.2161C101.249 17.1791 105.369 17.1032 109.499 17.1071C110.465 17.1127 110.696 16.4866 111.222 16.0951C111.402 15.9739 111.573 15.7598 111.777 15.7465C114.866 15.696 117.954 15.6715 121.043 15.634C123.102 15.6089 125.161 15.5839 127.219 15.5719C128.232 15.5704 128.233 15.5573 129.679 14.4968C129.844 14.3737 130.072 14.2324 130.276 14.2191C136.204 14.1384 142.114 14.0949 148.041 14.0272C148.54 14.0255 148.916 13.7719 149.195 13.3617C149.473 12.9516 149.85 12.6982 150.333 12.6945C154.966 12.6317 159.599 12.582 164.245 12.5601C165.086 12.5629 165.695 12.3261 166.107 11.7888C166.416 11.3826 166.772 11.1923 167.302 11.1945C171.934 11.1577 176.568 11.0818 181.214 11.073C182.102 11.0687 182.566 10.6823 183.035 10.2179C183.202 10.0557 183.347 9.77266 183.534 9.77039C185.846 9.69903 188.143 9.61267 190.462 9.66023C191.427 9.67879 191.79 9.17455 192.212 8.70421C192.551 8.32794 192.916 8.23051 193.507 8.25362C194.797 8.3007 196.079 8.24192 197.346 8.18109C197.534 8.16583 197.786 7.9096 197.814 7.72966C197.869 7.39578 197.53 7.1164 196.951 6.92436C190.775 6.98642 184.583 7.04647 178.407 7.10852C177.392 7.12301 177.392 7.12308 175.946 8.18357C175.782 8.30674 175.553 8.44799 175.334 8.45931C169.407 8.52699 163.496 8.58369 157.569 8.65138C157.07 8.65312 156.694 8.90652 156.415 9.31668C156.137 9.72685 155.761 9.9802 155.277 9.98391C149.615 10.0462 143.952 10.1216 138.277 10.1429C137.436 10.1402 136.828 10.3638 136.415 10.9141C136.106 11.3203 135.75 11.5108 135.22 11.5086C129.809 11.5505 124.41 11.6333 118.985 11.6473C118.44 11.6431 118.065 11.2149 118.121 10.868C118.149 10.6881 118.401 10.419 118.589 10.4167C121.415 10.3456 124.226 10.2595 127.061 10.2943C128.01 10.3109 128.328 9.7747 128.841 9.35519C129.007 9.20604 129.146 9.00098 129.354 8.93571C129.577 8.85943 129.854 8.90803 130.119 8.91564C136.81 8.84083 143.503 8.75308 150.206 8.73222C151.173 8.7248 151.403 8.11171 151.929 7.72017C152.11 7.58599 152.281 7.37195 152.484 7.37165C154.545 7.32065 156.603 7.30857 158.661 7.29655C162.264 7.25927 165.867 7.22195 169.486 7.18664C170.531 7.17611 170.531 7.17605 171.945 6.1246C172.11 6.00144 172.339 5.84735 172.541 5.84705C182.072 5.74208 191.602 5.63709 201.132 5.54511C201.631 5.54338 202.007 5.28998 202.285 4.87981C202.562 4.48265 202.94 4.21623 203.424 4.19953C216.307 4.06464 229.175 3.9277 242.057 3.81879C242.899 3.80855 243.505 3.61074 243.919 3.04747C244.213 2.63928 244.584 2.4509 245.115 2.44013C259.277 2.29836 273.439 2.15661 287.617 2.00382C297.147 1.91184 306.678 1.79389 316.206 1.7279C317.079 1.72161 317.571 1.378 318.041 0.900594C318.193 0.736469 318.353 0.455393 318.54 0.453119C320.586 0.387145 322.631 0.347195 324.675 0.307208C325.284 0.739051 325.893 1.15796 326.502 1.5898C327.016 1.15731 327.515 0.709844 328.029 0.277348C331.114 0.291796 334.167 0.0923992 337.269 0.305702C337.471 0.318397 337.669 0.592959 337.876 0.750559C339.255 1.75292 340.079 1.79268 341.067 0.817817C341.419 0.469509 341.721 0.154251 342.22 0.152518C343.766 0.114264 345.322 0.155978 346.855 0.0767677C347.684 0.0385701 348.354 0.255391 348.908 0.798248C349.301 1.18943 349.724 1.38779 350.239 1.37504C353.078 1.34488 355.9 1.32568 358.741 1.26953C358.944 1.26923 359.144 1.07195 359.31 0.935787C359.658 0.639453 359.962 0.311304 360.295 0C360.697 0.274243 361.148 0.502474 361.468 0.831804C361.877 1.22497 362.278 1.27625 362.872 1.26039C374.197 1.12279 385.535 1.02618 396.86 0.875587C397.827 0.868167 398.206 1.46731 398.835 1.83616C399.044 1.96778 399.251 2.1253 399.481 2.18093C399.726 2.23853 399.994 2.19423 400.244 2.18687C408.745 2.0944 417.245 2.01487 425.746 1.9224C426.869 1.90876 426.869 1.90877 428.465 2.9258C428.658 3.05544 428.913 3.20598 429.132 3.19467C432.998 3.17798 436.867 3.12235 440.719 3.0907C441.218 3.08896 441.621 3.3502 442.048 3.70635C442.887 4.4037 442.948 4.41161 443.658 3.63703C443.995 3.27375 444.337 3.06826 444.855 3.01653C445.42 2.95773 445.865 3.05419 446.281 3.3434C446.876 3.74728 447.286 4.35024 448.238 4.32785C452.359 4.23884 456.488 4.25577 460.595 4.15179C461.531 4.12742 461.995 4.63243 462.59 5.03631C462.798 5.18091 462.986 5.38851 463.215 5.45713C463.444 5.52575 463.728 5.47027 463.978 5.46291C469.125 5.41336 474.286 5.37889 479.421 5.27539C480.389 5.25497 480.767 5.86695 481.395 6.2358C481.604 6.36742 481.839 6.58102 482.041 6.58073C485.128 6.56919 488.232 6.53355 491.321 6.49603C492.429 6.48041 492.428 6.49336 494.04 7.49938C494.234 7.62901 494.489 7.76661 494.707 7.76829C498.309 7.744 501.928 7.70867 505.531 7.67139C506.638 7.65577 506.638 7.6558 509.757 8.73656C509.985 8.81817 510.227 8.92784 510.46 8.9315C514.578 8.89445 518.709 8.87229 522.83 8.79627C523.656 8.78406 524.329 8.97494 524.883 9.5178C525.276 9.90898 525.699 10.1073 526.214 10.0945C530.846 10.0448 535.493 10.023 540.112 9.93223C541.002 9.91493 541.553 10.2738 542.145 10.7296C542.336 10.8852 542.525 11.0929 542.753 11.1745C542.981 11.2561 543.247 11.2377 543.497 11.2303C548.129 11.1806 552.774 11.1717 557.395 11.068C558.332 11.0436 558.795 11.5486 559.39 11.9525C559.598 12.0971 559.813 12.3606 560 12.3713C561.807 12.3797 563.613 12.4141 565.412 12.3165C566.382 12.2571 566.757 12.908 567.386 13.2769C567.596 13.3955 567.829 13.6221 568.032 13.6218C571.898 13.6051 575.767 13.5625 579.621 13.5049C580.167 13.4961 580.56 13.6643 580.969 14.0574C581.508 14.5853 582.16 14.8522 583.004 14.816C584.802 14.7444 586.608 14.7658 588.417 14.7481C589.478 14.7396 589.478 14.7396 592.643 15.8263C592.871 15.9079 593.113 16.0174 593.346 16.0211C596.434 15.9965 599.536 15.987 602.611 15.9215C603.439 15.8963 604.111 16.1002 604.665 16.643C605.058 17.0342 605.465 17.2306 605.996 17.2198C608.834 17.1896 611.658 17.1575 614.497 17.1273C615.526 17.1148 616.563 16.9983 617.583 17.1287C618.323 17.2366 618.82 17.9294 619.462 18.3262C619.641 18.4409 619.957 18.3766 620.206 18.3822C623.809 18.3449 627.425 18.3485 631.017 18.2443C631.954 18.2199 632.417 18.7249 633.012 19.1288C633.22 19.2734 633.435 19.5369 633.622 19.5476C634.914 19.5687 636.194 19.5358 637.488 19.5309C639.032 19.5187 640.587 19.5604 642.121 19.4681C643.374 19.3923 643.757 20.582 644.743 20.7475C645.497 20.8833 646.285 20.7612 647.05 20.7541C648.593 20.7418 650.139 20.7036 651.681 20.7173C652.226 20.7215 652.658 20.5669 652.861 20.1209C652.898 20.0339 652.65 19.8055 652.488 19.6668C650.527 18.0787 650.526 18.0786 648.436 18.0996C647.142 18.1175 645.862 18.1374 644.569 18.1293C644.351 18.1277 644.111 17.9921 643.9 17.8865C643.298 17.5866 643.378 17.3346 643.936 16.934C644.494 16.5335 644.936 16.0131 645.421 15.5377C646.031 15.9566 646.625 16.3734 647.235 16.7922C647.749 16.7925 648.265 16.7798 648.779 16.7801C651.351 16.7683 653.925 16.7435 656.495 16.7577C656.683 16.7554 656.896 17.0449 657.103 17.2025C657.694 17.6584 658.228 18.0543 659.134 18.026C661.446 17.9416 663.767 17.9632 666.076 17.9308C667.09 17.9163 667.09 17.9163 668.794 18.9472C668.989 19.0638 669.244 19.2014 669.462 19.2031C671.785 19.1986 674.094 19.1663 676.417 19.1489C676.916 19.1471 677.383 19.3773 677.712 19.7996C677.84 19.9733 677.791 20.2292 678.228 22.4352C679.929 24.3965 681.193 24.3747 682.471 24.3809C683.016 24.3851 683.499 24.3813 683.873 24.1668C684.068 24.0476 684.315 23.8693 684.326 23.7004C684.336 23.5705 684.011 23.3191 683.796 23.2655C682.285 22.81 680.794 23.17 679.288 23.0952C678.589 23.0583 678.019 22.5265 677.947 21.77C677.931 21.5582 677.9 21.3314 677.869 21.1175C677.837 20.9037 677.822 20.6789 677.79 20.4651C677.192 20.3231 676.82 20.5114 676.527 20.9196C676.285 21.2558 675.946 21.632 675.516 21.7736C675.084 21.9281 674.515 21.8161 674.001 21.8159C673.502 21.8176 672.95 21.9173 672.493 21.7671C672.036 21.6039 671.692 21.1796 671.276 20.8903C671.083 20.7477 670.848 20.5473 670.646 20.5476C668.854 20.5412 667.077 20.5368 665.296 20.5973C664.359 20.6347 663.933 20.0298 663.37 19.6168C662.925 19.2977 662.457 19.3033 662.338 19.8911C662.036 21.2947 662.705 21.9833 664.3 21.912C665.614 21.8441 666.79 21.9554 667.748 22.9694C667.879 23.1041 668.199 23.1975 668.402 23.1972C669.679 23.2034 670.944 23.1685 672.222 23.1746C672.455 23.1783 672.699 23.2618 672.912 23.3414C676.014 24.4462 676.013 24.4593 677.09 24.4397C677.605 24.4269 678.103 24.4252 678.196 22.4442C679.318 20.4508 680.873 20.5055 682.393 20.3853C683.38 20.3149 683.757 20.94 684.369 21.3198C684.578 21.4515 684.795 21.689 684.998 21.6887C688.349 21.6848 691.687 21.6528 695.026 21.5949C695.588 21.5881 695.984 21.7174 696.393 22.1106C696.918 22.6105 697.517 22.9625 698.409 22.9192C700.192 22.8326 701.997 22.867 703.807 22.8363C704.728 22.823 704.728 22.8229 706.509 23.8636C706.704 23.9802 706.959 24.1178 707.177 24.1195C708.984 24.1278 710.78 24.0823 712.573 24.0757C713.072 24.0739 713.507 24.3131 713.868 24.7133C714.23 25.1135 714.681 25.3547 715.164 25.351C716.972 25.3464 718.767 25.3138 720.56 25.3072C720.778 25.3089 721.034 25.4334 721.228 25.55C723.056 26.5967 723.056 26.5966 723.93 26.5773C725.211 26.5444 726.515 26.6196 727.784 26.5198C729.023 26.416 729.603 27.2506 730.408 27.7731C732.715 27.7667 735.034 27.8143 737.33 27.741C738.268 27.7036 738.732 28.1956 739.326 28.6125C739.534 28.7571 739.733 29.0316 739.935 29.0443C740.711 29.0911 741.478 29.0451 742.242 29.038C743.007 29.0309 743.786 29.0257 744.55 29.0186C745.389 29.5061 745.898 30.4627 747.155 30.322C747.909 30.2349 748.7 30.2967 749.464 30.2896C750.228 30.2825 751.008 30.2773 751.772 30.2702C752.286 30.2705 752.814 30.2986 753.317 30.2449C754.242 30.1666 754.645 30.8606 755.274 31.2295C755.484 31.3481 755.72 31.5355 755.922 31.5352C757.464 31.549 759.02 31.5907 760.539 31.4835C761.714 31.3978 762.475 31.8884 763.255 32.5389C763.417 32.6776 763.706 32.7801 763.924 32.7818C765.731 32.7901 767.527 32.7444 769.319 32.7378C769.803 32.734 770.252 33.0012 770.614 33.3885C770.991 33.7907 771.427 34.017 771.926 34.0153C773.719 34.0086 775.529 33.9779 777.322 33.9713C777.54 33.973 777.795 34.1105 777.989 34.2402C779.662 35.2671 779.661 35.2801 780.692 35.2546C780.942 35.2472 781.206 35.2547 781.456 35.2474C782.735 35.2275 784.053 35.3306 785.311 35.1768C786.756 35.0078 787.76 35.582 788.712 36.4511C789.99 36.4572 791.294 36.5322 792.548 36.4304C793.488 36.3541 793.948 36.911 794.543 37.3149C794.751 37.4595 794.966 37.723 795.153 37.7207C796.961 37.7291 798.766 37.7635 800.55 37.6639C801.52 37.6045 801.896 38.2425 802.524 38.6243C802.733 38.7559 802.952 38.9676 803.155 38.9673C804.181 38.9937 805.212 38.9682 806.242 38.9557C807.443 38.9389 807.442 38.9519 808.962 39.946C809.677 40.4177 810.439 40.2137 811.172 40.2156C811.951 40.2105 812.683 40.2254 813.263 40.8372C813.625 41.2244 814.074 41.4916 814.557 41.5009C815.585 41.5144 816.628 41.5299 817.646 41.4634C818.46 41.4103 819.147 41.603 819.701 42.1589C820.094 42.5501 820.515 42.7745 821.03 42.7617C823.338 42.7423 825.662 42.7118 827.969 42.7054C828.172 42.7051 828.442 42.8576 828.619 42.9983C829.035 43.2875 829.434 43.6007 829.833 43.9139C830.845 43.9254 831.883 44.0059 832.885 43.9505C833.948 43.903 834.91 43.9605 835.679 44.7799C835.838 44.9575 836.069 45.2099 836.271 45.2226C837.047 45.2694 837.813 45.2364 838.577 45.2292C839.341 45.2221 840.121 45.217 840.885 45.2099C841.743 45.6473 842.233 46.654 843.49 46.5133C844.244 46.4262 845.035 46.488 845.799 46.4809C846.563 46.4738 847.344 46.4556 848.107 46.4615C848.356 46.4671 848.639 46.4377 848.851 46.5173C849.079 46.599 849.267 46.8066 849.459 46.9622C850.05 47.4181 850.596 47.868 851.492 47.7598C852.246 47.6727 853.036 47.7345 853.801 47.7144C854.846 47.7039 854.846 47.7039 856.504 48.7418C857.175 49.1686 857.994 48.8276 858.638 49.1984C859.072 49.4506 859.435 49.8248 859.852 50.101C860.031 50.2157 860.322 50.2921 860.54 50.2938C861.568 50.3073 862.611 50.3228 863.629 50.2564C864.458 50.2052 865.127 50.448 865.666 50.9889C866.059 51.3801 866.466 51.5764 866.997 51.5656C869.571 51.5279 872.142 51.542 874.703 51.4633C875.579 51.431 876.258 51.7409 876.704 52.2699C877.466 53.1802 878.691 52.3799 879.495 53.1383C879.992 53.6083 880.484 54.1433 881.456 54.0709C883.24 53.9583 885.045 54.0055 886.838 53.9989C887.446 54.4307 888.055 54.8626 888.679 55.2965C889.709 55.2839 890.738 55.2713 891.767 55.2718C892.531 55.2647 893.312 55.2466 894.075 55.2525C894.324 55.2581 894.59 55.2397 894.817 55.3343C895.044 55.4289 895.218 55.6216 895.425 55.7792C896.446 56.5522 896.445 56.5653 898.224 56.5307C898.989 56.5105 899.721 56.5255 900.318 57.1262C900.871 57.6821 901.559 57.8619 902.373 57.8217C903.905 57.7555 905.448 57.7563 907.006 57.772C907.489 57.7683 907.921 58.0464 908.299 58.4356C908.864 59.0454 909.609 59.0883 910.376 59.0422C911.393 58.9888 912.394 58.9333 913.193 59.7697C913.352 59.9473 913.599 60.2017 913.785 60.2124C915.059 60.2705 916.347 60.3566 917.6 60.2678C918.853 60.179 919.399 61.0617 920.221 61.5602C921.499 61.5533 922.793 61.5484 924.072 61.5415C924.322 61.5341 924.623 61.4548 924.835 61.5474C925.727 61.9369 926.184 62.9785 927.456 62.8398C928.194 62.7637 928.985 62.8126 929.745 62.8704C929.947 62.8831 930.194 63.1375 930.321 63.3242C930.392 63.4251 930.297 63.662 930.195 63.7801C929.892 64.1083 929.528 64.4028 929.254 64.748C929.22 64.796 929.497 65.0674 929.66 65.193C930.06 65.4803 930.542 65.5026 931.105 65.4698C931.59 65.4401 932.072 65.6853 932.384 66.1186C932.512 66.2923 932.448 66.5462 932.094 67.3662C932.049 68.0029 932.394 67.7584 932.531 67.3565C932.743 66.7805 932.432 66.5441 931.791 66.7899C931.342 66.9685 931.103 67.2787 931.192 67.5654C931.243 67.7162 931.524 67.9357 932.094 67.3662C933.508 66.7605 934.538 66.7481 935.567 66.7356C935.833 66.7302 936.151 66.6397 936.331 66.7413C936.973 67.1382 937.564 67.5941 938.188 68.0279C938.935 68.0448 939.644 67.9387 940.334 68.5383C941.304 69.3834 941.355 69.3244 942.353 69.3079C942.869 69.2952 943.383 69.2955 943.897 69.2958C944.411 69.296 944.799 69.5422 945.226 69.8983C946.094 70.6256 946.172 70.6355 946.833 69.881C947.224 69.4197 947.483 69.2824 947.914 69.5736C949.341 70.5559 949.353 70.6098 950.636 70.5379C951.7 70.4774 952.693 70.5519 953.413 71.3914C953.901 71.9783 954.08 71.8831 954.535 71.3907C955.749 70.0907 956.256 70.1819 958.269 71.4881C959.207 72.1063 960.249 71.7021 961.242 71.7636C962.08 71.8184 962.645 72.2052 962.649 73.0317C962.66 73.5444 962.773 73.9261 963.317 74.1661C963.529 74.2588 963.785 74.3833 964.003 74.385C965.296 74.393 966.576 74.3731 967.87 74.3552C968.526 74.3473 968.924 73.7822 968.857 72.9608C968.779 72.0854 969.047 71.805 969.992 71.6767C970.558 71.6049 971.004 71.6884 971.436 71.9796C971.912 72.3027 971.756 72.5187 971.291 72.9312C970.175 73.9422 970.25 74.6596 971.522 75.6221C971.966 75.9543 972.32 76.2486 972.399 76.6653C972.447 76.8811 972.366 77.146 972.494 77.3197C973.189 78.2871 974.2 78.9803 975.345 79.5462C976.497 79.3397 977.229 80.0231 978.061 80.6015C978.715 81.0523 979.54 80.8432 980.275 80.8062C981.104 80.768 981.776 80.9589 982.329 81.5147C982.723 81.9059 983.144 82.1171 983.658 82.1173C984.688 82.1048 985.729 82.1463 986.748 82.0668C987.626 81.9956 988.256 82.3385 988.766 82.8494C989.406 83.4951 990.19 83.2151 990.895 83.3839C991.846 83.5974 992.244 84.8151 993.517 84.6633C994.271 84.5762 995.048 84.6101 995.824 84.6569C996.026 84.6696 996.257 84.9221 996.416 85.0998C997.185 85.9192 998.145 86.0027 999.21 85.9292C999.946 85.8791 1000.67 85.8401 1001.34 86.4248C1002.46 87.4065 1003.7 88.3002 1004.89 89.2249C1005.01 89.8444 1004.84 90.53 1005.7 90.9935C1006.15 91.2347 1006.56 91.563 1006.89 91.9073C1007.3 92.3135 1007.7 92.4558 1008.26 92.436C1009.28 92.3825 1010.33 92.4778 1011.33 92.3704C1012.26 92.2791 1012.8 92.7811 1013.33 93.255C1013.75 93.6372 1014.16 93.8464 1014.72 93.6817C1015.29 93.5319 1015.68 93.7262 1016.1 94.1343C1016.7 94.6961 1016.75 94.6501 1018.85 95.0618C1019.06 95.1025 1019.31 95.3308 1019.42 95.5155C1019.48 95.6144 1019.32 95.8567 1019.2 95.9728C1019.05 96.1109 1018.82 96.265 1018.62 96.2783C1016.31 96.3237 1013.99 96.3281 1011.68 96.3735C1011.44 96.3828 1011.19 96.4423 1011.01 96.5505C1010.81 96.6697 1010.57 96.8348 1010.56 97.0167C1010.55 97.1467 1010.84 97.3421 1011.05 97.4608C1011.71 97.8466 1012.55 97.4946 1013.19 97.9174C1013.62 98.1956 1013.97 98.5547 1014.4 98.82C1014.58 98.9346 1014.88 98.9593 1015.11 98.9629C1015.89 98.9708 1016.66 98.9377 1017.43 98.9585C1017.65 98.9732 1017.89 99.1348 1018.08 99.2644C1019.51 100.234 1019.51 100.234 1020.8 100.229C1021.32 100.229 1021.87 100.103 1022.35 100.242C1022.8 100.38 1023.18 100.782 1023.58 101.056C1024.41 101.635 1025.2 102.194 1025.19 103.215C1025.19 103.609 1025.68 104.012 1026.19 104.103C1026.68 104.193 1027.22 104.117 1027.73 104.104C1028.95 104.102 1028.95 104.102 1030.45 105.095C1030.87 105.371 1031.33 105.456 1031.9 105.397C1032.12 105.373 1032.37 105.459 1032.6 105.553C1033.34 105.845 1033.33 106.092 1032.8 106.496C1032.06 107.096 1032.11 107.169 1034.02 108.003C1034.74 108.318 1035.29 108.807 1035.88 109.25C1036.84 109.963 1036.83 109.961 1036.11 110.643C1035.94 110.792 1035.79 110.956 1035.62 111.118C1035.14 111.568 1034.75 112.068 1033.82 112.001C1032.79 111.923 1031.76 112.001 1030.73 112.013C1029.73 112.03 1029.45 112.308 1029.48 113.203C1029.51 114.282 1029.7 114.425 1031.48 114.639C1031.99 114.705 1032.43 114.866 1032.79 115.266C1032.58 115.658 1032.21 115.939 1031.71 115.954C1030.43 115.987 1029.14 115.992 1027.86 115.999C1026.83 116.011 1025.8 116.024 1024.77 116.036C1024.13 116.046 1023.68 116.671 1023.8 117.446C1023.86 117.887 1023.91 118.325 1023.96 118.764C1024.07 119.643 1024.38 119.906 1025.41 119.999C1025.68 120.02 1025.93 119.947 1026.18 120.005C1027.17 120.224 1027.58 121.364 1028.8 121.297C1029.81 121.244 1030.87 121.339 1031.87 121.232C1032.8 121.14 1033.28 121.674 1033.88 122.105C1034.09 122.25 1034.31 122.526 1034.49 122.537C1035.79 122.558 1037.08 122.579 1038.35 122.493C1038.94 122.464 1039.29 122.587 1039.73 122.958C1040.79 123.854 1040.82 123.819 1042.49 123.797C1043.71 123.769 1043.72 123.797 1045.21 124.787C1045.63 125.063 1046.09 125.122 1046.66 125.09C1047.39 125.053 1048.16 124.942 1048.91 125.233C1049.14 125.315 1049.42 125.508 1049.48 125.687C1049.52 125.81 1049.28 126.068 1049.09 126.136C1047.69 126.637 1046.1 126.317 1044.6 126.4C1044.13 126.419 1043.69 126.112 1043.32 125.712C1042.95 125.31 1042.53 125.112 1042 125.11C1040.97 125.122 1039.92 125.081 1038.91 125.16C1038.03 125.231 1037.45 124.855 1036.87 124.376C1036.68 124.22 1036.47 123.943 1036.27 123.931C1033.96 123.898 1031.64 123.864 1029.34 123.937C1028.42 123.976 1027.93 123.493 1027.33 123.063C1027.12 122.919 1026.93 122.644 1026.72 122.632C1025.95 122.585 1025.18 122.631 1024.4 122.636C1021.56 122.666 1018.74 122.698 1015.9 122.702C1015.72 122.705 1015.5 122.402 1015.3 122.258C1014.89 121.97 1014.48 121.694 1014.06 121.418C1013.28 121.423 1012.51 121.456 1011.74 121.435C1011.18 121.416 1010.67 121.535 1010.56 122.019C1010.49 122.338 1010.98 122.702 1011.52 122.745C1012.05 122.786 1012.58 122.697 1013 122.922C1015.09 124.028 1015.09 124.041 1016.45 124.044C1017.63 124.038 1017.52 123.892 1018.5 124.739C1018.93 125.108 1019.32 125.342 1019.83 125.329C1021.11 125.309 1022.41 125.291 1023.7 125.299C1023.9 125.299 1024.16 125.463 1024.35 125.592C1025.81 126.566 1025.81 126.591 1027.07 126.557C1028.73 126.532 1028.79 126.475 1029.83 127.408C1030.55 128.051 1031.27 127.763 1032 127.83C1032.8 128.443 1033.68 129.015 1034.4 129.683C1035.24 130.473 1036.19 130.477 1037.23 130.412C1037.99 130.366 1038.74 130.409 1039.32 131.021C1039.87 131.59 1040.58 131.733 1041.39 131.705C1042.13 131.681 1042.88 131.529 1043.62 131.912C1043.82 132.016 1044.11 132.25 1044.09 132.365C1044.06 132.545 1043.84 132.779 1043.63 132.832C1042.18 133.182 1040.62 132.97 1039.1 133.025C1038.9 133.038 1038.64 132.862 1038.45 132.732C1038.04 132.443 1037.64 132.117 1037.24 131.817C1036.48 131.798 1035.7 131.725 1034.95 131.786C1034.37 131.83 1033.94 131.761 1033.54 131.396C1033.18 131.061 1032.78 130.657 1032.33 130.507C1031.87 130.356 1031.32 130.482 1030.8 130.495C1030.29 130.508 1029.7 130.393 1029.28 130.55C1028.87 130.706 1028.59 131.13 1028.3 131.46C1027.98 131.825 1027.57 131.904 1026.98 131.868C1026.44 131.837 1026.01 131.73 1025.63 131.315C1025.47 131.137 1025.25 130.991 1025.02 130.857C1024.81 130.738 1024.58 130.564 1024.37 130.564C1022.05 130.569 1019.74 130.601 1017.42 130.618C1016.26 130.628 1016.28 130.63 1013.96 129.559C1013.74 129.466 1013.49 129.342 1013.27 129.34C1011.98 129.332 1010.7 129.352 1009.4 129.37C1008.09 129.386 1008.11 129.362 1005.96 128.261C1005.57 128.053 1004.97 128.186 1004.49 128.099C1003.49 127.906 1003.07 126.751 1001.88 126.809C1000.87 126.862 999.813 126.767 998.792 126.872C997.866 126.963 997.373 126.442 996.78 126.012C996.572 125.867 996.358 125.577 996.171 125.58C993.849 125.571 991.54 125.604 988.479 125.251C987.722 125.154 988.043 125.471 988.531 125.625C989.231 125.859 989.482 125.616 989.133 125.047C988.88 124.647 988.491 124.414 988.161 124.463C987.987 124.493 987.753 124.713 988.479 125.251C989.248 125.848 989.182 126.115 989.31 126.288C989.624 126.709 990.092 126.926 990.59 126.937C991.368 126.945 992.134 126.912 992.912 126.933C993.13 126.934 993.386 127.059 993.58 127.189C995.222 128.212 995.234 128.266 997.063 128.185C997.641 128.167 998.058 128.22 998.489 128.525C999.083 128.941 999.491 129.57 1000.45 129.509C1001.71 129.422 1003.01 129.443 1004.3 129.465C1004.5 129.464 1004.7 129.726 1004.93 129.859C1005.54 130.252 1005.96 130.896 1006.92 130.77C1007.66 130.668 1008.45 130.717 1009.22 130.776C1009.43 130.789 1009.72 131.036 1009.8 131.217C1009.97 131.54 1009.71 131.861 1009.17 132.041C1008.94 132.117 1008.65 132.053 1008.4 132.061C1007.37 132.073 1006.34 132.099 1005.31 132.085C1004.77 132.081 1004.25 132.211 1004.15 132.684C1004.08 133.003 1004.62 133.36 1005.14 133.401C1005.92 133.461 1006.7 133.455 1007.45 133.381C1008.79 133.264 1009.92 133.488 1010.93 134.443C1011.65 135.111 1011.62 134.897 1012.3 136.689C1012.47 137.144 1013.07 137.26 1013.6 137.301C1014.87 137.398 1015.44 137.668 1015.31 138.057C1015.13 138.533 1014.67 138.632 1014.1 138.623C1013.07 138.597 1012.04 138.636 1011.01 138.648C1010.76 138.655 1010.48 138.698 1010.25 138.642C1010.02 138.587 1009.81 138.403 1009.62 138.26C1009.2 137.958 1008.86 137.534 1008.4 137.384C1007.94 137.233 1007.39 137.359 1006.88 137.372C1006.36 137.372 1005.81 137.497 1005.35 137.347C1004.89 137.197 1004.53 136.758 1004.13 136.471C1003.94 136.328 1003.71 136.114 1003.5 136.102C1002.48 136.075 1001.45 136.114 1000.42 136.113C999.155 136.122 999.155 136.122 997.697 135.123C997.281 134.834 996.833 134.789 996.254 134.82C995.003 134.87 994.991 134.829 992.788 133.787C992.578 133.681 992.321 133.557 992.102 133.568C989.78 133.572 987.471 133.605 985.163 133.624C983.182 133.646 983.182 133.646 982.009 134.807C981.138 135.666 981.123 135.664 981.879 136.206C982.487 136.651 983.021 137.257 983.702 137.541C984.338 137.806 985.183 137.324 985.852 138.012C986.186 138.357 986.626 138.741 987.07 138.85C987.776 139.006 988.56 138.726 989.199 139.385C989.519 139.714 990.008 140.078 990.44 140.147C991.195 140.269 991.982 140.16 992.745 140.166C992.978 140.17 993.241 140.203 993.453 140.296C993.679 140.404 993.869 140.585 994.06 140.741C994.647 141.262 995.297 141.554 996.116 141.436C997.454 141.24 998.615 141.573 999.576 142.535C999.707 142.669 1000.05 142.726 1000.27 142.701C1000.83 142.643 1001.31 142.691 1001.71 142.991C1001.87 143.117 1002.11 143.33 1002.07 143.443C1002.01 143.632 1001.8 143.868 1001.6 143.908C1000.12 144.164 998.552 144.016 997.038 144.058C996.835 144.059 996.6 143.858 996.407 143.715C995.991 143.426 995.648 142.989 995.191 142.839C994.734 142.689 994.181 142.788 993.667 142.788C993.153 142.788 992.598 142.914 992.14 142.776C991.683 142.626 991.274 142.246 990.923 141.913C990.513 141.532 990.099 141.44 989.518 141.497C988.765 141.571 987.991 141.498 987.228 141.492C986.828 141.192 986.43 140.866 986.014 140.577C985.821 140.434 985.584 140.26 985.367 140.245C984.34 140.218 983.31 140.244 982.28 140.256C981.25 140.269 981.251 140.269 979.577 139.242C979.383 139.125 979.127 138.988 978.909 138.986C977.616 138.978 976.336 139.011 975.043 139.003C974.544 139.004 974.109 138.765 973.732 138.363C973.371 137.963 972.921 137.709 972.437 137.712C970.379 137.724 968.322 137.723 966.26 137.787C965.432 137.813 964.745 137.607 964.222 137.068C963.611 136.452 962.876 136.489 962.112 136.496C960.379 136.537 960.364 136.522 959.314 135.719C959.107 135.561 958.908 135.287 958.706 135.274C956.916 135.242 955.112 135.194 953.329 135.281C952.39 135.331 951.928 134.813 951.334 134.396C951.126 134.252 950.911 133.975 950.724 133.978C949.432 133.957 948.141 133.922 946.871 134.022C945.602 134.122 945.208 132.852 944.265 132.745C942.982 132.594 941.694 132.731 940.415 132.751C939.385 132.763 938.355 132.776 937.326 132.788C936.296 132.801 935.269 132.787 934.237 132.826C933.69 132.847 933.297 132.679 932.872 132.297C932.331 131.795 931.675 131.37 931.084 130.901C930.181 130.222 930.181 130.222 929.027 130.232C928.777 130.239 928.513 130.232 928.263 130.239C926.374 130.286 926.376 130.26 924.054 129.137C923.949 129.084 923.661 129.191 923.545 129.282C923.197 129.578 922.878 129.904 922.56 130.217C922.158 129.956 921.656 129.774 921.399 129.44C920.671 128.494 919.354 129.493 918.609 128.558C918.337 128.209 917.847 127.871 917.389 127.733C916.915 127.594 916.362 127.707 915.862 127.722C914.566 127.753 914.567 127.74 913.389 128.756C912.793 129.256 911.997 129.05 911.262 129.087C910.495 129.133 909.763 129.118 909.167 128.504C908.63 127.95 907.943 127.744 907.113 127.796C906.096 127.862 905.052 127.847 904.025 127.833C903.807 127.831 903.548 127.733 903.338 127.627C901.028 126.558 901.029 126.545 899.874 126.568C899.359 126.581 898.832 126.539 898.329 126.593C897.481 126.694 896.867 126.341 896.293 125.848C896.102 125.692 895.887 125.416 895.686 125.403C894.661 125.337 893.649 125.326 892.637 125.314C891.858 125.307 891.082 125.26 890.328 125.347C889.071 125.488 888.528 124.566 887.706 124.067C886.428 124.074 885.137 124.027 883.854 124.099C883.26 124.128 882.877 124.04 882.451 123.67C881.906 123.208 881.412 122.699 880.472 122.775C879.218 122.877 877.914 122.802 876.636 122.796C875.815 122.284 875.255 121.386 874.013 121.529C873.259 121.616 872.469 121.554 871.704 121.561C870.675 121.574 869.646 121.574 868.616 121.599C867.508 121.615 867.526 121.578 865.896 120.596C864.955 120.016 863.915 120.395 862.921 120.346C862.144 120.312 861.716 120.861 861.848 121.651C861.979 122.441 861.52 122.986 860.802 122.999C859.008 123.018 857.198 123.049 855.406 123.043C855.188 123.041 854.932 122.916 854.738 122.8C852.895 121.738 852.894 121.751 852.037 121.759C850.756 121.792 849.451 121.73 848.183 121.817C847.306 121.875 846.692 121.521 846.167 121.008C845.758 120.615 845.362 120.486 844.8 120.493C838.622 120.581 832.448 120.604 826.284 120.72C825.363 120.733 824.865 120.289 824.272 119.859C824.064 119.715 823.88 119.442 823.664 119.415C823.154 119.349 822.636 119.401 822.121 119.414C819.813 119.433 817.5 119.518 815.182 119.457C814.202 119.436 813.897 120.001 813.445 120.441C813.094 120.776 812.713 120.885 812.137 120.864C811.578 120.844 811.18 120.728 810.772 120.335C810.247 119.822 809.633 119.468 808.755 119.539C807.736 119.619 806.71 119.579 805.665 119.59C805.135 119.588 804.717 119.77 804.515 120.216C804.478 120.29 804.789 120.527 804.966 120.667C805.556 121.136 806.111 121.666 806.787 122.028C807.479 122.392 808.273 122.178 809.02 122.195C809.284 122.203 809.537 122.157 809.783 122.201C810.014 122.244 810.288 122.345 810.449 122.483C811.211 123.171 812.032 123.682 813.169 123.474C814.115 123.765 814.534 124.907 815.774 124.777C816.528 124.703 817.305 124.724 818.082 124.758C818.284 124.77 818.484 125.032 818.692 125.176C819.287 125.58 819.745 126.163 820.687 126.061C821.692 125.954 822.745 126.049 823.762 125.995C824.325 125.963 824.72 126.105 825.129 126.498C825.655 126.998 826.266 127.404 827.145 127.307C827.9 127.22 828.69 127.281 829.455 127.261C830.454 127.245 830.453 127.258 832.157 128.289C832.352 128.405 832.607 128.543 832.825 128.544C834.118 128.553 835.398 128.52 836.691 128.528C837.19 128.526 837.657 128.756 837.971 129.177C838.099 129.35 838.034 129.604 838.065 129.831C835.491 129.856 832.922 129.829 830.358 129.933C829.388 129.98 828.993 129.392 828.381 129.012C828.172 128.88 827.956 128.63 827.753 128.63C825.946 128.622 824.153 128.628 822.357 128.687C821.794 128.707 821.381 128.601 820.99 128.171C819.995 127.034 818.659 127.414 817.444 127.403C816.51 127.388 816.188 127.754 816.236 128.625C816.304 129.656 816.838 130.039 818.272 130.039C818.786 130.039 819.302 130.014 819.815 130.027C820.313 130.038 820.75 130.264 821.127 130.666C821.488 131.067 821.938 131.308 822.421 131.317C823.449 131.331 824.492 131.346 825.494 131.278C826.324 131.226 826.994 131.443 827.532 131.997C828.128 132.611 828.878 132.589 829.628 132.567C831.376 132.528 831.39 132.543 832.426 133.331C832.633 133.489 832.832 133.763 833.034 133.776C834.824 133.809 836.627 133.869 838.395 133.78C839.317 133.741 839.813 134.224 840.392 134.639C840.6 134.783 840.798 135.071 841 135.071C842.292 135.092 843.585 135.113 844.853 135.026C845.448 134.984 845.798 135.107 846.255 135.48C847.344 136.393 847.377 136.371 849.016 136.332C849.516 136.317 850.067 136.243 850.523 136.407C850.979 136.57 851.323 136.994 851.739 137.283C851.933 137.413 852.17 137.588 852.388 137.589C853.415 137.616 854.445 137.59 855.475 137.578C856.442 137.557 856.441 137.57 858.177 138.605C858.879 139.036 859.656 138.847 860.389 138.836C861.185 138.82 861.896 138.911 862.463 139.494C863.029 140.078 863.757 140.145 864.537 140.14C865.27 140.129 866.032 139.938 866.749 140.384C868.391 141.406 868.39 141.419 869.452 141.398C870.996 141.373 872.525 141.358 874.083 141.361C874.286 141.361 874.537 141.55 874.731 141.68C875.147 141.969 875.49 142.406 875.947 142.557C876.403 142.72 876.955 142.633 877.455 142.618C879.063 142.575 879.178 142.498 880.183 143.492C881.03 144.308 882.213 143.437 882.991 144.349C883.438 144.865 884.061 145.312 884.972 145.206C885.726 145.119 886.502 145.165 887.282 145.16C888.514 145.147 888.513 145.161 890.003 146.138C890.197 146.267 890.45 146.431 890.653 146.431C891.679 146.457 892.721 146.499 893.726 146.391C894.904 146.266 895.61 146.855 896.441 147.446C897.095 147.91 897.92 147.701 898.655 147.664C899.452 147.635 900.16 147.765 900.711 148.347C901.292 148.945 902.023 148.973 902.803 148.968C903.535 148.97 904.298 148.766 905.013 149.225C906.548 150.234 906.548 150.234 907.717 150.226C908.747 150.214 909.777 150.188 910.804 150.215C911.007 150.214 911.242 150.415 911.434 150.557C911.85 150.847 912.194 151.284 912.651 151.434C913.108 151.584 913.66 151.485 914.175 151.485C914.689 151.485 915.243 151.359 915.701 151.497C916.159 151.634 916.569 152.014 916.919 152.347C917.328 152.741 917.727 152.831 918.323 152.776C919.076 152.702 919.852 152.762 920.615 152.768C921.015 153.068 921.43 153.37 921.812 153.694C922.209 154.033 922.659 154.065 923.237 154.047C925.159 153.978 925.171 154.019 926.706 155.028C927.406 155.485 928.184 155.283 928.917 155.285C929.696 155.28 930.426 155.321 930.992 155.917C931.544 156.486 932.266 156.644 933.049 156.587C933.55 156.546 934.08 156.549 934.593 156.575C934.825 156.591 935.1 156.679 935.262 156.805C936.043 157.455 936.811 158.052 937.963 157.845C938.945 158.076 939.364 159.204 940.568 159.148C941.585 159.095 942.638 159.19 943.643 159.083C944.569 158.992 945.192 159.438 945.624 159.953C946.401 160.865 947.652 159.924 948.43 160.823C948.877 161.339 949.469 161.782 950.41 161.705C951.444 161.628 951.749 161.942 951.985 162.798C952.122 163.288 952.065 163.661 951.73 163.985C951.395 164.322 951.06 164.214 950.595 163.722C950.058 163.168 949.384 162.99 948.558 162.989C947.748 162.99 947.301 162.252 946.655 161.907C946.01 161.549 945.19 161.903 944.52 161.463C942.94 160.435 942.94 160.435 941.817 160.449C941.053 160.456 940.261 160.407 939.507 160.494C938.611 160.602 938.068 160.127 937.491 159.686C937.284 159.528 937.085 159.253 936.898 159.243C935.108 159.21 933.304 159.163 931.52 159.263C930.581 159.313 930.12 158.782 929.525 158.378C929.317 158.234 929.102 157.97 928.914 157.972C927.372 157.959 925.842 157.999 924.298 158.024C923.979 158.337 923.631 158.634 923.327 158.975C923.006 159.327 922.592 159.445 922.006 159.357C921.033 159.232 920.037 159.655 919.112 158.842C918.157 158.012 918.078 158.041 917.093 158.086C915.841 158.148 914.532 157.929 913.338 158.287C913.13 158.352 912.897 158.571 912.884 158.753C912.86 158.868 913.173 159.079 913.366 159.208C914.024 159.607 914.844 159.253 915.501 159.665C915.934 159.93 916.283 160.289 916.715 160.568C916.894 160.682 917.173 160.705 917.421 160.724C917.685 160.744 917.938 160.685 918.184 160.729C918.415 160.772 918.657 160.882 918.834 161.022C919.649 161.625 920.513 162.194 921.229 162.876C921.93 163.542 922.652 163.241 923.396 163.31C926.297 164.599 926.297 164.612 928.31 164.581C928.808 164.579 929.324 164.567 929.832 164.645C930.049 164.673 930.233 164.932 930.44 165.09C931.03 165.559 931.593 165.984 932.473 165.887C933.227 165.8 934.017 165.862 934.782 165.842C935.812 165.829 935.812 165.829 937.484 166.869C937.902 167.133 938.368 167.166 938.931 167.133C939.416 167.103 939.896 167.361 940.21 167.782C940.338 167.955 940.273 168.209 940.304 168.436C938.76 168.449 937.206 168.394 935.701 168.516C934.729 168.588 934.336 167.974 933.724 167.594C933.515 167.463 933.299 167.212 933.096 167.213C931.569 167.214 930.039 167.241 928.507 167.307C928.32 167.309 928.068 167.579 928.039 167.759C927.985 168.093 928.348 168.467 928.905 168.525C929.647 168.607 930.389 168.479 931.015 169.096C931.539 169.635 932.219 169.932 933.052 169.829C933.555 169.775 934.08 169.843 934.582 169.802C935.917 169.658 937.101 169.875 938.028 170.885C938.768 171.216 939.525 171.09 940.26 171.066C940.807 171.044 941.338 171.02 941.707 171.316C942.489 171.941 943.256 172.563 944.408 172.357C945.603 172.877 946.476 173.762 947.451 174.516C947.909 174.876 948.268 175.093 948.838 174.969C949.075 174.92 949.353 174.956 949.603 174.949C950.117 174.949 950.671 174.823 951.129 174.96C951.586 175.11 951.946 175.537 952.347 175.824C952.539 175.967 952.757 176.191 952.959 176.204C953.736 176.238 954.502 176.205 955.266 176.197C956.029 176.203 956.793 176.209 957.556 176.215C958.165 176.634 958.79 177.055 959.4 177.474C960.43 177.461 961.46 177.449 962.473 177.447C963.611 177.435 963.61 177.448 965.175 178.461C965.876 178.918 966.665 178.783 967.372 178.703C968.549 178.578 969.287 179.171 970.069 179.796C970.232 179.921 970.536 180.026 970.741 179.999C971.557 179.92 972.241 180.152 972.795 180.708C973.188 181.099 973.594 181.308 974.108 181.309C975.902 181.289 977.697 181.256 979.489 181.263C979.707 181.264 979.946 181.413 980.139 181.543C981.659 182.537 981.672 182.578 982.845 182.518C983.893 182.469 984.856 182.513 985.624 183.332C985.783 183.51 986.03 183.765 986.216 183.775C987.492 183.807 988.785 183.829 990.051 183.768C990.63 183.737 991.029 183.827 991.456 184.183C992.001 184.633 992.479 185.153 993.433 185.105C996.077 184.958 996.087 185.038 999.113 186.33C999.325 186.422 999.626 186.356 999.877 186.336C1000.41 186.273 1000.78 186.504 1001.23 186.862C1002.21 187.67 1002.25 187.635 1003.25 187.619C1004.01 187.599 1004.8 187.674 1005.56 187.574C1006.72 187.434 1007.44 188.038 1008.26 188.627C1008.91 189.091 1009.72 188.88 1010.45 188.856C1011.25 188.826 1011.96 188.956 1012.51 189.525C1012.89 189.914 1013.31 190.152 1013.82 190.152C1015.62 190.145 1017.41 190.113 1019.2 190.106C1019.42 190.108 1019.68 190.245 1019.87 190.362C1021.58 191.393 1021.57 191.432 1023.34 191.356C1023.9 191.336 1024.37 191.37 1024.76 191.696C1025.15 192.007 1025.56 192.309 1025.96 192.609C1026.73 192.615 1027.5 192.688 1028.25 192.627C1028.83 192.583 1029.23 192.687 1029.66 193.017C1030.22 193.443 1030.67 194.117 1031.62 193.936C1032.11 193.855 1032.66 193.965 1033.15 193.896C1033.73 193.8 1034.11 193.954 1034.54 194.349C1035.07 194.823 1035.61 195.312 1036.52 195.218C1037.52 195.111 1038.58 195.206 1039.59 195.153C1040.16 195.12 1040.54 195.273 1040.96 195.669C1041.49 196.168 1042.1 196.522 1042.98 196.464C1044.76 196.365 1044.77 196.431 1046.43 197.469C1046.85 197.733 1047.31 197.766 1047.87 197.733C1048.36 197.703 1048.84 197.962 1049.15 198.382C1049.45 198.839 1049.4 199.095 1049.41 199.32ZM920.012 64.5227C919.498 64.5225 918.983 64.5352 918.321 63.3099C918.288 63.1091 918.336 62.8792 918.239 62.6965C918.017 62.314 917.648 62.0178 917.187 61.9195C916.357 61.7608 915.322 62.0741 915.313 62.4139C915.309 62.7017 915.554 62.9821 916.047 63.2812C916.257 63.3998 916.416 63.5775 916.61 63.7072C917.176 64.0811 917.598 64.7252 918.468 64.535C918.42 64.1224 918.371 63.7097 918.468 64.535C918.357 65.0189 918.563 65.3994 919.109 65.6134C919.261 65.6722 919.495 65.6758 919.624 65.6136C920.123 65.389 920.227 65.0092 919.944 63.9372C919.871 64.0983 919.896 64.4029 920.03 64.4987C920.163 64.5944 920.507 64.573 920.684 64.5038C921.134 64.3122 921.373 64.0151 921.284 63.7284C921.232 63.5775 920.951 63.3581 920.766 63.3343C920.442 63.2928 920.128 63.5411 920.012 64.5227ZM1034.31 231.187C1033.17 231.289 1031.88 231.033 1030.72 231.395C1030.51 231.46 1030.29 231.669 1030.26 231.848C1030.24 231.963 1030.54 232.172 1030.71 232.287C1031.12 232.548 1031.59 232.542 1032.13 232.546C1032.96 232.56 1033.39 233.219 1034 233.599C1034.2 233.716 1034.46 233.814 1034.67 233.816C1035.94 233.82 1037.18 233.809 1038.45 233.787C1038.67 233.776 1038.91 233.715 1039.1 233.621C1039.74 233.324 1039.7 233.069 1039.12 232.706C1038.47 232.309 1037.99 231.722 1037.32 231.388C1036.38 230.913 1035.35 231.254 1034.31 231.187ZM945.924 229.45C945.16 229.457 944.411 229.466 943.647 229.473C943.397 229.481 943.134 229.46 942.898 229.483C942.413 229.512 942.039 229.74 941.777 230.139C942.108 230.522 942.527 230.772 943.009 230.795C943.771 230.813 944.524 230.739 945.284 230.797C946.106 230.85 946.544 231.496 947.156 231.876C947.351 231.993 947.597 232.037 947.828 232.08C948.967 232.278 949.71 231.691 949.56 230.715C949.458 229.955 948.902 229.438 948.185 229.438C947.437 229.434 946.673 229.441 945.924 229.45ZM1040.95 212.658C1041.15 212.461 1041.36 212.331 1041.47 212.148C1041.79 211.521 1041.72 211.013 1041.25 210.428C1040.67 209.712 1039.89 210.044 1039.19 210.02C1039.02 210.012 1038.81 210.261 1038.71 210.418C1038.64 210.527 1038.62 210.774 1038.71 210.851C1039.43 211.467 1040.2 212.051 1040.95 212.658ZM909.647 157.133C908.898 157.142 908.136 157.123 907.385 157.172C907.196 157.187 907.009 157.412 906.889 157.567C906.666 157.853 906.852 158.31 907.483 158.43C908.205 158.574 908.978 158.45 909.742 158.443C910.709 158.436 911.314 158.028 910.988 157.567C910.677 157.121 910.219 156.983 909.647 157.133ZM98.4921 25.3483C98.991 25.3466 99.5044 25.3598 100.005 25.332C100.475 25.3004 100.851 25.06 101.112 24.6608C100.75 24.2736 100.33 24.0364 99.8486 24.0141C99.0862 23.9952 98.3375 24.0043 97.5869 24.0394C97.118 24.0581 96.6501 24.2866 96.5109 24.7146C96.379 25.0386 97.3999 25.3659 98.4921 25.3483ZM846.417 119.008C846.609 119.151 846.793 119.41 846.994 119.436C847.488 119.499 848.004 119.487 848.477 119.416C848.681 119.39 848.852 119.176 848.957 119.006C849.027 118.896 849.027 118.687 848.941 118.571C848.537 117.89 846.73 117.882 846.386 118.559C846.346 118.685 846.411 118.863 846.417 119.008ZM802.687 41.6213C802.719 41.8351 802.72 42.045 802.767 42.2608C802.863 42.6664 803.183 42.9958 803.663 43.2539C804.073 42.9785 804.299 42.6404 804.311 42.2486C804.31 42.0388 804.278 41.8248 804.231 41.609C804.135 41.2034 803.816 40.8742 803.335 40.616C802.927 40.8785 802.716 41.2185 802.687 41.6213ZM1074.47 248.176C1074.32 248.327 1074.17 248.478 1074 248.614C1074.39 249.044 1074.77 249.21 1075.08 249.04C1075.27 248.934 1075.39 248.753 1075.55 248.602C1075.15 248.172 1074.79 248.02 1074.47 248.176ZM1064.74 248.714C1064.93 248.856 1065.1 249.036 1065.31 249.141C1065.66 249.317 1066 249.137 1066.28 248.701C1066.09 248.559 1065.91 248.379 1065.7 248.273C1065.36 248.098 1065.02 248.277 1064.74 248.714ZM1070.99 247.114C1070.86 247.412 1071.06 247.7 1071.61 247.994C1071.76 247.843 1071.96 247.711 1072.07 247.54C1072.24 247.261 1072 246.955 1071.46 246.676C1071.29 246.812 1071.14 246.963 1070.99 247.114ZM1039.37 228.936C1039.24 229.234 1039.43 229.521 1039.99 229.815C1040.14 229.664 1040.34 229.532 1040.44 229.362C1040.62 229.083 1040.38 228.776 1039.83 228.497C1039.67 228.634 1039.52 228.785 1039.37 228.936ZM1001.41 131.311C1001.26 131.462 1001.11 131.613 1000.94 131.749C1001.33 132.179 1001.71 132.345 1002.02 132.175C1002.21 132.069 1002.34 131.888 1002.49 131.737C1002.1 131.307 1001.73 131.155 1001.41 131.311ZM962.286 77.0888C962.65 77.2272 962.972 77.0849 963.268 76.6378C963.076 76.4951 962.901 76.3154 962.69 76.2098C962.344 76.0344 962.004 76.2139 961.724 76.6501C961.916 76.8057 962.108 76.9482 962.286 77.0888ZM939.902 71.1444C939.751 71.2956 939.6 71.4467 939.434 71.5829C939.825 72.013 940.203 72.1793 940.511 72.009C940.706 71.9027 940.827 71.7217 940.978 71.5705C940.588 71.1404 940.223 71.002 939.902 71.1444ZM787.489 39.6639C787.338 39.815 787.187 39.9661 787.022 40.1023C787.412 40.5325 787.79 40.6988 788.098 40.5284C788.293 40.4222 788.414 40.2411 788.565 40.09C788.175 39.6598 787.811 39.5215 787.489 39.6639ZM16.9906 47.7637C16.798 47.6211 16.6056 47.4786 16.4294 47.325C15.9567 47.6185 15.7949 47.9255 16.0247 48.204C16.1682 48.3797 16.3933 48.5003 16.5859 48.6429C17.074 48.3514 17.204 48.0532 16.9906 47.7637Z" fill="white"/>
</g>
<defs>
<clipPath id="clip0_1116_50">
<rect width="1112" height="257" fill="white"/>
</clipPath>
</defs>
</svg>
