<svg width="1297" height="464" viewBox="0 0 1297 464" fill="none" xmlns="http://www.w3.org/2000/svg">
<path d="M958.246 149.318C956.836 149.327 955.417 149.286 954.029 149.376C953.127 149.429 952.784 148.961 952.21 148.675C952.02 148.576 951.821 148.398 951.636 148.398C950.24 148.409 948.843 148.439 947.446 148.469C946.99 148.805 946.679 149.283 946.014 149.4C945.364 149.508 944.617 149.43 943.904 149.443C942.964 149.453 942.024 149.462 941.085 149.462C940.615 149.462 940.218 149.607 940.033 149.941C940 149.996 940.298 150.175 940.459 150.28C940.998 150.631 941.52 151.02 942.121 151.309C942.696 151.585 943.459 151.312 944.071 151.651C945.443 152.414 945.458 152.405 946.554 152.403C947.494 152.393 948.435 152.374 949.372 152.394C949.557 152.394 949.756 152.562 949.947 152.661C950.521 152.937 950.86 153.464 951.751 153.37C952.426 153.294 953.162 153.342 953.86 153.336C954.414 153.679 954.922 154.057 955.524 154.346C956.084 154.621 956.239 154.804 955.904 155.054C955.6 155.287 955.195 155.353 954.672 155.317C954.206 155.278 953.733 155.317 953.263 155.317C953.021 155.321 952.793 155.317 952.565 155.322C951.667 155.336 951.667 155.336 950.099 154.543C949.485 154.233 948.736 154.498 948.15 154.201C947.754 154.002 947.422 153.731 947.041 153.524C946.878 153.439 946.61 153.401 946.397 153.398C945.686 153.392 944.977 153.367 944.289 153.422C943.802 153.459 943.496 153.702 943.529 153.981C943.534 154.089 943.859 154.281 944.056 154.311C944.506 154.378 944.997 154.292 945.428 154.406C945.845 154.519 946.266 154.759 946.558 155.006C947.154 155.52 947.908 155.197 948.504 155.377C949.128 155.57 949.617 156.014 950.203 156.312C950.353 156.386 950.658 156.32 950.9 156.316C951.597 156.32 952.294 156.335 952.991 156.339C953.545 156.682 954.143 157 954.638 157.376C955.533 158.059 956.529 158.39 957.781 158.236C958.485 158.153 959.157 158.283 959.674 158.72C960.205 159.169 960.858 159.198 961.584 159.195C962.253 159.187 962.948 159.044 963.602 159.388C965.017 160.145 965.029 160.176 966.784 160.124C967.312 160.111 967.708 160.133 968.084 160.398C968.433 160.641 968.813 160.858 969.177 161.092C969.874 161.097 970.585 161.103 971.283 161.097C972.181 161.083 972.663 161.272 972.827 161.839C972.926 162.183 972.957 162.491 973.248 162.747C973.591 163.058 973.987 163.09 974.53 163.068C975.043 163.053 975.419 162.985 975.661 162.657C975.758 162.52 975.939 162.401 976.104 162.301C976.238 162.226 976.448 162.111 976.559 162.142C976.767 162.203 977.04 162.34 977.1 162.474C977.69 163.724 977.689 163.734 978.365 164.149C979.108 164.61 979.883 165.035 980.552 165.537C981.154 165.983 981.802 165.884 982.494 165.957C983.015 166.012 983.332 166.3 983.268 166.549C983.228 166.692 983.012 166.885 982.841 166.887C981.442 166.937 980.031 166.956 978.623 166.945C978.452 166.947 978.256 166.75 978.066 166.641C977.686 166.425 977.357 166.115 976.939 166.012C976.52 165.909 976.014 166.004 975.545 166.003C975.075 166.003 974.571 166.078 974.154 165.956C973.738 165.834 973.423 165.516 973.044 165.289C972.868 165.182 972.625 165.029 972.468 165.042C971.418 165.168 970.684 164.767 969.987 164.261C969.839 164.157 969.577 164.071 969.377 164.07C967.727 164.063 966.088 164.088 964.436 164.101C963.767 164.109 963.26 163.712 963.168 163.123C963.125 162.795 963.011 162.459 963.039 162.137C963.089 161.553 962.341 161.151 961.771 161.16C960.832 161.159 959.88 161.138 958.951 161.188C958.193 161.226 957.568 161.043 957.09 160.639C956.532 160.178 955.849 160.185 955.163 160.221C954.648 160.245 954.479 160.552 954.438 161.362C954.41 162.018 954.153 162.197 953.227 162.208C952.059 162.222 950.876 162.236 949.696 162.22C949.511 162.22 949.314 162.033 949.138 161.926C948.758 161.709 948.43 161.39 948.012 161.287C947.594 161.174 947.088 161.269 946.618 161.278C946.148 161.278 945.643 161.363 945.226 161.25C944.808 161.137 944.481 160.808 944.116 160.584C943.94 160.477 943.725 160.326 943.54 160.327C942.602 160.307 941.661 160.326 940.721 160.335C939.668 160.343 939.668 160.343 938.238 159.584C937.585 159.24 936.889 159.383 936.22 159.391C935.508 159.395 934.841 159.365 934.325 158.918C933.98 158.626 933.584 158.427 933.143 158.43C931.962 158.424 930.793 158.449 929.612 158.443C929.413 158.441 929.149 158.365 929.002 158.261C928.289 157.773 927.583 157.375 926.522 157.47C925.604 157.551 924.63 157.458 923.713 157.529C923.212 157.565 922.959 157.852 923.037 158.106C923.083 158.239 923.367 158.416 923.564 158.436C924.015 158.494 924.521 158.399 924.939 158.502C925.803 158.711 926.171 159.574 927.332 159.47C928.021 159.405 928.73 159.43 929.439 159.465C929.623 159.475 929.805 159.681 929.994 159.799C930.535 160.121 931 160.513 931.833 160.424C932.522 160.359 933.244 160.395 933.942 160.39C935.053 160.379 935.053 160.389 936.426 161.132C937.079 161.485 937.775 161.332 938.444 161.334C938.942 161.337 939.416 161.288 939.799 161.466C940.388 161.734 940.785 162.247 941.535 162.297C942.243 162.341 942.946 162.278 943.655 162.303C944.095 162.32 944.491 162.518 944.821 162.818C945.165 163.12 945.55 163.278 946.034 163.27C946.732 163.264 947.446 163.241 948.155 163.266C948.353 163.277 948.572 163.389 948.748 163.486C949.128 163.703 949.491 163.947 949.856 164.172C950.553 164.186 951.26 164.24 951.947 164.195C952.476 164.162 952.84 164.239 953.246 164.478C953.759 164.798 954.157 165.311 955.05 165.179C955.497 165.117 956.002 165.2 956.448 165.148C956.994 165.078 957.357 165.165 957.713 165.497C958.384 166.128 959.286 166.232 960.236 166.116C961.271 165.989 962.01 166.341 962.735 166.849C963.5 167.381 963.501 167.372 964.029 168.517C964.186 168.848 964.695 169.049 965.137 169.036C965.879 169.016 966.51 169.131 967.014 169.557C967.544 170.016 968.225 170.038 968.925 170.003C969.854 169.954 970.782 169.923 971.481 170.566C971.825 170.877 972.214 170.987 972.714 170.971C974.125 170.942 975.545 170.983 976.931 170.913C977.775 170.864 978.228 171.225 978.769 171.547C979.5 171.987 980.305 172.396 980.239 173.165C980.228 173.292 980.413 173.458 980.574 173.573C980.923 173.816 981.303 174.033 981.667 174.268C982.207 174.619 982.735 174.92 983.525 174.846C984.212 174.79 984.935 174.827 985.634 174.812C986.332 174.796 986.972 174.814 987.56 175.249C988.244 175.744 988.971 176.223 989.763 176.62C990.322 176.904 991.116 176.605 991.711 176.972C992.076 177.197 992.424 177.449 992.82 177.648C992.983 177.734 993.255 177.713 993.483 177.717C993.952 177.727 994.434 177.749 994.893 177.699C995.424 177.646 995.818 177.707 996.193 177.973C996.543 178.215 996.885 178.536 997.303 178.639C997.931 178.793 998.669 178.478 999.265 178.992C999.571 179.25 999.961 179.507 1000.38 179.62C1000.8 179.732 1001.3 179.638 1001.75 179.695C1001.95 179.716 1002.18 179.897 1002.28 180.035C1002.34 180.111 1002.23 180.285 1002.12 180.372C1001.98 180.476 1001.79 180.612 1001.6 180.613C1000.19 180.641 998.782 180.641 997.372 180.66C996.531 180.67 996.531 180.67 994.905 179.88C994.523 179.693 994.083 179.676 993.584 179.692C992.913 179.71 992.222 179.805 991.546 179.557C990.7 178.801 989.591 178.625 988.384 178.754C987.881 178.809 987.43 178.762 987.079 178.538C986.335 178.087 985.546 177.661 984.893 177.15C984.386 176.753 984.135 176.697 983.869 177.141C983.786 177.279 983.702 177.428 983.704 177.565C983.747 178.061 983.861 178.554 983.904 179.05C983.921 179.189 983.795 179.333 983.712 179.472C983.451 179.857 983.157 179.796 982.693 179.404C982.228 179.011 981.655 178.725 980.852 178.798C980.163 178.863 979.431 178.767 978.742 178.842C977.68 178.947 976.973 178.558 976.261 178.061C976.114 177.957 975.85 177.88 975.651 177.879C973.53 177.882 971.421 177.916 969.3 177.92C968.844 177.921 968.448 177.732 968.118 177.432C967.773 177.131 967.376 176.952 966.92 176.953C965.041 176.962 963.163 176.952 961.28 177.009C960.509 177.036 959.913 176.846 959.421 176.451C959.047 176.156 958.687 176.04 958.191 176.017C957.653 175.99 957.264 176.048 956.971 176.302C956.694 176.548 956.863 176.732 957.409 177.006C957.995 177.303 958.534 177.664 959.089 177.997C959.558 178.007 960.03 177.978 960.48 178.035C960.678 178.056 960.846 178.25 961.035 178.368C961.575 178.71 962.073 179.047 962.89 178.976C963.579 178.91 964.301 178.957 964.999 178.942C965.968 178.935 965.968 178.935 967.467 179.711C967.848 179.908 968.272 179.943 968.787 179.909C969.23 179.886 969.67 180.07 969.955 180.395C970.072 180.525 970.014 180.715 969.69 181.33C969.65 181.806 969.964 181.623 970.089 181.322C970.283 180.891 969.999 180.714 969.414 180.898C969.004 181.032 968.785 181.264 968.866 181.479C968.914 181.592 969.17 181.756 969.69 181.33C970.982 180.876 971.933 180.907 972.849 180.846C973.392 180.814 973.727 180.889 974.129 181.186C974.611 181.541 975.091 181.916 975.936 181.848C976.854 181.767 977.815 181.848 978.744 181.798C979.602 181.751 980.003 182.225 980.517 182.535C981.14 182.904 981.888 182.639 982.466 182.877C983.071 183.117 983.472 183.591 984.185 183.744C985.251 183.591 985.872 184.147 986.634 184.552C987.234 184.86 987.986 184.723 988.658 184.685C989.416 184.647 990.027 184.819 990.519 185.224C991.077 185.686 991.748 185.668 992.432 185.651C994.029 185.622 994.088 185.599 994.958 186.231C995.588 186.689 996.238 186.581 996.905 186.602C997.461 186.925 998.001 187.267 998.587 187.564C998.737 187.639 999.042 187.573 999.284 187.568C999.982 187.563 1000.69 187.559 1001.39 187.554C1001.86 187.554 1002.37 187.46 1002.79 187.563C1003.2 187.675 1003.53 187.995 1003.9 188.22C1004.26 188.444 1004.64 188.671 1004.99 188.904C1005.53 189.255 1006.04 189.555 1006.85 189.492C1007.53 189.436 1008.24 189.471 1008.96 189.458C1009.85 189.444 1009.82 189.47 1011.42 190.227C1012.28 190.642 1013.23 190.349 1014.14 190.405C1014.59 190.432 1015.02 190.585 1015.31 190.9C1015.43 191.03 1015.37 191.221 1015.39 191.391C1013.04 191.409 1010.68 191.387 1008.36 191.467C1007.46 191.5 1007.02 191.101 1006.57 190.759C1005.82 190.209 1004.72 190.78 1004.02 190.099C1003.6 189.691 1002.97 189.419 1002.18 189.512C1001.72 189.562 1001.24 189.502 1000.77 189.541C999.563 189.631 998.476 189.527 997.588 188.756C997.284 188.488 996.83 188.313 996.51 188.053C996.136 187.768 995.767 187.592 995.297 187.592C993.176 187.605 991.068 187.62 988.959 187.654C988.774 187.654 988.578 187.781 988.413 187.871C987.995 188.102 988.104 188.33 988.723 188.572C988.93 188.652 989.089 188.797 989.278 188.915C989.643 189.14 989.97 189.469 990.387 189.581C990.805 189.694 991.31 189.609 991.78 189.609C992.25 189.61 992.756 189.515 993.174 189.618C993.591 189.731 993.919 190.05 994.299 190.267C994.475 190.374 994.689 190.543 994.873 190.553C995.809 190.592 996.735 190.581 997.673 190.591C998.229 190.915 998.69 191.346 999.374 191.506C999.806 191.611 1000.28 191.553 1000.73 191.619C1000.93 191.65 1001.17 191.822 1001.26 191.959C1001.31 192.043 1001.11 192.219 1000.96 192.301C1000.39 192.615 999.661 192.47 998.988 192.517C998.258 192.568 997.612 192.461 997.095 192.024C996.75 191.732 996.352 191.553 995.897 191.554C994.715 191.558 993.546 191.582 992.366 191.567C992.167 191.565 991.935 191.453 991.757 191.365C990.327 190.616 990.329 190.597 989.274 190.614C987.721 190.637 987.721 190.637 986.736 190.013C986.547 189.895 986.351 189.688 986.181 189.68C984.531 189.664 982.896 189.649 981.254 189.703C980.713 189.715 980.346 189.676 979.973 189.382C979.653 189.132 979.278 188.847 978.86 188.745C978.428 188.64 977.936 188.736 977.466 188.736C976.997 188.736 976.492 188.81 976.09 188.69C975.673 188.567 975.33 188.256 974.98 188.023C974.616 187.779 974.207 187.745 973.678 187.769C972.051 187.824 972.039 187.793 970.497 187.022C970.32 186.935 970.087 186.832 969.888 186.831C968.707 186.825 967.538 186.849 966.357 186.843C965.901 186.844 965.475 186.672 965.189 186.357C965.072 186.227 965.131 186.037 965.079 185.648C964.988 185.55 965.087 185.718 965.103 185.867C965.316 185.87 965.568 185.916 965.73 185.854C966.141 185.711 966.359 185.488 966.278 185.273C966.231 185.16 965.975 184.996 965.805 184.978C965.495 184.945 965.209 185.131 965.079 185.648C964.163 185.876 963.212 185.845 962.282 185.905C961.737 185.946 961.403 185.862 961.002 185.564C960.521 185.199 960.024 184.843 959.179 184.911C958.261 184.992 957.3 184.92 956.357 184.959C955.272 185.002 954.881 184.077 953.977 184.002C953.044 183.924 952.099 183.991 951.158 184.01C950.332 184.022 950.332 184.022 948.693 183.212C948.093 182.913 947.33 183.176 946.745 182.869C946.349 182.671 946.016 182.4 945.636 182.193C945.472 182.107 945.204 182.079 944.991 182.076C943.81 182.07 942.619 182.024 941.472 182.12C940.167 182.238 939.217 181.863 938.349 181.193C937.184 181.179 936.008 181.114 934.85 181.179C934.006 181.228 933.554 180.857 933.012 180.535C932.822 180.426 932.665 180.262 932.457 180.201C932.249 180.14 931.988 180.191 931.76 180.197C930.82 180.206 929.856 180.154 928.939 180.235C927.805 180.342 927.451 179.499 926.598 179.311C925.979 179.728 925.613 180.347 924.466 180.276C923.532 180.217 922.588 180.275 921.648 180.285C921.178 180.284 920.708 180.294 920.238 180.294C919.483 180.303 919.098 180.646 919.203 181.246C919.26 181.576 919.303 181.905 919.346 182.233C919.438 182.822 919.043 183.272 918.445 183.278C916.793 183.291 915.154 183.316 913.504 183.309C913.063 183.312 912.653 183.102 912.323 182.802C911.979 182.501 911.58 182.341 911.125 182.343C909.473 182.356 907.834 182.38 906.184 182.374C905.999 182.374 905.767 182.252 905.591 182.155C905.211 181.938 904.847 181.694 904.482 181.469C903.544 181.459 902.622 181.421 901.695 181.441C900.199 181.461 900.198 181.471 899.158 180.822C898.969 180.704 898.787 180.498 898.603 180.488C897.895 180.453 897.195 180.478 896.482 180.492C894.387 180.527 894.387 180.527 893.806 180.172C893.279 179.841 892.814 179.458 891.968 179.527C891.05 179.607 890.086 179.565 889.147 179.565C888.45 179.56 887.752 179.566 887.059 179.513C886.875 179.503 886.694 179.297 886.505 179.179C885.966 178.818 885.437 178.517 884.647 178.601C884.187 178.651 883.706 178.621 883.236 178.62C882.012 178.629 882.012 178.629 880.073 177.836C879.88 177.757 879.646 177.664 879.446 177.673C877.795 177.676 876.157 177.701 874.506 177.694C874.307 177.693 874.072 177.609 873.879 177.54C871.699 176.741 871.699 176.742 869.306 176.765C868.395 176.768 868.363 176.804 867.462 176.189C867.058 175.921 866.715 175.777 866.216 175.793C864.334 175.831 862.445 175.79 860.573 175.869C859.731 175.898 859.277 175.556 858.735 175.234C858.545 175.125 858.35 174.908 858.18 174.9C856.302 174.89 854.421 174.918 852.543 174.908C852.372 174.91 852.178 174.693 851.988 174.584C851.622 174.369 851.278 174.068 850.859 173.965C850.427 173.861 849.935 173.957 849.451 173.955C848.27 173.959 848.271 173.949 846.966 173.232C846.789 173.135 846.559 173.003 846.374 173.003C844.495 173.003 842.605 172.971 840.733 173.06C839.662 173.104 838.967 172.746 838.254 172.259C838.106 172.155 837.842 172.088 837.643 172.087C835.522 172.09 833.413 172.124 831.292 172.128C830.85 172.13 830.441 171.92 830.11 171.63C829.58 171.172 828.913 171.151 828.201 171.165C826.561 171.199 826.548 171.188 825.629 170.62C825.44 170.502 825.281 170.357 825.074 170.287C824.881 170.217 824.624 170.22 824.411 170.217C823.472 170.217 822.532 170.226 821.592 170.235C820.651 170.245 819.701 170.204 818.77 170.273C817.624 170.359 817.142 169.67 816.378 169.295C815.21 169.3 814.019 169.254 812.859 169.338C811.971 169.402 811.599 168.931 811.04 168.647C810.849 168.548 810.651 168.36 810.466 168.361C808.346 168.354 806.225 168.367 804.114 168.411C803.602 168.416 803.27 168.303 802.867 168.025C801.967 167.4 801.923 167.415 800.326 167.444C799.628 167.459 798.958 167.467 798.4 167.006C797.909 166.591 797.282 166.437 796.524 166.475C795.595 166.525 794.643 166.503 793.704 166.503C792.764 166.512 791.82 166.561 790.885 166.512C790.134 166.482 789.721 165.977 789.149 165.681C788.971 165.594 788.719 165.558 788.505 165.555C787.567 165.545 786.602 165.512 785.685 165.583C784.567 165.672 784.007 165.073 783.258 164.68C783.094 164.594 782.808 164.603 782.594 164.61C780.943 164.614 779.304 164.638 777.652 164.651C777.097 164.328 776.526 164.013 775.97 163.689C775.031 163.689 774.091 163.698 773.152 163.698C772.44 163.702 771.718 163.655 771.042 163.732C770.165 163.836 769.781 163.334 769.222 163.05C769.031 162.951 768.834 162.764 768.649 162.764C767.469 162.748 766.288 162.742 765.118 162.786C764.003 162.836 763.641 161.914 762.738 161.829C761.806 161.741 760.836 161.767 759.918 161.847C758.857 161.942 758.15 161.554 757.438 161.057C757.291 160.953 757.027 160.876 756.828 160.875C755.647 160.869 754.478 160.893 753.297 160.887C753.098 160.886 752.863 160.812 752.67 160.733C750.491 159.925 750.492 159.915 749.508 159.93C748.811 159.935 748.097 159.959 747.388 159.933C747.188 159.932 746.956 159.819 746.779 159.722C745.363 158.974 745.364 158.965 744.296 158.97C743.356 158.98 742.416 158.989 741.476 158.998C740.92 158.675 740.349 158.36 739.794 158.036C738.626 158.041 737.433 158.014 736.276 158.07C735.733 158.091 735.383 158.025 734.995 157.739C734.512 157.393 734.033 156.999 733.173 157.076C732.255 157.157 731.294 157.075 730.365 157.125C729.25 157.185 728.874 156.252 727.985 156.168C727.053 156.08 726.083 156.106 725.166 156.187C724.104 156.281 723.397 155.893 722.686 155.396C722.538 155.292 722.274 155.215 722.075 155.214C719.484 155.227 716.907 155.241 714.314 155.274C712.718 155.293 712.717 155.302 709.759 154.452C709.551 154.391 709.328 154.328 709.115 154.325C708.176 154.315 707.211 154.283 706.295 154.353C705.177 154.442 704.615 153.853 703.867 153.45C703.704 153.364 703.432 153.375 703.205 153.371C702.494 153.365 701.795 153.38 701.083 153.384C700.143 153.394 699.203 153.403 698.263 153.412C697.707 153.098 697.137 152.773 696.58 152.46C695.413 152.465 694.222 152.409 693.062 152.493C692.174 152.557 691.8 152.105 691.242 151.811C691.051 151.712 690.854 151.525 690.67 151.515C688.55 151.509 686.429 151.512 684.318 151.566C683.447 151.592 683.09 151.113 682.531 150.828C682.339 150.739 682.125 150.589 681.939 150.589C680.531 150.579 679.121 150.598 677.71 150.617C676.912 150.631 676.912 150.631 675.243 149.847C675.051 149.758 674.832 149.666 674.632 149.665C670.162 149.687 665.702 149.74 661.232 149.761C660.776 149.763 660.38 149.574 660.05 149.274C659.706 148.973 659.308 148.793 658.853 148.795C656.973 148.804 655.081 148.792 653.212 148.851C652.441 148.878 651.845 148.688 651.353 148.292C650.98 147.998 650.621 147.862 650.123 147.869C649.182 147.888 648.242 147.887 647.302 147.897C646.362 147.906 645.422 147.916 644.482 147.925C643.542 147.934 642.592 147.894 641.661 147.963C640.515 148.049 640.017 147.388 639.267 147.004C637.858 147.004 636.449 147.003 635.053 147.014C633.174 147.023 631.293 147.051 629.414 147.051C629.243 147.052 629.047 146.855 628.857 146.747C628.299 146.443 627.905 146.058 627.036 146.074C622.816 146.152 618.576 146.149 614.343 146.215C613.459 146.231 613.114 145.772 612.541 145.486C612.35 145.397 612.136 145.237 611.951 145.238C609.603 145.237 607.252 145.265 604.902 145.283C603.948 145.291 603.948 145.291 602.42 144.522C602.242 144.435 602.01 144.322 601.811 144.321C598.75 144.333 595.701 144.367 592.639 144.389C592.184 144.391 591.787 144.211 591.443 143.91C591.112 143.61 590.702 143.42 590.26 143.423C587.441 143.441 584.608 143.448 581.8 143.497C581.044 143.516 580.431 143.363 579.925 142.957C579.566 142.664 579.194 142.517 578.71 142.525C574.48 142.562 570.251 142.58 566.019 142.646C565.206 142.659 564.658 142.415 564.178 142.041C563.791 141.745 563.442 141.659 562.931 141.645C562.391 141.637 562.057 141.71 561.736 141.971C561.323 142.311 561.042 142.762 560.137 142.697C559.203 142.628 558.248 142.646 557.317 142.715C556.429 142.789 556.057 142.308 555.529 141.987C555.136 141.76 554.758 141.69 554.229 141.723C553.742 141.751 553.432 141.885 553.123 142.167C552.446 142.764 552.389 142.758 551.664 142.259C551.274 141.993 550.922 141.779 550.467 141.77C548.589 141.77 546.709 141.788 544.827 141.817C543.745 141.831 543.729 141.849 542.967 141.278C542.593 140.993 542.222 140.836 541.751 140.846C536.581 140.892 531.413 140.92 526.24 140.996C525.442 141.01 524.923 140.749 524.384 140.398C524.209 140.282 524.038 140.126 523.829 140.065C523.621 140.004 523.378 140.018 523.151 140.013C519.391 140.041 515.619 140.048 511.869 140.126C511.014 140.144 510.589 139.785 510.033 139.471C509.843 139.363 509.685 139.209 509.477 139.148C509.268 139.097 509.008 139.138 508.78 139.143C505.02 139.171 501.248 139.178 497.499 139.256C496.601 139.27 496.255 138.821 495.695 138.546C495.504 138.448 495.305 138.279 495.12 138.279C493.94 138.264 492.771 138.288 491.59 138.292C488.769 138.32 485.95 138.329 483.129 138.367C482.046 138.381 481.655 137.465 480.749 137.41C479.574 137.335 478.401 137.409 477.219 137.422C476.279 137.432 475.339 137.431 474.398 137.45C473.472 137.461 473.472 137.461 471.236 136.657C471.042 136.587 470.809 136.494 470.609 136.493C467.32 136.511 464.017 136.528 460.74 136.577C459.985 136.586 459.368 136.472 458.863 136.056C458.504 135.763 458.12 135.594 457.649 135.604C452.707 135.645 447.779 135.688 442.838 135.719C442.653 135.72 442.422 135.597 442.245 135.5C441.865 135.283 441.502 135.039 441.137 134.814C440.836 135.008 440.452 135.174 440.246 135.408C439.963 135.722 439.616 135.784 439.075 135.786C438.534 135.788 438.198 135.733 437.796 135.436C437.315 135.071 436.814 134.773 435.973 134.783C430.801 134.859 425.633 134.876 420.461 134.942C419.606 134.951 419.249 134.481 418.675 134.195C418.484 134.106 418.267 133.975 418.082 133.976C415.961 133.979 413.853 134.003 411.731 134.016C405.849 134.067 399.97 134.088 394.098 134.179C393.03 134.195 392.331 133.876 391.619 133.379C391.472 133.275 391.208 133.198 391.009 133.197C382.778 133.256 374.546 133.325 366.328 133.396C365.886 133.398 365.476 133.198 365.146 132.908C364.801 132.607 364.403 132.437 363.948 132.439C360.188 132.466 356.429 132.494 352.668 132.532C351.728 132.541 351.713 132.549 350.794 131.981C350.605 131.863 350.409 131.656 350.252 131.659C349.924 131.674 349.593 131.885 349.339 132.192C349.083 132.519 348.722 132.579 348.194 132.592C347.652 132.604 347.302 132.538 346.913 132.262C346.416 131.915 345.961 131.582 345.106 131.591C334.294 131.713 323.485 131.787 312.674 131.899C311.805 131.906 311.445 131.456 310.872 131.17C310.68 131.081 310.491 130.963 310.281 130.921C310.057 130.878 309.813 130.912 309.584 130.917C291.953 131.06 274.321 131.214 256.69 131.357C255.636 131.364 255.65 131.366 254.431 132.141C254.28 132.234 254.084 132.36 253.885 132.359C248.486 132.421 243.075 132.462 237.663 132.503C235.313 132.521 232.962 132.55 230.613 132.559C229.774 132.559 229.774 132.559 227.695 133.401C227.518 133.471 227.31 133.567 227.111 133.566C217.711 133.65 208.311 133.734 198.898 133.797C198.158 133.798 197.551 133.911 197.172 134.343C196.904 134.648 196.577 134.811 196.106 134.82C189.526 134.876 182.946 134.942 176.353 134.976C175.57 134.983 175.081 135.206 174.665 135.575C174.527 135.698 174.4 135.842 174.209 135.92C174.032 135.99 173.776 135.993 173.562 136C167.922 136.046 162.28 136.112 156.629 136.128C155.789 136.128 155.42 136.453 154.978 136.789C154.826 136.901 154.712 137.066 154.521 137.134C154.331 137.193 154.063 137.165 153.836 137.161C149.136 137.198 144.436 137.245 139.736 137.282C138.838 137.138 138.592 137.682 138.125 137.977C137.96 138.077 137.834 138.221 137.644 138.28C137.44 138.337 137.187 138.301 136.945 138.295C133.186 138.323 129.424 138.38 125.652 138.377C124.784 138.374 124.573 138.853 124.078 139.145C123.914 139.235 123.744 139.385 123.559 139.395C121.207 139.433 118.857 139.451 116.508 139.46C115.725 139.466 115.726 139.456 114.275 140.277C114.111 140.367 113.917 140.465 113.717 140.473C110.198 140.517 106.667 140.539 103.135 140.571C102.679 140.572 102.349 140.773 102.095 141.08C101.841 141.388 101.498 141.568 101.042 141.569C98.222 141.597 95.4006 141.635 92.5828 141.634C91.8004 141.63 91.2719 141.82 90.8958 142.223C90.6135 142.527 90.289 142.66 89.7903 142.667C86.9708 142.685 84.1489 142.733 81.3187 142.711C80.4939 142.703 80.0422 142.989 79.6686 143.362C79.3723 143.665 79.0519 143.75 78.525 143.753C73.3565 143.78 68.174 143.806 63.0146 143.893C62.1451 143.91 61.7369 143.523 61.1936 143.221C60.4188 142.796 59.7032 142.347 59.7683 141.588C59.7783 141.471 59.5502 141.31 59.3893 141.195C58.1965 140.333 58.1965 140.333 58.0658 139.534C57.9938 139.045 57.9087 138.545 57.8517 138.048C57.7367 137.23 57.3027 136.978 55.9926 136.988C55.5229 136.988 55.0517 137.007 54.5829 136.997C53.8859 136.993 53.3916 136.617 53.3147 136.02C53.2718 135.691 53.2148 135.361 53.1718 135.032C53.8837 135.028 53.8703 135.017 55.2125 133.97C55.777 133.528 55.7772 133.528 54.8183 132.927C54.4533 132.702 54.1041 132.459 53.71 132.241C53.5334 132.143 53.2978 132.07 53.0987 132.068C51.918 132.062 50.7497 132.077 49.5814 132.092C47.7012 132.111 47.701 132.111 45.8961 130.92C45.7476 130.825 45.5203 130.654 45.5552 130.579C45.7412 130.236 46.1354 130.12 46.6183 130.131C47.3286 130.147 48.028 130.122 48.7258 130.117C49.1955 130.117 49.6659 130.107 50.1356 130.107C50.6045 129.783 51.087 129.471 51.5286 129.134C52.2275 128.618 52.2289 128.598 51.3754 128.096C50.8346 127.765 50.2489 127.458 49.6923 127.144C48.9945 127.149 48.2818 127.163 47.5848 127.158C46.7028 127.154 46.366 126.932 46.1946 126.276C46.0447 125.7 46.3254 125.249 47.0124 125.203C47.7136 125.159 48.3694 125.149 48.7646 124.689C49.144 124.248 49.7522 124.125 50.4889 124.163C50.9569 124.183 51.4282 124.164 51.8987 124.154C52.5119 124.14 52.8789 123.677 52.7996 123.109C52.7599 122.742 52.6447 122.425 52.1013 122.29C49.6904 121.693 49.6612 121.699 48.5049 120.91C48.3971 120.84 48.3277 120.656 48.3775 120.573C48.4605 120.434 48.6341 120.236 48.8059 120.225C50.4463 120.181 52.085 120.157 53.7196 120.181C54.2597 120.188 54.6606 120.162 54.8748 119.821C55.1713 119.351 55.0977 118.882 54.6332 118.489C54.4872 118.366 54.2448 118.203 54.0747 118.195C52.1978 118.175 50.331 118.205 48.4541 118.184C48.2832 118.186 47.9872 117.988 47.9275 117.854C47.8065 117.606 48.0447 117.316 48.5475 117.261C49.2089 117.183 49.8726 117.243 50.3516 116.802C51.0174 116.175 51.8191 115.621 52.5529 115.03C52.6758 114.925 52.8786 114.72 52.8379 114.696C52.5037 114.445 52.1087 114.237 51.7595 113.994C51.1681 113.588 51.2089 113.111 51.3892 112.668C51.5338 112.31 51.9694 112.209 52.4913 112.263C52.717 112.287 52.9991 112.317 53.1899 112.248C53.6879 112.084 53.8665 111.828 53.6442 111.599C53.5132 111.467 53.2736 111.275 53.1027 111.277C50.0567 111.281 46.9972 111.274 43.9586 111.358C43.06 111.382 42.6829 110.969 42.1695 110.65C41.778 110.402 41.4036 110.284 40.8833 110.377C40.392 110.463 39.9334 110.336 39.6647 109.984C39.4475 109.696 39.8898 109.517 41.054 109.384C41.2697 109.357 41.5119 109.353 41.6754 109.272C43.4017 108.392 43.4025 108.383 44.5426 108.365C45.6536 108.354 45.6547 108.344 46.2814 107.84C46.572 107.605 46.8905 107.374 47.1677 107.128C47.2757 107.031 47.4618 106.854 47.4104 106.79C47.126 106.456 46.7085 106.343 46.209 106.359C45.0946 106.409 43.8088 106.137 43.1512 107.001C42.8955 107.328 42.5345 107.388 42.0217 107.393C36.8673 107.422 31.7094 107.489 26.5426 107.497C25.7029 107.497 25.2914 107.818 24.9328 108.183C24.6223 108.484 24.3035 108.549 23.7626 108.551C23.2216 108.553 22.7957 108.538 22.5129 108.184C22.3463 107.97 22.5248 107.714 22.9714 107.486C23.6113 107.16 23.5401 106.661 23.3819 106.183C23.2667 105.867 22.8478 105.607 22.3807 105.577C21.6862 105.544 21.0143 105.581 20.4694 105.131C20.15 104.872 19.7402 104.671 19.376 104.437C18.6768 103.961 17.9784 103.475 16.9262 103.63C16.2293 103.458 15.7656 103.056 15.2248 102.724C14.3182 102.177 14.2394 102.1 14.9573 101.695C15.7649 101.239 15.2325 100.476 15.7007 99.9948C16.2005 99.4776 16.8639 99.0464 17.459 98.5785C17.6118 98.4571 17.7496 98.3438 17.9024 98.2224C17.5947 97.9936 17.3194 97.7192 16.9502 97.543C16.4716 97.316 16.236 97.0751 16.316 96.4746C16.2248 96.3766 16.2476 96.6049 16.3554 96.6751C16.4774 96.7469 16.7921 96.7308 16.9531 96.679C17.3639 96.5355 17.582 96.3128 17.5008 96.098C17.4536 95.9851 17.1975 95.8207 17.0282 95.8029C16.7179 95.7703 16.4316 95.9564 16.3019 96.4731C14.6879 96.7064 13.0348 96.7294 11.3853 96.7134C11.2143 96.7151 11.0196 96.4982 10.8305 96.3801C10.21 95.9811 10.2091 95.9908 8.31327 95.6936C8.11664 95.6631 7.86046 95.4988 7.77341 95.3522C7.41529 94.7155 7.48544 94.0647 7.34222 93.4113C7.74401 93.041 8.14467 92.6803 8.55973 92.3212C9.39068 91.5932 10.4392 90.9863 11.1075 90.1627C11.0215 89.6724 10.8931 89.1777 11.5471 88.8535C13.352 88.5518 13.338 88.5504 13.8576 88.1335C15.3393 86.9533 16.8077 85.7617 18.3441 84.6069C18.7542 84.3062 18.7701 84.1213 18.1056 83.9042C17.8973 83.8431 17.6722 83.8096 17.4448 83.8054C16.7337 83.7995 16.0135 83.9007 15.3257 83.7892C14.637 83.6875 14.166 83.2059 13.6243 82.8839C13.0694 82.5506 12.5153 82.2077 11.9612 81.8647C11.2958 81.8243 10.6096 82.0273 9.98426 81.5197C9.5057 81.1257 8.89188 80.8157 8.33779 80.4727C8.83848 79.7789 9.70511 79.3001 10.3958 78.7146C11.025 78.1815 11.0379 78.1927 12.6287 77.8981C13.3805 77.7609 13.7287 76.6876 13.1357 76.3012C12.4215 75.8334 11.6627 75.3904 10.9327 74.9405C10.2673 74.9001 9.56785 75.092 8.97069 74.5874C8.5054 74.2046 7.9603 73.9214 7.13136 73.9621C5.73072 74.0312 4.31108 73.9902 2.89967 74.0189C2.41509 74.027 1.89639 73.9333 1.7132 73.5801C1.59219 73.3317 2.0288 73.0534 2.50011 73.0341C3.2137 73.0108 3.85837 72.9606 4.25273 72.511C4.63298 72.0598 5.26606 71.9788 6.00536 71.9877C6.2045 71.9889 6.44036 71.8958 6.54911 71.7894C7.1053 71.2781 7.71127 70.8507 8.79568 70.9841C9.26373 70.8368 9.52424 70.6185 9.40322 70.3701C9.32944 70.2347 9.04757 70.0382 8.87664 70.0399C7.69759 70.0144 6.51857 69.9889 5.36105 70.0442C4.81839 70.0658 4.40746 70.0423 4.09398 69.7147C3.87089 69.4949 4.02036 69.2454 4.49593 69.0105C4.91173 68.8086 5.0489 68.5381 5.04907 68.2042C5.04449 67.4278 4.64046 67.1596 3.28221 67.0661C2.30563 67.0029 2.07669 66.8512 1.92188 66.1671C1.87881 66.0054 1.75637 65.7765 1.86429 65.6798C2.52756 65.0815 2.99264 64.3054 4.16185 64.1138C4.62323 64.0443 5.1026 64.0946 5.4064 63.8712C5.7102 63.6477 5.98926 63.3823 6.30633 63.17C6.6981 62.9165 6.97511 62.6707 6.82171 62.468C6.56799 62.1074 6.11929 62.0308 5.58739 62.0929C5.12769 62.1428 4.6473 62.1022 4.17683 62.1117C3.33546 62.1315 2.68028 61.8074 2.61827 61.3687C2.4471 60.2114 2.26091 59.0625 2.11796 57.9081C2.10143 57.7689 2.1868 57.601 2.30965 57.4961C2.73965 57.1287 3.19635 56.7838 3.63961 56.4276C4.15841 56.0204 4.91269 56.188 5.56903 56.1685C6.4967 56.1382 6.49555 56.1478 7.80282 55.3422C8.3141 55.0226 9.13381 55.256 9.65586 54.9769C9.8202 54.8861 10.075 54.736 10.041 54.6342C9.99547 54.5018 9.72188 54.3748 9.51531 54.2942C9.32285 54.2151 9.08562 54.1608 8.87154 54.1678C6.28024 54.1806 3.70144 54.2144 1.11097 54.2176C0.669546 54.2204 0.208327 53.9559 0.0790493 53.6379C-0.0518979 53.3393 0.0195022 53.0029 0.0188382 52.6788C0.462105 52.3226 0.959106 52.0016 1.34846 51.6103C1.64483 51.3074 1.96772 51.194 2.50537 51.2308C3.21312 51.2756 3.91435 51.2313 4.71174 51.2266C6.30052 49.9594 7.86683 48.6212 9.56845 47.3658C10.2524 46.8581 10.1476 46.2578 10.3271 45.6579C10.5025 45.1066 11.44 45.2935 12.0889 45.1946C12.6083 45.1116 12.8041 44.8178 12.625 44.583C12.523 44.4446 12.2818 44.2719 12.0843 44.2512C11.6188 44.2023 11.1459 44.2411 10.6762 44.2409C10.2066 44.2407 9.67313 44.1554 9.27811 44.2809C8.89803 44.3981 8.62973 44.7038 8.36574 44.9609C8.07104 45.2443 7.70947 45.3144 7.17182 45.2777C6.47901 45.2246 5.7804 45.2396 5.08342 45.2352C4.3543 44.7756 3.59598 44.3229 2.89674 43.8468C2.76237 43.7542 2.75321 43.5273 2.77983 43.3828C2.8406 43.0061 2.64912 42.7503 2.19951 42.5165C1.81793 42.3193 1.51269 42.0614 1.16265 41.8282C1.46729 41.595 1.79942 41.3744 2.0493 41.1158C2.59389 40.5739 3.2513 40.2108 4.3216 40.3428C4.7773 40.0076 5.15579 39.5758 5.72842 39.3708C6.27201 39.1725 7.13896 39.5187 7.58315 38.9859C7.80483 38.7243 8.12874 38.4342 8.51959 38.3574C9.14196 38.2361 9.92347 38.4164 10.3228 37.9083C10.5611 37.619 10.8955 37.3692 11.3112 37.3343C11.7842 37.2955 12.2653 37.3265 12.6197 37.177C12.8114 37.099 13.0223 36.9639 13.034 36.8276C13.0415 36.74 12.7713 36.5741 12.5788 36.495C12.4013 36.4076 12.1654 36.3338 11.9522 36.331C11.2419 36.3154 10.5416 36.35 9.83134 36.3343C9.63221 36.3331 9.41244 36.2413 9.20587 36.1607C8.59861 35.9398 8.65754 35.7496 9.18126 35.451C9.70415 35.1621 10.0945 34.761 10.5378 34.4049C10.995 34.3841 11.5566 34.4725 11.8828 34.3201C12.4305 34.0732 12.8347 33.6736 13.2904 33.3384C13.7609 33.3288 14.2421 33.3597 14.6885 33.2986C14.8752 33.2789 14.9783 33.0736 15.1443 32.9633C15.4473 32.7496 15.7173 32.4244 16.1082 32.3475C16.7438 32.2375 17.4996 32.3855 17.9122 31.8886C18.1505 31.5993 18.5032 31.3025 18.8998 31.3245C20.0033 31.401 20.5147 30.9144 21.1223 30.4674C21.578 30.1322 22.4641 30.4217 22.9621 30.0909C23.2933 29.8801 23.545 29.602 23.8753 29.401C24.0106 29.317 24.2827 29.2965 24.4967 29.2895C25.6659 29.2649 26.8457 29.2806 28.0157 29.2463C28.2015 29.2363 28.3835 29.1081 28.5345 29.0061C28.8524 28.7841 29.0656 28.4529 29.4466 28.3259C29.8275 28.1989 30.3493 28.2537 30.8048 28.2524C32.2701 28.2589 32.3798 28.3096 33.1136 27.5518C33.7072 26.9364 34.9782 27.5511 35.4789 26.8572C35.7696 26.4556 36.2649 26.154 37.1012 26.1927C38.2778 26.2474 39.4502 26.1838 40.6318 26.1801C41.6855 26.1729 41.6715 26.1714 42.8775 25.3845C43.4203 25.029 44.163 25.1659 44.8327 25.1576C45.5446 25.1538 46.2034 25.1051 46.5836 24.6539C46.963 24.2125 47.5969 24.1218 48.3221 24.1292C48.9909 24.1306 49.7344 24.2578 50.2897 23.9232C51.6393 23.122 51.626 23.1107 52.523 23.1066C53.9327 23.0975 55.3424 23.0883 56.753 23.0693C57.6931 23.06 58.668 23.1427 59.5609 23.0203C60.2089 22.9312 60.5377 22.4157 60.9793 22.079C62.1484 22.0544 63.3175 22.0297 64.4858 22.0148C66.1245 21.9904 67.7757 21.9869 69.4277 21.9737C70.1647 21.6778 70.3338 20.8705 71.5219 20.956C72.2288 21.0105 72.9308 20.9565 73.6427 20.9527C74.8251 20.9393 75.9967 20.8854 77.1733 20.9401C78.0661 20.9847 78.2661 20.4753 78.7599 20.1932C78.9251 20.0927 79.0804 19.9421 79.2663 19.9321C81.1233 19.852 83.0183 19.992 84.8438 19.7809C85.0305 19.7612 85.2173 19.5745 85.2722 19.433C85.3071 19.358 85.0798 19.1869 84.9305 19.1025C84.7538 19.0054 84.5208 18.9024 84.3216 18.9011C78.4404 18.9419 72.5584 18.9925 66.6772 19.0332C65.8507 19.0447 65.8516 19.0349 63.771 19.8969C63.5942 19.9668 63.3882 20.0433 63.1741 20.0503C62.2331 20.0694 61.2823 20.0385 60.3529 20.0883C59.5954 20.1266 58.985 19.9446 58.479 19.5379C58.1199 19.2449 57.7315 19.1256 57.2502 19.0947C56.7117 19.0677 56.3501 19.1378 56.0173 19.368C55.5774 19.6853 55.3257 20.1302 54.4569 20.1373C50.4575 20.1399 46.4537 20.1911 42.466 20.2243C41.9276 20.0303 41.6771 19.7978 41.839 19.5693C41.9362 19.4321 42.1222 19.2552 42.2931 19.2535C43.9327 19.2194 45.5839 19.2159 47.2226 19.1915C47.4508 19.1859 47.7594 19.2379 47.8947 19.1539C48.5529 18.781 48.8398 18.0941 50.0146 18.1683C50.6942 18.2102 51.3977 18.1367 52.0582 18.0686C52.245 18.0489 52.4318 17.8622 52.4866 17.7206C52.5074 17.6442 52.2942 17.4745 52.1308 17.3886C51.5344 17.0412 50.786 17.3065 50.182 17.0467C49.9763 16.9563 49.6883 16.8279 49.656 16.7066C49.6369 16.5966 49.8918 16.4465 50.0702 16.3572C50.2337 16.2761 50.4527 16.2108 50.6668 16.2038C52.5478 16.1753 54.43 16.1371 56.3069 16.1573C57.0744 16.1691 57.6311 15.9819 58.008 15.5697C58.2903 15.2654 58.6156 15.1228 59.0994 15.1245C62.3885 15.1063 65.6808 15.0491 68.9816 15.0616C69.8063 15.0696 70.2572 14.7928 70.6316 14.4098C70.928 14.107 71.2483 14.0227 71.7752 14.0191C76.4874 14.0029 81.1762 13.9254 85.8866 13.9287C86.7546 13.9314 87.0445 13.5395 87.5126 13.2252C87.6786 13.115 87.7905 12.9696 87.9946 12.9124C88.1988 12.8553 88.4518 12.8916 88.6933 12.8973C92.4528 12.8695 96.2152 12.8127 99.9864 12.8156C100.868 12.8198 101.079 12.3507 101.56 12.0574C101.724 11.9666 101.88 11.8063 102.066 11.7963C104.887 11.7585 107.707 11.7401 110.527 11.712C112.407 11.6933 114.287 11.6745 116.167 11.6655C117.092 11.6644 117.093 11.6546 118.413 10.8601C118.564 10.7679 118.772 10.662 118.958 10.6521C124.371 10.5916 129.768 10.559 135.18 10.5083C135.636 10.507 135.979 10.3171 136.233 10.0098C136.487 9.70252 136.831 9.51272 137.273 9.50994C141.504 9.4629 145.734 9.42563 149.976 9.40928C150.744 9.41134 151.3 9.23395 151.676 8.83145C151.959 8.52714 152.284 8.38455 152.768 8.38621C156.997 8.35864 161.229 8.30183 165.471 8.29521C166.282 8.29198 166.705 8.0025 167.134 7.65459C167.286 7.53312 167.418 7.32108 167.589 7.31937C169.7 7.26591 171.798 7.20122 173.915 7.23685C174.796 7.25076 175.128 6.87301 175.514 6.52066C175.823 6.23878 176.156 6.16579 176.696 6.18311C177.874 6.21837 179.045 6.17434 180.201 6.12877C180.373 6.11733 180.603 5.92538 180.629 5.79059C180.679 5.54047 180.369 5.33117 179.841 5.18731C174.201 5.2338 168.547 5.27878 162.907 5.32527C161.981 5.33612 161.981 5.33617 160.661 6.13063C160.511 6.2229 160.302 6.32871 160.102 6.33719C154.69 6.3879 149.292 6.43038 143.88 6.48108C143.424 6.48238 143.081 6.67222 142.827 6.97948C142.573 7.28675 142.229 7.47655 141.787 7.47933C136.617 7.526 131.446 7.58245 126.264 7.59844C125.496 7.59638 124.941 7.76392 124.564 8.17615C124.282 8.48046 123.957 8.62317 123.473 8.62151C118.532 8.65293 113.602 8.71495 108.648 8.72543C108.15 8.72229 107.808 8.40153 107.859 8.14167C107.885 8.00688 108.115 7.80527 108.286 7.80357C110.867 7.75029 113.434 7.68578 116.022 7.71186C116.889 7.72429 117.18 7.3226 117.648 7.00834C117.8 6.8966 117.927 6.74298 118.116 6.69408C118.32 6.63694 118.573 6.67335 118.815 6.67905C124.925 6.623 131.036 6.55727 137.157 6.54164C138.04 6.53608 138.25 6.0768 138.731 5.78348C138.896 5.68296 139.052 5.52261 139.237 5.52239C141.119 5.48418 142.998 5.47513 144.878 5.46613C148.167 5.43819 151.457 5.41024 154.761 5.38379C155.716 5.3759 155.716 5.37586 157.007 4.58818C157.157 4.49591 157.367 4.38047 157.552 4.38025C166.254 4.30161 174.957 4.22296 183.658 4.15406C184.114 4.15276 184.457 3.96292 184.711 3.65566C184.965 3.35812 185.309 3.15854 185.751 3.14603C197.515 3.04498 209.266 2.94239 221.028 2.8608C221.797 2.85313 222.351 2.70494 222.728 2.28298C222.997 1.97719 223.336 1.83607 223.821 1.82799C236.752 1.72179 249.684 1.6156 262.63 1.50114C271.332 1.43223 280.035 1.34387 288.735 1.29443C289.533 1.28973 289.982 1.03231 290.411 0.674669C290.549 0.551717 290.696 0.341153 290.867 0.339449C292.735 0.290025 294.602 0.260097 296.469 0.230141C297.025 0.553652 297.581 0.867473 298.137 1.19098C298.606 0.866984 299.062 0.531771 299.531 0.207772C302.348 0.218595 305.136 0.0692198 307.968 0.229013C308.153 0.238523 308.334 0.444209 308.523 0.562273C309.782 1.31318 310.534 1.34297 311.437 0.612658C311.758 0.351727 312.034 0.115556 312.49 0.114257C313.901 0.0855998 315.322 0.116849 316.722 0.0575096C317.478 0.0288944 318.091 0.191323 318.596 0.597998C318.956 0.89105 319.342 1.03965 319.812 1.0301C322.404 1.0075 324.981 0.993117 327.575 0.951053C327.76 0.95083 327.943 0.803038 328.094 0.701034C328.412 0.479039 328.69 0.23321 328.994 0C329.361 0.205446 329.773 0.376422 330.065 0.623137C330.439 0.917669 330.805 0.956089 331.347 0.944204C341.688 0.841125 352.041 0.768749 362.383 0.655936C363.266 0.650377 363.612 1.09922 364.186 1.37554C364.377 1.47414 364.566 1.59214 364.775 1.63382C364.999 1.67697 365.244 1.64378 365.472 1.63827C373.235 1.569 380.996 1.50942 388.759 1.44015C389.784 1.42992 389.784 1.42993 391.242 2.19183C391.418 2.28895 391.651 2.40172 391.851 2.39325C395.381 2.38075 398.914 2.33907 402.431 2.31536C402.887 2.31406 403.255 2.50976 403.645 2.77657C404.411 3.29898 404.467 3.30491 405.115 2.72464C405.423 2.45249 405.735 2.29855 406.208 2.2598C406.724 2.21575 407.13 2.28801 407.51 2.50467C408.054 2.80723 408.428 3.25893 409.297 3.24216C413.06 3.17548 416.831 3.18816 420.58 3.11027C421.436 3.09201 421.859 3.47033 422.402 3.77289C422.592 3.88122 422.764 4.03674 422.973 4.08815C423.182 4.13955 423.441 4.09799 423.67 4.09248C428.369 4.05536 433.082 4.02953 437.771 3.95199C438.655 3.9367 439 4.39516 439.574 4.67148C439.765 4.77008 439.979 4.9301 440.164 4.92988C442.982 4.92123 445.817 4.89454 448.637 4.86642C449.649 4.85472 449.648 4.86442 451.12 5.61807C451.297 5.71519 451.53 5.81827 451.729 5.81952C455.018 5.80133 458.322 5.77486 461.612 5.74693C462.624 5.73523 462.624 5.73525 465.472 6.54489C465.68 6.60603 465.901 6.68819 466.114 6.69093C469.873 6.66318 473.646 6.64658 477.408 6.58962C478.163 6.58048 478.778 6.72347 479.283 7.13015C479.643 7.4232 480.028 7.57176 480.499 7.56221C484.729 7.52491 488.971 7.5086 493.19 7.44061C494.002 7.42765 494.506 7.69646 495.046 8.03796C495.221 8.15455 495.392 8.31012 495.601 8.37126C495.809 8.4324 496.052 8.4186 496.28 8.41308C500.51 8.37578 504.752 8.36917 508.971 8.29145C509.827 8.2732 510.25 8.65151 510.793 8.95407C510.983 9.0624 511.179 9.25982 511.349 9.26785C513 9.27409 514.648 9.29985 516.291 9.22674C517.178 9.18225 517.52 9.6699 518.094 9.94622C518.286 10.0351 518.499 10.2048 518.684 10.2046C522.214 10.1921 525.747 10.1602 529.266 10.117C529.765 10.1104 530.124 10.2364 530.497 10.531C530.99 10.9264 531.585 11.1264 532.355 11.0992C533.997 11.0456 535.646 11.0616 537.298 11.0484C538.266 11.042 538.266 11.042 541.157 11.8561C541.365 11.9172 541.586 11.9993 541.799 12.002C544.618 11.9836 547.451 11.9765 550.259 11.9274C551.015 11.9085 551.628 12.0613 552.134 12.4679C552.493 12.761 552.865 12.9081 553.349 12.9C555.941 12.8774 558.52 12.8533 561.112 12.8307C562.052 12.8214 562.999 12.7341 563.93 12.8318C564.606 12.9126 565.059 13.4316 565.646 13.7289C565.809 13.8148 566.098 13.7666 566.325 13.7708C569.615 13.7429 572.917 13.7456 576.197 13.6675C577.052 13.6492 577.475 14.0276 578.019 14.3301C578.209 14.4385 578.405 14.6359 578.575 14.6439C579.755 14.6597 580.924 14.6351 582.106 14.6314C583.516 14.6222 584.936 14.6534 586.337 14.5843C587.48 14.5276 587.831 15.4188 588.731 15.5427C589.419 15.6445 590.139 15.553 590.837 15.5477C592.246 15.5385 593.658 15.5099 595.066 15.5201C595.564 15.5233 595.958 15.4075 596.143 15.0733C596.177 15.0082 595.95 14.8371 595.803 14.7332C594.012 13.5434 594.012 13.5433 592.103 13.5591C590.921 13.5725 589.752 13.5874 588.572 13.5814C588.373 13.5801 588.154 13.4786 587.961 13.3995C587.411 13.1748 587.484 12.986 587.994 12.6859C588.504 12.3858 588.907 11.9961 589.35 11.6399C589.907 11.9537 590.449 12.2659 591.006 12.5797C591.476 12.5799 591.946 12.5704 592.416 12.5706C594.765 12.5618 597.115 12.5432 599.462 12.5538C599.633 12.5521 599.828 12.769 600.017 12.8871C600.557 13.2286 601.044 13.5252 601.871 13.5039C603.983 13.4408 606.102 13.4569 608.21 13.4326C609.136 13.4218 609.136 13.4218 610.693 14.1941C610.87 14.2815 611.103 14.3845 611.302 14.3857C613.423 14.3824 615.531 14.3582 617.653 14.3452C618.109 14.3439 618.535 14.5163 618.835 14.8326C618.952 14.9628 618.907 15.1544 619.306 16.8071C620.86 18.2763 622.014 18.2601 623.181 18.2646C623.678 18.2678 624.12 18.2649 624.461 18.1043C624.639 18.015 624.864 17.8814 624.875 17.7549C624.883 17.6576 624.587 17.4692 624.391 17.429C623.011 17.0878 621.65 17.3575 620.274 17.3015C619.636 17.2739 619.116 16.8754 619.05 16.3088C619.035 16.1501 619.007 15.9801 618.978 15.82C618.949 15.6598 618.936 15.4914 618.907 15.3312C618.361 15.2248 618.021 15.3659 617.753 15.6717C617.532 15.9235 617.223 16.2054 616.83 16.3114C616.436 16.4272 615.916 16.3433 615.447 16.3431C614.991 16.3444 614.487 16.4191 614.069 16.3066C613.653 16.1843 613.338 15.8664 612.959 15.6498C612.783 15.5429 612.568 15.3927 612.383 15.393C610.747 15.3882 609.125 15.3849 607.498 15.4303C606.642 15.4582 606.254 15.0051 605.74 14.6957C605.333 14.4566 604.906 14.4608 604.797 14.9012C604.521 15.9527 605.132 16.4685 606.588 16.4151C607.788 16.3642 608.863 16.4476 609.737 17.2072C609.856 17.3082 610.149 17.3782 610.334 17.3779C611.501 17.3825 612.656 17.3564 613.822 17.361C614.035 17.3637 614.258 17.4263 614.452 17.486C617.285 18.3136 617.284 18.3234 618.267 18.3087C618.737 18.2992 619.193 18.2978 619.277 16.8138C620.302 15.3205 621.722 15.3615 623.11 15.2714C624.011 15.2187 624.355 15.6869 624.914 15.9715C625.105 16.0701 625.303 16.2481 625.488 16.2478C628.548 16.2449 631.596 16.2209 634.645 16.1776C635.158 16.1725 635.52 16.2693 635.893 16.5639C636.373 16.9384 636.92 17.2021 637.734 17.1696C639.362 17.1048 641.011 17.1305 642.663 17.1076C643.504 17.0976 643.504 17.0975 645.131 17.8771C645.308 17.9645 645.541 18.0676 645.74 18.0688C647.391 18.0751 649.031 18.041 650.668 18.036C651.123 18.0347 651.52 18.2139 651.851 18.5137C652.181 18.8135 652.592 18.9942 653.034 18.9914C654.685 18.9879 656.324 18.9636 657.961 18.9586C658.16 18.9598 658.394 19.0531 658.571 19.1405C660.24 19.9246 660.24 19.9245 661.039 19.9101C662.208 19.8855 663.398 19.9417 664.557 19.867C665.688 19.7892 666.218 20.4145 666.953 20.8059C669.06 20.8011 671.177 20.8368 673.274 20.7818C674.131 20.7538 674.554 21.1224 675.097 21.4347C675.287 21.543 675.468 21.7487 675.653 21.7582C676.361 21.7933 677.062 21.7588 677.76 21.7535C678.457 21.7481 679.169 21.7443 679.867 21.739C680.633 22.1041 681.098 22.8208 682.246 22.7154C682.934 22.6501 683.656 22.6964 684.354 22.6911C685.052 22.6858 685.764 22.6819 686.461 22.6766C686.931 22.6768 687.413 22.6978 687.872 22.6576C688.717 22.5989 689.085 23.1189 689.659 23.3952C689.851 23.4841 690.066 23.6245 690.251 23.6243C691.659 23.6345 693.08 23.6658 694.467 23.5855C695.54 23.5213 696.234 23.8889 696.947 24.3761C697.094 24.48 697.358 24.5568 697.557 24.5581C699.208 24.5643 700.847 24.5301 702.484 24.5251C702.926 24.5223 703.336 24.7225 703.667 25.0126C704.011 25.3139 704.409 25.4834 704.864 25.4821C706.501 25.4772 708.155 25.4542 709.792 25.4492C709.991 25.4505 710.224 25.5535 710.401 25.6506C711.929 26.4199 711.928 26.4297 712.869 26.4106C713.097 26.4051 713.338 26.4107 713.567 26.4052C714.735 26.3903 715.938 26.4675 717.086 26.3523C718.406 26.2257 719.323 26.6558 720.192 27.3069C721.359 27.3115 722.55 27.3677 723.695 27.2914C724.553 27.2342 724.973 27.6515 725.517 27.954C725.706 28.0624 725.903 28.2598 726.074 28.2581C727.724 28.2643 729.373 28.2901 731.002 28.2155C731.888 28.171 732.231 28.6489 732.804 28.935C732.995 29.0336 733.195 29.1921 733.38 29.1919C734.318 29.2117 735.259 29.1926 736.199 29.1832C737.296 29.1706 737.295 29.1803 738.683 29.9251C739.335 30.2784 740.032 30.1256 740.701 30.1271C741.413 30.1232 742.08 30.1344 742.61 30.5927C742.941 30.8828 743.351 31.083 743.792 31.0899C744.73 31.1 745.683 31.1116 746.612 31.0618C747.356 31.022 747.983 31.1664 748.488 31.5829C748.848 31.8759 749.232 32.044 749.702 32.0344C751.81 32.0199 753.932 31.997 756.039 31.9922C756.224 31.992 756.47 32.1063 756.632 32.2117C757.012 32.4283 757.376 32.6629 757.74 32.8976C758.665 32.9062 759.613 32.9665 760.527 32.925C761.498 32.8894 762.377 32.9325 763.079 33.5463C763.224 33.6794 763.435 33.8685 763.619 33.878C764.328 33.9131 765.027 33.8883 765.725 33.883C766.423 33.8776 767.135 33.8738 767.833 33.8684C768.616 34.1962 769.064 34.9503 770.211 34.8449C770.9 34.7797 771.622 34.826 772.32 34.8206C773.018 34.8153 773.73 34.8017 774.427 34.8061C774.655 34.8103 774.913 34.7883 775.107 34.8479C775.315 34.9091 775.487 35.0646 775.662 35.1812C776.202 35.5227 776.7 35.8598 777.518 35.7787C778.206 35.7135 778.928 35.7598 779.627 35.7447C780.581 35.7368 780.581 35.7368 782.094 36.5144C782.707 36.8341 783.455 36.5786 784.043 36.8564C784.439 37.0454 784.771 37.3257 785.152 37.5326C785.316 37.6185 785.581 37.6758 785.78 37.677C786.718 37.6871 787.671 37.6987 788.6 37.649C789.358 37.6106 789.969 37.7926 790.46 38.1977C790.82 38.4908 791.191 38.6379 791.676 38.6298C794.026 38.6015 796.374 38.6121 798.713 38.5531C799.512 38.529 800.132 38.7611 800.54 39.1574C801.235 39.8393 802.354 39.2398 803.088 39.8079C803.542 40.16 803.992 40.5608 804.879 40.5066C806.508 40.4222 808.156 40.4576 809.793 40.4526C810.349 40.7761 810.905 41.0997 811.475 41.4247C812.415 41.4153 813.355 41.4059 814.294 41.4063C814.992 41.4009 815.705 41.3873 816.402 41.3917C816.629 41.396 816.872 41.3822 817.079 41.453C817.287 41.5239 817.445 41.6683 817.635 41.7863C818.567 42.3654 818.566 42.3752 820.191 42.3493C820.889 42.3342 821.557 42.3454 822.102 42.7955C822.607 43.2119 823.236 43.3466 823.979 43.3165C825.378 43.2669 826.787 43.2674 828.209 43.2792C828.65 43.2764 829.045 43.4848 829.39 43.7764C829.906 44.2332 830.586 44.2654 831.287 44.2308C832.215 44.1908 833.129 44.1492 833.859 44.7758C834.004 44.9088 834.229 45.0994 834.4 45.1075C835.563 45.151 836.738 45.2155 837.883 45.149C839.027 45.0824 839.525 45.7436 840.276 46.1171C841.443 46.1119 842.625 46.1082 843.792 46.1031C844.021 46.0976 844.296 46.0381 844.489 46.1075C845.304 46.3993 845.721 47.1796 846.883 47.0757C847.557 47.0187 848.279 47.0553 848.973 47.0986C849.157 47.1082 849.383 47.2987 849.499 47.4386C849.564 47.5141 849.477 47.6917 849.384 47.7801C849.107 48.026 848.775 48.2466 848.525 48.5052C848.493 48.5412 848.746 48.7445 848.895 48.8386C849.261 49.0538 849.7 49.0705 850.215 49.046C850.658 49.0237 851.098 49.2074 851.383 49.532C851.5 49.6621 851.441 49.8523 851.118 50.4666C851.077 50.9436 851.391 50.7605 851.517 50.4593C851.71 50.0279 851.427 49.8508 850.841 50.0349C850.432 50.1687 850.213 50.4011 850.294 50.6158C850.341 50.7288 850.597 50.8932 851.118 50.4666C852.409 50.0128 853.349 50.0035 854.289 49.9942C854.532 49.9901 854.822 49.9223 854.986 49.9985C855.573 50.2958 856.113 50.6373 856.683 50.9623C857.365 50.975 858.012 50.8955 858.642 51.3447C859.527 51.9778 859.574 51.9336 860.486 51.9212C860.956 51.9117 861.426 51.9119 861.895 51.9121C862.365 51.9123 862.719 52.0967 863.109 52.3635C863.902 52.9084 863.973 52.9157 864.576 52.3505C864.933 52.0049 865.169 51.9021 865.563 52.1202C866.867 52.8561 866.877 52.8965 868.049 52.8427C869.021 52.7973 869.927 52.8532 870.585 53.482C871.031 53.9217 871.193 53.8504 871.609 53.4815C872.717 52.5077 873.181 52.5759 875.018 53.5545C875.875 54.0176 876.827 53.7148 877.733 53.7609C878.498 53.8019 879.014 54.0917 879.018 54.7109C879.028 55.095 879.132 55.3809 879.628 55.5607C879.822 55.6301 880.056 55.7234 880.255 55.7246C881.435 55.7307 882.604 55.7158 883.786 55.7024C884.384 55.6964 884.748 55.2731 884.687 54.6577C884.615 54.0019 884.861 53.7919 885.723 53.6958C886.24 53.642 886.648 53.7045 887.042 53.9227C887.476 54.1647 887.334 54.3266 886.909 54.6356C885.891 55.393 885.959 55.9303 887.121 56.6514C887.526 56.9003 887.849 57.1208 887.922 57.4329C887.965 57.5946 887.891 57.7931 888.008 57.9232C888.643 58.6479 889.566 59.1672 890.611 59.5911C891.664 59.4364 892.331 59.9484 893.091 60.3817C893.688 60.7194 894.442 60.5628 895.113 60.535C895.87 60.5064 896.484 60.6494 896.989 61.0658C897.348 61.3589 897.733 61.5171 898.203 61.5172C899.143 61.5079 900.093 61.5389 901.024 61.4794C901.825 61.426 902.401 61.6829 902.866 62.0657C903.451 62.5494 904.167 62.3396 904.81 62.4661C905.679 62.626 906.042 63.5382 907.204 63.4245C907.893 63.3593 908.603 63.3847 909.311 63.4197C909.495 63.4292 909.707 63.6184 909.852 63.7515C910.554 64.3653 911.431 64.4279 912.403 64.3728C913.075 64.3353 913.732 64.3061 914.349 64.7441C915.368 65.4796 916.506 66.1491 917.585 66.8418C917.702 67.3059 917.544 67.8195 918.325 68.1667C918.737 68.3474 919.114 68.5934 919.42 68.8513C919.792 69.1556 920.153 69.2622 920.666 69.2473C921.595 69.2073 922.557 69.2787 923.475 69.1982C924.32 69.1298 924.814 69.5059 925.296 69.8609C925.684 70.1472 926.055 70.3039 926.564 70.1805C927.086 70.0684 927.443 70.2139 927.83 70.5196C928.377 70.9405 928.423 70.906 930.332 71.2144C930.529 71.2449 930.756 71.416 930.858 71.5544C930.908 71.6284 930.765 71.8099 930.658 71.8969C930.521 72.0004 930.312 72.1158 930.126 72.1258C928.017 72.1598 925.896 72.1631 923.787 72.1971C923.572 72.2041 923.341 72.2486 923.178 72.3297C922.999 72.419 922.775 72.5427 922.763 72.679C922.755 72.7763 923.027 72.9227 923.219 73.0116C923.82 73.3006 924.583 73.0369 925.168 73.3537C925.562 73.5621 925.881 73.8311 926.276 74.0298C926.44 74.1157 926.709 74.1342 926.922 74.1369C927.633 74.1428 928.333 74.118 929.043 74.1336C929.241 74.1446 929.458 74.2657 929.635 74.3628C930.939 75.0889 930.939 75.0889 932.121 75.0852C932.59 75.0854 933.097 74.9912 933.529 75.0955C933.947 75.1983 934.291 75.4996 934.658 75.7051C935.418 76.1384 936.136 76.5575 936.127 77.3227C936.13 77.6177 936.574 77.9196 937.038 77.9879C937.487 78.0547 937.976 77.9981 938.447 77.9885C939.557 77.9872 939.557 77.9872 940.931 78.7304C941.311 78.9374 941.733 79.0012 942.249 78.9572C942.45 78.939 942.686 79.0031 942.894 79.074C943.572 79.2926 943.556 79.4774 943.075 79.7805C942.396 80.2298 942.448 80.2844 944.188 80.9089C944.851 81.1455 945.346 81.5117 945.887 81.8435C946.766 82.3777 946.752 82.3762 946.096 82.8869C945.944 82.9986 945.806 83.1216 945.653 83.2431C945.211 83.5797 944.852 83.9545 944.002 83.9046C943.068 83.8458 942.124 83.9039 941.184 83.9133C940.272 83.9256 940.012 84.134 940.04 84.8048C940.07 85.6133 940.246 85.7202 941.869 85.8807C942.334 85.9296 942.737 86.0503 943.067 86.3502C942.871 86.6439 942.54 86.8547 942.083 86.8657C940.914 86.8903 939.733 86.894 938.565 86.8992C937.625 86.9086 936.685 86.9179 935.745 86.9273C935.161 86.9347 934.751 87.4024 934.857 87.9833C934.914 88.3134 934.957 88.642 935 88.9706C935.1 89.6293 935.382 89.8259 936.33 89.8959C936.57 89.9113 936.803 89.8571 937.027 89.9002C937.938 90.0646 938.306 90.9184 939.42 90.8684C940.349 90.8283 941.311 90.8998 942.228 90.8194C943.074 90.751 943.509 91.1503 944.065 91.4738C944.255 91.5822 944.451 91.7892 944.621 91.7973C945.801 91.8131 946.98 91.8289 948.139 91.7639C948.681 91.7423 949.001 91.8347 949.404 92.1127C950.371 92.7839 950.402 92.7576 951.926 92.7408C953.038 92.72 953.05 92.7409 954.41 93.4827C954.791 93.6897 955.214 93.734 955.728 93.7095C956.399 93.6817 957.104 93.5985 957.783 93.817C957.991 93.8782 958.249 94.0232 958.309 94.1571C958.343 94.2492 958.128 94.4426 957.953 94.493C956.668 94.8689 955.222 94.6288 953.851 94.6911C953.423 94.7051 953.015 94.4757 952.685 94.1759C952.341 93.8746 951.955 93.7261 951.472 93.7244C950.532 93.7338 949.581 93.7027 948.651 93.7622C947.849 93.8156 947.318 93.534 946.794 93.1745C946.619 93.0579 946.423 92.8507 946.239 92.8412C944.135 92.8168 942.016 92.791 939.92 92.8459C939.077 92.8754 938.624 92.5136 938.083 92.1916C937.893 92.0832 937.711 91.8776 937.527 91.868C936.819 91.833 936.118 91.8675 935.406 91.8713C932.814 91.8939 930.236 91.918 927.645 91.9211C927.475 91.9228 927.281 91.6962 927.091 91.5878C926.725 91.3727 926.344 91.1657 925.963 90.9588C925.251 90.9626 924.552 90.9874 923.842 90.9718C923.33 90.9575 922.867 91.0464 922.765 91.4089C922.702 91.6478 923.149 91.9205 923.644 91.9529C924.125 91.9838 924.615 91.9173 924.999 92.0852C926.906 92.914 926.905 92.9237 928.143 92.926C929.225 92.9217 929.12 92.8124 930.019 93.447C930.408 93.7235 930.764 93.8984 931.234 93.8888C932.402 93.8739 933.585 93.8605 934.765 93.8666C934.951 93.8663 935.182 93.9889 935.359 94.086C936.691 94.8151 936.689 94.8346 937.844 94.8085C939.354 94.7902 939.415 94.7474 940.366 95.4463C941.022 95.9277 941.68 95.712 942.345 95.7621C943.074 96.2216 943.877 96.6497 944.532 97.1506C945.306 97.7426 946.174 97.7452 947.117 97.6969C947.818 97.6623 948.498 97.6945 949.028 98.1528C949.533 98.5789 950.178 98.686 950.92 98.6656C951.59 98.6476 952.283 98.5337 952.956 98.8204C953.134 98.898 953.404 99.0737 953.382 99.1598C953.356 99.2946 953.156 99.47 952.968 99.5092C951.636 99.7721 950.212 99.6128 948.828 99.6542C948.642 99.6641 948.412 99.5319 948.235 99.4348C947.855 99.2181 947.492 98.9737 947.127 98.7488C946.431 98.7347 945.724 98.6801 945.037 98.7259C944.508 98.7587 944.113 98.7076 943.752 98.434C943.418 98.1828 943.06 97.88 942.643 97.7675C942.225 97.6549 941.719 97.7491 941.249 97.7587C940.778 97.7682 940.245 97.6827 939.865 97.8C939.485 97.9172 939.23 98.2343 938.967 98.4816C938.673 98.7553 938.298 98.8142 937.759 98.7871C937.263 98.7645 936.871 98.6841 936.528 98.3731C936.383 98.24 936.179 98.1301 935.974 98.03C935.782 97.9412 935.566 97.8104 935.381 97.8106C933.26 97.8139 931.152 97.8383 929.03 97.8513C927.976 97.8586 927.99 97.86 925.867 97.0577C925.674 96.9883 925.44 96.895 925.241 96.8938C924.06 96.8877 922.892 96.9026 921.71 96.916C920.513 96.9279 920.529 96.91 918.564 96.085C918.208 95.9297 917.658 96.0292 917.223 95.9639C916.31 95.819 915.929 94.954 914.844 94.9972C913.915 95.0373 912.953 94.9658 912.021 95.0448C911.176 95.1132 910.726 94.7222 910.184 94.4002C909.994 94.2918 909.799 94.0749 909.628 94.0766C907.508 94.0702 905.4 94.0945 902.604 93.8306C901.913 93.758 902.206 93.995 902.652 94.1105C903.291 94.2857 903.521 94.1035 903.201 93.6772C902.971 93.378 902.616 93.2031 902.314 93.2401C902.155 93.2628 901.942 93.4271 902.604 93.8306C903.306 94.2774 903.246 94.4774 903.363 94.6075C903.649 94.9223 904.077 95.0851 904.532 95.0935C905.243 95.0994 905.942 95.0746 906.652 95.0902C906.851 95.0915 907.085 95.1848 907.262 95.2819C908.762 96.0482 908.773 96.0887 910.443 96.0283C910.971 96.0149 911.351 96.0548 911.745 96.2827C912.287 96.595 912.659 97.0662 913.532 97.0202C914.69 96.9552 915.87 96.9711 917.05 96.9869C917.235 96.9866 917.417 97.1825 917.622 97.2826C918.18 97.5769 918.566 98.0594 919.442 97.9647C920.118 97.8883 920.84 97.9248 921.548 97.9696C921.732 97.9791 922.001 98.1645 922.075 98.2999C922.225 98.5415 921.991 98.7822 921.495 98.9168C921.291 98.974 921.025 98.9263 920.797 98.9319C919.856 98.9412 918.916 98.9603 917.977 98.9502C917.479 98.9471 917.001 99.0443 916.914 99.3985C916.851 99.6374 917.34 99.9048 917.821 99.9357C918.529 99.9805 919.241 99.9766 919.929 99.9211C921.146 99.8328 922.185 100.001 923.106 100.716C923.76 101.217 923.731 101.057 924.356 102.399C924.512 102.74 925.06 102.827 925.541 102.857C926.702 102.93 927.225 103.132 927.1 103.424C926.942 103.78 926.523 103.854 925.997 103.848C925.059 103.828 924.117 103.857 923.177 103.867C922.949 103.872 922.69 103.904 922.48 103.862C922.27 103.82 922.083 103.683 921.907 103.576C921.528 103.35 921.214 103.032 920.796 102.919C920.379 102.807 919.873 102.901 919.402 102.911C918.933 102.91 918.426 103.005 918.009 102.892C917.592 102.779 917.264 102.45 916.898 102.235C916.722 102.128 916.509 101.968 916.324 101.959C915.387 101.939 914.445 101.968 913.506 101.968C912.352 101.974 912.352 101.974 911.022 101.226C910.642 101.009 910.232 100.976 909.704 100.999C908.562 101.036 908.55 101.006 906.539 100.225C906.347 100.146 906.113 100.052 905.913 100.061C903.792 100.064 901.684 100.088 899.576 100.103C897.767 100.119 897.767 100.119 896.696 100.989C895.901 101.633 895.887 101.631 896.578 102.037C897.133 102.371 897.621 102.825 898.243 103.037C898.823 103.236 899.595 102.875 900.205 103.39C900.51 103.648 900.912 103.936 901.318 104.018C901.963 104.135 902.678 103.925 903.262 104.418C903.554 104.665 904 104.938 904.395 104.989C905.084 105.081 905.803 104.999 906.5 105.004C906.713 105.006 906.952 105.032 907.146 105.101C907.352 105.182 907.526 105.318 907.701 105.434C908.236 105.824 908.83 106.044 909.577 105.955C910.8 105.809 911.86 106.057 912.737 106.778C912.857 106.879 913.166 106.921 913.367 106.903C913.883 106.859 914.321 106.895 914.686 107.12C914.835 107.214 915.049 107.374 915.013 107.459C914.958 107.6 914.772 107.777 914.585 107.807C913.23 107.999 911.803 107.888 910.419 107.92C910.234 107.92 910.02 107.77 909.844 107.663C909.464 107.446 909.15 107.119 908.733 107.006C908.316 106.894 907.811 106.968 907.342 106.968C906.872 106.968 906.366 107.062 905.948 106.959C905.53 106.847 905.156 106.562 904.836 106.312C904.462 106.027 904.084 105.958 903.553 106.001C902.866 106.056 902.159 106.002 901.462 105.997C901.097 105.772 900.733 105.528 900.353 105.311C900.178 105.204 899.961 105.074 899.763 105.063C898.825 105.043 897.884 105.062 896.944 105.071C896.004 105.081 896.004 105.081 894.476 104.312C894.299 104.224 894.065 104.121 893.866 104.12C892.685 104.114 891.516 104.138 890.335 104.132C889.88 104.134 889.483 103.954 889.139 103.653C888.809 103.353 888.398 103.163 887.956 103.166C886.077 103.175 884.198 103.174 882.316 103.222C881.56 103.241 880.933 103.087 880.455 102.683C879.897 102.222 879.225 102.249 878.528 102.255C876.945 102.285 876.932 102.274 875.973 101.672C875.784 101.554 875.602 101.348 875.418 101.339C873.784 101.315 872.136 101.279 870.508 101.344C869.651 101.382 869.229 100.994 868.686 100.682C868.496 100.573 868.3 100.366 868.129 100.368C866.95 100.352 865.77 100.326 864.611 100.401C863.452 100.476 863.092 99.5249 862.231 99.4443C861.06 99.3312 859.884 99.4337 858.715 99.4486C857.775 99.4579 856.835 99.4673 855.895 99.4767C854.955 99.486 854.017 99.4759 853.075 99.5047C852.575 99.521 852.216 99.3949 851.828 99.1087C851.334 98.7327 850.735 98.4146 850.196 98.0633C849.371 97.5545 849.371 97.5544 848.317 97.5617C848.089 97.5672 847.848 97.5614 847.619 97.567C845.894 97.602 845.896 97.5826 843.777 96.7414C843.68 96.7018 843.417 96.7823 843.312 96.8498C842.994 97.0718 842.703 97.3162 842.412 97.5508C842.045 97.3551 841.587 97.2187 841.352 96.9682C840.687 96.26 839.484 97.0078 838.804 96.3079C838.556 96.0461 838.108 95.7928 837.69 95.69C837.258 95.5857 836.752 95.6702 836.296 95.6812C835.113 95.7044 835.114 95.6947 834.038 96.4559C833.493 96.8309 832.767 96.676 832.096 96.7038C831.395 96.7383 830.727 96.7271 830.183 96.2674C829.692 95.8524 829.065 95.6983 828.307 95.7366C827.378 95.7864 826.426 95.7748 825.487 95.7647C825.288 95.7634 825.052 95.6896 824.86 95.6105C822.751 94.8097 822.752 94.8 821.697 94.817C821.226 94.8265 820.745 94.7956 820.286 94.8358C819.511 94.9116 818.951 94.6465 818.427 94.2773C818.252 94.1607 818.057 93.9537 817.872 93.9441C816.937 93.8951 816.013 93.8865 815.089 93.8779C814.378 93.872 813.669 93.8369 812.98 93.9021C811.833 94.0076 811.337 93.3171 810.586 92.9436C809.419 92.9488 808.24 92.9135 807.069 92.9674C806.526 92.989 806.176 92.9228 805.787 92.6463C805.29 92.2995 804.839 91.9182 803.98 91.9754C802.835 92.0517 801.645 91.9955 800.478 91.9909C799.728 91.6077 799.216 90.9352 798.083 91.0421C797.394 91.1073 796.672 91.061 795.975 91.0664C795.034 91.0757 794.095 91.0755 793.154 91.0946C792.143 91.1063 792.159 91.0785 790.671 90.3429C789.812 89.9089 788.862 90.1923 787.954 90.1559C787.245 90.1306 786.854 90.5413 786.974 91.1334C787.094 91.7255 786.675 92.1333 786.019 92.143C784.381 92.1577 782.729 92.1806 781.092 92.1759C780.893 92.1746 780.659 92.0813 780.482 91.9939C778.799 91.1986 778.799 91.2085 778.015 91.2146C776.846 91.2393 775.655 91.1927 774.496 91.2577C773.696 91.3014 773.135 91.0363 772.655 90.6521C772.282 90.3576 771.921 90.2607 771.408 90.2658C765.766 90.3318 760.129 90.349 754.5 90.4359C753.659 90.4459 753.204 90.1134 752.662 89.7913C752.473 89.683 752.305 89.4788 752.107 89.458C751.642 89.4092 751.169 89.448 750.698 89.4575C748.591 89.472 746.479 89.5352 744.363 89.4898C743.467 89.4745 743.189 89.8971 742.776 90.227C742.456 90.4782 742.108 90.5594 741.583 90.5436C741.071 90.5293 740.709 90.4421 740.335 90.1475C739.856 89.7633 739.295 89.4982 738.494 89.5515C737.564 89.6111 736.627 89.5815 735.672 89.5894C735.189 89.5878 734.807 89.7245 734.622 90.0586C734.589 90.114 734.872 90.2912 735.034 90.3966C735.573 90.7478 736.08 91.1447 736.697 91.4158C737.328 91.6883 738.054 91.5286 738.736 91.5412C738.977 91.5469 739.208 91.5123 739.433 91.5457C739.643 91.5776 739.893 91.653 740.041 91.7569C740.737 92.2719 741.487 92.655 742.525 92.4988C743.388 92.7171 743.771 93.5724 744.903 93.4752C745.591 93.4197 746.301 93.4353 747.011 93.4607C747.195 93.4702 747.377 93.6661 747.567 93.7745C748.111 94.077 748.529 94.5137 749.389 94.4371C750.307 94.3566 751.269 94.4281 752.197 94.388C752.711 94.3635 753.072 94.4701 753.446 94.7646C753.926 95.1391 754.483 95.4431 755.286 95.3703C755.975 95.305 756.697 95.3513 757.396 95.3363C758.308 95.3239 758.307 95.3337 759.863 96.1059C760.041 96.1933 760.274 96.2964 760.473 96.2976C761.653 96.3037 762.823 96.279 764.003 96.2851C764.459 96.2838 764.885 96.4562 765.171 96.7711C765.288 96.9012 765.229 97.0915 765.257 97.2615C762.907 97.28 760.561 97.2596 758.22 97.3381C757.335 97.3728 756.974 96.9323 756.415 96.6477C756.224 96.5491 756.027 96.3614 755.842 96.3617C754.191 96.3554 752.554 96.3603 750.914 96.4043C750.4 96.4191 750.023 96.3402 749.666 96.0179C748.757 95.1663 747.538 95.4508 746.428 95.4424C745.575 95.4314 745.281 95.7051 745.325 96.3579C745.387 97.1305 745.874 97.4174 747.184 97.4173C747.653 97.4175 748.125 97.3981 748.593 97.4081C749.048 97.4165 749.447 97.586 749.791 97.8873C750.121 98.1871 750.532 98.3678 750.973 98.3747C751.911 98.3848 752.864 98.3964 753.779 98.3452C754.536 98.3068 755.149 98.4693 755.64 98.8842C756.184 99.344 756.869 99.3274 757.553 99.3109C759.15 99.282 759.163 99.2933 760.108 99.8836C760.297 100.002 760.479 100.207 760.663 100.217C762.298 100.241 763.945 100.286 765.559 100.22C766.401 100.19 766.854 100.552 767.382 100.863C767.572 100.971 767.753 101.187 767.938 101.187C769.118 101.202 770.298 101.218 771.456 101.153C772 101.122 772.319 101.214 772.736 101.494C773.731 102.177 773.761 102.161 775.257 102.131C775.714 102.12 776.217 102.065 776.633 102.188C777.05 102.31 777.364 102.628 777.744 102.844C777.921 102.941 778.137 103.072 778.336 103.073C779.274 103.093 780.215 103.074 781.155 103.065C782.038 103.049 782.038 103.059 783.622 103.834C784.263 104.157 784.973 104.016 785.643 104.007C786.369 103.995 787.018 104.063 787.536 104.501C788.053 104.938 788.718 104.988 789.43 104.984C790.1 104.976 790.795 104.833 791.449 105.167C792.949 105.933 792.948 105.943 793.917 105.927C795.328 105.908 796.724 105.897 798.147 105.899C798.332 105.899 798.561 106.041 798.738 106.138C799.118 106.355 799.432 106.682 799.849 106.795C800.265 106.917 800.769 106.852 801.225 106.841C802.694 106.808 802.799 106.751 803.717 107.495C804.49 108.107 805.571 107.454 806.28 108.137C806.688 108.524 807.257 108.859 808.09 108.779C808.778 108.714 809.487 108.749 810.199 108.745C811.324 108.736 811.323 108.745 812.683 109.477C812.86 109.575 813.092 109.697 813.277 109.697C814.214 109.717 815.165 109.748 816.083 109.667C817.159 109.574 817.804 110.015 818.563 110.458C819.159 110.805 819.913 110.649 820.584 110.621C821.312 110.599 821.958 110.696 822.461 111.132C822.992 111.581 823.659 111.602 824.371 111.598C825.04 111.599 825.736 111.446 826.39 111.79C827.791 112.546 827.791 112.546 828.859 112.54C829.799 112.531 830.74 112.512 831.677 112.532C831.862 112.531 832.077 112.682 832.253 112.788C832.633 113.005 832.946 113.333 833.364 113.445C833.781 113.558 834.286 113.483 834.755 113.483C835.225 113.483 835.731 113.389 836.149 113.492C836.567 113.595 836.941 113.88 837.262 114.129C837.635 114.424 837.999 114.491 838.543 114.45C839.231 114.395 839.939 114.44 840.636 114.444C841.001 114.669 841.38 114.895 841.729 115.138C842.092 115.392 842.502 115.416 843.03 115.402C844.785 115.351 844.797 115.382 846.198 116.138C846.837 116.48 847.548 116.328 848.217 116.33C848.929 116.326 849.595 116.357 850.111 116.804C850.615 117.23 851.274 117.348 851.99 117.305C852.448 117.275 852.931 117.277 853.399 117.296C853.612 117.309 853.862 117.374 854.011 117.468C854.723 117.956 855.425 118.403 856.477 118.248C857.373 118.42 857.756 119.266 858.856 119.224C859.784 119.184 860.746 119.256 861.663 119.175C862.509 119.107 863.078 119.441 863.472 119.827C864.182 120.51 865.324 119.805 866.035 120.479C866.443 120.865 866.984 121.197 867.842 121.14C868.787 121.082 869.065 121.317 869.281 121.958C869.406 122.325 869.354 122.605 869.048 122.848C868.742 123.1 868.436 123.019 868.012 122.65C867.521 122.235 866.906 122.102 866.152 122.102C865.412 122.102 865.004 121.549 864.414 121.291C863.825 121.023 863.076 121.288 862.464 120.958C861.022 120.188 861.022 120.188 859.996 120.198C859.298 120.204 858.576 120.167 857.887 120.232C857.069 120.314 856.573 119.957 856.046 119.627C855.857 119.509 855.675 119.303 855.505 119.295C853.87 119.271 852.222 119.235 850.594 119.31C849.737 119.348 849.315 118.95 848.772 118.647C848.582 118.539 848.385 118.341 848.214 118.343C846.806 118.333 845.409 118.363 843.999 118.382C843.708 118.617 843.39 118.839 843.112 119.094C842.819 119.358 842.442 119.446 841.906 119.38C841.018 119.287 840.108 119.604 839.264 118.995C838.392 118.373 838.319 118.395 837.42 118.428C836.277 118.475 835.081 118.31 833.991 118.579C833.802 118.628 833.588 118.792 833.577 118.928C833.555 119.014 833.841 119.172 834.017 119.269C834.618 119.568 835.366 119.303 835.966 119.611C836.362 119.81 836.68 120.079 837.075 120.287C837.239 120.373 837.493 120.39 837.72 120.404C837.96 120.42 838.192 120.375 838.417 120.409C838.627 120.441 838.848 120.523 839.01 120.628C839.754 121.079 840.543 121.506 841.196 122.016C841.837 122.516 842.496 122.29 843.175 122.342C845.825 123.308 845.824 123.317 847.662 123.294C848.118 123.293 848.588 123.283 849.053 123.342C849.25 123.363 849.418 123.557 849.607 123.675C850.147 124.026 850.66 124.345 851.463 124.273C852.152 124.207 852.874 124.254 853.573 124.239C854.513 124.229 854.513 124.229 856.04 125.008C856.422 125.205 856.846 125.23 857.361 125.206C857.804 125.184 858.242 125.377 858.529 125.692C858.645 125.822 858.587 126.012 858.615 126.182C857.205 126.191 855.785 126.15 854.411 126.242C853.524 126.296 853.165 125.836 852.606 125.551C852.415 125.453 852.218 125.265 852.033 125.265C850.638 125.266 849.242 125.287 847.843 125.336C847.672 125.338 847.441 125.54 847.415 125.674C847.365 125.925 847.697 126.205 848.205 126.248C848.883 126.31 849.561 126.214 850.133 126.677C850.611 127.08 851.232 127.303 851.993 127.225C852.452 127.185 852.931 127.236 853.389 127.205C854.608 127.097 855.69 127.26 856.536 128.017C857.212 128.264 857.904 128.17 858.574 128.152C859.074 128.136 859.559 128.118 859.896 128.34C860.61 128.807 861.31 129.274 862.362 129.119C863.453 129.509 864.25 130.172 865.141 130.737C865.559 131.006 865.887 131.169 866.407 131.076C866.623 131.04 866.877 131.066 867.106 131.061C867.575 131.061 868.081 130.967 868.499 131.069C868.917 131.182 869.245 131.501 869.611 131.717C869.787 131.823 869.986 131.992 870.17 132.001C870.879 132.026 871.579 132.002 872.277 131.996C872.974 132.001 873.671 132.005 874.368 132.01C874.924 132.323 875.495 132.639 876.052 132.952C876.992 132.943 877.932 132.934 878.857 132.932C879.897 132.924 879.896 132.933 881.325 133.692C881.965 134.034 882.685 133.933 883.331 133.873C884.406 133.78 885.08 134.224 885.794 134.692C885.942 134.786 886.22 134.864 886.407 134.844C887.152 134.785 887.777 134.959 888.282 135.375C888.642 135.668 889.012 135.825 889.482 135.825C891.12 135.811 892.759 135.786 894.395 135.791C894.594 135.792 894.812 135.903 894.989 136.001C896.377 136.745 896.388 136.776 897.46 136.731C898.416 136.694 899.296 136.728 899.998 137.341C900.143 137.474 900.368 137.665 900.538 137.673C901.703 137.697 902.883 137.713 904.04 137.667C904.569 137.644 904.933 137.712 905.323 137.979C905.82 138.316 906.257 138.705 907.128 138.669C909.542 138.559 909.551 138.619 912.315 139.587C912.508 139.656 912.783 139.606 913.012 139.591C913.5 139.544 913.841 139.717 914.244 139.986C915.146 140.591 915.177 140.565 916.089 140.553C916.788 140.538 917.509 140.594 918.198 140.519C919.26 140.414 919.919 140.866 920.664 141.308C921.26 141.655 921.999 141.497 922.67 141.479C923.398 141.457 924.044 141.554 924.548 141.981C924.893 142.272 925.276 142.45 925.746 142.45C927.383 142.445 929.022 142.421 930.659 142.416C930.858 142.417 931.091 142.52 931.269 142.607C932.825 143.38 932.823 143.409 934.436 143.352C934.949 143.337 935.374 143.362 935.737 143.607C936.087 143.84 936.467 144.066 936.831 144.291C937.528 144.296 938.235 144.35 938.922 144.304C939.452 144.272 939.815 144.349 940.207 144.596C940.72 144.915 941.132 145.42 941.998 145.285C942.444 145.224 942.949 145.306 943.395 145.255C943.928 145.183 944.274 145.298 944.661 145.594C945.143 145.949 945.638 146.315 946.469 146.246C947.387 146.165 948.349 146.237 949.277 146.196C949.792 146.172 950.138 146.287 950.525 146.583C951.006 146.957 951.566 147.222 952.367 147.179C953.996 147.104 954.006 147.154 955.519 147.932C955.9 148.129 956.325 148.154 956.84 148.129C957.283 148.107 957.721 148.301 958.008 148.615C958.277 148.958 958.232 149.15 958.246 149.318ZM840.086 48.3365C839.616 48.3363 839.145 48.3458 838.541 47.4279C838.511 47.2774 838.555 47.1052 838.467 46.9683C838.264 46.6818 837.927 46.4599 837.506 46.3863C836.748 46.2674 835.803 46.5021 835.795 46.7566C835.791 46.9723 836.015 47.1823 836.465 47.4064C836.657 47.4953 836.802 47.6284 836.979 47.7255C837.495 48.0056 837.881 48.4881 838.676 48.3457C838.587 47.7274 838.631 48.0365 838.676 48.3457C838.574 48.7082 838.763 48.9932 839.261 49.1536C839.4 49.1976 839.613 49.2003 839.731 49.1537C840.187 48.9854 840.282 48.7009 840.024 47.8978C839.956 48.0185 839.98 48.2467 840.102 48.3184C840.223 48.3902 840.538 48.3741 840.699 48.3223C841.11 48.1788 841.328 47.9561 841.247 47.7414C841.2 47.6284 840.943 47.464 840.774 47.4462C840.478 47.4151 840.191 47.6011 840.086 48.3365ZM944.458 173.191C943.412 173.268 942.233 173.075 941.171 173.347C940.982 173.396 940.784 173.552 940.758 173.687C940.736 173.773 941.008 173.929 941.171 174.015C941.538 174.211 941.966 174.206 942.463 174.209C943.217 174.22 943.616 174.713 944.175 174.998C944.352 175.085 944.588 175.159 944.787 175.16C945.939 175.163 947.079 175.155 948.233 175.139C948.433 175.131 948.65 175.085 948.827 175.015C949.416 174.792 949.375 174.601 948.843 174.329C948.257 174.032 947.811 173.592 947.206 173.342C946.34 172.986 945.407 173.241 944.458 173.191ZM863.747 171.89C863.049 171.895 862.365 171.902 861.667 171.907C861.439 171.913 861.198 171.897 860.983 171.914C860.54 171.936 860.198 172.107 859.959 172.406C860.262 172.693 860.645 172.88 861.084 172.897C861.78 172.911 862.468 172.856 863.162 172.899C863.913 172.939 864.312 173.423 864.872 173.707C865.049 173.795 865.274 173.828 865.485 173.86C866.525 174.008 867.203 173.569 867.067 172.837C866.973 172.268 866.466 171.881 865.811 171.881C865.128 171.878 864.43 171.883 863.747 171.89ZM950.515 159.31C950.699 159.163 950.892 159.065 950.99 158.928C951.286 158.458 951.219 158.078 950.787 157.64C950.263 157.104 949.545 157.352 948.906 157.334C948.75 157.328 948.563 157.514 948.468 157.632C948.404 157.714 948.388 157.899 948.468 157.956C949.126 158.418 949.829 158.855 950.515 159.31ZM830.621 117.715C829.937 117.721 829.241 117.707 828.555 117.743C828.383 117.755 828.212 117.923 828.103 118.039C827.899 118.254 828.069 118.596 828.645 118.686C829.304 118.794 830.01 118.701 830.707 118.696C831.59 118.69 832.143 118.385 831.845 118.039C831.561 117.705 831.143 117.602 830.621 117.715ZM89.9356 18.9894C90.3911 18.9881 90.8599 18.998 91.3171 18.9772C91.7461 18.9535 92.0891 18.7734 92.3282 18.4744C91.9973 18.1843 91.6139 18.0066 91.1741 17.9899C90.478 17.9757 89.7943 17.9826 89.109 18.0088C88.6808 18.0228 88.2535 18.1941 88.1264 18.5146C88.006 18.7574 88.9382 19.0026 89.9356 18.9894ZM772.884 89.1537C773.059 89.2605 773.228 89.455 773.411 89.4742C773.862 89.5216 774.333 89.512 774.765 89.4591C774.951 89.4394 775.107 89.279 775.203 89.1516C775.267 89.0699 775.267 88.9128 775.189 88.826C774.82 88.3159 773.169 88.3096 772.856 88.8168C772.819 88.9112 772.879 89.0451 772.884 89.1537ZM732.953 31.1801C732.982 31.3403 732.983 31.4975 733.026 31.6592C733.114 31.963 733.406 32.2098 733.845 32.4032C734.218 32.1968 734.425 31.9436 734.436 31.6501C734.435 31.4928 734.406 31.3325 734.363 31.1709C734.275 30.867 733.984 30.6204 733.545 30.427C733.172 30.6236 732.979 30.8784 732.953 31.1801ZM981.123 185.918C980.986 186.031 980.848 186.144 980.697 186.246C981.053 186.569 981.399 186.693 981.68 186.566C981.858 186.486 981.969 186.35 982.107 186.237C981.75 185.915 981.418 185.801 981.123 185.918ZM972.237 186.321C972.413 186.428 972.572 186.562 972.764 186.641C973.081 186.773 973.391 186.638 973.646 186.312C973.471 186.205 973.312 186.07 973.119 185.991C972.803 185.86 972.492 185.994 972.237 186.321ZM977.947 185.123C977.828 185.346 978.009 185.562 978.517 185.782C978.654 185.669 978.834 185.569 978.93 185.442C979.09 185.233 978.868 185.003 978.373 184.794C978.222 184.896 978.084 185.01 977.947 185.123ZM949.071 171.505C948.952 171.728 949.133 171.943 949.641 172.164C949.779 172.05 949.958 171.951 950.054 171.824C950.215 171.615 949.992 171.385 949.498 171.176C949.347 171.278 949.209 171.391 949.071 171.505ZM914.412 98.3698C914.274 98.483 914.136 98.5962 913.985 98.6982C914.342 99.0205 914.687 99.1451 914.968 99.0175C915.146 98.9379 915.257 98.8022 915.395 98.689C915.038 98.3668 914.707 98.2534 914.412 98.3698ZM878.686 57.7502C879.019 57.8539 879.313 57.7473 879.584 57.4123C879.408 57.3054 879.248 57.1708 879.056 57.0917C878.74 56.9603 878.43 57.0948 878.174 57.4215C878.349 57.5381 878.525 57.6448 878.686 57.7502ZM858.247 53.297C858.109 53.4102 857.972 53.5235 857.82 53.6255C858.177 53.9477 858.522 54.0723 858.804 53.9447C858.981 53.8651 859.092 53.7295 859.23 53.6162C858.874 53.294 858.541 53.1904 858.247 53.297ZM719.075 29.7137C718.937 29.827 718.8 29.9402 718.649 30.0422C719.005 30.3644 719.35 30.489 719.632 30.3614C719.809 30.2818 719.92 30.1462 720.058 30.0329C719.702 29.7107 719.369 29.6071 719.075 29.7137ZM15.5145 35.7816C15.3387 35.6748 15.163 35.568 15.002 35.4529C14.5705 35.6728 14.4227 35.9028 14.6325 36.1114C14.7636 36.2431 14.9691 36.3334 15.145 36.4403C15.5907 36.2219 15.7094 35.9985 15.5145 35.7816Z" fill="#E8BB2E"/>
<path d="M215.096 265.369C213.176 265.354 211.269 265.389 209.354 265.307C208.339 265.259 207.939 265.639 207.492 265.985C207.134 266.262 206.745 266.319 206.127 266.314C200.92 266.249 195.726 266.215 190.534 266.172C189.899 265.978 189.602 265.74 189.772 265.513C189.867 265.375 190.083 265.192 190.284 265.193C193.842 265.203 197.384 265.201 200.951 265.29C201.968 265.318 202.287 264.919 202.83 264.623C203.006 264.523 203.153 264.362 203.374 264.317C203.596 264.261 203.91 264.304 204.193 264.314C209.937 264.356 215.68 264.409 221.424 264.451C222.059 264.645 222.356 264.882 222.186 265.11C222.091 265.247 221.875 265.431 221.674 265.43C219.471 265.405 217.284 265.382 215.096 265.369Z" fill="#E8BB2E"/>
<path d="M1252.9 424.508C1252.03 424.534 1250.92 424.584 1250.08 423.928C1249.67 423.611 1249.21 423.475 1248.64 423.475C1247.82 423.486 1246.99 423.477 1246.16 423.449C1245.94 423.436 1245.67 423.3 1245.46 423.19C1245.01 422.967 1244.64 422.634 1244.15 422.504C1243.66 422.375 1243.05 422.526 1242.54 422.423C1241.86 422.284 1241.6 421.993 1241.81 421.769C1241.92 421.644 1242.13 421.471 1242.35 421.464C1245.45 421.427 1245.46 421.428 1246.29 421.868C1246.93 422.209 1247.52 422.574 1248.48 422.508C1249.28 422.455 1250.13 422.515 1250.95 422.512C1252.09 422.514 1252.08 422.524 1253.85 423.326C1254.3 423.529 1254.8 423.572 1255.41 423.547C1255.92 423.533 1256.41 423.74 1256.8 424.045C1256.51 424.347 1256.11 424.521 1255.59 424.525C1254.75 424.535 1253.94 424.518 1252.9 424.508Z" fill="#E8BB2E"/>
<path d="M1222.69 418.35C1224.8 418.364 1226.92 418.41 1229.02 418.395C1229.89 418.388 1230.56 418.566 1231.13 418.959C1231.74 419.387 1232.48 419.434 1233.28 419.449C1233.78 419.463 1234.24 419.669 1234.55 419.976C1234.67 420.096 1234.62 420.287 1234.66 420.448C1232.82 420.432 1230.97 420.424 1229.12 420.387C1228.9 420.384 1228.65 420.259 1228.45 420.16C1228.02 419.948 1227.66 419.617 1227.19 419.508C1226.17 419.264 1225.13 419.419 1224.08 419.358C1223.58 419.326 1223.11 419.129 1222.8 418.832C1222.68 418.692 1222.73 418.51 1222.69 418.35Z" fill="#E8BB2E"/>
<path d="M476.314 256.251C478.501 256.265 480.688 256.288 482.875 256.302C483.51 256.506 483.791 256.731 483.638 256.96C483.543 257.096 483.326 257.279 483.126 257.278C478.75 257.26 474.376 257.222 470.018 257.186C469.384 256.983 469.103 256.757 469.256 256.529C469.351 256.392 469.567 256.209 469.768 256.211C471.94 256.213 474.126 256.237 476.314 256.251Z" fill="#E8BB2E"/>
<path d="M137.292 277.089C136.313 277.006 135.255 277.26 134.185 276.871C133.974 276.8 133.689 276.612 133.714 276.526C133.759 276.383 133.974 276.218 134.194 276.182C135.159 276.037 136.338 276.131 136.877 275.498C137.139 275.17 137.58 275.099 138.165 275.091C138.785 275.077 139.213 275.152 139.676 275.407C140.283 275.737 140.771 276.281 141.787 276.132C141.823 276.293 141.924 276.481 141.861 276.622C141.799 276.764 141.572 276.878 141.364 276.965C141.174 277.043 140.918 277.105 140.683 277.11C139.58 277.112 138.478 277.095 137.292 277.089Z" fill="#E8BB2E"/>
<path d="M998.477 363.086C999.295 363.094 1000.14 363.143 1000.95 363.09C1001.59 363.049 1001.98 363.159 1002.46 363.445C1003.27 363.942 1003.32 363.909 1005.38 364.184C1005.61 364.218 1005.88 364.394 1006.01 364.534C1006.08 364.611 1005.95 364.784 1005.84 364.871C1005.68 364.982 1005.45 365.125 1005.25 365.104C1003.94 364.996 1002.57 365.431 1001.35 364.636C1000.73 364.237 1000.04 364.006 999.145 364.06C998.608 364.092 998.041 364.072 997.491 364.054C996.958 364.037 996.421 363.873 996.115 363.546C995.671 363.067 995.967 362.931 996.825 363.051C997.37 363.128 997.926 363.078 998.477 363.086Z" fill="#E8BB2E"/>
<path d="M1292.54 461.964C1293.59 461.976 1294.64 461.968 1295.71 462.001C1295.93 462.004 1296.18 462.14 1296.38 462.229C1297.15 462.606 1296.99 463.093 1296.98 463.537C1296.96 463.998 1295.09 464.177 1294.34 463.782C1293.51 463.34 1292.76 462.857 1291.55 462.947C1291.08 462.976 1290.55 462.743 1290.28 462.428C1289.86 461.97 1290.13 461.83 1290.97 461.948C1291.46 462.019 1292 461.967 1292.54 461.964Z" fill="#E8BB2E"/>
<path d="M778.768 273.559C779.854 273.565 780.945 273.513 782.022 273.616C782.652 273.672 782.939 274.026 782.77 274.244C782.675 274.382 782.459 274.565 782.258 274.564C780.085 274.572 777.916 274.541 775.744 274.529C775.127 274.327 774.83 274.089 774.999 273.871C775.094 273.734 775.309 273.56 775.511 273.552C776.599 273.528 777.683 273.554 778.768 273.559Z" fill="#E8BB2E"/>
<path d="M1274.73 427.637C1275.78 427.65 1276.85 427.615 1277.9 427.675C1278.45 427.713 1278.86 427.982 1278.91 428.243C1278.93 428.363 1278.65 428.54 1278.43 428.566C1276.91 428.741 1275.3 428.611 1273.73 428.613C1273.23 428.61 1272.71 428.398 1272.44 428.094C1272.02 427.629 1272.29 427.499 1273.13 427.617C1273.66 427.682 1274.2 427.631 1274.73 427.637Z" fill="#E8BB2E"/>
<path d="M1025.71 367.219C1026.25 367.226 1026.81 367.156 1027.32 367.249C1027.86 367.355 1028.18 367.676 1028.32 367.978C1028.48 368.321 1028.44 368.623 1028.25 368.88C1027.94 369.323 1027.68 369.276 1027.09 368.897C1026.19 368.308 1026.12 368.36 1024.24 368.183C1024.03 368.16 1023.78 367.985 1023.62 367.84C1023.39 367.618 1023.55 367.328 1024.14 367.212C1024.59 367.13 1025.18 367.212 1025.71 367.219Z" fill="#E8BB2E"/>
<path d="M1236.22 420.425C1237 420.428 1237.79 420.383 1238.57 420.465C1239.12 420.512 1239.53 420.782 1239.56 421.032C1239.56 421.151 1239.3 421.32 1239.09 421.358C1238.13 421.523 1237.07 421.431 1236.03 421.411C1235.55 421.4 1235.03 421.188 1234.76 420.883C1234.34 420.425 1234.62 420.268 1235.43 420.411C1235.68 420.457 1235.95 420.426 1236.22 420.425Z" fill="#E8BB2E"/>
<path d="M1114.84 395.762C1113.67 395.758 1112.59 395.496 1112.7 395.251C1112.84 394.931 1113.34 394.766 1113.84 394.76C1114.64 394.746 1115.45 394.751 1116.26 394.777C1116.78 394.792 1117.23 394.987 1117.62 395.285C1117.35 395.572 1116.95 395.756 1116.44 395.773C1115.93 395.787 1115.38 395.769 1114.84 395.762Z" fill="#E8BB2E"/>
<path d="M1107.34 393.727C1108.12 393.731 1108.91 393.686 1109.69 393.767C1110.24 393.815 1110.65 394.085 1110.68 394.334C1110.68 394.453 1110.42 394.623 1110.21 394.661C1109.25 394.825 1108.19 394.734 1107.15 394.714C1106.67 394.702 1106.15 394.49 1105.88 394.186C1105.46 393.728 1105.74 393.57 1106.55 393.714C1106.8 393.76 1107.07 393.729 1107.34 393.727Z" fill="#E8BB2E"/>
<path d="M1016.35 366.183C1017.13 366.187 1017.92 366.141 1018.7 366.213C1019.25 366.261 1019.66 366.531 1019.69 366.781C1019.69 366.9 1019.43 367.059 1019.22 367.107C1018.26 367.271 1017.2 367.18 1016.16 367.16C1015.68 367.149 1015.16 366.937 1014.89 366.632C1014.47 366.174 1014.76 366.016 1015.56 366.16C1015.81 366.206 1016.08 366.175 1016.35 366.183Z" fill="#E8BB2E"/>
<path d="M1012.01 365.156C1012.84 365.164 1013.11 365.143 1013.38 365.171C1013.87 365.223 1014.38 365.394 1014.65 365.709C1015.06 366.167 1014.79 366.256 1013.97 366.19C1012.93 366.1 1011.88 366.198 1010.84 366.128C1010.29 366.09 1009.88 365.81 1009.87 365.562C1009.86 365.443 1010.13 365.264 1010.33 365.246C1011.04 365.172 1011.81 365.164 1012.01 365.156Z" fill="#E8BB2E"/>
<path d="M1107.35 316.132C1106.82 316.126 1106.24 316.203 1105.75 316.102C1105.09 315.964 1104.85 315.672 1105.04 315.445C1105.15 315.318 1105.35 315.142 1105.55 315.133C1106.62 315.108 1107.71 315.133 1108.78 315.146C1109.39 315.359 1109.66 315.594 1109.47 315.821C1109.36 315.948 1109.16 316.115 1108.96 316.133C1108.44 316.177 1107.89 316.139 1107.35 316.132Z" fill="#E8BB2E"/>
<path d="M464.346 256.209C464.86 256.253 465.313 256.429 465.689 256.715C465.414 257.002 465.032 257.169 464.528 257.205C464.276 257.218 463.992 257.218 463.726 257.2C463.211 257.165 462.758 256.98 462.382 256.693C462.657 256.406 463.055 256.241 463.543 256.203C463.795 256.19 464.078 256.21 464.346 256.209Z" fill="#E8BB2E"/>
<path d="M1269.08 427.014C1269.09 426.729 1270.12 426.512 1271.04 426.618C1271.51 426.678 1272 426.867 1272.26 427.161C1272.66 427.607 1272.39 427.737 1271.58 427.623C1271.09 427.551 1270.54 427.662 1270.05 427.58C1269.49 427.511 1269.18 427.261 1269.08 427.014Z" fill="#E8BB2E"/>
<path d="M1030.42 368.891C1030.41 368.781 1030.34 368.645 1030.4 368.552C1030.76 368.046 1032.68 368.08 1033.14 368.603C1033.21 368.699 1033.23 368.85 1033.16 368.931C1033.05 369.058 1032.85 369.215 1032.65 369.233C1032.12 369.277 1031.59 369.271 1031.06 369.225C1030.83 369.2 1030.63 369.011 1030.42 368.891Z" fill="#E8BB2E"/>
<path d="M143.344 276.122C141.371 276.123 141.34 276.099 141.73 275.646C142.082 275.239 142.685 275.036 143.53 275.124C143.778 275.151 144.045 275.159 144.257 275.221C144.484 275.294 144.808 275.426 144.847 275.549C144.927 275.785 144.625 276 144.113 276.114C143.891 276.17 143.611 276.121 143.344 276.122Z" fill="#E8BB2E"/>
<path d="M488.923 257.3C488.328 257.406 487.837 257.295 487.499 256.943C487.161 256.591 487.773 256.28 488.791 256.298C489.058 256.306 489.346 256.257 489.591 256.322C489.837 256.378 490.076 256.521 490.215 256.655C490.464 256.879 490.275 257.126 489.726 257.295C489.503 257.361 489.189 257.308 488.923 257.3Z" fill="#E8BB2E"/>
<path d="M1265.68 425.916C1265.84 425.804 1266 425.692 1266.17 425.591C1266.77 425.823 1267.02 426.047 1266.84 426.256C1266.72 426.383 1266.52 426.48 1266.35 426.592C1265.76 426.361 1265.52 426.128 1265.68 425.916Z" fill="#E8BB2E"/>
<path d="M159.643 391.468C159.653 391.351 159.901 391.19 160.087 391.17C160.441 391.139 160.86 391.32 161.135 391.624C161.516 392.058 161.25 392.236 160.497 392.049C159.973 391.915 159.625 391.682 159.643 391.468Z" fill="#E8BB2E"/>
<path d="M1037.95 360.375C1038.16 360.485 1038.37 360.596 1038.56 360.714C1038.24 361.046 1037.88 361.165 1037.53 361.029C1037.3 360.946 1037.11 360.808 1036.9 360.698C1037.21 360.367 1037.56 360.265 1037.95 360.375Z" fill="#E8BB2E"/>
<path d="M1032.26 359.345C1032.6 359.233 1033 359.353 1033.44 359.685C1033.28 359.796 1033.13 359.928 1032.94 360.007C1032.61 360.129 1032.2 360.008 1031.78 359.668C1031.92 359.565 1032.08 359.454 1032.26 359.345Z" fill="#E8BB2E"/>
<path d="M1027.83 359.339C1028.04 359.449 1028.25 359.56 1028.44 359.678C1028.13 360.009 1027.78 360.13 1027.41 359.993C1027.18 359.91 1026.99 359.772 1026.78 359.662C1027.1 359.33 1027.44 359.219 1027.83 359.339Z" fill="#E8BB2E"/>
<path d="M1024.67 358.475C1024.9 358.698 1024.75 358.92 1024.24 359.135C1024.03 359.023 1023.79 358.929 1023.63 358.793C1023.39 358.578 1023.54 358.347 1024.06 358.133C1024.25 358.253 1024.46 358.364 1024.67 358.475Z" fill="#E8BB2E"/>
</svg>
