<svg width="134" height="118" viewBox="0 0 134 118" fill="none" xmlns="http://www.w3.org/2000/svg">
<g clip-path="url(#clip0_902_5168)">
<path d="M50.2666 40.5625C50.2666 43.4965 48.9431 46.3102 46.5871 48.3849C44.2312 50.4595 41.0359 51.625 37.7041 51.625C34.3723 51.625 31.177 50.4595 28.8211 48.3849C26.4651 46.3102 25.1416 43.4965 25.1416 40.5625C25.1416 37.6285 26.4651 34.8148 28.8211 32.7401C31.177 30.6655 34.3723 29.5 37.7041 29.5C41.0359 29.5 44.2312 30.6655 46.5871 32.7401C48.9431 34.8148 50.2666 37.6285 50.2666 40.5625Z" fill="black" fill-opacity="0.3"/>
<path d="M16.7666 7.375C12.3242 7.375 8.0638 8.92901 4.92256 11.6952C1.78133 14.4613 0.0166016 18.2131 0.0166016 22.125V95.875C0.0166016 99.7869 1.78133 103.539 4.92256 106.305C8.0638 109.071 12.3242 110.625 16.7666 110.625H117.267C121.709 110.625 125.969 109.071 129.111 106.305C132.252 103.539 134.017 99.7869 134.017 95.875V22.125C134.017 18.2131 132.252 14.4613 129.111 11.6952C125.969 8.92901 121.709 7.375 117.267 7.375H16.7666ZM117.267 14.75C119.488 14.75 121.618 15.527 123.189 16.9101C124.759 18.2932 125.642 20.169 125.642 22.125V70.0625L94.0092 55.7034C93.2238 55.3569 92.3346 55.2367 91.4674 55.3598C90.6002 55.4829 89.7989 55.843 89.1768 56.3892L58.1056 83.7505L35.8281 70.682C35.0238 70.2104 34.059 69.9983 33.0973 70.0817C32.1357 70.165 31.2364 70.5387 30.5519 71.1392L8.3916 88.5V22.125C8.3916 20.169 9.27397 18.2932 10.8446 16.9101C12.4152 15.527 14.5454 14.75 16.7666 14.75H117.267Z" fill="black" fill-opacity="0.3"/>
</g>
<defs>
<clipPath id="clip0_902_5168">
<rect width="134" height="118" fill="white"/>
</clipPath>
</defs>
</svg>
