<svg width="462" height="462" viewBox="0 0 462 462" fill="none" xmlns="http://www.w3.org/2000/svg">
<path d="M300.596 427.748H257.889C257.766 427.748 257.649 427.7 257.562 427.613C257.475 427.526 257.427 427.409 257.427 427.286C257.427 427.164 257.475 427.046 257.562 426.96C257.649 426.873 257.766 426.824 257.889 426.824H300.596C300.657 426.824 300.717 426.836 300.773 426.859C300.829 426.883 300.88 426.917 300.923 426.96C300.966 427.002 301 427.053 301.023 427.109C301.046 427.165 301.058 427.226 301.058 427.286C301.058 427.347 301.046 427.407 301.023 427.463C301 427.519 300.966 427.57 300.923 427.613C300.88 427.656 300.829 427.69 300.773 427.713C300.717 427.736 300.657 427.748 300.596 427.748Z" fill="#404B7C"/>
<path d="M182.592 427.748H139.894C139.771 427.748 139.654 427.7 139.567 427.613C139.48 427.526 139.432 427.409 139.432 427.286C139.432 427.164 139.48 427.046 139.567 426.96C139.654 426.873 139.771 426.824 139.894 426.824H182.601C182.723 426.825 182.84 426.875 182.926 426.963C183.012 427.05 183.06 427.168 183.058 427.291C183.057 427.413 183.007 427.53 182.92 427.616C182.832 427.702 182.714 427.749 182.592 427.748Z" fill="#404B7C"/>
<path d="M273.745 430.584H207.124C207.002 430.584 206.884 430.535 206.797 430.449C206.711 430.362 206.662 430.245 206.662 430.122C206.662 430 206.711 429.882 206.797 429.795C206.884 429.709 207.002 429.66 207.124 429.66H273.745C273.867 429.66 273.985 429.709 274.071 429.795C274.158 429.882 274.207 430 274.207 430.122C274.207 430.245 274.158 430.362 274.071 430.449C273.985 430.535 273.867 430.584 273.745 430.584Z" fill="#404B7C"/>
<path d="M136.558 430.584H119.27C119.147 430.584 119.03 430.535 118.943 430.449C118.856 430.362 118.808 430.245 118.808 430.122C118.808 430 118.856 429.882 118.943 429.795C119.03 429.709 119.147 429.66 119.27 429.66H136.558C136.618 429.66 136.678 429.672 136.734 429.695C136.791 429.719 136.841 429.753 136.884 429.795C136.927 429.838 136.961 429.889 136.984 429.945C137.008 430.001 137.02 430.061 137.02 430.122C137.02 430.183 137.008 430.243 136.984 430.299C136.961 430.355 136.927 430.406 136.884 430.449C136.841 430.492 136.791 430.526 136.734 430.549C136.678 430.572 136.618 430.584 136.558 430.584Z" fill="#404B7C"/>
<path d="M148.099 247.206C148.099 247.206 163.733 265.104 201.072 262.526C238.41 259.948 248.824 239.426 248.824 239.426L239.796 197.615L163.788 207.29L148.099 247.206Z" fill="#9AB3DA"/>
<path d="M222.49 387.018L221.889 400.878C220.843 401.482 219.656 401.8 218.447 401.8C217.239 401.8 216.052 401.482 215.006 400.878L213.971 385.992L222.49 387.018Z" fill="#ECBDBB"/>
<path d="M209.849 413.027C209.579 417.481 209.956 421.95 210.967 426.296H213.98C213.98 426.296 215.356 418.183 216.909 414.57C218.461 410.957 211.309 409.821 209.849 413.027Z" fill="#0D1D54"/>
<path d="M213.971 398.809C213.971 398.809 217.242 400.444 222.915 398.809C222.915 398.809 232.211 414.47 235.389 417.289C238.568 420.107 245.553 423.221 247.946 424.514C250.34 425.808 231.943 426.75 227.618 425.974C223.294 425.198 219.7 419.783 216.087 416.854C214.204 415.248 212.085 413.942 209.804 412.983C209.804 412.983 210.792 404.999 213.971 398.809Z" fill="#F68D88"/>
<path d="M236.544 201.783C236.544 201.783 242.134 231.12 241.358 243.252C240.582 255.384 233.873 307.008 233.873 307.008L225.354 388.32C225.354 388.32 215.68 390.168 211.161 387.673C211.161 387.673 209.739 364.961 208.195 353.088C206.652 341.214 208.195 329.858 209.23 320.434C209.23 320.434 202.651 281.2 201.099 246.615C199.547 212.03 204.195 192.931 217.62 191.637C231.046 190.344 236.544 201.783 236.544 201.783Z" fill="#0D1D54"/>
<path d="M215.523 386.019C215.408 386.02 215.297 385.978 215.211 385.901C215.126 385.824 215.072 385.718 215.061 385.604C214.931 384.365 211.79 355.204 211.965 348.034C212.141 340.864 214.183 320.84 214.201 320.637L208.657 245.396C208.653 245.335 208.661 245.274 208.68 245.217C208.699 245.159 208.73 245.106 208.77 245.06C208.85 244.967 208.965 244.91 209.087 244.902C209.21 244.893 209.33 244.933 209.423 245.014C209.516 245.095 209.573 245.209 209.581 245.331L215.125 320.656C215.125 320.933 213.056 340.928 212.889 348.062C212.723 355.195 215.948 385.206 215.985 385.511C215.998 385.632 215.962 385.754 215.886 385.849C215.81 385.944 215.699 386.005 215.578 386.019H215.532H215.523Z" fill="#9AB3DA"/>
<path d="M164.232 387.017L162.624 401.94C161.578 402.544 160.39 402.862 159.182 402.862C157.974 402.862 156.787 402.544 155.74 401.94V385.982L164.232 387.017Z" fill="#ECBDBB"/>
<path d="M150.548 414.035C150.278 418.488 150.654 422.958 151.666 427.303H154.678C154.678 427.303 156.055 419.191 157.607 415.578C159.159 411.965 152.017 410.847 150.548 414.035Z" fill="#0D1D54"/>
<path d="M154.678 399.842C154.678 399.842 157.949 401.477 163.622 399.842C163.622 399.842 172.918 415.504 176.096 418.322C179.275 421.14 186.26 424.254 188.653 425.547C191.047 426.841 172.65 427.784 168.325 427.007C164.001 426.231 160.407 420.817 156.794 417.888C154.911 416.281 152.792 414.975 150.511 414.016C150.511 414.016 151.536 406.033 154.678 399.842Z" fill="#F68D88"/>
<path d="M207.844 217.963L205.59 248.335C205.59 248.335 185.585 306.491 181.455 319.141C177.325 331.791 168.168 386.417 168.168 386.417C168.168 386.417 165.396 388.949 159.39 388.949C153.384 388.949 151.998 386.076 151.998 386.076C151.998 386.076 150.704 344.948 151.998 334.332C153.291 323.715 157.422 307.748 157.68 300.264C157.939 292.779 157.422 251.744 159.233 234.66C161.044 217.575 169.036 191.352 187.498 191.453C205.959 191.555 208.741 205.896 207.844 217.963Z" fill="#0D1D54"/>
<path d="M156.508 384.809C156.447 384.808 156.387 384.794 156.331 384.77C156.276 384.746 156.226 384.711 156.184 384.667C156.141 384.623 156.108 384.572 156.086 384.515C156.064 384.459 156.054 384.398 156.055 384.338C156.055 384.088 156.406 359.232 156.914 346.296C157.302 336.354 159.196 323.779 160.444 315.463C160.841 312.82 161.183 310.538 161.368 308.921C162.153 302.831 163.77 290.163 163.77 280.277C163.77 270.565 167.688 219.671 167.725 219.154C167.728 219.093 167.744 219.033 167.771 218.978C167.799 218.923 167.837 218.874 167.883 218.835C167.93 218.795 167.984 218.765 168.043 218.747C168.101 218.729 168.163 218.723 168.224 218.729C168.285 218.734 168.344 218.75 168.398 218.778C168.452 218.806 168.501 218.844 168.54 218.89C168.58 218.936 168.61 218.99 168.628 219.048C168.647 219.106 168.654 219.167 168.649 219.228C168.649 219.736 164.694 270.602 164.694 280.277C164.694 290.256 163.068 302.961 162.283 309.068C162.07 310.695 161.728 312.986 161.359 315.638C160.111 323.954 158.226 336.484 157.838 346.37C157.33 359.306 156.979 384.134 156.979 384.384C156.969 384.501 156.915 384.611 156.828 384.69C156.74 384.769 156.626 384.812 156.508 384.809Z" fill="#9AB3DA"/>
<path d="M205.59 248.796C205.496 248.795 205.405 248.766 205.328 248.711C205.251 248.657 205.193 248.58 205.161 248.492C205.128 248.404 205.124 248.308 205.148 248.217C205.172 248.126 205.223 248.044 205.295 247.983L208.843 245.017C209.588 244.392 210.198 243.621 210.635 242.752C211.072 241.883 211.327 240.934 211.384 239.963L212.751 215.625C212.759 215.502 212.814 215.387 212.906 215.306C212.998 215.225 213.118 215.183 213.241 215.19C213.364 215.198 213.478 215.253 213.56 215.345C213.641 215.437 213.683 215.557 213.675 215.68L212.308 240.018C212.246 241.116 211.959 242.19 211.467 243.174C210.974 244.158 210.286 245.03 209.443 245.738L205.895 248.704C205.808 248.77 205.7 248.802 205.59 248.796Z" fill="#9AB3DA"/>
<path d="M205.59 248.796C205.469 248.787 205.357 248.73 205.277 248.639C205.198 248.547 205.157 248.428 205.165 248.307L207.42 216.327C207.423 216.267 207.439 216.208 207.465 216.153C207.492 216.099 207.529 216.051 207.575 216.011C207.62 215.972 207.674 215.942 207.731 215.923C207.788 215.904 207.849 215.897 207.909 215.902C208.03 215.911 208.143 215.968 208.222 216.06C208.302 216.151 208.342 216.271 208.334 216.392L206.052 248.362C206.045 248.48 205.993 248.59 205.907 248.671C205.821 248.752 205.708 248.797 205.59 248.796Z" fill="#9AB3DA"/>
<path d="M227.526 107.109C227.526 107.109 236.174 115.758 246.154 153.781L245.119 174.691C245.119 174.691 238.106 177.832 233.975 176.28C229.845 174.728 226.103 164.407 223.007 144.143C221.241 131.616 222.8 118.845 227.526 107.109Z" fill="#F68D88"/>
<path d="M243.465 152.922C241.201 155.62 239.603 158.814 238.801 162.244C237.998 165.674 238.013 169.244 238.845 172.667C240.942 181.371 246.893 182.73 246.893 182.73L253.435 179.2C253.435 179.2 256.835 170.727 256.142 162.466C255.449 154.206 251.827 149.688 251.827 149.688L243.465 152.922Z" fill="#404B7C"/>
<path d="M307.803 138.6C308.819 136.955 308.597 135.828 307.452 136.253C306.934 136.428 305.807 136.946 304.513 137.583C305.437 135.864 304.671 134.515 303.192 135.181C302.584 135.487 301.995 135.83 301.427 136.206C301.557 134.904 300.707 134.183 299.579 134.894C297.726 136.314 295.956 137.838 294.276 139.459L291.836 139.089C292.665 137.753 293.4 136.361 294.035 134.922C294.294 133.933 293.693 133.074 293.047 133.37C292.585 133.619 287.558 138.211 284.731 140.845C282.291 141.981 279.963 143.173 279.963 143.173L250.755 153.476C250.755 153.476 247.142 163.64 250.238 172.658C250.238 172.658 282.929 148.569 285.165 147.535C287.401 146.5 300.734 145.816 302.462 145.299C304.19 144.781 309.522 139.616 309.854 138.415C310.002 137.925 309.05 138.138 307.803 138.6Z" fill="#ECBDBB"/>
<path d="M302.407 141.446H302.324L294.183 139.893C294.061 139.87 293.952 139.799 293.882 139.696C293.812 139.593 293.786 139.466 293.809 139.344C293.832 139.221 293.903 139.113 294.006 139.043C294.11 138.972 294.236 138.946 294.359 138.969L302.361 140.494L307.627 138.147C307.683 138.118 307.744 138.1 307.807 138.095C307.87 138.09 307.933 138.098 307.993 138.119C308.053 138.139 308.108 138.172 308.154 138.214C308.201 138.257 308.238 138.308 308.264 138.366C308.29 138.423 308.304 138.486 308.305 138.549C308.306 138.612 308.294 138.674 308.27 138.733C308.245 138.791 308.21 138.844 308.164 138.888C308.119 138.931 308.065 138.966 308.006 138.988L302.61 141.39C302.548 141.424 302.478 141.443 302.407 141.446Z" fill="#404B7C"/>
<path d="M301.603 140.041C301.505 140.042 301.408 140.011 301.328 139.953C301.249 139.895 301.189 139.814 301.16 139.72C301.13 139.626 301.13 139.525 301.162 139.431C301.194 139.338 301.254 139.257 301.335 139.2L304.255 137.177C304.356 137.114 304.476 137.093 304.592 137.117C304.708 137.141 304.811 137.209 304.878 137.306C304.946 137.403 304.973 137.522 304.955 137.639C304.937 137.756 304.875 137.862 304.782 137.935L301.862 139.958C301.786 140.011 301.696 140.04 301.603 140.041Z" fill="#404B7C"/>
<path d="M298.526 139.034C298.43 139.035 298.336 139.006 298.257 138.952C298.177 138.897 298.117 138.819 298.085 138.728C298.052 138.638 298.049 138.539 298.075 138.446C298.101 138.354 298.155 138.272 298.231 138.211L301.132 135.828C301.226 135.749 301.348 135.711 301.47 135.723C301.531 135.728 301.589 135.746 301.643 135.774C301.697 135.802 301.745 135.841 301.783 135.888C301.822 135.934 301.851 135.988 301.869 136.046C301.887 136.104 301.894 136.165 301.888 136.226C301.883 136.286 301.865 136.345 301.837 136.399C301.809 136.453 301.77 136.5 301.723 136.539L298.822 138.932C298.738 138.999 298.634 139.035 298.526 139.034Z" fill="#404B7C"/>
<path d="M201.072 96.5215L182.231 112.913C182.231 112.913 162.873 208.667 163.64 208.667C164.407 208.667 189.623 216.669 212.511 212.28C235.398 207.891 239.529 201.959 239.529 201.959L228.44 140.051L225.992 109.559L201.072 96.5215Z" fill="#9AB3DA"/>
<path d="M197.736 214.045C186.638 213.905 175.603 212.352 164.898 209.425C164.288 209.268 163.761 209.129 163.65 209.12C163.59 209.12 163.53 209.108 163.475 209.085C163.419 209.061 163.369 209.027 163.327 208.984C163.284 208.941 163.251 208.89 163.229 208.834C163.207 208.778 163.196 208.718 163.197 208.658C163.2 208.534 163.251 208.417 163.339 208.331C163.427 208.244 163.545 208.196 163.669 208.196C164.161 208.269 164.646 208.384 165.119 208.538C187.72 214.414 203.336 213.574 212.447 211.818C234.891 207.512 239.132 201.746 239.169 201.654C239.202 201.601 239.245 201.555 239.297 201.519C239.348 201.483 239.406 201.458 239.468 201.445C239.529 201.432 239.592 201.432 239.654 201.445C239.715 201.457 239.773 201.482 239.825 201.518C239.876 201.554 239.92 201.6 239.953 201.653C239.986 201.706 240.008 201.766 240.018 201.828C240.027 201.89 240.024 201.953 240.008 202.014C239.993 202.074 239.965 202.131 239.926 202.181C239.751 202.43 235.426 208.325 212.622 212.696C207.714 213.614 202.73 214.065 197.736 214.045Z" fill="#404B7C"/>
<path d="M189.115 207.798C180.661 207.798 174.839 207.253 174.692 207.234C174.631 207.228 174.572 207.21 174.518 207.182C174.465 207.153 174.417 207.114 174.378 207.066C174.34 207.019 174.311 206.965 174.293 206.907C174.276 206.848 174.27 206.787 174.276 206.726C174.282 206.666 174.3 206.607 174.329 206.553C174.357 206.499 174.397 206.452 174.444 206.413C174.491 206.374 174.545 206.345 174.604 206.328C174.662 206.31 174.723 206.304 174.784 206.31C175.154 206.31 211.929 209.785 235.463 199.122C235.573 199.08 235.695 199.082 235.803 199.127C235.912 199.172 235.999 199.257 236.048 199.364C236.096 199.471 236.102 199.593 236.063 199.704C236.025 199.815 235.946 199.908 235.842 199.963C221.437 206.504 202.153 207.798 189.115 207.798Z" fill="#404B7C"/>
<path d="M201.072 172.022C198.835 211.079 184.033 243.262 184.033 243.262C169.406 251.523 148.099 247.217 148.099 247.217C148.099 247.217 162.014 191.13 165.451 168.409C168.889 145.688 171.522 112.146 171.522 112.146C171.522 112.146 185.779 99.6446 195.925 95.8008C195.463 100.624 193.744 120.582 195.472 134.858C197.459 151.195 201.072 172.022 201.072 172.022Z" fill="#F68D88"/>
<path d="M205.59 95.8008C213.272 98.8037 220.624 102.594 227.526 107.111V113.431C227.526 113.431 232.949 131.495 233.208 134.683C233.467 137.87 230.76 149.134 230.76 149.134C230.76 149.134 247.022 211.966 248.824 239.344C242.172 238.897 235.568 237.905 229.078 236.378C229.078 236.378 229.078 212.936 228.265 195.556C227.859 185.78 226.651 176.055 224.652 166.478C224.652 166.478 214.839 125.563 212.52 116.96C210.201 108.358 205.59 95.8008 205.59 95.8008Z" fill="#F68D88"/>
<path d="M236.35 172.409C236.26 172.41 236.173 172.38 236.102 172.324C236.032 172.269 235.982 172.192 235.962 172.104C232.875 158.974 230.418 149.374 230.371 149.272C230.355 149.209 230.355 149.142 230.371 149.078C230.371 148.967 233.06 137.879 232.811 134.747C232.561 131.615 227.202 113.717 227.147 113.495C227.141 113.458 227.141 113.421 227.147 113.384V108.931C227.147 108.825 227.188 108.724 227.263 108.65C227.337 108.575 227.438 108.533 227.544 108.533C227.649 108.533 227.75 108.575 227.825 108.65C227.899 108.724 227.941 108.825 227.941 108.931V113.32C228.329 114.622 233.365 131.467 233.615 134.636C233.864 137.806 231.462 147.942 231.175 149.115C231.443 150.15 233.827 159.436 236.719 171.864C236.732 171.915 236.734 171.968 236.726 172.02C236.717 172.072 236.699 172.121 236.671 172.166C236.644 172.211 236.608 172.249 236.565 172.28C236.523 172.311 236.475 172.333 236.424 172.345H236.331L236.35 172.409Z" fill="#ECBDBB"/>
<path d="M199.177 92.3997C193.975 93.2129 189.457 104.791 187.517 115.029L193.347 120.36L187.517 130.681C187.517 130.681 196.248 152.534 201.062 171.975C201.062 171.975 198.826 140.318 197.274 122.846C197.579 104.911 205.83 104.255 212.502 121.127C218.97 139.801 224.634 166.468 224.634 166.468C224.634 166.468 225.317 139.801 223.95 125.433L215.347 118.808L217.925 112.099C217.925 112.099 209.074 90.8844 199.177 92.3997Z" fill="#F68D88"/>
<path d="M224.643 166.912C224.591 166.911 224.539 166.9 224.492 166.878C224.444 166.857 224.401 166.827 224.365 166.789C224.329 166.752 224.301 166.707 224.282 166.658C224.263 166.61 224.254 166.558 224.255 166.506C224.255 166.238 224.92 139.904 223.581 125.683L215.107 119.197C215.04 119.145 214.992 119.073 214.968 118.992C214.945 118.91 214.949 118.824 214.978 118.744L217.501 112.184C215.528 107.69 213.048 103.436 210.109 99.5065C210.044 99.4231 210.014 99.3174 210.027 99.2126C210.04 99.1078 210.095 99.0124 210.178 98.9474C210.261 98.8825 210.367 98.8533 210.472 98.8663C210.577 98.8793 210.672 98.9334 210.737 99.0167C213.731 103.048 216.252 107.41 218.249 112.017C218.287 112.112 218.287 112.218 218.249 112.313L215.773 118.781L224.144 125.249C224.188 125.282 224.225 125.324 224.252 125.371C224.279 125.419 224.296 125.472 224.301 125.526C225.669 139.756 224.994 166.349 224.994 166.617C224.973 166.696 224.929 166.767 224.866 166.82C224.803 166.873 224.725 166.905 224.643 166.912Z" fill="#ECBDBB"/>
<path d="M199.085 164.989C199 164.988 198.917 164.96 198.848 164.908C198.78 164.857 198.73 164.785 198.706 164.702C193.874 147.738 187.221 131.041 187.156 130.875C187.131 130.821 187.118 130.763 187.118 130.704C187.118 130.645 187.131 130.586 187.156 130.533L192.83 120.48L187.23 115.361C187.18 115.315 187.143 115.256 187.122 115.192C187.101 115.127 187.097 115.058 187.11 114.991C188.121 109.167 189.99 103.525 192.654 98.2483C192.675 98.1966 192.707 98.15 192.748 98.1115C192.788 98.073 192.836 98.0434 192.889 98.0248C192.942 98.0061 192.998 97.9988 193.053 98.0032C193.109 98.0077 193.163 98.0238 193.212 98.0506C193.261 98.0774 193.304 98.1143 193.338 98.1588C193.372 98.2032 193.396 98.2543 193.409 98.3087C193.421 98.3632 193.422 98.4196 193.412 98.4745C193.401 98.5294 193.379 98.5814 193.347 98.6272C190.751 103.766 188.924 109.257 187.923 114.927L193.587 120.11C193.653 120.171 193.697 120.253 193.71 120.342C193.723 120.431 193.706 120.522 193.661 120.6L187.923 130.764C188.653 132.612 194.853 148.431 199.427 164.49C199.456 164.59 199.444 164.698 199.394 164.79C199.343 164.881 199.259 164.95 199.159 164.98L199.085 164.989Z" fill="#ECBDBB"/>
<path d="M171.522 112.137C165.654 116.868 161.404 132.622 171.522 144.92C180.568 155.916 204.684 177.824 209.969 178.859C215.255 179.894 220.549 173.176 220.549 173.176C220.549 173.176 221.067 158.226 219.385 155.057C218.97 154.17 218.36 153.389 217.599 152.773C216.839 152.157 215.949 151.721 214.996 151.499L211.512 153.56C211.512 153.56 196.424 131.384 188.542 123.493C183.638 118.664 177.863 114.811 171.522 112.137Z" fill="#F68D88"/>
<path d="M211.115 179.367C210.706 179.366 210.297 179.326 209.895 179.247C204.407 178.175 180.632 156.359 171.743 145.807C171.707 145.768 171.68 145.721 171.662 145.67C171.644 145.62 171.637 145.566 171.641 145.512C171.644 145.459 171.659 145.407 171.683 145.359C171.708 145.311 171.741 145.269 171.783 145.234C171.824 145.2 171.872 145.174 171.923 145.159C171.974 145.143 172.029 145.139 172.082 145.145C172.135 145.151 172.187 145.168 172.233 145.194C172.28 145.221 172.321 145.256 172.353 145.299C182.018 156.766 205.017 177.491 210.053 178.471C214.673 179.395 219.487 173.851 220.17 173.038C220.17 171.55 220.577 158.143 219.052 155.251C218.67 154.443 218.118 153.728 217.434 153.154C216.75 152.58 215.95 152.16 215.088 151.924L211.734 153.911C211.647 153.961 211.545 153.976 211.447 153.954C211.35 153.932 211.264 153.873 211.208 153.791C211.06 153.569 196.045 131.532 188.292 123.779C184.676 120.226 180.58 117.197 176.123 114.779C176.043 114.723 175.987 114.64 175.964 114.544C175.942 114.449 175.956 114.349 176.003 114.263C176.049 114.178 176.126 114.112 176.218 114.079C176.311 114.047 176.412 114.049 176.502 114.086C181.023 116.542 185.178 119.618 188.847 123.225C196.156 130.524 209.794 150.326 211.651 153.042L214.811 151.194C214.889 151.147 214.98 151.127 215.07 151.139C216.086 151.369 217.036 151.829 217.848 152.482C218.66 153.135 219.312 153.965 219.755 154.909C221.464 158.143 220.983 172.613 220.965 173.232C220.962 173.316 220.933 173.396 220.882 173.463C220.66 173.712 216.123 179.367 211.115 179.367Z" fill="#ECBDBB"/>
<path d="M211.808 151.868L219.958 146.73C219.958 146.73 225.132 148.726 226.749 156.469C228.366 164.213 225.825 172.861 225.825 172.861C225.825 172.861 218.202 178.803 218.202 178.608C214.358 175.909 211.479 172.049 209.988 167.594C207.114 159.528 211.808 151.868 211.808 151.868Z" fill="#404B7C"/>
<path d="M220.032 150.502L254.22 132.438C254.22 132.438 262.591 125.572 266.232 123.577C269.873 121.581 271.397 121.895 271.268 122.865C271.138 123.835 267.396 126.413 266.814 128.354C266.232 130.294 269.863 129.647 271.277 129.389C272.691 129.13 280.11 126.617 282.494 125.646C284.878 124.676 284.943 126.681 284.342 127.707C283.742 128.732 280.6 130.22 280.6 130.22C280.149 131.483 279.43 132.633 278.493 133.593C278.099 134.826 277.276 135.878 276.174 136.559C275.449 137.684 274.565 138.698 273.55 139.571C272.256 140.495 257.519 140.495 255.615 140.772C253.712 141.049 230.399 163.66 224.726 168.991C224.726 169 216.087 163.327 220.032 150.502Z" fill="#ECBDBB"/>
<path d="M272.867 133.85C272.744 133.874 272.617 133.847 272.514 133.777C272.411 133.707 272.34 133.599 272.317 133.476C272.294 133.354 272.32 133.227 272.39 133.124C272.46 133.021 272.569 132.95 272.691 132.926C274.539 132.196 278.66 130.432 278.66 130.432L279.021 131.282C279.021 131.282 274.844 133.047 273.033 133.777C272.983 133.812 272.926 133.837 272.867 133.85Z" fill="#404B7C"/>
<path d="M272.58 136.521C272.458 136.539 272.333 136.508 272.233 136.434C272.134 136.361 272.067 136.251 272.049 136.128C272.031 136.006 272.062 135.881 272.135 135.781C272.209 135.681 272.319 135.615 272.442 135.597C274.016 135.069 275.558 134.452 277.062 133.749C277.171 133.706 277.291 133.706 277.4 133.749C277.509 133.792 277.597 133.874 277.648 133.98C277.698 134.085 277.707 134.206 277.672 134.317C277.637 134.429 277.561 134.523 277.459 134.58C275.929 135.308 274.359 135.946 272.756 136.493L272.58 136.521Z" fill="#404B7C"/>
<path d="M271.019 138.794C270.958 138.8 270.896 138.795 270.838 138.778C270.779 138.761 270.725 138.732 270.677 138.694C270.581 138.617 270.519 138.505 270.506 138.382C270.492 138.26 270.528 138.137 270.605 138.041C270.682 137.945 270.794 137.883 270.917 137.87C272.224 137.507 273.505 137.056 274.752 136.521C274.808 136.494 274.869 136.479 274.931 136.477C274.993 136.475 275.055 136.485 275.113 136.507C275.171 136.529 275.224 136.563 275.269 136.606C275.314 136.649 275.349 136.701 275.373 136.758C275.398 136.815 275.41 136.877 275.41 136.939C275.41 137.001 275.397 137.063 275.373 137.12C275.349 137.177 275.313 137.229 275.268 137.272C275.223 137.315 275.17 137.349 275.112 137.371C273.816 137.931 272.482 138.401 271.12 138.775H271.019V138.794Z" fill="#0D1D54"/>
<path d="M188.94 61.9084C188.94 61.9084 185.197 54.7105 179.256 53.2228C173.315 51.7352 169.388 57.8428 168.612 65.2903C167.835 72.7377 173.37 79.0024 181.548 71.9338C188.034 66.3898 188.94 61.9084 188.94 61.9084Z" fill="#0D1D54"/>
<path d="M187.388 61.9997C187.388 61.9997 177.907 67.1648 178.942 75.7673C179.977 84.3697 195.075 91.1241 203.206 86.2177C211.338 81.3113 209.333 74.2796 209.333 74.2796C209.333 74.2796 216.494 73.6328 216.623 66.7306C216.752 59.8283 213.204 58.5994 209.527 59.3386C209.527 59.3386 210.885 50.7546 202.948 49.9784C195.011 49.2023 189.005 53.4804 187.388 61.9997Z" fill="#0D1D54"/>
<path d="M179.08 72.7936H178.988C178.928 72.7815 178.872 72.7577 178.822 72.7238C178.771 72.6898 178.728 72.6463 178.695 72.5957C178.661 72.545 178.638 72.4883 178.627 72.4287C178.615 72.3692 178.615 72.3079 178.628 72.2484C179.986 65.6049 186.879 61.7703 187.165 61.6132C187.273 61.5544 187.4 61.5408 187.518 61.5755C187.636 61.6101 187.735 61.6902 187.794 61.798C187.852 61.9058 187.866 62.0326 187.831 62.1504C187.797 62.2683 187.717 62.3675 187.609 62.4263C187.544 62.4263 180.808 66.2147 179.533 72.4425C179.508 72.5434 179.45 72.633 179.368 72.6967C179.285 72.7604 179.184 72.7945 179.08 72.7936Z" fill="#9AB3DA"/>
<path d="M212.52 121.172C211.759 123.978 209.98 126.399 207.53 127.964C201.986 127.539 197.292 122.891 197.292 122.891V104.735C197.228 99.7911 196.082 87.89 195.648 83.5472L195.481 81.9395L204.001 83.7875C204.001 83.7875 204.186 87.8069 204.537 92.2698C204.879 96.5202 205.396 101.196 206.061 103.21C207.438 107.312 212.52 121.172 212.52 121.172Z" fill="#ECBDBB"/>
<path d="M204.528 92.2421C199.621 90.7267 196.997 86.7627 195.639 83.5472L195.473 81.9395L203.992 83.7875C203.992 83.7875 204.204 87.7791 204.528 92.2421Z" fill="#404B7C"/>
<path d="M207.78 66.3241C210.183 70.542 211.534 75.2775 211.716 80.1286C211.91 87.9364 205.72 88.7773 199.455 86.1254C193.19 83.4735 189.291 74.5107 189.291 74.5107C189.291 74.5107 186.454 66.7676 191.675 63.2194C192.923 62.327 194.339 61.6978 195.838 61.3702C197.337 61.0426 198.887 61.0234 200.394 61.3138C201.901 61.6043 203.332 62.1982 204.602 63.0596C205.872 63.9209 206.953 65.0316 207.78 66.3241Z" fill="#ECBDBB"/>
<path d="M192.487 65.6774C192.487 65.6774 200.803 72.2563 211.134 67.932C211.134 67.932 203.52 53.61 191.388 60.54C179.256 67.47 185.068 77.3198 191.647 78.8629C191.647 78.9091 195.259 74.6495 192.487 65.6774Z" fill="#0D1D54"/>
<path d="M195.888 82.2354L192.829 77.8464C192.829 77.8464 189.605 74.9173 186.546 76.8115C183.488 78.7057 186.749 87.2342 195.888 82.2354Z" fill="#ECBDBB"/>
<path d="M193.911 81.0443C193.806 81.0437 193.706 81.0079 193.624 80.9426C191.884 79.6392 189.743 78.9854 187.572 79.0947C187.511 79.1007 187.45 79.0948 187.392 79.0772C187.333 79.0596 187.279 79.0306 187.232 78.992C187.185 78.9534 187.145 78.9059 187.117 78.8521C187.088 78.7984 187.07 78.7395 187.064 78.6789C187.058 78.6182 187.064 78.5569 187.081 78.4985C187.099 78.4402 187.128 78.3858 187.166 78.3386C187.205 78.2915 187.253 78.2523 187.306 78.2235C187.36 78.1947 187.419 78.1767 187.48 78.1707C189.885 78.0186 192.265 78.7259 194.197 80.1665C194.309 80.2078 194.401 80.291 194.453 80.3986C194.505 80.5061 194.514 80.6297 194.477 80.7434C194.44 80.857 194.36 80.9518 194.254 81.0079C194.149 81.0641 194.026 81.0771 193.911 81.0443Z" fill="#404B7C"/>
<path d="M190.197 82.2915C190.091 82.292 189.989 82.2565 189.907 82.191C189.824 82.1255 189.767 82.0338 189.744 81.9311C189.542 80.9018 189.517 79.8457 189.67 78.808C189.679 78.7474 189.7 78.6891 189.732 78.6365C189.763 78.5839 189.805 78.5381 189.854 78.5016C189.904 78.4652 189.96 78.4388 190.019 78.424C190.079 78.4092 190.14 78.4062 190.201 78.4153C190.262 78.4244 190.32 78.4454 190.373 78.477C190.425 78.5086 190.471 78.5503 190.508 78.5996C190.544 78.649 190.57 78.705 190.585 78.7646C190.6 78.8241 190.603 78.886 190.594 78.9466C190.458 79.8673 190.477 80.8041 190.649 81.7186C190.663 81.7781 190.665 81.8397 190.654 81.8998C190.644 81.9599 190.622 82.0174 190.589 82.069C190.557 82.1205 190.514 82.1651 190.464 82.2001C190.414 82.2351 190.358 82.2599 190.298 82.273H190.197V82.2915Z" fill="#404B7C"/>
<path d="M192.959 90.9218C191.286 90.9218 189.984 88.852 189.984 86.2002C189.976 85.305 190.142 84.4169 190.473 83.5852C190.492 83.5236 190.524 83.4666 190.566 83.4179C190.608 83.3691 190.66 83.3297 190.718 83.3022C190.776 83.2746 190.839 83.2596 190.904 83.258C190.968 83.2564 191.032 83.2682 191.092 83.2928C191.151 83.3174 191.205 83.3542 191.249 83.4008C191.294 83.4473 191.328 83.5027 191.35 83.5633C191.372 83.6239 191.381 83.6884 191.376 83.7526C191.372 83.8169 191.354 83.8795 191.323 83.9364C191.04 84.657 190.899 85.4258 190.908 86.2002C190.908 88.2607 191.832 89.9978 192.959 89.9978C194.086 89.9978 195.01 88.2607 195.01 86.2002C195.01 84.1396 194.086 82.4025 192.959 82.4025C192.836 82.4025 192.719 82.3538 192.632 82.2672C192.546 82.1806 192.497 82.063 192.497 81.9405C192.497 81.818 192.546 81.7005 192.632 81.6138C192.719 81.5272 192.836 81.4785 192.959 81.4785C194.631 81.4785 195.934 83.5483 195.934 86.2002C195.934 88.852 194.631 90.9218 192.959 90.9218Z" fill="#F68D88"/>
<path d="M195.436 73.0887C195.436 73.0887 195.925 69.6514 198.549 70.0395C198.495 69.8602 198.508 69.6672 198.587 69.4969C198.665 69.3267 198.803 69.191 198.974 69.1155C199.557 68.9122 200.222 70.7233 200.222 70.7233C198.484 71.1822 196.856 71.9867 195.436 73.0887Z" fill="#404B7C"/>
<path d="M208.538 70.3531C208.538 70.3531 207.364 67.3963 205.904 68.8008C205.858 68.6682 205.773 68.552 205.662 68.4667C205.55 68.3813 205.416 68.3304 205.276 68.3203C204.583 68.422 205.017 70.1683 205.017 70.1683C206.18 69.8513 207.414 69.916 208.538 70.3531Z" fill="#404B7C"/>
<path d="M200.221 77.0912C200.911 76.8884 201.267 76.0294 201.015 75.1725C200.764 74.3157 200 73.7855 199.31 73.9883C198.619 74.1911 198.264 75.0501 198.515 75.9069C198.767 76.7638 199.531 77.294 200.221 77.0912Z" fill="#404B7C"/>
<path d="M199.978 75.2506C200.164 75.1959 200.271 75.0008 200.216 74.8147C200.161 74.6287 199.966 74.5222 199.78 74.5768C199.594 74.6315 199.488 74.8266 199.542 75.0127C199.597 75.1987 199.792 75.3052 199.978 75.2506Z" fill="white"/>
<path d="M207.601 74.9252C208.291 74.7224 208.647 73.8634 208.395 73.0065C208.144 72.1497 207.38 71.6195 206.689 71.8223C205.999 72.0251 205.643 72.8841 205.895 73.7409C206.147 74.5977 206.911 75.128 207.601 74.9252Z" fill="#404B7C"/>
<path d="M207.358 73.0826C207.544 73.028 207.651 72.8328 207.596 72.6468C207.541 72.4607 207.346 72.3542 207.16 72.4089C206.974 72.4635 206.868 72.6586 206.922 72.8447C206.977 73.0308 207.172 73.1373 207.358 73.0826Z" fill="white"/>
<path d="M204.823 79.6766C204.7 79.6766 204.583 79.6279 204.496 79.5413C204.409 79.4546 204.361 79.3371 204.361 79.2146C204.361 79.0921 204.409 78.9745 204.496 78.8879C204.583 78.8013 204.7 78.7526 204.823 78.7526C204.878 78.7526 206.236 78.6787 206.31 77.7454C206.326 77.6977 206.328 77.6467 206.316 77.5979C206.305 77.5491 206.281 77.5043 206.246 77.4682C205.794 77.3105 205.302 77.3105 204.85 77.4682C204.734 77.4998 204.61 77.4846 204.505 77.4259C204.399 77.3672 204.321 77.2696 204.287 77.1541L203.363 74.1326C203.345 74.0719 203.34 74.0084 203.347 73.9456C203.354 73.8828 203.373 73.822 203.403 73.7667C203.434 73.7113 203.475 73.6625 203.524 73.6231C203.574 73.5836 203.63 73.5542 203.691 73.5366C203.751 73.519 203.815 73.5135 203.878 73.5205C203.941 73.5275 204.001 73.5467 204.057 73.5772C204.112 73.6076 204.161 73.6487 204.2 73.698C204.24 73.7474 204.269 73.804 204.287 73.8646L205.072 76.4795C205.374 76.4029 205.689 76.388 205.997 76.4356C206.305 76.4833 206.6 76.5925 206.865 76.7567C207.017 76.8867 207.133 77.0534 207.203 77.241C207.272 77.4286 207.293 77.6309 207.262 77.8286C207.142 79.2146 205.654 79.6766 204.887 79.6766H204.823Z" fill="#404B7C"/>
<path d="M203.973 83.4641C202.729 83.4474 201.512 83.1032 200.443 82.4662C200.387 82.4384 200.337 82.3995 200.296 82.3517C200.255 82.3039 200.225 82.2483 200.206 82.1883C200.188 82.1283 200.181 82.0652 200.188 82.0027C200.195 81.9403 200.214 81.8798 200.245 81.8251C200.276 81.7704 200.317 81.7225 200.367 81.6845C200.417 81.6464 200.475 81.6189 200.535 81.6036C200.596 81.5884 200.66 81.5858 200.722 81.5958C200.784 81.6059 200.843 81.6286 200.896 81.6623C204.111 83.5103 206.44 81.8841 206.44 81.8656C206.489 81.8239 206.545 81.7929 206.607 81.7743C206.668 81.7558 206.732 81.7502 206.796 81.7579C206.86 81.7656 206.921 81.7864 206.976 81.8191C207.031 81.8517 207.079 81.8955 207.116 81.9476C207.153 81.9996 207.179 82.0589 207.193 82.1216C207.206 82.1842 207.206 82.249 207.193 82.3116C207.179 82.3743 207.153 82.4335 207.116 82.4856C207.079 82.5377 207.031 82.5814 206.976 82.614C206.08 83.1855 205.036 83.4811 203.973 83.4641Z" fill="#404B7C"/>
<path d="M146.806 109.558C158.032 109.558 167.134 100.457 167.134 89.2303C167.134 78.0035 158.032 68.9023 146.806 68.9023C135.579 68.9023 126.478 78.0035 126.478 89.2303C126.478 100.457 135.579 109.558 146.806 109.558Z" fill="#9AB3DA"/>
<path d="M147.804 81.5152C149.835 81.5152 151.481 79.8687 151.481 77.8377C151.481 75.8066 149.835 74.1602 147.804 74.1602C145.772 74.1602 144.126 75.8066 144.126 77.8377C144.126 79.8687 145.772 81.5152 147.804 81.5152Z" fill="#F8F8F8"/>
<path d="M140.31 91.5496C140.25 91.5702 140.185 91.5725 140.124 91.5565C140.062 91.5405 140.007 91.5067 139.964 91.4594C139.922 91.4121 139.894 91.3534 139.885 91.2905C139.876 91.2277 139.886 91.1636 139.913 91.1061C141.003 88.6483 147.101 83.3815 151.444 83.557C153.394 83.6402 148.737 96.5485 148.764 98.341C148.764 99.6716 151.74 98.5073 153.292 97.7958C153.358 97.7722 153.43 97.77 153.497 97.7896C153.564 97.8092 153.624 97.8495 153.667 97.9048C153.71 97.9601 153.734 98.0276 153.737 98.0976C153.739 98.1677 153.719 98.2367 153.68 98.2948C152.525 100.143 148.7 104.024 144.874 104.282C139.746 104.633 144.338 90.1636 144.338 90.1636L140.31 91.5496Z" fill="#F8F8F8"/>
<path d="M316.988 155.417C316.246 155.417 315.521 155.197 314.904 154.785C314.287 154.372 313.806 153.787 313.522 153.101C313.238 152.416 313.164 151.661 313.308 150.934C313.453 150.206 313.81 149.537 314.335 149.013C314.86 148.488 315.528 148.131 316.256 147.986C316.984 147.841 317.738 147.916 318.423 148.2C319.109 148.484 319.695 148.964 320.107 149.581C320.519 150.198 320.739 150.924 320.739 151.666C320.737 152.66 320.341 153.612 319.638 154.315C318.935 155.018 317.982 155.415 316.988 155.417ZM316.988 148.838C316.429 148.838 315.882 149.004 315.417 149.315C314.952 149.625 314.59 150.067 314.376 150.583C314.162 151.1 314.106 151.669 314.215 152.217C314.324 152.766 314.593 153.269 314.988 153.665C315.384 154.06 315.888 154.33 316.436 154.439C316.985 154.548 317.553 154.492 318.07 154.278C318.586 154.064 319.028 153.701 319.339 153.236C319.649 152.771 319.815 152.225 319.815 151.666C319.816 151.293 319.744 150.925 319.603 150.581C319.461 150.237 319.253 149.924 318.99 149.66C318.728 149.397 318.416 149.188 318.072 149.045C317.728 148.902 317.36 148.829 316.988 148.829V148.838Z" fill="#9AB3DA"/>
<path d="M295.264 53.3603C294.522 53.3603 293.797 53.1403 293.18 52.7281C292.563 52.3159 292.082 51.73 291.798 51.0445C291.514 50.359 291.44 49.6047 291.585 48.877C291.73 48.1493 292.087 47.4808 292.611 46.9562C293.136 46.4315 293.805 46.0743 294.532 45.9295C295.26 45.7848 296.014 45.859 296.7 46.143C297.385 46.4269 297.971 46.9078 298.383 47.5247C298.796 48.1416 299.016 48.8669 299.016 49.6089C299.013 50.6031 298.617 51.5558 297.914 52.2588C297.211 52.9618 296.258 53.3579 295.264 53.3603ZM295.264 46.7814C294.705 46.7814 294.158 46.9472 293.693 47.2579C293.228 47.5686 292.866 48.0102 292.652 48.5269C292.438 49.0435 292.382 49.612 292.491 50.1605C292.6 50.7089 292.869 51.2127 293.265 51.6082C293.66 52.0036 294.164 52.2729 294.713 52.382C295.261 52.4911 295.83 52.4351 296.346 52.2211C296.863 52.0071 297.304 51.6447 297.615 51.1797C297.926 50.7147 298.092 50.1681 298.092 49.6089C298.093 49.2368 298.021 48.8681 297.879 48.524C297.737 48.1799 297.529 47.8671 297.267 47.6036C297.004 47.3401 296.692 47.131 296.348 46.9883C296.005 46.8456 295.636 46.7722 295.264 46.7722V46.7814Z" fill="#9AB3DA"/>
<path d="M347.332 99.4681C346.776 99.4589 346.236 99.286 345.779 98.9708C345.321 98.6557 344.967 98.2124 344.761 97.6967C344.555 97.181 344.506 96.6159 344.619 96.0723C344.733 95.5287 345.005 95.0308 345.401 94.6413C345.797 94.2518 346.299 93.9879 346.845 93.8829C347.39 93.7779 347.954 93.8363 348.467 94.0509C348.979 94.2655 349.416 94.6267 349.724 95.0891C350.032 95.5514 350.196 96.0944 350.196 96.6498C350.195 97.0235 350.12 97.3932 349.975 97.7376C349.83 98.082 349.618 98.3943 349.352 98.6563C349.085 98.9184 348.77 99.1251 348.423 99.2644C348.076 99.4037 347.705 99.4729 347.332 99.4681ZM347.332 94.7464C346.959 94.7555 346.598 94.874 346.293 95.0872C345.988 95.3004 345.752 95.5988 345.616 95.945C345.479 96.2913 345.448 96.6702 345.525 97.0343C345.603 97.3984 345.786 97.7316 346.051 97.9923C346.317 98.2529 346.654 98.4295 347.019 98.5C347.385 98.5705 347.763 98.5317 348.107 98.3884C348.45 98.2452 348.744 98.0039 348.951 97.6947C349.159 97.3855 349.27 97.0221 349.272 96.6498C349.271 96.3975 349.219 96.148 349.121 95.9156C349.022 95.6833 348.879 95.4729 348.698 95.2967C348.518 95.1204 348.304 94.9818 348.069 94.8889C347.835 94.7961 347.584 94.7508 347.332 94.7557V94.7464Z" fill="#9AB3DA"/>
<path d="M351.841 66.3613C351.718 66.3613 351.601 66.3127 351.514 66.226C351.428 66.1394 351.379 66.0219 351.379 65.8993V60.5401C351.379 60.4176 351.428 60.3001 351.514 60.2134C351.601 60.1268 351.718 60.0781 351.841 60.0781C351.963 60.0781 352.081 60.1268 352.168 60.2134C352.254 60.3001 352.303 60.4176 352.303 60.5401V65.8993C352.303 66.0219 352.254 66.1394 352.168 66.226C352.081 66.3127 351.963 66.3613 351.841 66.3613Z" fill="#9AB3DA"/>
<path d="M357.421 68.4591H353.411C353.289 68.4591 353.171 68.4105 353.085 68.3238C352.998 68.2372 352.949 68.1197 352.949 67.9972C352.949 67.8746 352.998 67.7571 353.085 67.6705C353.171 67.5838 353.289 67.5352 353.411 67.5352H357.421C357.544 67.5352 357.661 67.5838 357.748 67.6705C357.835 67.7571 357.883 67.8746 357.883 67.9972C357.883 68.1197 357.835 68.2372 357.748 68.3238C357.661 68.4105 357.544 68.4591 357.421 68.4591Z" fill="#9AB3DA"/>
<path d="M351.841 75.916C351.718 75.916 351.601 75.8673 351.514 75.7807C351.428 75.6941 351.379 75.5765 351.379 75.454V70.0948C351.379 69.9723 351.428 69.8548 351.514 69.7681C351.601 69.6815 351.718 69.6328 351.841 69.6328C351.963 69.6328 352.081 69.6815 352.168 69.7681C352.254 69.8548 352.303 69.9723 352.303 70.0948V75.454C352.303 75.5765 352.254 75.6941 352.168 75.7807C352.081 75.8673 351.963 75.916 351.841 75.916Z" fill="#9AB3DA"/>
<path d="M350.27 68.4591H346.26C346.137 68.4591 346.02 68.4105 345.933 68.3238C345.847 68.2372 345.798 68.1197 345.798 67.9972C345.798 67.8746 345.847 67.7571 345.933 67.6705C346.02 67.5838 346.137 67.5352 346.26 67.5352H350.27C350.393 67.5352 350.51 67.5838 350.597 67.6705C350.683 67.7571 350.732 67.8746 350.732 67.9972C350.732 68.1197 350.683 68.2372 350.597 68.3238C350.51 68.4105 350.393 68.4591 350.27 68.4591Z" fill="#9AB3DA"/>
<path d="M336.179 135.301C336.056 135.301 335.939 135.252 335.852 135.165C335.765 135.079 335.717 134.961 335.717 134.839V129.48C335.717 129.357 335.765 129.24 335.852 129.153C335.939 129.066 336.056 129.018 336.179 129.018C336.301 129.018 336.419 129.066 336.506 129.153C336.592 129.24 336.641 129.357 336.641 129.48V134.839C336.641 134.961 336.592 135.079 336.506 135.165C336.419 135.252 336.301 135.301 336.179 135.301Z" fill="#9AB3DA"/>
<path d="M341.76 137.399H337.75C337.628 137.399 337.51 137.35 337.423 137.263C337.337 137.177 337.288 137.059 337.288 136.937C337.288 136.814 337.337 136.697 337.423 136.61C337.51 136.523 337.628 136.475 337.75 136.475H341.76C341.883 136.475 342 136.523 342.087 136.61C342.174 136.697 342.222 136.814 342.222 136.937C342.222 137.059 342.174 137.177 342.087 137.263C342 137.35 341.883 137.399 341.76 137.399Z" fill="#9AB3DA"/>
<path d="M336.179 144.855C336.056 144.855 335.939 144.807 335.852 144.72C335.765 144.634 335.717 144.516 335.717 144.393V139.034C335.717 138.912 335.765 138.794 335.852 138.708C335.939 138.621 336.056 138.572 336.179 138.572C336.301 138.572 336.419 138.621 336.506 138.708C336.592 138.794 336.641 138.912 336.641 139.034V144.393C336.641 144.516 336.592 144.634 336.506 144.72C336.419 144.807 336.301 144.855 336.179 144.855Z" fill="#9AB3DA"/>
<path d="M334.608 137.399H330.598C330.475 137.399 330.358 137.35 330.271 137.263C330.184 137.177 330.136 137.059 330.136 136.937C330.136 136.814 330.184 136.697 330.271 136.61C330.358 136.523 330.475 136.475 330.598 136.475H334.608C334.73 136.475 334.848 136.523 334.935 136.61C335.021 136.697 335.07 136.814 335.07 136.937C335.07 137.059 335.021 137.177 334.935 137.263C334.848 137.35 334.73 137.399 334.608 137.399Z" fill="#9AB3DA"/>
<path d="M269.586 91.9844C269.463 91.9844 269.346 91.9357 269.259 91.8491C269.173 91.7624 269.124 91.6449 269.124 91.5224V86.1632C269.124 86.0406 269.173 85.9231 269.259 85.8365C269.346 85.7498 269.463 85.7012 269.586 85.7012C269.709 85.7012 269.826 85.7498 269.913 85.8365C269.999 85.9231 270.048 86.0406 270.048 86.1632V91.5224C270.048 91.6449 269.999 91.7624 269.913 91.8491C269.826 91.9357 269.709 91.9844 269.586 91.9844Z" fill="#9AB3DA"/>
<path d="M275.167 94.0822H271.157C271.035 94.0822 270.917 94.0335 270.831 93.9469C270.744 93.8602 270.695 93.7427 270.695 93.6202C270.695 93.4977 270.744 93.3802 270.831 93.2935C270.917 93.2069 271.035 93.1582 271.157 93.1582H275.167C275.29 93.1582 275.408 93.2069 275.494 93.2935C275.581 93.3802 275.629 93.4977 275.629 93.6202C275.629 93.7427 275.581 93.8602 275.494 93.9469C275.408 94.0335 275.29 94.0822 275.167 94.0822Z" fill="#9AB3DA"/>
<path d="M269.586 101.539C269.463 101.539 269.346 101.49 269.259 101.404C269.173 101.317 269.124 101.2 269.124 101.077V95.7179C269.124 95.5953 269.173 95.4778 269.259 95.3912C269.346 95.3045 269.463 95.2559 269.586 95.2559C269.709 95.2559 269.826 95.3045 269.913 95.3912C269.999 95.4778 270.048 95.5953 270.048 95.7179V101.077C270.048 101.2 269.999 101.317 269.913 101.404C269.826 101.49 269.709 101.539 269.586 101.539Z" fill="#9AB3DA"/>
<path d="M268.015 94.0822H264.005C263.882 94.0822 263.765 94.0335 263.678 93.9469C263.592 93.8602 263.543 93.7427 263.543 93.6202C263.543 93.4977 263.592 93.3802 263.678 93.2935C263.765 93.2069 263.882 93.1582 264.005 93.1582H268.015C268.138 93.1582 268.255 93.2069 268.342 93.2935C268.428 93.3802 268.477 93.4977 268.477 93.6202C268.477 93.7427 268.428 93.8602 268.342 93.9469C268.255 94.0335 268.138 94.0822 268.015 94.0822Z" fill="#9AB3DA"/>
<path d="M332.677 62.7578H296.705C295.343 62.7578 294.238 63.8624 294.238 65.2249V113.236C294.238 114.598 295.343 115.703 296.705 115.703H332.677C334.039 115.703 335.144 114.598 335.144 113.236V65.2249C335.144 63.8624 334.039 62.7578 332.677 62.7578Z" fill="#9AB3DA"/>
<path d="M328.501 66.9336H292.53C291.167 66.9336 290.062 68.0381 290.062 69.4007V117.412C290.062 118.774 291.167 119.879 292.53 119.879H328.501C329.863 119.879 330.968 118.774 330.968 117.412V69.4007C330.968 68.0381 329.863 66.9336 328.501 66.9336Z" fill="#0D1D54"/>
<path d="M324.111 71.4062H288.14C286.777 71.4062 285.673 72.5108 285.673 73.8733V121.884C285.673 123.247 286.777 124.351 288.14 124.351H324.111C325.474 124.351 326.578 123.247 326.578 121.884V73.8733C326.578 72.5108 325.474 71.4062 324.111 71.4062Z" fill="#9AB3DA"/>
<path d="M321.358 82.8281H290.894C290.087 82.8281 289.434 83.4818 289.434 84.288V84.6392C289.434 85.4455 290.087 86.0991 290.894 86.0991H321.358C322.164 86.0991 322.818 85.4455 322.818 84.6392V84.288C322.818 83.4818 322.164 82.8281 321.358 82.8281Z" fill="#F8F8F8"/>
<path d="M321.358 91.7715H290.894C290.087 91.7715 289.434 92.4251 289.434 93.2314V93.5825C289.434 94.3888 290.087 95.0424 290.894 95.0424H321.358C322.164 95.0424 322.818 94.3888 322.818 93.5825V93.2314C322.818 92.4251 322.164 91.7715 321.358 91.7715Z" fill="#F8F8F8"/>
<path d="M321.358 100.725H290.894C290.087 100.725 289.434 101.378 289.434 102.185V102.536C289.434 103.342 290.087 103.996 290.894 103.996H321.358C322.164 103.996 322.818 103.342 322.818 102.536V102.185C322.818 101.378 322.164 100.725 321.358 100.725Z" fill="#F8F8F8"/>
<path d="M303.368 109.67H290.894C290.087 109.67 289.434 110.324 289.434 111.13V111.481C289.434 112.287 290.087 112.941 290.894 112.941H303.368C304.174 112.941 304.827 112.287 304.827 111.481V111.13C304.827 110.324 304.174 109.67 303.368 109.67Z" fill="#F8F8F8"/>
</svg>
