<svg width="486" height="474" viewBox="0 0 486 474" fill="none" xmlns="http://www.w3.org/2000/svg">
<path d="M167.65 38.5304C217.864 5.47132 288.429 12.2098 332.82 61.2801C357.092 88.1189 366.95 125.037 392.144 151.3C420.508 180.846 454.407 209.585 467.263 249.901C480.926 292.751 468.935 341.879 438.38 374.65C401.195 414.505 346.541 402.526 294.886 401.892C83.3635 399.243 -73.8515 258.195 126.198 84.3177C142.917 69.6888 151.046 49.4157 167.65 38.5304Z" fill="#CCE9FF"/>
<path d="M355.132 161.84H287.68C283.875 161.84 280.762 158.73 280.762 154.928V111.157C280.762 107.356 283.875 104.246 287.68 104.246H355.132C358.937 104.246 362.05 107.356 362.05 111.157V154.928C362.05 158.73 358.937 161.84 355.132 161.84Z" fill="white"/>
<path d="M277.072 112.366V155.62C277.072 161.609 281.914 166.447 287.91 166.447H352.826C358.821 166.447 363.664 161.609 363.664 155.62V112.366C363.664 106.376 358.821 101.539 352.826 101.539H287.91C281.914 101.539 277.072 106.376 277.072 112.366ZM282.722 156.714C282.664 156.368 282.491 156.023 282.491 155.677V112.424C282.491 111.848 282.664 111.33 282.837 110.869L305.724 130.508L282.722 156.714ZM352.826 106.952C353.171 106.952 353.517 107.068 353.863 107.183L320.368 135.865L286.872 107.183C287.218 107.125 287.507 106.952 287.91 106.952H352.826ZM335.011 130.393L357.899 110.754C358.072 111.272 358.245 111.79 358.245 112.309V155.562C358.245 155.965 358.129 156.253 358.014 156.599L335.011 130.393ZM287.91 161.033C287.334 161.033 286.872 160.861 286.354 160.745L309.818 133.964L318.581 141.509C319.1 141.97 319.734 142.142 320.368 142.142C321.002 142.142 321.636 141.912 322.155 141.509L330.918 133.964L354.382 160.745C353.863 160.918 353.402 161.033 352.826 161.033H287.91Z" fill="#FFBE55"/>
<path d="M387.993 285.667H337.26C333.455 285.667 330.342 282.557 330.342 278.756V246.849C330.342 243.048 333.455 239.938 337.26 239.938H387.993C391.798 239.938 394.911 243.048 394.911 246.849V278.756C394.911 282.557 391.798 285.667 387.993 285.667Z" fill="white"/>
<path d="M328.497 246.1V280.311C328.497 285.034 332.302 288.893 337.087 288.893H388.454C393.181 288.893 397.044 285.091 397.044 280.311V246.1C397.044 241.377 393.239 237.519 388.454 237.519H337.087C332.359 237.576 328.497 241.377 328.497 246.1ZM332.936 281.175C332.878 280.887 332.763 280.657 332.763 280.311V246.1C332.763 245.639 332.878 245.236 332.993 244.833L351.096 260.326L332.936 281.175ZM388.454 241.838C388.742 241.838 388.973 241.953 389.261 242.011L362.799 264.703L336.337 242.011C336.625 241.953 336.856 241.838 337.144 241.838H388.454ZM374.329 260.383L392.432 244.891C392.547 245.294 392.662 245.697 392.662 246.158V280.369C392.662 280.657 392.547 280.945 392.489 281.233L374.329 260.383ZM337.087 284.573C336.625 284.573 336.279 284.458 335.876 284.343L354.44 263.148L361.415 269.08C361.819 269.426 362.338 269.599 362.799 269.599C363.318 269.599 363.779 269.426 364.183 269.08L371.159 263.148L389.722 284.343C389.319 284.458 388.915 284.573 388.512 284.573H337.087Z" fill="#2A94F4"/>
<path d="M413.014 105.052V128.205C413.014 131.43 415.608 134.022 418.836 134.022H453.6C456.829 134.022 459.423 131.43 459.423 128.205V105.052C459.423 101.827 456.829 99.2349 453.6 99.2349H418.836C415.608 99.2349 413.014 101.827 413.014 105.052ZM416.069 128.781C416.012 128.608 415.954 128.435 415.954 128.205V105.052C415.954 104.764 416.012 104.476 416.127 104.188L428.407 114.67L416.069 128.781ZM453.6 102.172C453.773 102.172 453.946 102.23 454.119 102.287L436.189 117.665L418.26 102.287C418.433 102.23 418.606 102.172 418.779 102.172H453.6ZM444.088 114.728L456.367 104.246C456.425 104.534 456.54 104.764 456.54 105.109V128.262C456.54 128.435 456.483 128.665 456.425 128.838L444.088 114.728ZM418.836 131.084C418.548 131.084 418.26 131.027 418.029 130.912L430.597 116.571L435.325 120.602C435.613 120.833 435.959 120.948 436.247 120.948C436.593 120.948 436.939 120.833 437.17 120.602L441.897 116.571L454.465 130.912C454.177 130.969 453.946 131.084 453.658 131.084H418.836Z" fill="#CCE9FF"/>
<path d="M422.584 224.617H401.829C398.024 224.617 394.911 221.507 394.911 217.706V205.381C394.911 201.58 398.024 198.47 401.829 198.47H422.584C426.389 198.47 429.502 201.58 429.502 205.381V217.706C429.502 221.507 426.389 224.617 422.584 224.617Z" fill="white"/>
<path d="M394.046 202.501V220.471C394.046 222.947 396.064 224.963 398.543 224.963H425.524C428.003 224.963 430.021 222.947 430.021 220.471V202.501C430.021 200.025 428.003 198.009 425.524 198.009H398.543C396.064 198.066 394.046 200.025 394.046 202.501ZM396.41 220.931C396.352 220.758 396.295 220.643 396.295 220.471V202.501C396.295 202.271 396.352 202.04 396.41 201.868L405.923 209.988L396.41 220.931ZM425.524 200.313C425.697 200.313 425.812 200.37 425.928 200.37L412.034 212.292L398.14 200.37C398.255 200.37 398.428 200.313 398.543 200.313H425.524ZM418.087 209.988L427.599 201.868C427.657 202.098 427.715 202.271 427.715 202.501V220.471C427.715 220.643 427.657 220.758 427.599 220.931L418.087 209.988ZM398.543 222.717C398.313 222.717 398.082 222.659 397.909 222.602L407.652 211.486L411.284 214.596C411.515 214.769 411.745 214.884 412.034 214.884C412.322 214.884 412.552 214.769 412.783 214.596L416.415 211.486L426.158 222.602C425.928 222.659 425.755 222.717 425.524 222.717H398.543Z" fill="#FFBE55"/>
<path d="M353.056 54.484V73.1445C353.056 75.7362 355.132 77.8096 357.726 77.8096H385.687C388.281 77.8096 390.356 75.7362 390.356 73.1445V54.484C390.356 51.8922 388.281 49.8188 385.687 49.8188H357.726C355.189 49.8188 353.056 51.8922 353.056 54.484ZM355.535 73.6052C355.477 73.4325 355.42 73.3173 355.42 73.1445V54.484C355.42 54.2536 355.477 54.0232 355.535 53.7928L365.393 62.2592L355.535 73.6052ZM385.744 52.1802C385.917 52.1802 386.033 52.2378 386.206 52.2954L371.793 64.6781L357.38 52.2954C357.553 52.2378 357.668 52.1802 357.841 52.1802H385.744ZM378.077 62.2592L387.935 53.7928C387.993 54.0232 388.05 54.2536 388.05 54.484V73.1445C388.05 73.3173 387.993 73.4325 387.935 73.6052L378.077 62.2592ZM357.726 75.4483C357.495 75.4483 357.265 75.3907 357.034 75.3331L367.123 63.8142L370.928 67.0395C371.159 67.2123 371.389 67.3275 371.677 67.3275C371.966 67.3275 372.196 67.2123 372.427 67.0395L376.232 63.8142L386.321 75.3331C386.09 75.3907 385.917 75.4483 385.629 75.4483H357.726Z" fill="#2A94F4"/>
<path d="M306.243 171.803C307.198 171.803 307.973 171.03 307.973 170.075C307.973 169.121 307.198 168.348 306.243 168.348C305.288 168.348 304.514 169.121 304.514 170.075C304.514 171.03 305.288 171.803 306.243 171.803Z" fill="#6B6B6B"/>
<path d="M300.767 174.741C301.722 174.741 302.496 173.967 302.496 173.013C302.496 172.059 301.722 171.285 300.767 171.285C299.811 171.285 299.037 172.059 299.037 173.013C299.037 173.967 299.811 174.741 300.767 174.741Z" fill="#6B6B6B"/>
<path d="M295.405 177.851C296.36 177.851 297.134 177.077 297.134 176.123C297.134 175.169 296.36 174.395 295.405 174.395C294.45 174.395 293.675 175.169 293.675 176.123C293.675 177.077 294.45 177.851 295.405 177.851Z" fill="#6B6B6B"/>
<path d="M291.081 182.286C292.036 182.286 292.811 181.512 292.811 180.558C292.811 179.604 292.036 178.83 291.081 178.83C290.126 178.83 289.352 179.604 289.352 180.558C289.352 181.512 290.126 182.286 291.081 182.286Z" fill="#6B6B6B"/>
<path d="M287.392 187.239C288.347 187.239 289.121 186.465 289.121 185.511C289.121 184.557 288.347 183.783 287.392 183.783C286.436 183.783 285.662 184.557 285.662 185.511C285.662 186.465 286.436 187.239 287.392 187.239Z" fill="#6B6B6B"/>
<path d="M284.566 192.768C285.522 192.768 286.296 191.994 286.296 191.04C286.296 190.086 285.522 189.312 284.566 189.312C283.611 189.312 282.837 190.086 282.837 191.04C282.837 191.994 283.611 192.768 284.566 192.768Z" fill="#6B6B6B"/>
<path d="M282.779 198.7C283.735 198.7 284.509 197.926 284.509 196.972C284.509 196.018 283.735 195.244 282.779 195.244C281.824 195.244 281.05 196.018 281.05 196.972C281.05 197.926 281.824 198.7 282.779 198.7Z" fill="#6B6B6B"/>
<path d="M315.756 223.177C316.711 223.177 317.485 222.404 317.485 221.45C317.485 220.495 316.711 219.722 315.756 219.722C314.801 219.722 314.026 220.495 314.026 221.45C314.026 222.404 314.801 223.177 315.756 223.177Z" fill="#6B6B6B"/>
<path d="M309.529 223.177C310.485 223.177 311.259 222.404 311.259 221.45C311.259 220.495 310.485 219.722 309.529 219.722C308.574 219.722 307.8 220.495 307.8 221.45C307.8 222.404 308.574 223.177 309.529 223.177Z" fill="#6B6B6B"/>
<path d="M303.303 223.177C304.258 223.177 305.033 222.404 305.033 221.45C305.033 220.495 304.258 219.722 303.303 219.722C302.348 219.722 301.574 220.495 301.574 221.45C301.574 222.404 302.348 223.177 303.303 223.177Z" fill="#6B6B6B"/>
<path d="M297.077 223.177C298.032 223.177 298.806 222.404 298.806 221.45C298.806 220.495 298.032 219.722 297.077 219.722C296.122 219.722 295.347 220.495 295.347 221.45C295.347 222.404 296.122 223.177 297.077 223.177Z" fill="#6B6B6B"/>
<path d="M290.851 223.177C291.806 223.177 292.58 222.404 292.58 221.45C292.58 220.495 291.806 219.722 290.851 219.722C289.895 219.722 289.121 220.495 289.121 221.45C289.121 222.404 289.895 223.177 290.851 223.177Z" fill="#6B6B6B"/>
<path d="M387.82 213.156C388.775 213.156 389.549 212.382 389.549 211.428C389.549 210.474 388.775 209.7 387.82 209.7C386.865 209.7 386.09 210.474 386.09 211.428C386.09 212.382 386.865 213.156 387.82 213.156Z" fill="#6B6B6B"/>
<path d="M381.594 212.983C382.549 212.983 383.323 212.209 383.323 211.255C383.323 210.301 382.549 209.527 381.594 209.527C380.639 209.527 379.864 210.301 379.864 211.255C379.864 212.209 380.639 212.983 381.594 212.983Z" fill="#6B6B6B"/>
<path d="M375.367 212.811C376.322 212.811 377.097 212.037 377.097 211.083C377.097 210.129 376.322 209.355 375.367 209.355C374.412 209.355 373.638 210.129 373.638 211.083C373.638 212.037 374.412 212.811 375.367 212.811Z" fill="#6B6B6B"/>
<path d="M369.314 214.308C370.269 214.308 371.044 213.534 371.044 212.58C371.044 211.626 370.269 210.852 369.314 210.852C368.359 210.852 367.584 211.626 367.584 212.58C367.584 213.534 368.359 214.308 369.314 214.308Z" fill="#6B6B6B"/>
<path d="M363.318 215.978C364.274 215.978 365.048 215.205 365.048 214.25C365.048 213.296 364.274 212.522 363.318 212.522C362.363 212.522 361.589 213.296 361.589 214.25C361.589 215.205 362.363 215.978 363.318 215.978Z" fill="#6B6B6B"/>
<path d="M358.187 219.434C359.142 219.434 359.917 218.66 359.917 217.706C359.917 216.752 359.142 215.978 358.187 215.978C357.232 215.978 356.458 216.752 356.458 217.706C356.458 218.66 357.232 219.434 358.187 219.434Z" fill="#6B6B6B"/>
<path d="M353.518 223.465C354.473 223.465 355.247 222.692 355.247 221.738C355.247 220.783 354.473 220.01 353.518 220.01C352.562 220.01 351.788 220.783 351.788 221.738C351.788 222.692 352.562 223.465 353.518 223.465Z" fill="#6B6B6B"/>
<path d="M349.77 228.419C350.725 228.419 351.5 227.645 351.5 226.691C351.5 225.736 350.725 224.963 349.77 224.963C348.815 224.963 348.041 225.736 348.041 226.691C348.041 227.645 348.815 228.419 349.77 228.419Z" fill="#6B6B6B"/>
<path d="M347.118 234.005C348.073 234.005 348.848 233.231 348.848 232.277C348.848 231.323 348.073 230.549 347.118 230.549C346.163 230.549 345.389 231.323 345.389 232.277C345.389 233.231 346.163 234.005 347.118 234.005Z" fill="#6B6B6B"/>
<path d="M416.818 141.163C417.774 141.163 418.548 140.39 418.548 139.435C418.548 138.481 417.774 137.708 416.818 137.708C415.863 137.708 415.089 138.481 415.089 139.435C415.089 140.39 415.863 141.163 416.818 141.163Z" fill="#6B6B6B"/>
<path d="M411.688 144.734C412.643 144.734 413.417 143.96 413.417 143.006C413.417 142.052 412.643 141.278 411.688 141.278C410.732 141.278 409.958 142.052 409.958 143.006C409.958 143.96 410.732 144.734 411.688 144.734Z" fill="#6B6B6B"/>
<path d="M405.98 147.095C406.935 147.095 407.71 146.322 407.71 145.367C407.71 144.413 406.935 143.64 405.98 143.64C405.025 143.64 404.25 144.413 404.25 145.367C404.25 146.322 405.025 147.095 405.98 147.095Z" fill="#6B6B6B"/>
<path d="M400.157 149.342C401.112 149.342 401.887 148.568 401.887 147.614C401.887 146.66 401.112 145.886 400.157 145.886C399.202 145.886 398.428 146.66 398.428 147.614C398.428 148.568 399.202 149.342 400.157 149.342Z" fill="#6B6B6B"/>
<path d="M394.104 150.667C395.059 150.667 395.834 149.893 395.834 148.939C395.834 147.985 395.059 147.211 394.104 147.211C393.149 147.211 392.375 147.985 392.375 148.939C392.375 149.893 393.149 150.667 394.104 150.667Z" fill="#6B6B6B"/>
<path d="M387.993 151.876C388.948 151.876 389.722 151.102 389.722 150.148C389.722 149.193 388.948 148.42 387.993 148.42C387.038 148.42 386.263 149.193 386.263 150.148C386.263 151.102 387.038 151.876 387.993 151.876Z" fill="#6B6B6B"/>
<path d="M381.767 152.394C382.722 152.394 383.496 151.621 383.496 150.666C383.496 149.712 382.722 148.938 381.767 148.938C380.811 148.938 380.037 149.712 380.037 150.666C380.037 151.621 380.811 152.394 381.767 152.394Z" fill="#6B6B6B"/>
<path d="M375.54 152.625C376.495 152.625 377.27 151.851 377.27 150.897C377.27 149.943 376.495 149.169 375.54 149.169C374.585 149.169 373.811 149.943 373.811 150.897C373.811 151.851 374.585 152.625 375.54 152.625Z" fill="#6B6B6B"/>
<path d="M369.314 152.452C370.269 152.452 371.044 151.678 371.044 150.724C371.044 149.77 370.269 148.996 369.314 148.996C368.359 148.996 367.584 149.77 367.584 150.724C367.584 151.678 368.359 152.452 369.314 152.452Z" fill="#6B6B6B"/>
<path d="M345.792 68.2491C346.747 68.2491 347.522 67.4755 347.522 66.5213C347.522 65.567 346.747 64.7935 345.792 64.7935C344.837 64.7935 344.062 65.567 344.062 66.5213C344.062 67.4755 344.837 68.2491 345.792 68.2491Z" fill="#6B6B6B"/>
<path d="M339.796 69.8619C340.752 69.8619 341.526 69.0883 341.526 68.1341C341.526 67.1798 340.752 66.4062 339.796 66.4062C338.841 66.4062 338.067 67.1798 338.067 68.1341C338.067 69.0883 338.841 69.8619 339.796 69.8619Z" fill="#6B6B6B"/>
<path d="M334.838 73.4903C335.794 73.4903 336.568 72.7167 336.568 71.7625C336.568 70.8082 335.794 70.0347 334.838 70.0347C333.883 70.0347 333.109 70.8082 333.109 71.7625C333.109 72.7167 333.883 73.4903 334.838 73.4903Z" fill="#6B6B6B"/>
<path d="M331.149 78.2706C332.104 78.2706 332.879 77.497 332.879 76.5428C332.879 75.5885 332.104 74.8149 331.149 74.8149C330.194 74.8149 329.419 75.5885 329.419 76.5428C329.419 77.497 330.194 78.2706 331.149 78.2706Z" fill="#6B6B6B"/>
<path d="M328.958 84.0875C329.913 84.0875 330.688 83.3139 330.688 82.3597C330.688 81.4054 329.913 80.6318 328.958 80.6318C328.003 80.6318 327.229 81.4054 327.229 82.3597C327.229 83.3139 328.003 84.0875 328.958 84.0875Z" fill="#6B6B6B"/>
<path d="M328.266 90.2501C329.221 90.2501 329.996 89.4765 329.996 88.5223C329.996 87.568 329.221 86.7944 328.266 86.7944C327.311 86.7944 326.537 87.568 326.537 88.5223C326.537 89.4765 327.311 90.2501 328.266 90.2501Z" fill="#6B6B6B"/>
<path d="M328.728 96.4703C329.683 96.4703 330.457 95.6967 330.457 94.7425C330.457 93.7882 329.683 93.0146 328.728 93.0146C327.772 93.0146 326.998 93.7882 326.998 94.7425C326.998 95.6967 327.772 96.4703 328.728 96.4703Z" fill="#6B6B6B"/>
<path d="M228.184 404.311C228.645 404.138 229.048 404.023 229.51 403.85C229.51 403.85 229.337 403.505 229.048 402.814C224.321 393.023 185.003 315.616 109.191 300.757C108.615 300.642 107.981 300.526 107.404 300.411C97.7765 298.683 87.6299 297.935 76.9067 298.453C76.9067 298.453 61.8598 298.741 43.3537 311.757C42.9502 312.045 42.5466 312.333 42.0854 312.621C33.7836 318.669 24.8477 327.365 16.2576 339.691L15.7388 340.382C15.7388 340.382 15.8541 340.727 16.1423 341.361C18.7943 347.466 34.2448 380.006 70.7957 401.374C71.2569 401.662 71.7758 401.95 72.237 402.18C105.386 421.129 155.37 430.689 228.184 404.311Z" fill="#0B4870"/>
<path d="M229.337 404.657L229.51 403.85L229.683 403.044L229.048 402.871L16.2576 339.806L15.7388 340.497C15.7388 340.497 15.8541 340.842 16.1423 341.476L228.184 404.311L229.337 404.657Z" fill="white"/>
<path d="M72.2947 402.353L104.061 366.76L103.023 365.493L70.8535 401.547C71.3147 401.834 71.7759 402.065 72.2947 402.353ZM142.918 378.221L144.705 378.451L109.192 300.814C108.615 300.699 107.981 300.584 107.404 300.469L142.918 378.221ZM63.2435 355.183L64.5118 354.377L43.2962 311.815C42.8926 312.103 42.489 312.391 42.0278 312.679L63.2435 355.183Z" fill="white"/>
<path d="M225.186 400.913L225.878 401.431C225.878 401.431 225.993 401.201 226.281 400.856C229.971 395.039 258.22 347.696 240.521 302.024C240.406 301.678 240.233 301.275 240.118 300.93C237.812 295.17 234.756 289.468 230.836 283.882C230.836 283.882 225.589 275.934 212.33 270.405C212.041 270.29 211.753 270.174 211.407 270.059C205.354 267.64 197.629 265.797 188.116 265.394H187.54C187.54 265.394 187.424 265.567 187.136 265.97C184.772 269.426 172.493 288.72 173.415 315.616C173.415 315.962 173.415 316.307 173.473 316.653C174.568 340.785 186.387 370.791 225.186 400.913Z" fill="#2A94F4"/>
<path d="M225.416 401.662L225.935 401.489L226.454 401.316L226.339 400.913L188.116 265.509H187.539C187.539 265.509 187.424 265.682 187.136 266.085L225.186 401.028L225.416 401.662Z" fill="white"/>
<path d="M173.473 316.653L203.336 321.663L203.624 320.684L173.357 315.616C173.415 315.962 173.415 316.307 173.473 316.653ZM210.37 346.371L210.831 347.408L240.521 302.081C240.406 301.736 240.233 301.333 240.118 300.987L210.37 346.371ZM195.726 295.861L196.591 296.264L212.272 270.462C211.984 270.347 211.695 270.232 211.35 270.117L195.726 295.861Z" fill="white"/>
<path d="M225.647 404.023C226.05 404.081 226.454 404.081 226.8 404.139V403.275C226.8 394.751 225.013 326.732 172.665 290.332C172.262 290.044 171.858 289.756 171.397 289.469C164.71 284.976 157.215 280.945 148.855 277.662C148.855 277.662 137.268 272.709 118.473 275.588C118.07 275.646 117.608 275.703 117.205 275.761C108.673 277.201 98.6989 280.253 87.6875 286.013C87.4569 286.128 87.2839 286.243 87.0533 286.358C87.0533 286.358 87.0533 286.646 86.9957 287.222C86.765 292.406 86.7074 320.627 106.828 348.215C107.116 348.56 107.347 348.906 107.635 349.309C125.968 373.844 160.616 397.688 225.647 404.023Z" fill="#FFBE55"/>
<path d="M226.396 404.657L226.8 404.138L227.203 403.62L226.8 403.274L87.6874 286.013C87.4568 286.128 87.2839 286.243 87.0533 286.358C87.0533 286.358 87.0533 286.646 86.9956 287.222L225.589 404.023L226.396 404.657Z" fill="white"/>
<path d="M107.635 349.251L144.762 335.025L144.416 333.758L106.828 348.157C107.116 348.56 107.346 348.905 107.635 349.251ZM170.244 356.392L171.512 357.199L172.723 290.274C172.319 289.986 171.916 289.698 171.455 289.41L170.244 356.392ZM117.897 312.909L119.165 312.794L118.473 275.53C118.07 275.588 117.608 275.645 117.205 275.703L117.897 312.909Z" fill="white"/>
<path d="M259.258 407.363L257.125 424.066L249.918 426.658L251.821 406.615L259.258 407.363ZM226.397 407.363L224.264 424.066L217.057 426.658L218.96 406.615L226.397 407.363Z" fill="#DBA17B"/>
<path d="M235.736 200.716L224.379 215.172L235.217 221.047L247.382 206.014L235.736 200.716Z" fill="#CC9271"/>
<path d="M264.85 201.753C264.504 199.564 264.273 197.318 264.1 195.072C263.985 193.286 264.043 191.501 264.1 189.715C264.273 187.93 264.273 186.145 264.158 184.474C264.158 184.532 264.1 184.589 264.1 184.647C263.985 183.15 263.754 181.652 263.351 180.212C262.198 176.584 259.834 173.186 256.144 171.919C248.765 169.442 239.771 176.353 236.024 187.412C232.277 198.47 235.217 209.47 242.596 211.947C247.843 213.732 253.896 210.737 258.278 204.92C260.007 204.863 261.737 204.747 263.408 204.287C263.985 204.114 264.562 203.884 264.85 203.365C265.023 202.847 264.965 202.271 264.85 201.753Z" fill="#DBA17B"/>
<path d="M270.961 183.553C273.325 182.746 275.343 180.731 275.804 178.312C276.265 175.835 274.881 173.071 272.518 172.264C270.73 171.631 268.597 172.149 266.983 171.228C266.003 170.652 265.369 169.673 264.677 168.809C260.872 163.971 254.588 161.206 248.477 161.667C242.366 162.128 236.543 165.756 233.488 171.055C230.893 175.547 230.259 180.903 230.72 186.029C231.182 191.155 232.738 196.166 234.237 201.061C236.774 196.051 239.311 191.04 241.847 186.087C242.424 184.993 243 183.841 244.038 183.207C245.076 182.574 246.69 182.631 247.266 183.668C247.67 184.359 247.555 185.223 247.555 185.972C247.555 186.778 247.67 187.7 248.362 188.045C249.111 188.448 250.091 187.988 250.783 187.469C252.282 186.375 253.608 185.05 254.819 183.61C255.568 182.689 256.318 181.537 257.413 181.076C258.624 180.558 259.661 181.134 260.757 181.767C262.256 182.631 263.812 183.438 265.542 183.783C267.329 184.129 269.231 184.129 270.961 183.553ZM263.351 288.317C265.599 302.715 267.733 327.769 269.981 342.167C273.267 363.304 262.832 394.923 258.97 415.945C256.145 415.6 253.666 414.736 250.841 414.39C251.763 378.739 250.149 333.298 247.843 297.704C252.859 298.338 258.335 287.683 263.351 288.317Z" fill="#0B4870"/>
<path d="M228.357 298.338C231.297 298.511 234.179 295.861 237.12 296.092C240.694 296.322 244.557 297.013 247.958 298.05C251.359 299.087 255.337 295.919 258.681 294.767C259.373 300.527 258.162 310.778 257.067 316.48C254.53 329.842 251.59 343.089 248.189 356.22C246.344 363.477 240.867 370.446 237.984 377.357C236.774 380.294 235.621 383.347 234.525 386.342C232.219 392.562 228.241 410.071 225.935 416.291C223.11 416.06 220.228 416.003 217.403 415.772C217.691 409.495 220.17 391.41 220.401 385.132C220.862 374.65 226.108 363.65 230.259 353.974C228.184 343.953 228.126 333.067 228.184 322.815C228.241 313.773 228.299 307.323 228.357 298.338Z" fill="#0E538C"/>
<path d="M268.194 259.634C269.231 259.807 270.442 259.75 271.249 259.058C271.653 258.713 271.941 258.195 272.229 257.791C273.209 256.64 274.881 256.064 276.323 256.409C279.32 257.158 280.762 260.959 283.76 261.593C284.221 261.708 284.682 261.708 285.143 261.881C285.604 262.053 286.008 262.341 286.066 262.802C286.181 263.378 285.777 263.839 285.374 264.3C284.855 264.875 284.278 265.451 283.76 266.027C283.529 266.258 283.241 266.546 282.952 266.661C282.318 266.949 281.511 266.661 280.992 267.064C280.531 267.41 280.416 268.101 279.897 268.446C279.147 268.907 278.11 268.216 277.245 268.562C276.784 268.734 276.495 269.137 276.15 269.368C275.515 269.771 274.651 269.713 273.901 269.483C273.152 269.195 272.518 268.734 271.883 268.389C271.019 267.928 270.096 267.582 269.174 267.294C266.637 266.661 263.928 266.834 261.276 267.064C261.16 264.991 261.103 262.917 260.987 260.844C260.987 260.498 260.987 260.095 261.16 259.75C261.506 259.116 262.429 259.116 263.178 259.289C264.1 259.519 264.562 259.462 265.426 259.289C266.291 259.116 267.329 259.519 268.194 259.634Z" fill="#DBA17B"/>
<path d="M274.997 267.583C274.708 267.122 274.824 266.488 275.285 266.2L291.888 255.258C292.35 254.97 292.984 255.085 293.272 255.546C293.56 256.006 293.445 256.64 292.984 256.928L276.38 267.871C275.919 268.159 275.285 268.043 274.997 267.583Z" fill="#0B4870"/>
<path d="M261.737 415.427C261.967 414.908 262.602 414.736 263.005 415.081C264.792 416.579 269.577 419.977 279.09 422.165C279.09 422.165 281.396 422.626 283.068 425.333H247.785V419.113C247.785 418.422 248.592 418.076 249.111 418.479L250.495 419.631C251.129 420.207 251.994 420.495 252.801 420.495L257.874 420.553C258.969 420.553 259.95 419.919 260.353 418.882L261.737 415.427Z" fill="#CCE9FF"/>
<path d="M283.108 428.978H247.825V425.349H283.108V428.978Z" fill="#0E538C"/>
<path d="M227.261 417.385C227.607 416.982 228.299 417.039 228.587 417.5C229.74 419.516 233.142 424.296 241.27 429.652C241.27 429.652 243.288 430.919 243.98 433.972L210.773 422.05L212.906 416.175C213.137 415.542 214.001 415.427 214.347 416.06L215.212 417.615C215.616 418.364 216.307 418.94 217.115 419.228L221.842 420.956C222.88 421.359 224.033 421.013 224.725 420.207L227.261 417.385Z" fill="#CCE9FF"/>
<path d="M242.685 437.406L209.488 425.468L210.718 422.054L243.915 433.992L242.685 437.406Z" fill="#0E538C"/>
<path d="M262.255 256.697C264.792 265.164 266.694 278.468 267.905 287.222C268.193 289.296 268.02 297.129 266.579 298.626C265.714 299.547 243.403 302.024 234.122 305.076C232.853 305.48 226.8 307.841 225.589 307.323C223.86 306.574 222.937 298.972 223.341 297.186C228.702 274.091 228.702 291.081 220.862 245.639C219.305 236.539 216.307 228.131 219.42 219.434C220.458 216.554 228.299 208.146 228.299 208.146C228.299 208.146 230.951 210.968 233.66 212.58C235.909 213.905 238.849 216.266 240.751 216.727C249.457 218.743 259.2 246.503 262.255 256.697Z" fill="#2A94F4"/>
<path d="M251.475 318.323C252.224 319.936 252.57 321.721 252.743 323.449C252.974 326.502 252.628 329.554 251.763 332.434C250.495 332.146 249.457 330.994 249.284 329.669C249.86 330.591 249.342 331.973 248.304 332.261C247.266 332.549 246.113 331.57 246.171 330.476C245.882 331.397 244.845 332.088 243.922 331.915C242.942 331.743 242.193 330.821 242.25 329.842C242.654 330.13 242.539 330.821 242.193 331.109C241.789 331.397 241.213 331.339 240.809 331.109C240.406 330.879 240.117 330.418 239.944 329.957C239.656 329.151 239.541 328.287 239.483 327.423C239.195 323.737 238.964 319.993 238.676 316.307C238.618 315.789 238.618 315.271 238.849 314.81C239.31 313.946 240.521 313.831 241.559 313.888L245.537 314.061C246.401 314.119 247.324 314.061 248.131 314.349C249.572 315.04 250.783 316.941 251.475 318.323Z" fill="#DBA17B"/>
<path d="M237.062 231.817C236.601 239.592 236.139 247.425 235.621 255.2C235.332 259.519 235.102 263.897 235.736 268.159C236.255 271.729 237.35 275.185 238.445 278.583C242.423 290.908 246.401 303.233 250.437 315.559C246.171 315.271 241.847 314.983 237.581 314.695C234.179 301.506 227.607 277.95 227.03 275.819C222.303 261.017 220.631 245.294 222.13 229.858L237.062 231.817Z" fill="#2A94F4"/>
<path d="M217.345 156.08C217.345 140.818 200.569 128.435 179.872 128.435C159.175 128.435 142.398 140.818 142.398 156.08C142.398 171.343 159.175 183.725 179.872 183.725C183.792 183.725 187.597 183.265 191.114 182.458L204.662 193.516V176.814C212.445 171.746 217.345 164.316 217.345 156.08Z" fill="#FFBE55"/>
<path d="M195.726 129.299C195.726 116.916 182.12 106.837 165.286 106.837C148.452 106.837 134.846 116.859 134.846 129.299C134.846 141.682 148.452 151.761 165.286 151.761C168.457 151.761 171.57 151.415 174.453 150.724L185.406 159.709V146.174C191.748 141.97 195.726 135.98 195.726 129.299Z" fill="white"/>
<path d="M181.025 121.236H148.164C147.702 121.236 147.299 120.832 147.299 120.372C147.299 119.911 147.702 119.508 148.164 119.508H181.025C181.486 119.508 181.89 119.911 181.89 120.372C181.89 120.832 181.486 121.236 181.025 121.236ZM181.025 127.456H148.164C147.702 127.456 147.299 127.053 147.299 126.592C147.299 126.131 147.702 125.728 148.164 125.728H181.025C181.486 125.728 181.89 126.131 181.89 126.592C181.89 127.053 181.486 127.456 181.025 127.456ZM181.025 133.734H148.164C147.702 133.734 147.299 133.33 147.299 132.87C147.299 132.409 147.702 132.006 148.164 132.006H181.025C181.486 132.006 181.89 132.409 181.89 132.87C181.89 133.33 181.486 133.734 181.025 133.734ZM181.025 139.954H148.164C147.702 139.954 147.299 139.551 147.299 139.09C147.299 138.629 147.702 138.226 148.164 138.226H181.025C181.486 138.226 181.89 138.629 181.89 139.09C181.89 139.551 181.486 139.954 181.025 139.954Z" fill="#FFBE55"/>
</svg>
