<svg width="18" height="22" viewBox="0 0 18 22" fill="none" xmlns="http://www.w3.org/2000/svg">
<path d="M9.00018 22C7.45674 20.6835 6.0261 19.2402 4.72323 17.6852C2.76806 15.35 0.44629 11.8722 0.44629 8.55818C0.445442 6.86568 0.946703 5.21097 1.88663 3.80347C2.82657 2.39596 4.16292 1.29893 5.72657 0.651204C7.29021 0.00347864 9.01087 -0.165823 10.6708 0.164725C12.3307 0.495274 13.8552 1.31081 15.0514 2.50813C15.8479 3.30103 16.4791 4.24401 16.9087 5.28249C17.3383 6.32098 17.5576 7.43435 17.5541 8.55818C17.5541 11.8722 15.2323 15.35 13.2771 17.6852C11.9742 19.2402 10.5436 20.6835 9.00018 22ZM9.00018 4.89222C8.02791 4.89222 7.09546 5.27846 6.40796 5.96596C5.72046 6.65346 5.33423 7.58591 5.33423 8.55818C5.33423 9.53045 5.72046 10.4629 6.40796 11.1504C7.09546 11.8379 8.02791 12.2241 9.00018 12.2241C9.97245 12.2241 10.9049 11.8379 11.5924 11.1504C12.2799 10.4629 12.6661 9.53045 12.6661 8.55818C12.6661 7.58591 12.2799 6.65346 11.5924 5.96596C10.9049 5.27846 9.97245 4.89222 9.00018 4.89222Z" fill="#F2B846"/>
</svg>
