<svg width="79" height="24" viewBox="0 0 79 24" fill="none" xmlns="http://www.w3.org/2000/svg">
<path d="M25.5181 12.8958C25.493 12.9004 25.4677 12.9046 25.443 12.9108C25.3108 12.9441 25.1789 12.978 25.0467 13.0115L23.3992 13.4281C23.0152 13.5253 22.6314 13.6226 22.2476 13.72C22.0989 13.7575 21.95 13.7941 21.8015 13.832C21.7854 13.8369 21.7702 13.8445 21.7566 13.8543C21.7536 13.857 21.7514 13.8604 21.75 13.8642C21.7487 13.868 21.7483 13.8721 21.749 13.876C21.7542 13.892 21.7619 13.907 21.7719 13.9205C21.8896 14.0708 22.0083 14.2212 22.1262 14.3707C22.1682 14.4238 22.2093 14.4781 22.2508 14.532C22.2559 14.5388 22.2594 14.5467 22.261 14.555C22.2628 14.5631 22.2617 14.5716 22.2579 14.5789C22.2482 14.5928 22.2367 14.6053 22.2238 14.6163C22.149 14.6791 22.0726 14.7401 21.9983 14.8036C21.8854 14.9004 21.7744 14.9994 21.6617 15.0964C21.2004 15.4923 20.7427 15.8925 20.2831 16.2897C19.8138 16.6966 19.3445 17.1015 18.8633 17.4939C18.6097 17.7007 18.3571 17.9088 18.1014 18.1131C17.829 18.331 17.5535 18.5444 17.2747 18.7536C16.9517 18.9963 16.6237 19.2322 16.2905 19.4612C15.7563 19.8264 15.2104 20.1719 14.6428 20.4838C14.2585 20.6948 13.8665 20.8907 13.4629 21.0635C13.0956 21.2224 12.7193 21.3599 12.336 21.4754C12.1155 21.5408 11.8925 21.5973 11.6669 21.6422C11.3285 21.7108 10.9853 21.7529 10.6403 21.7682C10.4188 21.7771 10.197 21.7728 9.97603 21.7553C9.77205 21.739 9.56925 21.7104 9.36873 21.6698C9.05949 21.6076 8.75708 21.5156 8.46579 21.3951C8.14676 21.2634 7.84202 21.1 7.55627 20.9071C7.26692 20.7123 6.99482 20.4933 6.74291 20.2526C6.71246 20.2232 6.68076 20.1949 6.64834 20.1675C6.64478 20.1644 6.63356 20.1689 6.62661 20.1715C6.62491 20.1726 6.62351 20.1742 6.62254 20.176C6.62158 20.1778 6.62108 20.1798 6.62109 20.1818C6.62946 20.2143 6.63641 20.2476 6.64781 20.2791C6.75876 20.586 6.87755 20.8896 7.01842 21.1845C7.21628 21.5989 7.4446 21.9944 7.72973 22.3568C7.91032 22.5875 8.11555 22.7982 8.34184 22.985C8.65375 23.2429 9.00961 23.4434 9.3926 23.5768C9.69756 23.6818 10.0147 23.7479 10.3365 23.7733C10.589 23.7908 10.8424 23.789 11.0946 23.768C11.4132 23.741 11.7292 23.6901 12.04 23.6159C12.5012 23.5072 12.9482 23.3563 13.3889 23.183C13.583 23.1063 13.7732 23.0207 13.9634 22.9353C14.1808 22.8374 14.3951 22.7329 14.6068 22.6235C15.1819 22.3265 15.7411 22.0019 16.2872 21.6549C16.9482 21.2351 17.5899 20.7881 18.2189 20.3221C18.4957 20.117 18.771 19.9097 19.0409 19.6962C19.2343 19.5433 19.4298 19.3931 19.622 19.2387C19.8207 19.0794 20.0168 18.916 20.214 18.7541C20.3454 18.6462 20.4779 18.5397 20.607 18.4293C20.9881 18.1032 21.3728 17.7821 21.7468 17.4463C21.8699 17.3352 21.9962 17.2282 22.1208 17.1178C22.2761 16.9791 22.4298 16.8386 22.5839 16.6989C22.7037 16.5906 22.8239 16.4829 22.9429 16.3737C23.0524 16.2732 23.1604 16.171 23.2693 16.0698C23.316 16.0264 23.363 15.9836 23.4104 15.9408C23.4171 15.9358 23.4242 15.9312 23.4316 15.9272C23.4376 15.9246 23.4442 15.9239 23.4506 15.9252C23.457 15.9266 23.4628 15.9298 23.4672 15.9346C23.4884 15.9663 23.5105 15.9974 23.5301 16.03C23.6446 16.2184 23.7582 16.4073 23.8727 16.5961C23.8841 16.6138 23.8966 16.6309 23.91 16.6472C23.9131 16.6499 23.9168 16.6519 23.9209 16.6531C23.9249 16.6543 23.9291 16.6546 23.9333 16.6541C23.9374 16.6535 23.9414 16.6521 23.945 16.6499C23.9485 16.6477 23.9516 16.6448 23.9539 16.6414C23.9614 16.6263 23.9691 16.6113 23.9757 16.5959C24.0984 16.3119 24.221 16.028 24.3433 15.7441C24.4806 15.4256 24.6178 15.1065 24.7548 14.7866C24.837 14.596 24.9189 14.4053 25.0006 14.2145L25.5434 12.954C25.5466 12.9462 25.5482 12.9379 25.5507 12.9297C25.5529 12.9138 25.5338 12.8929 25.5181 12.8958Z" fill="#E8BB2E"/>
<path d="M6.37453 6.64955C6.50596 6.53508 6.63633 6.41956 6.76865 6.30633C6.92359 6.17365 7.08014 6.04291 7.23633 5.91164C7.3788 5.79152 7.52128 5.66962 7.66714 5.5525C7.91558 5.35277 8.1658 5.15569 8.41691 4.95861C8.4837 4.90553 8.55316 4.85688 8.62137 4.80628C8.81299 4.66475 9.00249 4.52057 9.19643 4.38169C9.4631 4.19204 9.73398 4.00828 10.0091 3.83043C10.621 3.43538 11.2524 3.07483 11.9161 2.77195C12.1755 2.65401 12.4395 2.54627 12.7079 2.44873C12.8121 2.41122 12.9182 2.37956 13.0231 2.34435C13.29 2.2565 13.5622 2.18513 13.8379 2.13064C14.1843 2.05927 14.5363 2.01783 14.8899 2.0068C15.1541 1.99809 15.4187 2.00915 15.6812 2.03988C15.9182 2.06816 16.1528 2.11399 16.3829 2.17699C16.4609 2.1984 16.538 2.22299 16.6155 2.24652C16.7701 2.29401 16.9218 2.35066 17.0696 2.41618C17.3585 2.54217 17.6354 2.69363 17.897 2.86872C18.0673 2.98125 18.2314 3.10285 18.3884 3.23299C18.4858 3.31525 18.5808 3.40035 18.6775 3.4835C18.6971 3.49933 18.7177 3.51398 18.7391 3.52737C18.7409 3.52861 18.7464 3.52649 18.7492 3.52454C18.7521 3.5226 18.7565 3.518 18.7562 3.51499C18.7558 3.50251 18.7538 3.49014 18.7501 3.47819C18.7093 3.37204 18.6693 3.26413 18.6263 3.15815C18.5004 2.84332 18.3552 2.53645 18.1914 2.23926C18.0323 1.94908 17.8482 1.67312 17.6411 1.41449C17.5635 1.31878 17.484 1.22502 17.3993 1.13568C17.1953 0.919086 16.9659 0.72754 16.7161 0.565129C16.5453 0.453169 16.3644 0.357167 16.1758 0.278351C15.7977 0.120944 15.3954 0.0290351 14.9861 0.00661182C14.7264 -0.00664435 14.466 3.92607e-05 14.2073 0.0266031C13.9106 0.0578227 13.6165 0.110446 13.3275 0.184056C13.0305 0.260272 12.7376 0.351321 12.4499 0.456857C12.1368 0.569375 11.8315 0.699406 11.5304 0.839168C11.0511 1.06173 10.5865 1.31294 10.1327 1.58221C9.6162 1.88738 9.11308 2.21379 8.62047 2.55523C8.34122 2.74984 8.06375 2.94639 7.79162 3.15019C7.47853 3.3846 7.17061 3.62609 6.86126 3.86546C6.73357 3.96435 6.60748 4.06537 6.48138 4.16621C6.37524 4.25136 6.26975 4.33717 6.16491 4.42362C6.06637 4.50464 5.9683 4.58614 5.8707 4.66811C5.77328 4.75038 5.67729 4.83406 5.58041 4.91685C5.50596 4.98037 5.43134 5.04335 5.3569 5.10668C5.27604 5.17532 5.19412 5.24308 5.11433 5.31314C4.95452 5.45326 4.79548 5.59402 4.63722 5.73543C4.45912 5.89342 4.28103 6.05034 4.10436 6.21009C3.91879 6.37852 3.73476 6.54835 3.55227 6.71961C3.2818 6.97177 3.01193 7.22458 2.74265 7.47803C2.52751 7.68255 2.31523 7.89024 2.10151 8.09653C2.039 8.15668 2.02475 8.15473 1.97685 8.08149C1.9699 8.0707 1.96331 8.05973 1.95654 8.04911C1.84969 7.88093 1.74283 7.71268 1.63597 7.54438C1.61318 7.50899 1.58991 7.47361 1.56616 7.43823C1.55156 7.41647 1.52502 7.41523 1.51469 7.43575C1.50151 7.46229 1.48833 7.48883 1.47729 7.51625C1.35358 7.8229 1.22998 8.12955 1.1065 8.4362C1.00344 8.69154 0.900148 8.94677 0.796616 9.20188C0.645473 9.57423 0.494508 9.94704 0.343722 10.3203C0.233303 10.5953 0.12241 10.8703 0.0110418 11.1455C0.00497906 11.1611 0.0012589 11.1776 0 11.1943C0 11.1999 0.00961709 11.2065 0.0165628 11.2148C0.0285048 11.2149 0.0404312 11.2139 0.0521816 11.2118C0.195904 11.1725 0.338379 11.1324 0.482814 11.0924C0.815316 11.0009 1.14817 10.9103 1.48014 10.8183C1.94794 10.6886 2.41573 10.5589 2.88352 10.4291L3.68406 10.2078C3.70863 10.2011 3.73286 10.1928 3.75708 10.1845C3.76101 10.1829 3.76455 10.1805 3.76748 10.1774C3.7704 10.1744 3.77265 10.1707 3.77406 10.1667C3.77547 10.1628 3.77602 10.1585 3.77567 10.1543C3.77533 10.1501 3.77409 10.146 3.77204 10.1424C3.73642 10.0948 3.70222 10.0465 3.66518 10.0008C3.5471 9.85611 3.42778 9.71245 3.30899 9.56827C3.29011 9.54527 3.27337 9.52139 3.25556 9.4975C3.25048 9.49072 3.24791 9.4824 3.2483 9.47395C3.24869 9.4655 3.25201 9.45745 3.2577 9.45115C3.27284 9.43629 3.28815 9.42161 3.304 9.40763C3.41229 9.31192 3.52128 9.21727 3.62885 9.12086C3.7585 9.00462 3.88673 8.88698 4.01585 8.77021C4.252 8.5565 4.48833 8.34291 4.72484 8.12943C4.88833 7.98118 5.05129 7.83204 5.2146 7.68361C5.35613 7.55517 5.49789 7.42702 5.63989 7.29917C5.7693 7.18277 5.89925 7.06689 6.02974 6.95154C6.14425 6.84981 6.2593 6.75003 6.37453 6.64955Z" fill="#E8BB2E"/>
<path d="M9.49836 18.4241C9.72454 18.4595 10.0168 18.5025 10.3919 18.5529C10.7669 18.6033 11.202 18.612 11.6868 18.5808C12.1716 18.5497 12.7082 18.4441 13.2777 18.267C13.8472 18.0899 14.4633 17.7914 15.1074 17.3805C15.7318 16.9839 16.3253 16.5413 16.883 16.0565C17.422 15.5857 17.9283 15.1036 18.3876 14.6234C18.8469 14.1433 19.2756 13.675 19.6602 13.232C20.0419 12.7922 20.4043 12.3807 20.7372 12.009L20.7434 12.0019C20.8793 11.8344 20.9301 11.6679 20.8941 11.5066C20.8637 11.3698 20.7917 11.2457 20.6878 11.151C20.5806 11.0509 20.4413 10.9915 20.2944 10.9831C20.1358 10.9725 19.9833 11.0286 19.854 11.1453L19.8417 11.1565L19.8314 11.1694C19.5626 11.511 19.2679 11.8737 18.9553 12.2471C18.6455 12.6172 18.3 12.9987 17.9285 13.381C17.1883 14.1417 16.4517 14.7786 15.7391 15.274C15.0266 15.7693 14.3393 16.153 13.6952 16.4195C13.0576 16.6831 12.4611 16.834 11.9224 16.8681C11.3911 16.9025 10.932 16.8434 10.5564 16.6925C10.2595 16.5753 10.0221 16.4059 9.84903 16.1886C9.67032 15.9639 9.53824 15.7061 9.46043 15.4304C9.37724 15.1358 9.33335 14.8317 9.32988 14.5258C9.32573 14.2591 9.34834 13.9928 9.39738 13.7306C11.1011 13.5359 12.7558 13.0392 14.2829 12.2641C15.8535 11.4668 17.2173 10.3482 18.3358 8.93921C18.7787 8.4481 19.0793 7.95734 19.2293 7.4802C19.3813 6.9951 19.4057 6.54256 19.3019 6.13389C19.1981 5.72503 18.9703 5.35778 18.6492 5.08196C18.3235 4.79748 17.9096 4.61331 17.4193 4.53353C16.6989 4.39854 15.9448 4.39889 15.181 4.53512C14.4248 4.67028 13.6867 4.89091 12.981 5.19271C12.3015 5.4813 11.6478 5.82658 11.0269 6.22482C10.4278 6.61226 9.93434 6.98803 9.5598 7.34168C8.39738 8.44385 7.49908 9.51666 6.88964 10.5275C6.27557 11.5475 5.89338 12.6252 5.75357 13.7336C5.61466 14.9621 5.86969 16.0082 6.51154 16.8425C7.1534 17.6768 8.15785 18.209 9.49836 18.4241ZM10.8424 10.7073C11.3592 9.97617 11.9446 9.29548 12.591 8.67437C13.2418 8.04416 13.9695 7.49738 14.7571 7.04676C15.5217 6.61049 16.3096 6.37803 17.0968 6.35574C17.1853 6.35357 17.2738 6.35907 17.3614 6.37219C17.7167 6.42916 17.8011 6.6227 17.8309 6.79555C17.8916 7.15097 17.7596 7.56406 17.4366 8.02333C16.462 9.3102 15.2775 10.3377 13.9158 11.0772C12.6411 11.7679 11.2518 12.2254 9.81412 12.4279C10.0569 11.9117 10.402 11.3339 10.8424 10.7073Z" fill="#E8BB2E"/>
<path d="M32.7633 10.8273H29.4815V9.25007H32.287C32.6477 9.25007 32.9301 8.96577 32.9301 8.60292C32.9301 8.24591 32.6416 7.95559 32.287 7.95559H29.4815V6.41167H32.6817C33.0423 6.41167 33.3248 6.12737 33.3248 5.76451C33.3248 5.40166 33.0423 5.11719 32.6817 5.11719H28.8384C28.4838 5.11719 28.1953 5.4075 28.1953 5.76451V11.4746C28.1953 11.8314 28.4838 12.1217 28.8384 12.1217H32.7633C33.1239 12.1217 33.4064 11.8374 33.4064 11.4746C33.4064 11.1117 33.1239 10.8273 32.7633 10.8273Z" fill="#E8BB2E"/>
<path d="M38.0277 10.8273H35.0909V5.76451C35.0909 5.40149 34.8084 5.11719 34.4478 5.11719C34.093 5.11719 33.8047 5.4075 33.8047 5.76451V11.4746C33.8047 11.8314 34.093 12.1217 34.4478 12.1217H38.0275C38.3881 12.1217 38.6706 11.8374 38.6706 11.4746C38.6706 11.1117 38.3883 10.8273 38.0277 10.8273Z" fill="#E8BB2E"/>
<path d="M44.1183 6.14983L44.1161 6.14771C43.7861 5.82865 43.3997 5.5728 42.9763 5.393C42.5398 5.21117 42.0712 5.11742 41.5979 5.11719H39.7177C39.5465 5.11991 39.3828 5.18758 39.2602 5.30631C39.1982 5.36544 39.1491 5.43652 39.1158 5.51519C39.0825 5.59386 39.0657 5.67846 39.0664 5.76381V11.4746C39.0666 11.6461 39.1352 11.8106 39.2573 11.932C39.3794 12.0533 39.545 12.1215 39.7177 12.1217H41.5815C42.5246 12.1203 43.4292 11.7502 44.0997 11.0914C44.4281 10.7746 44.6907 10.3968 44.8727 9.97949C45.0649 9.55747 45.1643 9.09957 45.1642 8.63636C45.1629 8.17398 45.0698 7.7164 44.8903 7.28978C44.7109 6.86315 44.4485 6.47585 44.1183 6.15001V6.14983ZM43.7022 9.44609C43.5781 9.71151 43.4081 9.95333 43.2002 10.1606C42.99 10.3646 42.7421 10.5262 42.47 10.6364C42.1932 10.7498 41.8977 10.8116 41.5984 10.8186H40.3612V6.41167H41.5984C41.8979 6.41109 42.1945 6.4697 42.4709 6.58408C42.7474 6.69847 42.9982 6.86634 43.2087 7.07792C43.4158 7.28199 43.5826 7.5228 43.7004 7.78788C43.8184 8.05562 43.8791 8.3448 43.8785 8.63706C43.8788 8.91617 43.8187 9.19208 43.7022 9.44609Z" fill="#E8BB2E"/>
<path d="M51.5932 6.09401C50.9248 5.39909 50.0286 5.0166 49.0694 5.0166C48.3562 5.02245 47.6602 5.23477 47.0666 5.62754C46.4731 6.02032 46.0077 6.57652 45.7275 7.22802C45.5349 7.67224 45.4362 8.15101 45.4375 8.63466C45.438 9.11386 45.5335 9.58827 45.7184 10.0309C45.8945 10.4477 46.1533 10.8353 46.4893 11.1852C46.8177 11.517 47.2075 11.7825 47.6373 11.9674C48.0805 12.162 48.5598 12.2622 49.0443 12.2618C50.006 12.2618 50.9077 11.8791 51.5834 11.1852C51.9093 10.8539 52.1658 10.4615 52.3378 10.0309C52.5187 9.60291 52.6104 9.13321 52.6104 8.63466C52.6127 8.15671 52.5204 7.68297 52.3387 7.24041C52.1567 6.79706 51.9057 6.41121 51.5932 6.09401ZM51.1529 9.53905C51.0258 9.83609 50.868 10.0785 50.6687 10.2798C50.2309 10.7235 49.6535 10.968 49.0448 10.968C48.43 10.968 47.8477 10.7203 47.4017 10.2686C47.1862 10.054 47.0154 9.79929 46.8991 9.51904C46.7828 9.23879 46.7233 8.93851 46.7239 8.63537C46.7212 8.32989 46.7841 8.02735 46.9086 7.74797L46.9127 7.73842C47.0255 7.45997 47.1959 7.20811 47.4128 6.9991C47.6246 6.78304 47.8776 6.61093 48.157 6.49277C48.4458 6.37253 48.7558 6.31076 49.0689 6.31108C49.3697 6.30985 49.6675 6.37017 49.9438 6.4883C50.2201 6.60643 50.469 6.77982 50.6749 6.99768C51.0936 7.4297 51.3242 8.01122 51.3242 8.63537C51.3237 8.94451 51.2656 9.25089 51.1529 9.53905Z" fill="#E8BB2E"/>
<path d="M58.2866 7.55548C58.2866 7.17582 58.2263 6.82376 58.1073 6.50797C58.0017 6.22915 57.8388 5.97525 57.6289 5.76246C57.3575 5.48718 56.999 5.28709 56.5942 5.18466C56.4169 5.1373 56.2343 5.11234 56.0507 5.11035H53.6118C53.2573 5.11035 52.9688 5.40067 52.9688 5.75768V11.4676C52.9688 11.8184 53.2633 12.1149 53.6118 12.1149C53.9666 12.1149 54.2551 11.8246 54.2551 11.4676V6.40465H56.0498C56.2264 6.41399 56.3987 6.46234 56.5541 6.54618C56.6865 6.63181 56.7826 6.72876 56.8482 6.84234C56.9492 7.03393 57.0003 7.27365 57.0003 7.5553C57.0003 7.95866 56.8715 8.21289 56.5828 8.37919C56.3614 8.50621 56.0612 8.58246 55.6902 8.60564C55.5339 8.59355 55.3767 8.60367 55.2232 8.63571C54.9027 8.69321 54.6745 8.9998 54.7105 9.32568C54.7381 9.65792 55.0158 9.91745 55.3443 9.91745C55.4058 9.91745 55.4672 9.91515 55.5276 9.91303C55.5773 9.91126 55.6263 9.90932 55.6735 9.90914C55.8042 9.91834 55.9316 9.95449 56.0475 10.0153L56.0546 10.019C56.2525 10.1169 56.4203 10.2659 56.5402 10.4503C56.7344 10.7304 56.8795 11.1127 56.972 11.5891C57.0346 11.8939 57.2996 12.1153 57.6022 12.1153C57.6261 12.115 57.6499 12.1128 57.6735 12.1087L57.6842 12.1069H57.7059L57.7274 12.1029C58.071 12.0383 58.2973 11.6977 58.2329 11.3421C58.1014 10.6584 57.8781 10.0953 57.5679 9.66712C57.504 9.58064 57.4354 9.49766 57.3625 9.41856C57.96 9.01059 58.2866 8.35566 58.2866 7.55548Z" fill="#E8BB2E"/>
<path d="M62.4949 5.49897C62.4014 5.27393 62.1622 5.11719 61.9114 5.11719C61.6607 5.11719 61.4395 5.25589 61.325 5.48871L58.7248 11.2099C58.5754 11.5584 58.6372 11.8746 58.8885 12.0368C58.9846 12.098 59.0963 12.1306 59.2105 12.1308C59.3862 12.1308 59.5642 12.0536 59.7104 11.9054C60.0489 11.5765 60.4205 11.283 60.8194 11.0295C61.1742 10.8061 61.5674 10.6496 61.9793 10.5677C62.4292 10.4671 62.896 10.4666 63.3462 10.5661L63.866 11.7423L63.8715 11.7539C64.0331 12.0697 64.4076 12.2081 64.7234 12.0687L64.7316 12.0648C65.0457 11.9119 65.1852 11.5369 65.047 11.2059L62.4949 5.49897ZM61.7479 9.37533C61.463 9.43229 61.1317 9.53897 60.8117 9.67307L61.8999 7.32313L62.7756 9.27502C62.4302 9.26735 62.0852 9.30103 61.7479 9.37533Z" fill="#E8BB2E"/>
<path d="M70.5087 6.14983L70.5066 6.14771C70.1766 5.82865 69.7902 5.5728 69.3668 5.393C68.9302 5.21116 68.4615 5.11741 67.9881 5.11719H66.1083C65.9372 5.11991 65.7735 5.18757 65.651 5.30631C65.589 5.36544 65.5399 5.43651 65.5065 5.51518C65.4732 5.59385 65.4563 5.67845 65.4571 5.76381V11.4746C65.4572 11.6461 65.5259 11.8106 65.648 11.9319C65.7701 12.0532 65.9356 12.1215 66.1083 12.1217H67.9723C68.9155 12.1204 69.8203 11.7503 70.4909 11.0914C70.8192 10.7745 71.0818 10.3967 71.2638 9.97949C71.456 9.55745 71.5553 9.09955 71.5552 8.63636C71.5537 8.17392 71.4606 7.7163 71.281 7.28965C71.1015 6.863 70.839 6.47568 70.5087 6.14983ZM70.0928 9.44609C69.9586 9.72579 69.7901 9.96639 69.5908 10.1606C69.3807 10.3647 69.1327 10.5262 68.8606 10.6364C68.5838 10.7498 68.2882 10.8116 67.9888 10.8186H66.7509V6.41167H67.9879C68.2874 6.41109 68.584 6.4697 68.8605 6.58408C69.137 6.69847 69.3877 6.86634 69.5983 7.07792C69.8054 7.28198 69.9723 7.52279 70.0902 7.78788C70.208 8.05565 70.2687 8.34481 70.2683 8.63706C70.2688 8.91611 70.209 9.19201 70.0928 9.44609Z" fill="#E8BB2E"/>
<path d="M78.7277 7.24129C78.545 6.79706 78.2937 6.41086 77.9827 6.09578C77.3142 5.40015 76.4176 5.0166 75.4581 5.0166C74.7449 5.02245 74.0489 5.23477 73.4553 5.62754C72.8617 6.02032 72.3963 6.57652 72.1161 7.22802C71.9235 7.67222 71.8248 8.151 71.8262 8.63466C71.8266 9.11387 71.9221 9.5883 72.107 10.0309C72.2832 10.4477 72.5418 10.8353 72.8778 11.1852C73.2063 11.5169 73.5962 11.7825 74.026 11.9674C74.4692 12.162 74.9484 12.2622 75.433 12.2618C76.3947 12.2618 77.2964 11.8791 77.972 11.1852C78.298 10.8539 78.5543 10.4615 78.7263 10.0309C78.9072 9.60291 78.9991 9.13321 78.9991 8.63466C79.0014 8.15703 78.9092 7.68361 78.7277 7.24129ZM77.5407 9.53958C77.4137 9.83662 77.2558 10.079 77.0565 10.2803C76.6187 10.724 76.0413 10.9685 75.4328 10.9685C74.818 10.9685 74.2355 10.7208 73.7895 10.2692C73.574 10.0545 73.4032 9.79982 73.2869 9.51957C73.1706 9.23932 73.111 8.93904 73.1117 8.6359C73.109 8.33041 73.1721 8.02787 73.2965 7.7485L73.3006 7.73895C73.4135 7.4605 73.5838 7.20864 73.8007 6.99963C74.0127 6.78347 74.2659 6.61136 74.5455 6.4933C74.8343 6.37306 75.1443 6.31129 75.4574 6.31161C75.7581 6.31033 76.056 6.37063 76.3323 6.48877C76.6086 6.6069 76.8574 6.78032 77.0632 6.99821C77.4821 7.43024 77.7126 8.01175 77.7126 8.6359C77.7119 8.94509 77.6537 9.25148 77.5407 9.53958Z" fill="#E8BB2E"/>
<path d="M53.2699 12.8213H30.34C30.2709 12.8213 30.2148 12.877 30.2148 12.9457V18.6517C30.2148 18.7203 30.2709 18.776 30.34 18.776H53.2699C53.339 18.776 53.3951 18.7203 53.3951 18.6517V12.9457C53.3951 12.877 53.339 12.8213 53.2699 12.8213Z" fill="#E8BB2E"/>
<path d="M49.4043 12.8252H76.8426C76.8777 12.8252 76.9113 12.839 76.9361 12.8637C76.9609 12.8883 76.9749 12.9218 76.9749 12.9566V18.6485C76.9749 18.6834 76.9609 18.7168 76.9361 18.7414C76.9113 18.7661 76.8777 18.7799 76.8426 18.7799H49.4043V12.8252Z" fill="black"/>
<path d="M34.1719 14.3785C34.2281 14.3839 34.2595 14.4169 34.2595 14.4669V14.7029C34.2595 14.7578 34.2281 14.7852 34.1654 14.7852H33.0003C32.6933 14.7852 32.5428 14.8786 32.5428 15.0705V15.1413C32.5428 15.3113 32.6744 15.443 32.9314 15.5254L33.7649 15.8162C34.2851 15.9917 34.3916 16.2223 34.3916 16.5899V16.6502C34.3916 16.9411 34.2914 17.1387 34.0971 17.2374C33.9028 17.3361 33.5831 17.3855 33.1257 17.3855C32.6808 17.3855 32.2985 17.369 31.9788 17.3361C31.9161 17.3306 31.8848 17.3031 31.8848 17.2538V17.0124C31.8848 16.9575 31.9161 16.9301 31.9788 16.9301H33.1382C33.6459 16.9301 33.7971 16.8807 33.7971 16.6447V16.5789C33.7971 16.4087 33.7095 16.3155 33.4337 16.2113L32.5432 15.915C32.1421 15.7777 31.9416 15.5199 31.9416 15.1302V15.015C31.9416 14.7242 32.0794 14.532 32.3302 14.4443C32.5872 14.3558 32.8315 14.3291 33.2139 14.3291C33.5339 14.3289 33.8536 14.3453 34.1719 14.3785Z" fill="black"/>
<path d="M33.1247 17.4495C32.6794 17.4495 32.2917 17.4328 31.9712 17.3997C31.8771 17.3916 31.8203 17.3375 31.8203 17.2549V17.0134C31.8203 16.9238 31.8807 16.8681 31.9777 16.8681H33.1371C33.678 16.8681 33.7318 16.8037 33.7318 16.6457V16.5799C33.7318 16.4533 33.6835 16.3747 33.4093 16.271L32.5218 15.9751C32.0944 15.8288 31.8769 15.5446 31.8769 15.1307V15.0155C31.8769 14.702 32.026 14.4847 32.3079 14.3853C32.5615 14.2988 32.8066 14.2666 33.2127 14.2666C33.5351 14.2664 33.8573 14.283 34.1779 14.3163C34.2657 14.325 34.3225 14.3839 34.3225 14.4667V14.7027C34.3225 14.7924 34.2622 14.8479 34.1651 14.8479H33C32.6059 14.8479 32.6059 15.0095 32.6059 15.0703V15.1411C32.6059 15.2826 32.7218 15.392 32.9505 15.4652L33.7856 15.7566C34.3452 15.9453 34.4547 16.205 34.4547 16.5897V16.65C34.4547 16.9658 34.3439 17.1821 34.1256 17.2932C33.9199 17.3989 33.5927 17.4495 33.1247 17.4495ZM31.9493 16.9989C31.9474 17.0035 31.9467 17.0084 31.9471 17.0134V17.2549C31.9471 17.2637 31.9471 17.2713 31.9827 17.2745C32.3001 17.307 32.6837 17.3235 33.1241 17.3235C33.5646 17.3235 33.8823 17.2761 34.0666 17.182C34.2392 17.0935 34.3266 16.9155 34.3266 16.6512V16.5909C34.3266 16.248 34.2363 16.0433 33.743 15.8769L32.9095 15.5859C32.5533 15.4719 32.4785 15.2817 32.4785 15.1425V15.0717C32.4785 14.8407 32.6538 14.7234 32.9995 14.7234H34.1651C34.1749 14.7243 34.1847 14.7227 34.1936 14.7186C34.1954 14.714 34.1961 14.709 34.1957 14.7041V14.4672C34.1957 14.457 34.1957 14.4451 34.1653 14.4421C33.849 14.4092 33.5312 14.3929 33.2132 14.3931C32.8226 14.3931 32.5886 14.4234 32.3501 14.5049C32.1209 14.585 32.0043 14.7572 32.0043 15.016V15.1312C32.0043 15.4907 32.1872 15.7277 32.5631 15.8565L33.452 16.152C33.7106 16.2496 33.8588 16.3505 33.8588 16.5794V16.6452C33.8588 16.9702 33.5863 16.9936 33.1373 16.9936H31.9779C31.9682 16.9926 31.9583 16.9943 31.9494 16.9983L31.9493 16.9989Z" fill="black"/>
<path d="M39.3859 14.5343C39.6053 14.71 39.6929 15.0228 39.6929 15.5935L39.6805 17.278C39.6805 17.3329 39.6491 17.3603 39.5864 17.3603H39.1853C39.1227 17.3603 39.0913 17.3329 39.0913 17.278V15.6593C39.0913 15.3246 39.0475 15.1215 38.991 14.9953C38.976 14.9623 38.9544 14.9326 38.9275 14.908C38.9006 14.8835 38.8689 14.8646 38.8345 14.8526C38.6902 14.7922 38.59 14.7867 38.3143 14.7867C38.069 14.7842 37.8238 14.8007 37.5811 14.8361C37.65 15.0008 37.6813 15.2588 37.6813 15.6154L37.6687 17.2784C37.6687 17.3332 37.6438 17.3607 37.5873 17.3607H37.1736C37.1109 17.3607 37.0796 17.3332 37.0796 17.2784V15.6264C37.0796 15.2258 37.0546 15.0173 36.9041 14.9076C36.7601 14.7977 36.6471 14.7922 36.3025 14.7922H35.6758V17.278C35.6758 17.3329 35.6447 17.3603 35.582 17.3603H35.1683C35.1056 17.3603 35.0742 17.3329 35.0742 17.278V14.5069C35.0742 14.4575 35.1056 14.4301 35.1683 14.4184C35.5138 14.3588 35.864 14.3292 36.2147 14.33C36.6347 14.33 36.9857 14.3848 37.2552 14.4945C37.6249 14.3793 37.957 14.3245 38.2641 14.3245C38.8156 14.3204 39.1604 14.3643 39.3859 14.5343Z" fill="black"/>
<path d="M39.5877 17.4214H39.1866C39.0895 17.4214 39.0292 17.3659 39.0292 17.2762V15.6574C39.0292 15.3744 38.9973 15.1598 38.9344 15.0191C38.9229 14.9938 38.9062 14.971 38.8855 14.9522C38.8647 14.9334 38.8404 14.9191 38.8139 14.91C38.6769 14.8527 38.58 14.8479 38.3152 14.8479C38.0987 14.8462 37.8824 14.8588 37.6676 14.8854C37.72 15.0536 37.7456 15.2923 37.7456 15.6136L37.733 17.2766C37.733 17.367 37.6796 17.4213 37.5882 17.4213H37.1745C37.0774 17.4213 37.0171 17.3657 37.0171 17.276V15.6245C37.0171 15.2458 36.9948 15.0492 36.8676 14.9563C36.7439 14.8622 36.6564 14.8534 36.3034 14.8534H35.7401V17.2771C35.7401 17.3668 35.6799 17.4223 35.5829 17.4223H35.1692C35.0721 17.4223 35.0117 17.3668 35.0117 17.2771V14.505C35.0117 14.4587 35.0308 14.3775 35.1581 14.3552C35.5074 14.2954 35.8612 14.2658 36.2156 14.2667C36.635 14.2667 36.9859 14.3209 37.2587 14.4275C37.6235 14.3155 37.9533 14.2612 38.265 14.2612C38.793 14.2559 39.1713 14.2911 39.4251 14.4826L39.4265 14.4836C39.6614 14.6717 39.7572 14.9926 39.7572 15.5918L39.7447 17.2769C39.7451 17.3659 39.6847 17.4214 39.5877 17.4214ZM38.3155 14.7219C38.5937 14.7219 38.705 14.7278 38.8603 14.7927C38.9019 14.8076 38.9401 14.8306 38.9727 14.8603C39.0052 14.8901 39.0314 14.9261 39.0497 14.9661C39.1209 15.1242 39.1565 15.3562 39.1565 15.6569V17.2757C39.156 17.2807 39.1568 17.2857 39.1588 17.2904C39.1677 17.2942 39.1775 17.2958 39.1871 17.295H39.5882C39.598 17.2958 39.6079 17.2942 39.6169 17.2902C39.6184 17.2855 39.6191 17.2806 39.6188 17.2757L39.6313 15.5906C39.6313 15.0354 39.5494 14.7428 39.3485 14.5822C39.1542 14.4358 38.8513 14.381 38.2666 14.3876C37.9606 14.3876 37.6368 14.4422 37.2758 14.5547L37.2541 14.5616L37.2327 14.553C36.9724 14.4468 36.6304 14.3937 36.2165 14.3937C35.8695 14.3928 35.523 14.4219 35.1811 14.4806C35.1394 14.4879 35.1394 14.4983 35.1394 14.5063V17.2762C35.1389 17.2812 35.1397 17.2863 35.1417 17.2909C35.1506 17.2948 35.1604 17.2964 35.17 17.2955H35.5839C35.5937 17.2964 35.6035 17.2947 35.6124 17.2907C35.6141 17.2861 35.6148 17.2811 35.6144 17.2762V14.7274H36.3045C36.655 14.7274 36.7845 14.7338 36.9448 14.8557C37.1148 14.9795 37.1449 15.2026 37.1449 15.6245V17.2762C37.1445 17.2812 37.1453 17.2863 37.1472 17.2909C37.1561 17.2948 37.1659 17.2963 37.1756 17.2955H37.5893C37.5949 17.2958 37.6006 17.2951 37.606 17.2935C37.606 17.2935 37.6073 17.2873 37.6073 17.2758L37.6199 15.6129C37.6199 15.259 37.5887 15.0113 37.5244 14.8583L37.4936 14.7845L37.5729 14.772C37.8188 14.7362 38.0671 14.7195 38.3155 14.7219Z" fill="black"/>
<path d="M43.0361 15.1914V17.1118C43.0361 17.1888 42.9985 17.2381 42.9171 17.2656C42.6728 17.3478 42.209 17.3862 41.5258 17.3862C41.0872 17.3862 40.7738 17.3259 40.5921 17.2107C40.4104 17.0899 40.3164 16.8541 40.3164 16.5031C40.3164 15.872 40.6726 15.658 41.4256 15.658L42.4347 15.6525V15.2848C42.4347 14.9392 42.2031 14.7909 41.6199 14.7909H40.6799C40.6046 14.7909 40.5859 14.7744 40.5859 14.7086V14.4834C40.5859 14.4231 40.6037 14.4127 40.6735 14.395C40.9869 14.3499 41.3032 14.3279 41.6199 14.3292C42.5974 14.3295 43.0361 14.5933 43.0361 15.1914ZM42.4347 16.081H41.4373C41.0801 16.081 40.9107 16.1908 40.9107 16.4925C40.9107 16.8438 41.0988 16.937 41.6315 16.937C41.9762 16.937 42.2395 16.9151 42.4338 16.8712L42.4347 16.081Z" fill="black"/>
<path d="M41.5248 17.45C41.0767 17.45 40.751 17.3877 40.5568 17.2646C40.3542 17.1297 40.252 16.8741 40.252 16.5038C40.252 15.8669 40.6026 15.5957 41.4245 15.5957L42.3702 15.5906V15.2856C42.3702 15.0269 42.2423 14.8546 41.6188 14.8546H40.6788C40.601 14.8546 40.5214 14.8369 40.5214 14.7094V14.4842C40.5214 14.3766 40.583 14.3531 40.6577 14.3352C40.9761 14.2889 41.2975 14.2663 41.6194 14.2676C42.6427 14.2676 43.099 14.5526 43.099 15.1922V17.1126C43.099 17.1851 43.071 17.2808 42.9369 17.3259C42.6886 17.4094 42.2272 17.45 41.5248 17.45ZM40.6489 14.7269C40.6588 14.7282 40.6688 14.7287 40.6788 14.7285H41.6188C42.053 14.7285 42.497 14.7947 42.497 15.2854V15.7157L41.4249 15.7215C40.6719 15.7215 40.3788 15.9407 40.3788 16.5036C40.3788 16.8293 40.4619 17.05 40.6261 17.1582C40.7985 17.2674 41.1013 17.3231 41.5248 17.3231C42.2129 17.3231 42.6612 17.2847 42.8961 17.2058C42.9595 17.1844 42.9722 17.154 42.9722 17.1117V15.1922C42.9722 14.6324 42.5677 14.3936 41.6186 14.3936C41.3051 14.3923 40.992 14.4141 40.6817 14.4587C40.6705 14.4612 40.6594 14.4646 40.6487 14.4688C40.6484 14.4739 40.6484 14.4791 40.6487 14.4842V14.7092C40.6482 14.7173 40.6486 14.723 40.6489 14.7269ZM41.6313 17.0001C41.1228 17.0001 40.8477 16.9192 40.8477 16.4925C40.8477 16.072 41.1629 16.018 41.4377 16.018H42.4975V16.9215L42.4482 16.9327C42.2468 16.978 41.9798 17.0001 41.6313 17.0001ZM41.4372 16.144C41.0514 16.144 40.9741 16.2774 40.9741 16.4925C40.9741 16.7616 41.0655 16.8741 41.6315 16.8741C41.9421 16.8741 42.1846 16.8564 42.3704 16.821V16.144H41.4372Z" fill="black"/>
<path d="M45.5552 14.3894C45.6179 14.4059 45.6492 14.4388 45.6492 14.4827V14.7127C45.6492 14.773 45.6179 14.7949 45.5489 14.7894H45.0036C44.5712 14.7894 44.4585 14.8498 44.4585 15.0967V17.2758C44.4585 17.3306 44.4271 17.358 44.3644 17.358H43.9571C43.8944 17.358 43.8633 17.3306 43.8633 17.2758V14.9711C43.8633 14.7351 43.976 14.5594 44.1014 14.4772C44.1783 14.4296 44.2632 14.3962 44.352 14.3785C44.5525 14.3291 44.659 14.3291 44.8533 14.3291C45.1917 14.3288 45.4236 14.351 45.5552 14.3894Z" fill="black"/>
<path d="M44.3659 17.4225H43.958C43.861 17.4225 43.8008 17.3669 43.8008 17.2772V14.9726C43.8008 14.6987 43.9384 14.5108 44.0679 14.4261C44.1514 14.3743 44.2435 14.3378 44.3399 14.3184C44.5465 14.2676 44.656 14.2676 44.8549 14.2676C45.1888 14.2676 45.4307 14.2886 45.5739 14.3302C45.7005 14.3638 45.7142 14.4491 45.7142 14.4841V14.7141C45.7154 14.7336 45.7124 14.7532 45.7054 14.7715C45.6984 14.7898 45.6876 14.8064 45.6736 14.8203C45.6439 14.8473 45.6024 14.8579 45.5456 14.8537H45.0052C44.5628 14.8537 44.5235 14.917 44.5235 15.098V17.2772C44.5228 17.3669 44.4624 17.4225 44.3659 17.4225ZM44.8547 14.3935C44.6588 14.3935 44.5618 14.3935 44.3685 14.441C44.2865 14.4573 44.2081 14.488 44.137 14.5317C44.0364 14.5979 43.9281 14.7486 43.9281 14.9726V17.2772C43.9277 17.2822 43.9284 17.2873 43.9303 17.2919C43.9392 17.2958 43.9489 17.2974 43.9586 17.2965H44.3659C44.3756 17.2974 44.3855 17.2958 44.3944 17.2917C44.3962 17.2871 44.3969 17.2822 44.3965 17.2772V15.0987C44.3965 14.782 44.5842 14.7284 45.0051 14.7284H45.5504C45.5622 14.73 45.5742 14.73 45.586 14.7284C45.586 14.7268 45.586 14.7226 45.586 14.7153V14.4854C45.586 14.4687 45.5605 14.4586 45.5392 14.453H45.5376C45.4478 14.4249 45.2563 14.3935 44.8542 14.3935H44.8547Z" fill="black"/>
<path d="M46.8304 13.5287C46.8994 13.5122 46.9373 13.5343 46.9373 13.5994V14.3621H47.5953C47.6641 14.3621 47.6954 14.3895 47.6954 14.4444V14.7023C47.6954 14.7571 47.6641 14.7846 47.5953 14.7846H46.9373V16.6294C46.9373 16.8709 47.0124 16.9258 47.3446 16.9258H47.6454C47.7143 16.9258 47.7457 16.9532 47.7457 17.0025V17.2663C47.7457 17.3157 47.7143 17.3431 47.6516 17.3548C47.5362 17.3781 47.4186 17.3891 47.3008 17.3877C47.0563 17.3877 46.9749 17.3877 46.7679 17.3438C46.4922 17.2835 46.3608 17.1354 46.3355 16.7621V14.7853H45.9847C45.922 14.7853 45.8906 14.7579 45.8906 14.703V14.4451C45.8906 14.3902 45.922 14.3628 45.9847 14.3628H46.3355V13.7043C46.3355 13.655 46.3608 13.6276 46.4171 13.6159L46.8304 13.5287Z" fill="black"/>
<path d="M47.3015 17.4487C47.0522 17.4487 46.9688 17.4487 46.7555 17.4034C46.4386 17.3341 46.299 17.149 46.273 16.7644V14.8477H45.9856C45.8885 14.8477 45.8281 14.7922 45.8281 14.7025V14.4446C45.8281 14.355 45.8885 14.2993 45.9856 14.2993H46.273V13.7038C46.273 13.6575 46.2908 13.5766 46.4057 13.5541L46.8176 13.4668C46.8741 13.4533 46.9202 13.4598 46.9537 13.4862C46.9756 13.5039 47.0016 13.5368 47.0016 13.5996V14.2993H47.5962C47.6986 14.2993 47.7597 14.3536 47.7597 14.4446V14.7025C47.7597 14.7934 47.6986 14.8477 47.5962 14.8477H47.0016V16.6289C47.0016 16.8101 47.0162 16.8623 47.3455 16.8623H47.6463C47.767 16.8623 47.81 16.9344 47.81 17.002V17.2658C47.81 17.3121 47.7909 17.3934 47.6636 17.4156C47.5444 17.4394 47.423 17.4505 47.3015 17.4487ZM45.9569 14.4302C45.9551 14.4348 45.9543 14.4397 45.9547 14.4446V14.7025C45.9543 14.7075 45.9551 14.7126 45.9571 14.7172C45.966 14.721 45.9757 14.7226 45.9854 14.7218H46.3996V16.7602C46.4247 17.1301 46.559 17.2315 46.7824 17.2803C46.9822 17.3228 47.0563 17.3228 47.3015 17.3228C47.4147 17.3243 47.5278 17.3138 47.6388 17.2914C47.683 17.2837 47.683 17.2738 47.683 17.2651V17.0017C47.6831 16.9988 47.6828 16.9959 47.6819 16.9932C47.6706 16.9888 47.6584 16.987 47.6463 16.9879H47.3455C47.0199 16.9879 46.8748 16.936 46.8748 16.6286V14.7218H47.5962C47.6084 14.7233 47.6208 14.7213 47.6319 14.7159C47.6331 14.7116 47.6336 14.707 47.6335 14.7025V14.4446C47.6339 14.4399 47.6332 14.4351 47.6315 14.4308C47.6203 14.4258 47.608 14.424 47.5959 14.4253H46.8744V13.5996C46.8745 13.595 46.8741 13.5905 46.8734 13.586C46.8641 13.5859 46.8549 13.5871 46.8459 13.5894H46.8445L46.4308 13.6778C46.3995 13.6838 46.3995 13.689 46.3995 13.704V14.4254H45.9852C45.9754 14.4245 45.9656 14.4262 45.9567 14.4304L45.9569 14.4302Z" fill="black"/>
<path d="M53.5809 14.3616C53.7666 14.5606 53.8594 14.959 53.8594 15.5618C53.8594 16.17 53.7666 16.5684 53.5871 16.7674C53.4076 16.9665 53.0239 17.0636 52.4421 17.0636C52.1143 17.0636 51.842 17.0528 51.6252 17.0312V18.0219C51.6252 18.075 51.5944 18.1028 51.5324 18.1028H51.124C51.0623 18.1028 51.0314 18.0758 51.0312 18.0219V14.2485C51.0312 14.2001 51.0622 14.1677 51.1301 14.1569C51.5546 14.0979 51.9825 14.0674 52.4111 14.0654C53.0052 14.0654 53.3953 14.1624 53.5809 14.3616ZM51.6252 14.5176V16.5684C51.8843 16.5958 52.1445 16.6101 52.4051 16.6114C52.7763 16.6114 53.0115 16.5468 53.1105 16.4177C53.2158 16.283 53.2653 16.0032 53.2653 15.5673C53.2653 15.1313 53.2158 14.8513 53.1167 14.7168C53.0177 14.5824 52.7826 14.5176 52.4174 14.5176H51.6252Z" fill="#E8BB2E"/>
<path d="M51.533 18.1332H51.1247C51.0456 18.1332 51 18.0923 51 18.0208V14.2478C51 14.2094 51.0164 14.1417 51.1247 14.125C51.5508 14.066 51.9804 14.0353 52.4107 14.0332C53.0216 14.0332 53.4118 14.1333 53.6039 14.3394C53.7961 14.5455 53.8908 14.9463 53.8908 15.561C53.8908 16.1686 53.7964 16.5813 53.6105 16.7878C53.4246 16.9942 53.0424 17.0943 52.4419 17.0943C52.1316 17.0943 51.8677 17.0844 51.6566 17.0652V18.0205C51.6575 18.0923 51.6116 18.1332 51.533 18.1332ZM52.4118 14.0962C51.9846 14.0983 51.5581 14.1288 51.135 14.1875C51.0638 14.1988 51.0638 14.2331 51.0638 14.2478V18.0208C51.0638 18.0458 51.0684 18.0702 51.1248 18.0702H51.5332C51.5897 18.0702 51.5943 18.0458 51.5943 18.0208V16.9947L51.6299 16.9983C51.8436 17.0197 52.1181 17.0305 52.4436 17.0305C53.0169 17.0305 53.3943 16.9344 53.5656 16.7449C53.741 16.5503 53.8299 16.1517 53.8299 15.5596C53.8299 14.9675 53.7391 14.573 53.5599 14.3808C53.3808 14.1887 52.9957 14.0962 52.4118 14.0962ZM52.4057 16.6422C52.1439 16.641 51.8824 16.6266 51.6221 16.599L51.5936 16.596V14.4854H52.4175C52.8004 14.4854 53.0374 14.5547 53.1425 14.6977C53.2476 14.8406 53.2971 15.1233 53.2971 15.5667C53.2971 16.013 53.2436 16.2975 53.1357 16.4364C53.0278 16.5753 52.7909 16.6422 52.4057 16.6422ZM51.6577 16.5392C51.9313 16.5661 52.1763 16.5792 52.4057 16.5792C52.7647 16.5792 52.9934 16.5181 53.086 16.3978C53.1858 16.2701 53.2342 15.9984 53.2342 15.5663C53.2342 15.1428 53.1863 14.8629 53.0917 14.7348C53.0007 14.611 52.774 14.5486 52.4178 14.5486H51.6573L51.6577 16.5392Z" fill="#E8BB2E"/>
<path d="M57.0862 14.9106V16.7945C57.0862 16.8699 57.049 16.9184 56.9687 16.9451C56.7274 17.026 56.2693 17.0636 55.5949 17.0636C55.1617 17.0636 54.8522 17.0044 54.6727 16.8913C54.4932 16.773 54.4004 16.5416 54.4004 16.1971C54.4004 15.5779 54.7532 15.3681 55.4958 15.3681L56.4923 15.3628V15.0021C56.4923 14.6629 56.2631 14.5177 55.6877 14.5177H54.7594C54.685 14.5177 54.6665 14.5016 54.6665 14.437V14.2162C54.6665 14.1569 54.6843 14.1454 54.7532 14.1301C55.0627 14.0859 55.375 14.0643 55.6877 14.0655C56.6535 14.0655 57.0862 14.3239 57.0862 14.9106ZM56.4932 15.7826H55.509C55.1564 15.7826 54.9892 15.8902 54.9892 16.1863C54.9892 16.5308 55.1749 16.6222 55.7015 16.6222C56.0419 16.6222 56.3017 16.6007 56.4937 16.5577L56.4932 15.7826Z" fill="#E8BB2E"/>
<path d="M55.5953 17.0944C55.1588 17.0944 54.8429 17.0348 54.6562 16.9175C54.4655 16.7919 54.3691 16.5493 54.3691 16.1967C54.3691 15.5855 54.6956 15.3362 55.4963 15.3362L56.461 15.3311V15.0013C56.461 14.6797 56.2372 14.5484 55.6881 14.5484H54.7599C54.681 14.5484 54.6352 14.5307 54.6352 14.4363V14.2155C54.6352 14.1311 54.6772 14.1152 54.7462 14.0987C55.0581 14.0538 55.3729 14.032 55.6881 14.0333C56.6772 14.0333 57.1184 14.3036 57.1184 14.9099V16.7938C57.1184 16.8823 57.0715 16.9435 56.9793 16.9743C56.7378 17.0551 56.2851 17.0944 55.5953 17.0944ZM55.6881 14.0962C55.377 14.095 55.0662 14.1164 54.7583 14.1605C54.6986 14.1748 54.6986 14.1782 54.6986 14.2155V14.4363C54.6986 14.4789 54.6986 14.4855 54.7599 14.4855H55.6881C56.2744 14.4855 56.5252 14.6397 56.5252 15.0013V15.3934L55.4972 15.3989C54.7314 15.3989 54.4333 15.6225 54.4333 16.1964C54.4333 16.5267 54.5202 16.7514 54.6913 16.8644C54.8673 16.9752 55.1722 17.0314 55.596 17.0314C56.2788 17.0314 56.725 16.9932 56.9599 16.9147C57.027 16.8922 57.0557 16.8561 57.0557 16.7938V14.9099C57.055 14.3471 56.6334 14.0962 55.6881 14.0962ZM55.7006 16.653C55.2074 16.653 54.957 16.5806 54.957 16.1856C54.957 15.8804 55.1219 15.7504 55.5091 15.7504H56.5243V16.5819L56.4995 16.5874C56.3036 16.6316 56.0422 16.653 55.7006 16.653ZM55.5086 15.8142C55.1574 15.8142 55.0204 15.9186 55.0204 16.1858C55.0204 16.4994 55.1731 16.5902 55.7006 16.5902C56.0231 16.5902 56.2723 16.5711 56.461 16.5316V15.8142H55.5086Z" fill="#E8BB2E"/>
<path d="M60.6198 14.0928C60.6816 14.0928 60.7125 14.1198 60.7125 14.1736V16.7679C60.7125 17.3223 60.6568 17.6185 60.4402 17.8391C60.2237 18.0597 59.8833 18.1298 59.2826 18.1298C58.9704 18.1316 58.6583 18.1154 58.348 18.0813C58.2924 18.076 58.2614 18.0436 58.2614 17.9953V17.7637C58.2614 17.71 58.2924 17.6831 58.3542 17.6831H59.2711C59.6116 17.6831 59.841 17.6399 59.9517 17.5539C60.0625 17.4679 60.119 17.3009 60.119 17.0532V17.0209C59.9149 17.0479 59.6426 17.064 59.302 17.064C58.7264 17.064 58.3428 16.9671 58.1571 16.7734C57.9777 16.5742 57.8848 16.1812 57.8848 15.5946V14.1736C57.8848 14.1205 57.9158 14.0928 57.9777 14.0928H58.3799C58.4418 14.0928 58.4728 14.1198 58.4728 14.1736V15.5622C58.4728 15.9983 58.5223 16.2782 58.6212 16.4126C58.7264 16.5473 58.9617 16.6118 59.3393 16.6118C59.5997 16.6143 59.86 16.6017 60.119 16.5742V14.1736C60.119 14.1205 60.1499 14.0928 60.2117 14.0928H60.6198Z" fill="#E8BB2E"/>
<path d="M59.2815 18.1615C58.9681 18.1634 58.6548 18.1471 58.3433 18.1128C58.272 18.1061 58.2286 18.061 58.2286 17.9956V17.764C58.2286 17.6932 58.274 17.6518 58.3533 17.6518H59.2696C59.6033 17.6518 59.8257 17.6106 59.9308 17.5292C60.0332 17.4501 60.0852 17.2913 60.0858 17.0569C59.825 17.0852 59.5628 17.0982 59.3005 17.0958C58.7167 17.0958 58.3239 16.9948 58.1326 16.795C57.946 16.5879 57.8516 16.1841 57.8516 15.5945V14.1739C57.8516 14.1031 57.897 14.0615 57.9762 14.0615H58.3784C58.4576 14.0615 58.503 14.1024 58.503 14.1739V15.5625C58.503 15.986 58.5509 16.2659 58.6455 16.394C58.7435 16.5192 58.97 16.5802 59.3379 16.5802C59.5877 16.5824 59.8374 16.571 60.0859 16.5459V14.1739C60.0859 14.1031 60.1314 14.0615 60.2106 14.0615H60.6191C60.6982 14.0615 60.7438 14.1024 60.7438 14.1739V16.7681C60.7438 17.2913 60.6989 17.6205 60.4626 17.8613C60.2466 18.0801 59.9267 18.1615 59.2815 18.1615ZM58.3531 17.7148C58.2968 17.7148 58.292 17.7392 58.292 17.764V17.9956C58.292 18.0281 58.3116 18.0465 58.3499 18.0502C58.6592 18.0843 58.9703 18.1004 59.2815 18.0985C59.8993 18.0985 60.2174 18.0198 60.4161 17.8174C60.6149 17.615 60.6793 17.3521 60.6793 16.7681V14.1739C60.6793 14.1489 60.6747 14.1245 60.6183 14.1245H60.2097C60.1534 14.1245 60.1486 14.1489 60.1486 14.1739V16.6025L60.1207 16.6057C59.8604 16.6334 59.5988 16.646 59.337 16.6436C58.9483 16.6436 58.7052 16.5744 58.594 16.4323C58.4895 16.2908 58.4389 16.0058 58.4389 15.5625V14.1739C58.4389 14.1489 58.4341 14.1245 58.3777 14.1245H57.9755C57.9191 14.1245 57.9143 14.1489 57.9143 14.1739V15.5948C57.9143 16.1684 58.0033 16.5581 58.1785 16.7527C58.3566 16.9383 58.734 17.0328 59.3005 17.0328C59.6243 17.0328 59.8979 17.0185 60.1134 16.99L60.149 16.9852V17.054C60.149 17.3107 60.0886 17.4875 59.9696 17.5795C59.8507 17.6714 59.6175 17.7153 59.2694 17.7153L58.3531 17.7148Z" fill="#E8BB2E"/>
<path d="M65.8175 14.2645C66.0341 14.4368 66.1203 14.7436 66.1203 15.3034L66.108 16.9557C66.108 17.0096 66.0771 17.0366 66.0152 17.0366H65.6191C65.5573 17.0366 65.5263 17.0096 65.5263 16.9557V15.3679C65.5263 15.0396 65.4829 14.8404 65.4273 14.7167C65.4124 14.6842 65.3909 14.6551 65.3643 14.631C65.3377 14.6069 65.3065 14.5884 65.2726 14.5766C65.1301 14.5175 65.0312 14.512 64.7589 14.512C64.5167 14.5096 64.2746 14.5258 64.0348 14.5605C64.1028 14.722 64.1338 14.975 64.1338 15.325L64.1215 16.9557C64.1215 17.0088 64.0966 17.0366 64.041 17.0366H63.6336C63.5717 17.0366 63.5408 17.0096 63.5408 16.9557V15.3356C63.5408 14.9426 63.516 14.7381 63.3675 14.6306C63.225 14.5228 63.1139 14.5175 62.7734 14.5175H62.1545V16.9557C62.1545 17.0088 62.1237 17.0366 62.0617 17.0366H61.6532C61.5913 17.0366 61.5604 17.0096 61.5605 16.9557V14.2376C61.5605 14.1892 61.5914 14.1623 61.6532 14.1515C61.9943 14.0932 62.3399 14.0644 62.6861 14.0653C63.1009 14.0653 63.4475 14.1184 63.7135 14.2269C64.0786 14.1138 64.4067 14.06 64.71 14.06C65.2542 14.0545 65.5946 14.0977 65.8175 14.2645Z" fill="#E8BB2E"/>
<path d="M66.0114 17.0678H65.6153C65.5363 17.0678 65.4907 17.0269 65.4907 16.9555V15.3677C65.4907 15.086 65.4583 14.8712 65.3943 14.7292C65.3813 14.7004 65.3624 14.6745 65.3389 14.6532C65.3154 14.6319 65.2878 14.6156 65.2577 14.6053C65.1184 14.5473 65.0209 14.5425 64.755 14.5425C64.5275 14.5406 64.3001 14.5548 64.0746 14.5848C64.1331 14.7474 64.1615 14.9899 64.1615 15.324L64.1493 16.9551C64.1493 17.0273 64.1094 17.0671 64.0371 17.0671H63.6294C63.5503 17.0671 63.5047 17.0262 63.5047 16.9547V15.3353C63.5047 14.9535 63.4807 14.7545 63.3445 14.6558C63.2091 14.5533 63.106 14.5496 62.769 14.5496H62.1813V16.9556C62.1813 17.0264 62.1359 17.068 62.0567 17.068H61.6481C61.569 17.068 61.5234 17.0271 61.5234 16.9556V14.2374C61.5234 14.1933 61.5439 14.1374 61.6424 14.1202C61.9855 14.0617 62.3331 14.0327 62.6812 14.0335C63.0967 14.0335 63.4428 14.0866 63.7101 14.1928C64.0714 14.0818 64.397 14.0279 64.7051 14.0279C65.2187 14.0224 65.5881 14.0562 65.8319 14.2388C66.0558 14.4167 66.1469 14.7249 66.1469 15.3022L66.1347 16.9549C66.1359 17.0269 66.0905 17.0678 66.0114 17.0678ZM64.7551 14.4803C65.0306 14.4803 65.1322 14.4856 65.281 14.5473C65.3186 14.5606 65.353 14.5812 65.3824 14.6079C65.4117 14.6346 65.4354 14.6669 65.452 14.7028C65.5201 14.8537 65.5542 15.0772 65.5542 15.3677V16.9555C65.5542 16.9804 65.5589 17.0048 65.6153 17.0048H66.0114C66.0677 17.0048 66.0725 16.9804 66.0725 16.9555L66.0848 15.3029C66.0848 14.7476 66.0005 14.4537 65.794 14.289C65.5653 14.1181 65.1931 14.0861 64.706 14.0912C64.4009 14.0912 64.0782 14.1454 63.7186 14.2566L63.7078 14.26L63.6973 14.2558C63.4362 14.1496 63.0946 14.0965 62.6821 14.0965C62.3376 14.0956 61.9937 14.1243 61.6542 14.1822C61.5927 14.1929 61.5877 14.2163 61.5877 14.2374V16.9555C61.5877 16.9804 61.5924 17.0048 61.6486 17.0048H62.0572C62.1136 17.0048 62.1183 16.9804 62.1183 16.9555V14.4857H62.7688C63.1147 14.4857 63.2319 14.4912 63.3822 14.6052C63.5402 14.7196 63.568 14.9319 63.568 15.3353V16.9555C63.568 16.9804 63.5726 17.0048 63.629 17.0048H64.0376C64.0745 17.0048 64.0864 16.9928 64.0864 16.9555L64.0987 15.3243C64.0987 14.9726 64.0672 14.7265 64.0022 14.5724L63.9865 14.5355L64.0264 14.5291C64.2677 14.4942 64.5113 14.4779 64.7551 14.4803Z" fill="#E8BB2E"/>
<path d="M69.3439 14.3508C69.5232 14.5392 69.6224 14.9159 69.6288 15.4866V15.6426C69.6288 15.7557 69.5855 15.7933 69.4062 15.7933H67.4377C67.4439 16.1215 67.4997 16.3418 67.6049 16.4501C67.7102 16.5583 67.9328 16.6114 68.2609 16.6114H69.276C69.338 16.6114 69.369 16.6383 69.369 16.6922V16.9295C69.369 16.978 69.338 17.0103 69.2822 17.0156C69.0099 17.048 68.6635 17.0641 68.2493 17.0641C67.6737 17.0641 67.2901 16.9672 67.1107 16.7734C66.9303 16.5737 66.8379 16.1755 66.8379 15.5673C66.8379 14.959 66.9307 14.5606 67.1102 14.3616C67.2897 14.1626 67.6732 14.0654 68.2488 14.0654C68.7992 14.0654 69.1643 14.1624 69.3439 14.3508ZM67.5985 14.6898C67.4933 14.8028 67.4382 15.0289 67.4313 15.3735H69.0342C69.0281 15.0236 68.9724 14.7975 68.8739 14.6845C68.7754 14.5714 68.5645 14.5176 68.2488 14.5176C67.9203 14.5176 67.7038 14.5765 67.5987 14.6898H67.5985Z" fill="#E8BB2E"/>
<path d="M68.2473 17.0943C67.6611 17.0943 67.2702 16.9931 67.0854 16.7936C66.8991 16.5868 66.8047 16.1744 66.8047 15.5665C66.8047 14.9586 66.8991 14.5461 67.085 14.3398C67.2683 14.1363 67.6594 14.0332 68.2473 14.0332C68.8029 14.0332 69.1792 14.1325 69.3657 14.3283C69.5521 14.5241 69.6529 14.9155 69.659 15.4853V15.6419C69.659 15.7951 69.57 15.8241 69.4047 15.8241H67.469C67.4779 16.1266 67.531 16.3295 67.6264 16.4272C67.7219 16.5249 67.9425 16.5792 68.2597 16.5792H69.2749C69.3541 16.5792 69.3995 16.62 69.3995 16.6915V16.9288C69.3995 16.9944 69.3554 17.0393 69.2843 17.0462C69.012 17.0781 68.6631 17.0943 68.2473 17.0943ZM68.2473 14.0962C67.6782 14.0962 67.3034 14.1922 67.1324 14.3817C66.957 14.5763 66.8681 14.9749 66.8681 15.567C66.8681 16.1592 66.9571 16.5578 67.1322 16.7524C67.3044 16.9383 67.6797 17.0326 68.2473 17.0326C68.6606 17.0326 69.007 17.0163 69.277 16.9845C69.3162 16.9806 69.3358 16.9622 69.3358 16.9295V16.6915C69.3358 16.6666 69.3311 16.6422 69.2745 16.6422H68.2594C67.9199 16.6422 67.6914 16.5847 67.5806 16.4713C67.4699 16.3579 67.4109 16.13 67.4045 15.7931V15.7611H69.4049C69.5874 15.7611 69.5958 15.7201 69.5958 15.6419V15.4858C69.5899 14.9326 69.4969 14.5576 69.3199 14.3713C69.1456 14.1889 68.7847 14.0962 68.2473 14.0962ZM69.0654 15.4043H67.3981V15.3721C67.4045 15.0183 67.462 14.7883 67.5737 14.6676C67.6854 14.547 67.9121 14.4854 68.2467 14.4854C68.5814 14.4854 68.791 14.5436 68.8957 14.6623C69.0026 14.7849 69.0581 15.0161 69.0643 15.3714L69.0654 15.4043ZM67.4626 15.3413H69.0008C68.992 15.0243 68.9409 14.8106 68.8483 14.7044C68.7557 14.5983 68.5554 14.5484 68.2471 14.5484C67.9315 14.5484 67.7206 14.6029 67.6207 14.7104C67.5247 14.8137 67.4715 15.0259 67.4627 15.3413H67.4626Z" fill="#E8BB2E"/>
<path d="M72.3838 14.1031C72.5383 14.1212 72.6856 14.1786 72.8112 14.2699C73.0587 14.4423 73.1205 14.7437 73.1205 15.3251V16.9558C73.1205 17.0089 73.0835 17.0367 73.0155 17.0367H72.6192C72.5573 17.0367 72.5265 17.0097 72.5266 16.9558V15.368C72.5266 15.0397 72.4831 14.8405 72.4274 14.7168C72.4123 14.685 72.3908 14.6567 72.3642 14.6335C72.3376 14.6104 72.3065 14.5929 72.2728 14.5822C72.1243 14.5229 72.0253 14.5176 71.7467 14.5176H70.899V16.9558C70.899 17.0097 70.868 17.0367 70.806 17.0367H70.3977C70.3357 17.0367 70.3047 17.0097 70.3047 16.9558V14.2377C70.3047 14.167 70.3357 14.1624 70.3977 14.1516C70.738 14.0923 71.1713 14.0654 71.6849 14.0654C71.9877 14.0654 72.2229 14.0762 72.3838 14.1031Z" fill="#E8BB2E"/>
<path d="M73.0143 17.0675H72.6181C72.539 17.0675 72.4934 17.0266 72.4934 16.9551V15.3673C72.4934 15.0857 72.461 14.8709 72.397 14.7288C72.3836 14.701 72.3645 14.6761 72.341 14.6559C72.3175 14.6356 72.2901 14.6203 72.2604 14.611C72.1153 14.5532 72.0157 14.5484 71.7452 14.5484H70.9292V16.9544C70.9292 17.0252 70.8838 17.0667 70.8045 17.0667H70.3962C70.3169 17.0667 70.2715 17.0259 70.2715 16.9544V14.237C70.2715 14.1406 70.3294 14.1309 70.3906 14.1199C70.7256 14.0615 71.1486 14.0332 71.6834 14.0332C72.0083 14.0332 72.2321 14.0454 72.3874 14.0712C72.5471 14.0899 72.6991 14.1494 72.8287 14.2439C73.0993 14.4323 73.1507 14.769 73.1507 15.3243V16.9551C73.1511 16.9889 73.1377 17.0675 73.0143 17.0675ZM70.8661 14.4845H71.7456C72.0254 14.4845 72.1288 14.4896 72.2834 14.5514C72.3208 14.5635 72.3553 14.5831 72.3848 14.6089C72.4142 14.6347 72.4381 14.6663 72.4549 14.7016C72.5228 14.8525 72.5571 15.0759 72.5571 15.3664V16.9542C72.5571 16.9792 72.5618 17.0036 72.6181 17.0036H73.0143C73.0877 17.0036 73.0877 16.9703 73.0877 16.9542V15.3243C73.0877 14.7087 73.0131 14.449 72.7919 14.295C72.6706 14.2065 72.5282 14.1508 72.3787 14.1335H72.3771C72.2275 14.1084 72.0004 14.0962 71.6825 14.0962C71.1587 14.0962 70.7276 14.125 70.4002 14.1818C70.3386 14.1926 70.3335 14.1935 70.3335 14.237V16.9551C70.3335 16.9801 70.3383 17.0045 70.3947 17.0045H70.8031C70.8596 17.0045 70.8644 16.9801 70.8644 16.9551L70.8661 14.4845Z" fill="#E8BB2E"/>
<path d="M74.6047 13.2805C74.6726 13.2644 74.7098 13.286 74.7098 13.3513V14.0994H75.3597C75.4277 14.0994 75.4585 14.1263 75.4585 14.1801V14.4331C75.4585 14.4862 75.4277 14.5138 75.3597 14.5138H74.7098V16.3216C74.7098 16.5585 74.7841 16.6123 75.1121 16.6123H75.4092C75.4772 16.6123 75.5082 16.6392 75.5082 16.6877V16.946C75.5082 16.9944 75.4772 17.0213 75.4154 17.0321C75.3014 17.0551 75.1852 17.0659 75.0688 17.0645C74.8273 17.0645 74.747 17.0645 74.5427 17.0213C74.2704 16.9622 74.1404 16.8168 74.1153 16.451V14.513H73.7686C73.7068 14.513 73.6759 14.4862 73.6758 14.4324V14.1794C73.6758 14.1256 73.7067 14.0987 73.7686 14.0987H74.1153V13.4528C74.1153 13.4043 74.1399 13.3774 74.1956 13.3666L74.6047 13.2805Z" fill="#E8BB2E"/>
<path d="M75.0689 17.0962C74.8257 17.0962 74.7437 17.0962 74.5362 17.0525C74.2356 16.9871 74.1088 16.8192 74.0842 16.4531V14.5448H73.7692C73.6901 14.5448 73.6445 14.5039 73.6445 14.4326V14.1796C73.6445 14.1089 73.6899 14.0675 73.7692 14.0675H74.0842V13.453C74.0842 13.389 74.1199 13.3495 74.1902 13.3359L74.5979 13.2499C74.6443 13.239 74.6809 13.2436 74.7063 13.2636C74.7187 13.2743 74.7284 13.2878 74.7346 13.303C74.7407 13.3181 74.7433 13.3345 74.7419 13.3508V14.0675H75.3601C75.4737 14.0675 75.4907 14.1382 75.4907 14.1796V14.4326C75.4907 14.4745 75.4737 14.5448 75.3601 14.5448H74.7419V16.3219C74.7419 16.529 74.7856 16.5811 75.1126 16.5811H75.4096C75.5275 16.5811 75.5403 16.6559 75.5403 16.6872V16.9455C75.5403 16.9895 75.5197 17.0456 75.4212 17.0626C75.3053 17.0862 75.1872 17.0975 75.0689 17.0962ZM73.7688 14.1304C73.7124 14.1304 73.7078 14.1547 73.7078 14.1796V14.4326C73.7078 14.4576 73.7124 14.4818 73.7688 14.4818H74.1473V16.4512C74.1697 16.7852 74.2787 16.9321 74.5492 16.991C74.75 17.0332 74.8303 17.0332 75.0686 17.0332C75.1827 17.0347 75.2966 17.0241 75.4084 17.0016C75.4711 16.9906 75.4762 16.9673 75.4762 16.9462V16.6879C75.4762 16.6725 75.4762 16.644 75.4089 16.644H75.1118C74.7913 16.644 74.6778 16.5954 74.6778 16.3219V14.482H75.3594C75.4216 14.482 75.4265 14.4588 75.4265 14.4328V14.1796C75.4265 14.1536 75.4216 14.1304 75.3594 14.1304H74.6778V13.3508C74.6786 13.3441 74.678 13.3372 74.676 13.3307C74.6741 13.3242 74.6709 13.3182 74.6666 13.3129C74.6573 13.3058 74.6381 13.3051 74.6118 13.3113H74.6109L74.2025 13.3975C74.156 13.4065 74.1473 13.4239 74.1473 13.4529V14.1303L73.7688 14.1304Z" fill="#E8BB2E"/>
</svg>
