<svg width="216" height="65" viewBox="0 0 216 65" fill="none" xmlns="http://www.w3.org/2000/svg">
<path d="M70.3882 35.2566C70.3199 35.2689 70.251 35.2803 70.1836 35.2969C69.8239 35.386 69.4646 35.4771 69.1048 35.5667L64.6194 36.6837C63.574 36.9442 62.529 37.2051 61.4843 37.4663C61.0794 37.5668 60.6741 37.665 60.2697 37.7665C60.2259 37.7797 60.1847 37.7999 60.1475 37.8262C60.1394 37.8335 60.1333 37.8427 60.1296 37.8528C60.126 37.863 60.125 37.8739 60.1267 37.8846C60.141 37.9273 60.1621 37.9674 60.1892 38.0036C60.5097 38.4068 60.8327 38.8099 61.1536 39.2107C61.2681 39.353 61.3801 39.4986 61.493 39.6432C61.5069 39.6615 61.5164 39.6826 61.5207 39.7049C61.5257 39.7265 61.5227 39.7492 61.5124 39.7689C61.4858 39.806 61.4546 39.8396 61.4193 39.869C61.2157 40.0374 61.0077 40.201 60.8055 40.3713C60.4981 40.6307 60.196 40.8963 59.8891 41.1562C58.6333 42.2177 57.3873 43.2905 56.1358 44.3553C54.8582 45.4461 53.5806 46.5318 52.2705 47.5837C51.5801 48.1382 50.8926 48.6959 50.1963 49.2437C49.4548 49.8277 48.7046 50.4 47.9456 50.9606C47.0664 51.6114 46.1733 52.2437 45.2663 52.8578C43.8117 53.8367 42.3256 54.763 40.7804 55.5992C39.7341 56.165 38.6669 56.69 37.5682 57.1534C36.5682 57.5793 35.5438 57.948 34.5 58.2575C33.8998 58.433 33.2927 58.5843 32.6784 58.7048C31.7573 58.8886 30.8228 59.0015 29.8837 59.0425C29.2807 59.0665 28.6767 59.055 28.0752 59.0079C27.5198 58.9642 26.9677 58.8877 26.4218 58.7788C25.5799 58.6119 24.7566 58.3652 23.9636 58.0422C23.095 57.6894 22.2654 57.2511 21.4874 56.7341C20.6997 56.2118 19.9589 55.6247 19.273 54.9793C19.1901 54.9005 19.1038 54.8246 19.0156 54.7511C19.0059 54.7431 18.9753 54.7549 18.9564 54.762C18.9518 54.765 18.948 54.7691 18.9454 54.7739C18.9427 54.7787 18.9414 54.7841 18.9414 54.7896C18.9642 54.8768 18.9831 54.966 19.0141 55.0504C19.3162 55.8733 19.6396 56.6872 20.0231 57.4778C20.5618 58.5886 21.1834 59.6491 21.9596 60.6204C22.4513 61.2391 23.01 61.8038 23.6261 62.3046C24.4754 62.9961 25.4442 63.5335 26.4868 63.8916C27.3171 64.1728 28.1806 64.3497 29.0565 64.418C29.7439 64.4649 30.4339 64.4602 31.1206 64.4038C31.9877 64.3313 32.848 64.195 33.6942 63.9959C34.95 63.7047 36.167 63.3001 37.3665 62.8353C37.895 62.63 38.4128 62.4004 38.9306 62.1713C39.5227 61.9091 40.1059 61.6288 40.6824 61.3357C42.248 60.5393 43.7705 59.669 45.2571 58.7389C47.0569 57.6135 48.8038 56.4149 50.5163 55.1657C51.2698 54.616 52.0194 54.0601 52.7539 53.4876C53.2805 53.0779 53.8129 52.6752 54.336 52.2611C54.8771 51.8343 55.411 51.396 55.9477 50.9621C56.3055 50.6728 56.6663 50.3872 57.0178 50.0913C58.0554 49.2172 59.1027 48.3563 60.1209 47.4561C60.4559 47.1583 60.7997 46.8713 61.1391 46.5754C61.5619 46.2036 61.9803 45.827 62.3997 45.4523C62.726 45.162 63.0533 44.8732 63.3772 44.5805C63.6754 44.3112 63.9692 44.037 64.2659 43.7657C64.393 43.6495 64.521 43.5347 64.6499 43.42C64.6682 43.4064 64.6875 43.3942 64.7076 43.3834C64.7239 43.3765 64.742 43.3747 64.7594 43.3782C64.7768 43.3818 64.7926 43.3906 64.8046 43.4034C64.8623 43.4883 64.9224 43.5717 64.9758 43.659C65.2875 44.1641 65.5969 44.6707 65.9086 45.1767C65.9397 45.2243 65.9735 45.27 66.01 45.3138C66.0186 45.3211 66.0287 45.3265 66.0397 45.3296C66.0506 45.3328 66.0621 45.3337 66.0734 45.3322C66.0847 45.3307 66.0956 45.3269 66.1053 45.3211C66.115 45.3152 66.1233 45.3074 66.1297 45.2981C66.1501 45.2578 66.1709 45.2175 66.1889 45.1763C66.5231 44.4149 66.8567 43.6536 67.1896 42.8926C67.5636 42.0388 67.9371 41.1832 68.3101 40.3257C68.5338 39.8148 68.7569 39.3035 68.9792 38.7919L70.4571 35.4126C70.4658 35.3917 70.4702 35.3694 70.477 35.3476C70.4828 35.3049 70.4309 35.249 70.3882 35.2566Z" fill="white"/>
<path d="M18.2764 18.5142C18.6342 18.2073 18.9891 17.8976 19.3494 17.5941C19.7712 17.2384 20.1974 16.8879 20.6226 16.5359C21.0105 16.2139 21.3984 15.8871 21.7955 15.5731C22.4719 15.0377 23.1531 14.5093 23.8367 13.981C24.0186 13.8387 24.2077 13.7083 24.3934 13.5726C24.9151 13.1932 25.431 12.8066 25.959 12.4343C26.685 11.9259 27.4224 11.4333 28.1714 10.9564C29.8374 9.89736 31.5562 8.93077 33.3632 8.11879C34.0695 7.8026 34.7881 7.51376 35.5189 7.25227C35.8026 7.15172 36.0915 7.06682 36.3771 6.97244C37.1037 6.73693 37.8446 6.54559 38.5953 6.3995C39.5384 6.20817 40.4967 6.09709 41.4594 6.0675C42.1787 6.04416 42.8988 6.0738 43.6136 6.15619C44.2589 6.232 44.8974 6.35487 45.524 6.52377C45.7363 6.58115 45.9463 6.64708 46.1572 6.71016C46.5782 6.83748 46.9911 6.98936 47.3936 7.165C48.18 7.50278 48.9339 7.90881 49.6462 8.37822C50.1098 8.6799 50.5564 9.00589 50.9839 9.35478C51.2492 9.57532 51.5076 9.80345 51.7709 10.0264C51.8243 10.0688 51.8804 10.1081 51.9386 10.144C51.9435 10.1473 51.9585 10.1416 51.9663 10.1364C51.974 10.1312 51.9862 10.1189 51.9852 10.1108C51.9842 10.0773 51.9786 10.0442 51.9687 10.0121C51.8577 9.72757 51.7486 9.43825 51.6317 9.15416C51.2888 8.31013 50.8934 7.48744 50.4477 6.69071C50.0145 5.91276 49.5132 5.17296 48.9495 4.47959C48.7381 4.223 48.5218 3.97163 48.291 3.73212C47.7357 3.15147 47.1113 2.63795 46.4311 2.20255C45.9661 1.9024 45.4736 1.64502 44.9601 1.43373C43.9309 1.01174 42.8354 0.76534 41.7212 0.705226C41.0141 0.669687 40.3052 0.687605 39.6009 0.75882C38.7931 0.842516 37.9926 0.983593 37.2057 1.18093C36.3972 1.38526 35.5997 1.62935 34.8164 1.91228C33.964 2.21393 33.1329 2.56253 32.313 2.93722C31.0083 3.53387 29.7433 4.20735 28.5079 4.92922C27.1018 5.74736 25.7321 6.62242 24.3909 7.53779C23.6307 8.0595 22.8753 8.58644 22.1344 9.13281C21.282 9.76124 20.4437 10.4086 19.6015 11.0504C19.2539 11.3155 18.9106 11.5863 18.5673 11.8566C18.2783 12.0849 17.9911 12.315 17.7057 12.5467C17.4374 12.7639 17.1704 12.9824 16.9047 13.2022C16.6395 13.4227 16.3782 13.6471 16.1144 13.869C15.9117 14.0393 15.7086 14.2081 15.5059 14.3779C15.2858 14.562 15.0628 14.7436 14.8455 14.9314C14.4105 15.3071 13.9775 15.6844 13.5466 16.0636C13.0618 16.4871 12.5769 16.9078 12.0959 17.3361C11.5907 17.7876 11.0897 18.2429 10.5929 18.702C9.85652 19.378 9.12179 20.0558 8.38869 20.7353C7.80298 21.2835 7.22503 21.8404 6.6432 22.3934C6.47301 22.5546 6.43423 22.5494 6.3038 22.3531C6.28489 22.3241 6.26695 22.2947 6.24853 22.2663C5.95761 21.8154 5.6667 21.3643 5.37578 20.9131C5.31372 20.8183 5.25036 20.7234 5.18572 20.6286C5.14596 20.5702 5.07371 20.5669 5.04559 20.6219C5.00971 20.6931 4.97383 20.7642 4.94377 20.8377C4.60696 21.6598 4.27047 22.4819 3.9343 23.304C3.65373 23.9886 3.37251 24.6728 3.09064 25.3567C2.67916 26.3549 2.26816 27.3544 1.85765 28.3551C1.55704 29.0922 1.25513 29.8295 0.951936 30.5672C0.93543 30.6092 0.925302 30.6533 0.921875 30.6981C0.921875 30.7133 0.948057 30.7308 0.966967 30.7531C0.999479 30.7535 1.03195 30.7508 1.06394 30.7451C1.45522 30.6398 1.84311 30.5321 2.23633 30.4249C3.14156 30.1797 4.04775 29.9369 4.95153 29.6903C6.22509 29.3425 7.49865 28.9946 8.77221 28.6468C9.49788 28.4486 10.2239 28.2502 10.9502 28.0516C11.0171 28.0336 11.083 28.0113 11.149 27.989C11.1597 27.9847 11.1693 27.9783 11.1773 27.9701C11.1853 27.9619 11.1914 27.9522 11.1952 27.9415C11.1991 27.9308 11.2006 27.9195 11.1996 27.9082C11.1987 27.897 11.1953 27.886 11.1897 27.8761C11.0927 27.7485 10.9996 27.6191 10.8988 27.4967C10.5773 27.1087 10.2525 26.7236 9.92908 26.3371C9.87769 26.2754 9.83211 26.2114 9.78362 26.1473C9.76978 26.1292 9.76279 26.1069 9.76385 26.0842C9.76491 26.0615 9.77395 26.04 9.78944 26.0231C9.83066 25.9832 9.87235 25.9439 9.91551 25.9064C10.2103 25.6498 10.507 25.3961 10.7999 25.1376C11.1529 24.826 11.502 24.5106 11.8535 24.1976C12.4964 23.6246 13.1398 23.052 13.7837 22.4797C14.2288 22.0822 14.6724 21.6824 15.1171 21.2845C15.5024 20.9402 15.8883 20.5966 16.2749 20.2539C16.6272 19.9418 16.981 19.6311 17.3363 19.3219C17.6495 19.0511 17.9627 18.7836 18.2764 18.5142Z" fill="white"/>
<path d="M26.7835 50.0818C27.3993 50.1767 28.1949 50.2919 29.2161 50.4271C30.2372 50.5623 31.4217 50.5855 32.7415 50.5021C34.0612 50.4186 35.5221 50.1354 37.0727 49.6607C38.6233 49.1859 40.3004 48.3858 42.0541 47.284C43.754 46.2208 45.3698 45.0342 46.8882 43.7345C48.3553 42.4724 49.7338 41.18 50.9842 39.8927C52.2347 38.6055 53.4017 37.3501 54.449 36.1625C55.4881 34.9834 56.4748 33.8802 57.381 32.8837L57.3979 32.8648C57.7679 32.4156 57.9061 31.9693 57.8081 31.5368C57.7254 31.1702 57.5294 30.8374 57.2467 30.5835C56.9546 30.3152 56.5755 30.1559 56.1756 30.1334C55.7436 30.1049 55.3286 30.2553 54.9766 30.5683L54.9431 30.5982L54.915 30.6328C54.1833 31.5486 53.3809 32.5209 52.53 33.5221C51.6863 34.5143 50.7457 35.5369 49.7343 36.5618C47.7192 38.6013 45.7138 40.3087 43.7739 41.6367C41.834 42.9647 39.9629 43.9934 38.2092 44.7077C36.4734 45.4144 34.8496 45.819 33.3829 45.9105C31.9366 46.0025 30.6866 45.8441 29.6641 45.4395C28.8558 45.1255 28.2095 44.6712 27.7382 44.0888C27.2517 43.4862 26.8921 42.7953 26.6802 42.056C26.4538 41.2663 26.3343 40.451 26.3248 39.6309C26.3135 38.9161 26.3751 38.2019 26.5086 37.499C31.1468 36.9772 35.6517 35.6456 39.8092 33.5677C44.0852 31.4301 47.7982 28.4311 50.8431 24.6539C52.049 23.3373 52.8674 22.0216 53.2757 20.7425C53.6897 19.442 53.7562 18.2288 53.4735 17.1332C53.191 16.0371 52.5706 15.0525 51.6965 14.3131C50.8097 13.5504 49.6829 13.0567 48.3481 12.8428C46.3868 12.4809 44.3339 12.4819 42.2544 12.8471C40.1957 13.2094 38.1862 13.8009 36.2649 14.61C34.4149 15.3837 32.6353 16.3093 30.9451 17.377C29.314 18.4157 27.9704 19.423 26.9508 20.3711C23.7861 23.3259 21.3405 26.202 19.6813 28.9121C18.0095 31.6463 16.969 34.5357 16.5884 37.5071C16.2102 40.8005 16.9045 43.605 18.652 45.8417C20.3994 48.0785 23.134 49.5051 26.7835 50.0818ZM30.4427 29.3939C31.8495 27.4339 33.4435 25.6091 35.2031 23.9439C36.975 22.2544 38.9562 20.7885 41.1004 19.5805C43.1819 18.4109 45.3269 17.7877 47.47 17.7279C47.711 17.7221 47.9521 17.7369 48.1905 17.772C49.1578 17.9248 49.3876 18.4436 49.4686 18.907C49.6339 19.8599 49.2746 20.9673 48.3951 22.1986C45.742 25.6485 42.5172 28.4032 38.8099 30.3857C35.3395 32.2374 31.5571 33.464 27.6432 34.0069C28.304 32.6229 29.2437 31.0739 30.4427 29.3939Z" fill="white"/>
<path d="M90.1197 29.7182H81.1852V25.49H88.8232C89.805 25.49 90.574 24.7278 90.574 23.755C90.574 22.7979 89.7886 22.0196 88.8232 22.0196H81.1852V17.8805H89.8977C90.8795 17.8805 91.6485 17.1183 91.6485 16.1456C91.6485 15.1728 90.8795 14.4102 89.8977 14.4102H79.4344C78.4691 14.4102 77.6836 15.1885 77.6836 16.1456V31.4536C77.6836 32.4103 78.4691 33.1886 79.4344 33.1886H90.1197C91.1016 33.1886 91.8705 32.4264 91.8705 31.4536C91.8705 30.4809 91.1016 29.7182 90.1197 29.7182Z" fill="white"/>
<path d="M104.442 29.7182H96.447V16.1456C96.447 15.1723 95.678 14.4102 94.6961 14.4102C93.7303 14.4102 92.9453 15.1885 92.9453 16.1456V31.4536C92.9453 32.4103 93.7303 33.1886 94.6961 33.1886H104.442C105.424 33.1886 106.193 32.4264 106.193 31.4536C106.193 30.4809 105.424 29.7182 104.442 29.7182Z" fill="white"/>
<path d="M121.035 17.1786L121.029 17.1729C120.131 16.3175 119.079 15.6316 117.926 15.1496C116.737 14.6621 115.462 14.4108 114.173 14.4102H109.054C108.588 14.4175 108.143 14.5989 107.809 14.9172C107.64 15.0757 107.506 15.2663 107.416 15.4772C107.325 15.6881 107.279 15.9149 107.281 16.1437V31.4536C107.282 31.9136 107.469 32.3546 107.801 32.6798C108.133 33.0051 108.584 33.1881 109.054 33.1886H114.128C116.696 33.1848 119.159 32.1925 120.984 30.4263C121.878 29.5769 122.593 28.5642 123.089 27.4454C123.612 26.314 123.883 25.0865 123.882 23.8447C123.879 22.6051 123.625 21.3784 123.137 20.2346C122.648 19.0909 121.934 18.0526 121.035 17.179V17.1786ZM119.902 26.0155C119.564 26.727 119.102 27.3753 118.535 27.9311C117.963 28.4779 117.288 28.911 116.547 29.2065C115.794 29.5106 114.989 29.6762 114.175 29.695H110.806V17.8805H114.175C114.99 17.879 115.797 18.0361 116.55 18.3427C117.303 18.6494 117.985 19.0994 118.559 19.6667C119.122 20.2138 119.577 20.8593 119.897 21.57C120.218 22.2878 120.384 23.063 120.382 23.8466C120.383 24.5948 120.219 25.3345 119.902 26.0155Z" fill="white"/>
<path d="M141.384 17.0295C139.564 15.166 137.124 14.1406 134.513 14.1406C132.571 14.1563 130.676 14.7255 129.06 15.7785C127.444 16.8315 126.177 18.3226 125.414 20.0692C124.89 21.2601 124.622 22.5436 124.625 23.8402C124.626 25.1249 124.886 26.3968 125.39 27.5833C125.869 28.7007 126.574 29.7399 127.489 30.678C128.383 31.5674 129.444 32.2794 130.614 32.7748C131.82 33.2965 133.125 33.5654 134.444 33.5641C137.063 33.5641 139.517 32.5382 141.357 30.678C142.244 29.7897 142.943 28.7378 143.411 27.5833C143.903 26.436 144.153 25.1768 144.153 23.8402C144.159 22.5589 143.908 21.2889 143.413 20.1024C142.918 18.9138 142.235 17.8794 141.384 17.0295ZM140.185 26.2648C139.839 27.0611 139.409 27.7109 138.867 28.2506C137.675 29.4401 136.103 30.0956 134.446 30.0956C132.772 30.0956 131.187 29.4316 129.973 28.2208C129.386 27.6454 128.921 26.9625 128.604 26.2112C128.288 25.4598 128.125 24.6548 128.127 23.8421C128.12 23.0232 128.291 22.2121 128.63 21.4631L128.641 21.4375C128.948 20.691 129.412 20.0158 130.003 19.4555C130.579 18.8762 131.268 18.4149 132.029 18.0981C132.815 17.7757 133.659 17.6101 134.511 17.611C135.33 17.6077 136.141 17.7694 136.893 18.0861C137.646 18.4028 138.323 18.8676 138.884 19.4517C140.024 20.6099 140.652 22.1689 140.652 23.8421C140.65 24.6709 140.492 25.4923 140.185 26.2648Z" fill="white"/>
<path d="M159.599 20.9418C159.599 19.924 159.435 18.9802 159.111 18.1336C158.823 17.3861 158.38 16.7054 157.808 16.1349C157.069 15.3969 156.093 14.8605 154.991 14.5859C154.509 14.459 154.011 14.392 153.512 14.3867H146.872C145.907 14.3867 145.121 15.165 145.121 16.1221V31.4297C145.121 32.3702 145.923 33.1651 146.872 33.1651C147.838 33.1651 148.623 32.3868 148.623 31.4297V17.8566H153.509C153.99 17.8816 154.459 18.0113 154.882 18.236C155.242 18.4656 155.504 18.7255 155.683 19.03C155.958 19.5436 156.097 20.1863 156.097 20.9414C156.097 22.0227 155.746 22.7043 154.96 23.1501C154.358 23.4906 153.54 23.6951 152.53 23.7572C152.105 23.7248 151.677 23.7519 151.259 23.8378C150.386 23.992 149.765 24.8139 149.863 25.6875C149.938 26.5782 150.694 27.274 151.589 27.274C151.756 27.274 151.923 27.2679 152.088 27.2622C152.223 27.2574 152.356 27.2522 152.485 27.2517C152.841 27.2764 153.187 27.3733 153.503 27.5363L153.522 27.5463C154.061 27.8087 154.518 28.2081 154.844 28.7026C155.373 29.4534 155.768 30.4783 156.02 31.7555C156.19 32.5727 156.912 33.1661 157.736 33.1661C157.801 33.1654 157.866 33.1595 157.93 33.1485L157.959 33.1438H158.018L158.076 33.1329C159.012 32.9598 159.628 32.0468 159.453 31.0934C159.095 29.2603 158.487 27.7507 157.642 26.6029C157.468 26.3711 157.282 26.1486 157.083 25.9365C158.71 24.8428 159.599 23.087 159.599 20.9418Z" fill="white"/>
<path d="M171.065 15.4337C170.81 14.8304 170.159 14.4102 169.476 14.4102C168.793 14.4102 168.191 14.782 167.879 15.4062L160.801 30.7441C160.394 31.6784 160.562 32.526 161.246 32.9609C161.508 33.1249 161.812 33.2123 162.123 33.2128C162.601 33.2128 163.086 33.006 163.484 32.6085C164.405 31.7268 165.417 30.9399 166.503 30.2603C167.469 29.6615 168.539 29.2418 169.661 29.0224C170.886 28.7528 172.157 28.7513 173.382 29.0182L174.797 32.1712L174.812 32.2025C175.252 33.0491 176.272 33.42 177.132 33.0463L177.154 33.0358C178.009 32.6261 178.389 31.6206 178.013 30.7332L171.065 15.4337ZM169.031 25.8257C168.255 25.9785 167.353 26.2645 166.482 26.624L169.445 20.324L171.829 25.5568C170.888 25.5363 169.949 25.6266 169.031 25.8257Z" fill="white"/>
<path d="M192.878 17.1786L192.872 17.1729C191.974 16.3175 190.922 15.6316 189.769 15.1496C188.581 14.6621 187.305 14.4107 186.016 14.4102H180.898C180.432 14.4174 179.987 14.5988 179.653 14.9172C179.484 15.0757 179.35 15.2662 179.26 15.4771C179.169 15.688 179.123 15.9148 179.125 16.1437V31.4536C179.126 31.9135 179.313 32.3545 179.645 32.6797C179.977 33.0049 180.428 33.1879 180.898 33.1886H185.973C188.541 33.185 191.004 32.1927 192.83 30.4263C193.723 29.5768 194.438 28.5641 194.934 27.4454C195.457 26.314 195.727 25.0864 195.727 23.8447C195.723 22.6049 195.47 21.3781 194.981 20.2343C194.492 19.0905 193.777 18.0521 192.878 17.1786ZM191.746 26.0155C191.38 26.7653 190.922 27.4103 190.379 27.9311C189.807 28.4781 189.132 28.9112 188.391 29.2065C187.637 29.5106 186.833 29.6762 186.018 29.695H182.648V17.8805H186.015C186.831 17.879 187.638 18.0361 188.391 18.3427C189.144 18.6494 189.826 19.0994 190.399 19.6667C190.963 20.2137 191.418 20.8593 191.739 21.57C192.06 22.2878 192.225 23.0631 192.223 23.8466C192.225 24.5946 192.062 25.3343 191.746 26.0155Z" fill="white"/>
<path d="M215.262 20.1048C214.764 18.9138 214.08 17.8785 213.234 17.0338C211.414 15.1689 208.973 14.1406 206.36 14.1406C204.419 14.1563 202.524 14.7255 200.908 15.7785C199.292 16.8315 198.025 18.3226 197.262 20.0692C196.738 21.26 196.469 22.5436 196.473 23.8402C196.474 25.1249 196.734 26.3968 197.237 27.5833C197.717 28.7007 198.421 29.7399 199.336 30.678C200.23 31.5673 201.291 32.2793 202.462 32.7748C203.668 33.2965 204.973 33.5654 206.292 33.5641C208.91 33.5641 211.365 32.5382 213.205 30.678C214.092 29.7897 214.79 28.7378 215.258 27.5833C215.751 26.436 216.001 25.1768 216.001 23.8402C216.007 22.5598 215.756 21.2906 215.262 20.1048ZM212.03 26.2662C211.685 27.0625 211.255 27.7123 210.712 28.2521C209.52 29.4416 207.948 30.097 206.292 30.097C204.618 30.097 203.032 29.433 201.818 28.2222C201.231 27.6468 200.766 26.9639 200.449 26.2126C200.133 25.4613 199.971 24.6562 199.972 23.8436C199.965 23.0246 200.137 22.2135 200.476 21.4645L200.487 21.4389C200.794 20.6924 201.258 20.0172 201.848 19.4569C202.426 18.8774 203.115 18.416 203.876 18.0995C204.662 17.7771 205.506 17.6115 206.358 17.6124C207.177 17.609 207.988 17.7706 208.74 18.0873C209.493 18.404 210.17 18.869 210.73 19.4531C211.871 20.6113 212.498 22.1703 212.498 23.8436C212.497 24.6725 212.338 25.4939 212.03 26.2662Z" fill="white"/>
<path d="M145.962 35.0605H83.5362C83.3479 35.0605 83.1953 35.2098 83.1953 35.394V50.6911C83.1953 50.8753 83.3479 51.0245 83.5362 51.0245H145.962C146.15 51.0245 146.303 50.8753 146.303 50.6911V35.394C146.303 35.2098 146.15 35.0605 145.962 35.0605Z" fill="white"/>
<path d="M135.434 35.0742H210.134C210.229 35.0742 210.321 35.1113 210.388 35.1774C210.456 35.2435 210.494 35.3332 210.494 35.4266V50.6858C210.494 50.7793 210.456 50.8689 210.388 50.935C210.321 51.0011 210.229 51.0382 210.134 51.0382H135.434V35.0742Z" fill="black"/>
<path d="M93.957 39.2378C94.1102 39.2525 94.1956 39.3407 94.1956 39.4749V40.1076C94.1956 40.2547 94.1102 40.3282 93.9396 40.3282H90.7676C89.9317 40.3282 89.522 40.5786 89.522 41.0932V41.2829C89.522 41.7387 89.8803 42.0916 90.58 42.3126L92.8491 43.0923C94.2654 43.5628 94.5553 44.1808 94.5553 45.1664V45.3281C94.5553 46.1078 94.2824 46.6376 93.7534 46.9023C93.2244 47.1669 92.3541 47.2992 91.109 47.2992C89.8978 47.2992 88.857 47.2551 87.9865 47.1669C87.8158 47.1521 87.7305 47.0785 87.7305 46.9464V46.299C87.7305 46.1519 87.8158 46.0784 87.9865 46.0784H91.1429C92.5252 46.0784 92.9369 45.9461 92.9369 45.3134V45.137C92.9369 44.6807 92.6983 44.4308 91.9473 44.1514L89.523 43.357C88.4311 42.9889 87.8851 42.2979 87.8851 41.253V40.9443C87.8851 40.1646 88.2604 39.6495 88.9431 39.4142C89.6427 39.1771 90.308 39.1055 91.349 39.1055C92.2201 39.1048 93.0906 39.149 93.957 39.2378Z" fill="black"/>
<path d="M91.1058 47.4684C89.8936 47.4684 88.8381 47.4239 87.9654 47.3352C87.7094 47.3133 87.5547 47.1682 87.5547 46.9467V46.2993C87.5547 46.0593 87.7191 45.9099 87.9833 45.9099H91.1397C92.6122 45.9099 92.7587 45.7373 92.7587 45.3138V45.1373C92.7587 44.7977 92.6273 44.5871 91.8806 44.3092L89.4645 43.5157C88.3009 43.1235 87.7089 42.3618 87.7089 41.252V40.9432C87.7089 40.1028 88.1147 39.5203 88.8822 39.2538C89.5727 39.0219 90.2398 38.9356 91.3453 38.9356C92.2231 38.9349 93.1003 38.9794 93.9732 39.0688C94.2123 39.0921 94.3669 39.25 94.3669 39.472V40.1047C94.3669 40.3451 94.2026 40.4941 93.9383 40.4941H90.7664C89.6934 40.4941 89.6934 40.9271 89.6934 41.0902V41.2799C89.6934 41.6594 90.009 41.9525 90.6316 42.1488L92.9051 42.93C94.4285 43.4361 94.7267 44.1323 94.7267 45.1634V45.3251C94.7267 46.1717 94.4251 46.7518 93.8307 47.0496C93.2707 47.3328 92.38 47.4684 91.1058 47.4684ZM87.9057 46.2604C87.9008 46.2728 87.8988 46.2861 87.8999 46.2993V46.9467C87.8999 46.9704 87.8999 46.9908 87.9969 46.9994C88.8609 47.0866 89.9053 47.1307 91.1043 47.1307C92.3034 47.1307 93.1684 47.0036 93.6702 46.7513C94.14 46.5142 94.3781 46.037 94.3781 45.3285V45.1667C94.3781 44.2476 94.1323 43.6988 92.7892 43.2525L90.5201 42.4723C89.5504 42.1669 89.3467 41.657 89.3467 41.2837V41.094C89.3467 40.4746 89.8238 40.1602 90.7649 40.1602H93.9383C93.9649 40.1626 93.9916 40.1582 94.0159 40.1474C94.0208 40.135 94.0228 40.1217 94.0217 40.1085V39.4734C94.0217 39.4459 94.0217 39.4141 93.9388 39.406C93.0777 39.3179 92.2125 39.2741 91.3468 39.2747C90.2835 39.2747 89.6464 39.3558 88.9971 39.5744C88.3731 39.7893 88.0555 40.2507 88.0555 40.9446V41.2534C88.0555 42.2171 88.5535 42.8527 89.577 43.198L91.997 43.99C92.701 44.2518 93.1044 44.5222 93.1044 45.1359V45.3123C93.1044 46.1836 92.3625 46.2462 91.1402 46.2462H87.9838C87.9572 46.2438 87.9305 46.2482 87.9062 46.259L87.9057 46.2604Z" fill="black"/>
<path d="M108.149 39.6472C108.746 40.1181 108.984 40.9567 108.984 42.4867L108.951 47.0029C108.951 47.1499 108.865 47.2234 108.695 47.2234H107.603C107.432 47.2234 107.347 47.1499 107.347 47.0029V42.6632C107.347 41.7658 107.227 41.2213 107.074 40.8832C107.033 40.7945 106.974 40.7149 106.901 40.6491C106.827 40.5833 106.741 40.5328 106.647 40.5004C106.255 40.3387 105.982 40.324 105.231 40.324C104.563 40.3171 103.896 40.3613 103.235 40.4563C103.423 40.8979 103.508 41.5894 103.508 42.5455L103.474 47.0038C103.474 47.1508 103.406 47.2244 103.252 47.2244H102.126C101.955 47.2244 101.87 47.1508 101.87 47.0038V42.5749C101.87 41.5011 101.802 40.942 101.392 40.6479C101 40.3534 100.692 40.3387 99.7542 40.3387H98.048V47.0029C98.048 47.1499 97.9632 47.2234 97.7925 47.2234H96.6662C96.4955 47.2234 96.4102 47.1499 96.4102 47.0029V39.5737C96.4102 39.4413 96.4955 39.3678 96.6662 39.3365C97.607 39.1766 98.5603 39.0973 99.5152 39.0994C100.658 39.0994 101.614 39.2464 102.348 39.5405C103.354 39.2317 104.259 39.0847 105.094 39.0847C106.596 39.0738 107.535 39.1914 108.149 39.6472Z" fill="black"/>
<path d="M108.696 47.3934H107.604C107.34 47.3934 107.176 47.2445 107.176 47.004V42.6643C107.176 41.9055 107.089 41.3301 106.918 40.9531C106.886 40.885 106.841 40.824 106.784 40.7737C106.728 40.7234 106.662 40.6848 106.59 40.6605C106.217 40.5068 105.953 40.494 105.232 40.494C104.643 40.4896 104.054 40.5232 103.469 40.5945C103.612 41.0456 103.681 41.6854 103.681 42.5467L103.647 47.005C103.647 47.2473 103.501 47.3929 103.253 47.3929H102.126C101.862 47.3929 101.698 47.244 101.698 47.0036V42.5761C101.698 41.5606 101.637 41.0337 101.291 40.7847C100.954 40.5324 100.716 40.5087 99.755 40.5087H98.2214V47.0064C98.2214 47.2469 98.0575 47.3958 97.7932 47.3958H96.6669C96.4026 47.3958 96.2383 47.2469 96.2383 47.0064V39.5748C96.2383 39.4505 96.2902 39.2328 96.6368 39.1731C97.5877 39.0127 98.551 38.9334 99.5159 38.9359C100.658 38.9359 101.613 39.0811 102.356 39.3671C103.349 39.0673 104.247 38.9212 105.095 38.9212C106.533 38.907 107.563 39.0014 108.254 39.5146L108.257 39.5174C108.897 40.0216 109.158 40.8819 109.158 42.4883L109.124 47.0059C109.125 47.2445 108.96 47.3934 108.696 47.3934ZM105.233 40.1563C105.99 40.1563 106.293 40.1719 106.716 40.346C106.829 40.3859 106.933 40.4475 107.022 40.5274C107.11 40.6072 107.182 40.7036 107.231 40.8108C107.425 41.2348 107.522 41.8566 107.522 42.6629V47.0026C107.521 47.016 107.523 47.0296 107.529 47.042C107.553 47.0523 107.579 47.0566 107.606 47.0543H108.698C108.724 47.0566 108.751 47.0522 108.776 47.0415C108.78 47.029 108.782 47.0158 108.781 47.0026L108.815 42.485C108.815 40.9967 108.592 40.2123 108.045 39.7816C107.516 39.3894 106.691 39.2423 105.1 39.2599C104.267 39.2599 103.385 39.4064 102.402 39.7081L102.343 39.7266L102.285 39.7033C101.576 39.4188 100.645 39.2765 99.5183 39.2765C98.5736 39.2739 97.6303 39.3518 96.6994 39.5094C96.5859 39.5288 96.5859 39.5568 96.5859 39.5781V47.004C96.5846 47.0175 96.5868 47.031 96.5922 47.0434C96.6164 47.0538 96.643 47.0581 96.6693 47.0557H97.7961C97.8227 47.0582 97.8494 47.0537 97.8737 47.0429C97.8782 47.0305 97.8801 47.0172 97.879 47.004V40.171H99.7579C100.712 40.171 101.065 40.1881 101.501 40.5148C101.964 40.8468 102.046 41.4449 102.046 42.5761V47.004C102.045 47.0175 102.047 47.031 102.052 47.0434C102.076 47.0538 102.103 47.058 102.129 47.0557H103.256C103.271 47.0566 103.286 47.0548 103.301 47.0505C103.301 47.0505 103.305 47.0339 103.305 47.0031L103.339 42.5448C103.339 41.5962 103.254 40.9322 103.079 40.522L102.995 40.3242L103.211 40.2905C103.88 40.1946 104.556 40.1497 105.233 40.1563Z" fill="black"/>
<path d="M118.08 41.4153V46.5642C118.08 46.77 117.978 46.9023 117.756 46.9758C117.091 47.1964 115.828 47.2993 113.968 47.2993C112.774 47.2993 111.921 47.1376 111.426 46.8288C110.932 46.5049 110.676 45.8727 110.676 44.9317C110.676 43.2399 111.645 42.666 113.695 42.666L116.443 42.6513V41.6657C116.443 40.739 115.812 40.3415 114.224 40.3415H111.665C111.46 40.3415 111.409 40.2974 111.409 40.121V39.5172C111.409 39.3555 111.458 39.3275 111.648 39.2801C112.501 39.1593 113.362 39.1003 114.224 39.1036C116.886 39.1046 118.08 39.8118 118.08 41.4153ZM116.443 43.8H113.727C112.755 43.8 112.294 44.0946 112.294 44.9032C112.294 45.8452 112.806 46.0951 114.256 46.0951C115.195 46.0951 115.911 46.0363 116.44 45.9187L116.443 43.8Z" fill="black"/>
<path d="M113.969 47.4672C112.749 47.4672 111.862 47.3002 111.334 46.9701C110.782 46.6087 110.504 45.9234 110.504 44.9307C110.504 43.2232 111.459 42.4962 113.696 42.4962L116.271 42.4824V41.6647C116.271 40.9713 115.923 40.5094 114.225 40.5094H111.666C111.454 40.5094 111.237 40.462 111.237 40.12V39.5162C111.237 39.2279 111.405 39.1648 111.608 39.1169C112.475 38.9926 113.351 38.9321 114.227 38.9357C117.013 38.9357 118.255 39.6998 118.255 41.4143V46.5632C118.255 46.7572 118.179 47.0137 117.814 47.1347C117.138 47.3585 115.881 47.4672 113.969 47.4672ZM111.585 40.1669C111.612 40.1703 111.639 40.1718 111.666 40.1712H114.225C115.407 40.1712 116.616 40.3491 116.616 41.6643V42.8177L113.697 42.8334C111.647 42.8334 110.849 43.421 110.849 44.9302C110.849 45.8034 111.076 46.3948 111.523 46.6851C111.992 46.9777 112.816 47.1271 113.969 47.1271C115.843 47.1271 117.063 47.0242 117.703 46.8126C117.875 46.7553 117.91 46.6737 117.91 46.5608V41.4143C117.91 39.9137 116.809 39.2734 114.225 39.2734C113.371 39.27 112.519 39.3283 111.674 39.4479C111.643 39.4546 111.613 39.4636 111.584 39.475C111.583 39.4887 111.583 39.5025 111.584 39.5162V40.1195C111.583 40.1418 111.584 40.1565 111.585 40.1669ZM114.259 46.261C112.875 46.261 112.126 46.0443 112.126 44.9003C112.126 43.7729 112.984 43.6283 113.732 43.6283H116.617V46.0505L116.483 46.0803C115.935 46.2018 115.208 46.261 114.259 46.261ZM113.731 43.966C112.68 43.966 112.47 44.3236 112.47 44.9003C112.47 45.6217 112.719 45.9234 114.26 45.9234C115.105 45.9234 115.766 45.8759 116.271 45.7811V43.966H113.731Z" fill="black"/>
<path d="M124.938 39.2672C125.109 39.3113 125.194 39.3995 125.194 39.5172V40.1337C125.194 40.2955 125.109 40.3543 124.921 40.3396H123.437C122.259 40.3396 121.952 40.5013 121.952 41.1634V47.0052C121.952 47.1522 121.867 47.2257 121.696 47.2257H120.588C120.417 47.2257 120.332 47.1522 120.332 47.0052V40.8267C120.332 40.194 120.639 39.723 120.98 39.5025C121.19 39.375 121.421 39.2854 121.662 39.2378C122.208 39.1055 122.498 39.1055 123.027 39.1055C123.949 39.1045 124.58 39.1643 124.938 39.2672Z" fill="black"/>
<path d="M121.699 47.3935H120.588C120.324 47.3935 120.16 47.2446 120.16 47.0041V40.8256C120.16 40.0914 120.535 39.5877 120.887 39.3605C121.115 39.2217 121.365 39.1239 121.628 39.0717C122.19 38.9355 122.488 38.9355 123.03 38.9355C123.939 38.9355 124.598 38.992 124.987 39.1034C125.332 39.1936 125.369 39.4222 125.369 39.5161V40.1326C125.373 40.185 125.365 40.2375 125.345 40.2866C125.326 40.3356 125.297 40.3802 125.259 40.4172C125.178 40.4898 125.065 40.5182 124.91 40.5069H123.439C122.235 40.5069 122.128 40.6771 122.128 41.1618V47.0041C122.126 47.2446 121.961 47.3935 121.699 47.3935ZM123.03 39.2732C122.496 39.2732 122.232 39.2732 121.706 39.4003C121.483 39.4441 121.269 39.5265 121.076 39.6437C120.802 39.821 120.507 40.2251 120.507 40.8256V47.0041C120.506 47.0175 120.508 47.031 120.513 47.0435C120.537 47.0538 120.563 47.0581 120.59 47.0558H121.699C121.725 47.0582 121.752 47.0538 121.776 47.043C121.781 47.0306 121.783 47.0173 121.782 47.0041V41.1637C121.782 40.3148 122.293 40.1711 123.439 40.1711H124.923C124.956 40.1753 124.988 40.1753 125.02 40.1711C125.02 40.1668 125.02 40.1554 125.02 40.136V39.5194C125.02 39.4748 124.951 39.4478 124.893 39.4326H124.888C124.644 39.3572 124.123 39.2732 123.028 39.2732H123.03Z" fill="black"/>
<path d="M128.422 36.9574C128.61 36.9133 128.713 36.9725 128.713 37.1471V39.1917H130.504C130.691 39.1917 130.777 39.2652 130.777 39.4123V40.1038C130.777 40.2508 130.691 40.3243 130.504 40.3243H128.713V45.2702C128.713 45.9176 128.917 46.0646 129.822 46.0646H130.641C130.828 46.0646 130.914 46.1381 130.914 46.2704V46.9776C130.914 47.1099 130.828 47.1834 130.658 47.2147C130.343 47.2772 130.023 47.3068 129.702 47.303C129.037 47.303 128.815 47.303 128.252 47.1853C127.501 47.0236 127.143 46.6266 127.074 45.6259V40.3262H126.119C125.949 40.3262 125.863 40.2527 125.863 40.1057V39.4142C125.863 39.2671 125.949 39.1936 126.119 39.1936H127.074V37.4283C127.074 37.296 127.143 37.2225 127.297 37.1912L128.422 36.9574Z" fill="black"/>
<path d="M129.703 47.4669C129.024 47.4669 128.797 47.4669 128.216 47.3455C127.354 47.1595 126.973 46.6634 126.903 45.6323V40.4939H126.12C125.856 40.4939 125.691 40.345 125.691 40.1045V39.413C125.691 39.173 125.856 39.0236 126.12 39.0236H126.903V37.4272C126.903 37.3029 126.951 37.0862 127.264 37.0259L128.385 36.7916C128.539 36.7556 128.665 36.7731 128.756 36.8438C128.815 36.8912 128.886 36.9795 128.886 37.1478V39.0236H130.505C130.784 39.0236 130.95 39.1692 130.95 39.413V40.1045C130.95 40.3483 130.784 40.4939 130.505 40.4939H128.886V45.269C128.886 45.7547 128.926 45.8946 129.822 45.8946H130.641C130.97 45.8946 131.087 46.0881 131.087 46.2693V46.9765C131.087 47.1007 131.035 47.3184 130.688 47.3782C130.364 47.4419 130.033 47.4717 129.703 47.4669ZM126.042 39.3746C126.037 39.3868 126.035 39.3999 126.036 39.413V40.1045C126.035 40.118 126.037 40.1315 126.042 40.1439C126.067 40.1543 126.093 40.1585 126.12 40.1562H127.247V45.6209C127.316 46.6127 127.681 46.8844 128.289 47.0158C128.833 47.1292 129.035 47.1292 129.703 47.1292C130.011 47.1332 130.319 47.1051 130.621 47.0452C130.741 47.0244 130.741 46.9978 130.741 46.9746V46.2683C130.742 46.2607 130.741 46.2529 130.738 46.2456C130.707 46.2339 130.674 46.2291 130.641 46.2314H129.822C128.936 46.2314 128.541 46.0924 128.541 45.2681V40.1562H130.505C130.538 40.1604 130.572 40.1549 130.602 40.1406C130.605 40.1288 130.607 40.1167 130.606 40.1045V39.413C130.607 39.4005 130.606 39.3878 130.601 39.376C130.571 39.3629 130.537 39.3578 130.504 39.3613H128.54V37.1478C128.54 37.1356 128.539 37.1234 128.537 37.1113C128.512 37.1112 128.487 37.1144 128.462 37.1208H128.458L127.332 37.3579C127.247 37.3741 127.247 37.3878 127.247 37.4281V39.3623H126.119C126.092 39.3596 126.066 39.3642 126.041 39.3755L126.042 39.3746Z" fill="black"/>
<path d="M146.797 39.1924C147.302 39.726 147.555 40.7941 147.555 42.4099C147.555 44.0405 147.302 45.1086 146.814 45.6422C146.325 46.1758 145.281 46.4362 143.697 46.4362C142.804 46.4362 142.063 46.4072 141.472 46.3494V49.0054C141.472 49.1477 141.389 49.2221 141.22 49.2221H140.108C139.94 49.2221 139.856 49.1499 139.855 49.0054V38.8893C139.855 38.7594 139.94 38.6726 140.125 38.6436C141.28 38.4856 142.445 38.4037 143.612 38.3984C145.23 38.3984 146.291 38.6583 146.797 39.1924ZM141.472 39.6107V45.1086C142.178 45.1821 142.886 45.2205 143.596 45.2239C144.606 45.2239 145.247 45.0508 145.516 44.7045C145.803 44.3436 145.938 43.5933 145.938 42.4247C145.938 41.256 145.803 40.5052 145.533 40.1448C145.264 39.7843 144.624 39.6107 143.629 39.6107H141.472Z" fill="white"/>
<path d="M141.217 49.306H140.105C139.89 49.306 139.766 49.1965 139.766 49.0049V38.8898C139.766 38.7868 139.81 38.6052 140.105 38.5606C141.265 38.4024 142.435 38.3201 143.606 38.3145C145.269 38.3145 146.332 38.5829 146.855 39.1354C147.378 39.688 147.636 40.7622 147.636 42.4104C147.636 44.0391 147.379 45.1456 146.873 45.6991C146.366 46.2526 145.326 46.521 143.691 46.521C142.846 46.521 142.128 46.4945 141.553 46.4428V49.0039C141.556 49.1965 141.431 49.306 141.217 49.306ZM143.609 38.4833C142.446 38.4889 141.285 38.5707 140.133 38.728C139.939 38.7584 139.939 38.8504 139.939 38.8898V49.0049C139.939 49.0717 139.952 49.1372 140.106 49.1372H141.217C141.371 49.1372 141.384 49.0717 141.384 49.0049V46.254L141.481 46.2635C142.062 46.3209 142.81 46.3498 143.696 46.3498C145.257 46.3498 146.284 46.0923 146.75 45.5843C147.228 45.0626 147.47 43.994 147.47 42.4066C147.47 40.8192 147.223 39.7615 146.735 39.2464C146.247 38.7313 145.199 38.4833 143.609 38.4833ZM143.593 45.3087C142.88 45.3056 142.168 45.267 141.459 45.193L141.382 45.185V39.5267H143.625C144.667 39.5267 145.312 39.7126 145.598 40.0959C145.885 40.4791 146.019 41.237 146.019 42.4256C146.019 43.6222 145.874 44.3848 145.58 44.7572C145.286 45.1295 144.641 45.3087 143.593 45.3087ZM141.556 45.0327C142.301 45.1048 142.968 45.1399 143.593 45.1399C144.57 45.1399 145.193 44.9763 145.445 44.6538C145.716 44.3113 145.848 43.5828 145.848 42.4246C145.848 41.2892 145.718 40.5389 145.46 40.1955C145.213 39.8635 144.595 39.696 143.626 39.696H141.555L141.556 45.0327Z" fill="white"/>
<path d="M156.332 40.6642V45.7149C156.332 45.9169 156.23 46.0469 156.012 46.1185C155.355 46.3353 154.108 46.4363 152.271 46.4363C151.092 46.4363 150.25 46.2774 149.761 45.9743C149.272 45.657 149.02 45.0367 149.02 44.1132C149.02 42.4532 149.98 41.8907 152.002 41.8907L154.715 41.8765V40.9094C154.715 40.0002 154.091 39.6108 152.524 39.6108H149.997C149.794 39.6108 149.744 39.5677 149.744 39.3946V38.8027C149.744 38.6438 149.792 38.6129 149.98 38.5717C150.823 38.4532 151.673 38.3954 152.524 38.3986C155.153 38.3986 156.332 39.0915 156.332 40.6642ZM154.717 43.002H152.038C151.078 43.002 150.622 43.2903 150.622 44.0843C150.622 45.0077 151.128 45.2529 152.562 45.2529C153.488 45.2529 154.196 45.1951 154.719 45.0798L154.717 43.002Z" fill="white"/>
<path d="M152.272 46.5212C151.083 46.5212 150.223 46.3613 149.715 46.0469C149.196 45.7101 148.934 45.0599 148.934 44.1146C148.934 42.476 149.822 41.8077 152.002 41.8077L154.629 41.794V40.9099C154.629 40.0476 154.019 39.6957 152.524 39.6957H149.997C149.783 39.6957 149.658 39.6483 149.658 39.395V38.8031C149.658 38.5769 149.772 38.5342 149.96 38.4901C150.809 38.3698 151.666 38.3111 152.524 38.3146C155.217 38.3146 156.418 39.0393 156.418 40.6647V45.7154C156.418 45.9525 156.291 46.1166 156.04 46.1991C155.382 46.4159 154.15 46.5212 152.272 46.5212ZM152.524 38.4834C151.677 38.48 150.831 38.5376 149.993 38.6556C149.831 38.694 149.831 38.703 149.831 38.8031V39.395C149.831 39.5093 149.831 39.5269 149.997 39.5269H152.524C154.121 39.5269 154.803 39.9405 154.803 40.9099V41.9609L152.005 41.9756C149.92 41.9756 149.108 42.5751 149.108 44.1137C149.108 44.9992 149.345 45.6015 149.811 45.9046C150.29 46.2015 151.12 46.3523 152.274 46.3523C154.133 46.3523 155.347 46.2499 155.987 46.0393C156.17 45.9791 156.248 45.8823 156.248 45.7154V40.6647C156.246 39.156 155.098 38.4834 152.524 38.4834ZM152.558 45.3378C151.216 45.3378 150.534 45.1438 150.534 44.0848C150.534 43.2666 150.983 42.918 152.037 42.918H154.801V45.1472L154.733 45.1619C154.2 45.2804 153.488 45.3378 152.558 45.3378ZM152.036 43.0892C151.08 43.0892 150.707 43.3691 150.707 44.0852C150.707 44.9261 151.122 45.1695 152.558 45.1695C153.436 45.1695 154.115 45.1182 154.629 45.0125V43.0892H152.036Z" fill="white"/>
<path d="M165.954 38.4707C166.122 38.4707 166.206 38.5433 166.206 38.6875V45.6424C166.206 47.1288 166.055 47.9227 165.465 48.5142C164.875 49.1056 163.949 49.2934 162.313 49.2934C161.463 49.2983 160.614 49.2549 159.769 49.1635C159.618 49.1493 159.533 49.0625 159.533 48.933V48.3121C159.533 48.168 159.617 48.0959 159.786 48.0959H162.282C163.209 48.0959 163.833 47.9801 164.135 47.7496C164.437 47.5191 164.59 47.0714 164.59 46.4074V46.3206C164.035 46.3932 163.293 46.4363 162.366 46.4363C160.799 46.4363 159.755 46.1764 159.249 45.6571C158.761 45.123 158.508 44.0697 158.508 42.4969V38.6875C158.508 38.5452 158.592 38.4707 158.761 38.4707H159.856C160.024 38.4707 160.109 38.5433 160.109 38.6875V42.4101C160.109 43.5792 160.244 44.3296 160.513 44.69C160.799 45.0509 161.44 45.2241 162.468 45.2241C163.177 45.2305 163.885 45.1968 164.59 45.123V38.6875C164.59 38.5452 164.675 38.4707 164.843 38.4707H165.954Z" fill="white"/>
<path d="M162.315 49.3783C161.462 49.3833 160.609 49.3398 159.761 49.2479C159.567 49.2298 159.448 49.1089 159.448 48.9334V48.3126C159.448 48.1229 159.572 48.0119 159.788 48.0119H162.282C163.191 48.0119 163.797 47.9014 164.083 47.6832C164.361 47.4712 164.503 47.0453 164.504 46.4169C163.795 46.4929 163.081 46.5277 162.367 46.5212C160.777 46.5212 159.708 46.2504 159.187 45.7149C158.679 45.1595 158.422 44.0772 158.422 42.4964V38.6879C158.422 38.4982 158.546 38.3867 158.761 38.3867H159.856C160.072 38.3867 160.195 38.4963 160.195 38.6879V42.4106C160.195 43.546 160.326 44.2963 160.583 44.6397C160.85 44.9755 161.467 45.1391 162.469 45.1391C163.149 45.145 163.828 45.1143 164.505 45.0471V38.6879C164.505 38.4982 164.629 38.3867 164.844 38.3867H165.957C166.172 38.3867 166.296 38.4963 166.296 38.6879V45.6428C166.296 47.0453 166.174 47.9279 165.53 48.5734C164.942 49.1601 164.071 49.3783 162.315 49.3783ZM159.787 48.1807C159.634 48.1807 159.621 48.2462 159.621 48.3126V48.9334C159.621 49.0207 159.674 49.07 159.779 49.08C160.621 49.1713 161.468 49.2145 162.315 49.2095C163.997 49.2095 164.863 48.9984 165.404 48.4558C165.945 47.9132 166.12 47.2084 166.12 45.6428V38.6879C166.12 38.621 166.108 38.5556 165.954 38.5556H164.842C164.689 38.5556 164.676 38.621 164.676 38.6879V45.1989L164.599 45.2074C163.891 45.2816 163.179 45.3155 162.466 45.3089C161.408 45.3089 160.746 45.1235 160.443 44.7426C160.159 44.3632 160.021 43.5991 160.021 42.4106V38.6879C160.021 38.621 160.008 38.5556 159.854 38.5556H158.759C158.606 38.5556 158.593 38.621 158.593 38.6879V42.4974C158.593 44.0355 158.835 45.0798 159.312 45.6016C159.797 46.0991 160.824 46.3524 162.367 46.3524C163.248 46.3524 163.993 46.3139 164.58 46.2376L164.677 46.2248V46.4093C164.677 47.0975 164.512 47.5713 164.188 47.8179C163.864 48.0645 163.23 48.1821 162.282 48.1821L159.787 48.1807Z" fill="white"/>
<path d="M180.109 38.9303C180.699 39.3923 180.933 40.2147 180.933 41.7154L180.9 46.1452C180.9 46.2897 180.816 46.3619 180.647 46.3619H179.569C179.401 46.3619 179.316 46.2897 179.316 46.1452V41.8885C179.316 41.0082 179.198 40.4746 179.047 40.1426C179.006 40.0555 178.948 39.9773 178.875 39.9127C178.803 39.8482 178.718 39.7986 178.625 39.767C178.238 39.6086 177.968 39.5939 177.227 39.5939C176.567 39.5872 175.908 39.6307 175.256 39.7238C175.441 40.1568 175.525 40.8351 175.525 41.7732L175.492 46.1452C175.492 46.2875 175.424 46.3619 175.273 46.3619H174.163C173.995 46.3619 173.911 46.2897 173.911 46.1452V41.8017C173.911 40.7483 173.843 40.2 173.439 39.9116C173.051 39.6228 172.748 39.6086 171.821 39.6086H170.137V46.1452C170.137 46.2875 170.053 46.3619 169.884 46.3619H168.772C168.603 46.3619 168.519 46.2897 168.52 46.1452V38.8583C168.52 38.7283 168.603 38.6562 168.772 38.6273C169.7 38.471 170.641 38.3937 171.584 38.3963C172.713 38.3963 173.657 38.5386 174.381 38.8293C175.375 38.5263 176.268 38.3821 177.094 38.3821C178.575 38.3674 179.502 38.4831 180.109 38.9303Z" fill="white"/>
<path d="M180.652 46.448H179.574C179.358 46.448 179.234 46.3384 179.234 46.1468V41.8901C179.234 41.135 179.146 40.5592 178.972 40.1784C178.936 40.1011 178.885 40.0318 178.821 39.9747C178.757 39.9176 178.682 39.8739 178.6 39.8464C178.221 39.6908 177.955 39.678 177.231 39.678C176.612 39.6729 175.993 39.7108 175.379 39.7914C175.538 40.2272 175.616 40.8775 175.616 41.7729L175.582 46.1459C175.582 46.3394 175.474 46.4461 175.277 46.4461H174.167C173.952 46.4461 173.828 46.3365 173.828 46.1449V41.8033C173.828 40.7798 173.762 40.2462 173.391 39.9816C173.023 39.707 172.742 39.697 171.825 39.697H170.225V46.1473C170.225 46.337 170.101 46.4485 169.885 46.4485H168.773C168.558 46.4485 168.434 46.3389 168.434 46.1473V38.8599C168.434 38.7418 168.489 38.5919 168.757 38.5459C169.692 38.3889 170.638 38.3111 171.586 38.3135C172.717 38.3135 173.659 38.4558 174.387 38.7404C175.37 38.443 176.257 38.2983 177.096 38.2983C178.494 38.2836 179.5 38.3742 180.163 38.8637C180.773 39.3408 181.021 40.167 181.021 41.7146L180.988 46.1454C180.991 46.3384 180.867 46.448 180.652 46.448ZM177.232 39.5111C177.982 39.5111 178.258 39.5253 178.664 39.6908C178.766 39.7264 178.86 39.7816 178.939 39.8532C179.019 39.9248 179.084 40.0113 179.129 40.1077C179.314 40.5123 179.407 41.1113 179.407 41.8901V46.1468C179.407 46.2137 179.42 46.2791 179.574 46.2791H180.652C180.805 46.2791 180.818 46.2137 180.818 46.1468L180.852 41.7165C180.852 40.2277 180.622 39.4399 180.06 38.9984C179.437 38.5402 178.424 38.4544 177.098 38.4681C176.267 38.4681 175.389 38.6133 174.41 38.9116L174.38 38.9206L174.352 38.9092C173.641 38.6246 172.711 38.4824 171.588 38.4824C170.65 38.48 169.714 38.5568 168.789 38.7119C168.622 38.7408 168.609 38.8034 168.609 38.8599V46.1468C168.609 46.2137 168.621 46.2791 168.774 46.2791H169.887C170.04 46.2791 170.053 46.2137 170.053 46.1468V39.5258H171.824C172.766 39.5258 173.085 39.5405 173.494 39.8459C173.924 40.1528 174 40.7219 174 41.8033V46.1468C174 46.2137 174.012 46.2791 174.166 46.2791H175.278C175.379 46.2791 175.411 46.2469 175.411 46.1468L175.445 41.7739C175.445 40.831 175.359 40.1713 175.182 39.7582L175.139 39.6591L175.248 39.642C175.905 39.5484 176.568 39.5047 177.232 39.5111Z" fill="white"/>
<path d="M189.713 39.1635C190.201 39.6686 190.471 40.6783 190.489 42.2084V42.6267C190.489 42.9298 190.371 43.0308 189.883 43.0308H184.524C184.541 43.9106 184.692 44.5011 184.979 44.7913C185.265 45.0816 185.872 45.2239 186.765 45.2239H189.528C189.697 45.2239 189.781 45.2961 189.781 45.4406V46.0767C189.781 46.2066 189.697 46.2934 189.545 46.3076C188.804 46.3944 187.861 46.4376 186.733 46.4376C185.166 46.4376 184.122 46.1777 183.633 45.6583C183.142 45.1229 182.891 44.0552 182.891 42.4247C182.891 40.7941 183.143 39.726 183.632 39.1924C184.121 38.6588 185.165 38.3984 186.732 38.3984C188.23 38.3984 189.224 38.6583 189.713 39.1635ZM184.961 40.0722C184.675 40.3753 184.525 40.9814 184.506 41.9053H188.87C188.853 40.9672 188.702 40.361 188.434 40.058C188.165 39.7549 187.591 39.6107 186.732 39.6107C185.838 39.6107 185.248 39.7687 184.962 40.0722H184.961Z" fill="white"/>
<path d="M186.728 46.521C185.132 46.521 184.068 46.2497 183.565 45.7147C183.058 45.1603 182.801 44.0547 182.801 42.4251C182.801 40.7954 183.058 39.6894 183.564 39.1364C184.063 38.591 185.128 38.3145 186.728 38.3145C188.241 38.3145 189.265 38.5805 189.773 39.1056C190.281 39.6306 190.555 40.6797 190.572 42.2074V42.6271C190.572 43.0379 190.329 43.1157 189.879 43.1157H184.609C184.634 43.9267 184.778 44.4707 185.038 44.7325C185.298 44.9943 185.899 45.1399 186.762 45.1399H189.526C189.742 45.1399 189.865 45.2495 189.865 45.4411V46.0771C189.865 46.2531 189.745 46.3735 189.551 46.392C188.81 46.4774 187.86 46.521 186.728 46.521ZM186.728 38.4833C185.179 38.4833 184.158 38.7408 183.693 39.2488C183.215 39.7705 182.973 40.8391 182.973 42.4265C182.973 44.0139 183.216 45.0825 183.692 45.6042C184.161 46.1027 185.183 46.3555 186.728 46.3555C187.853 46.3555 188.797 46.3119 189.532 46.2265C189.638 46.2161 189.692 46.1669 189.692 46.079V45.4411C189.692 45.3742 189.679 45.3087 189.525 45.3087H186.761C185.837 45.3087 185.215 45.1546 184.913 44.8506C184.612 44.5466 184.451 43.9357 184.434 43.0326V42.9468H189.88C190.377 42.9468 190.399 42.8368 190.399 42.6271V42.2088C190.383 40.7257 190.13 39.7202 189.648 39.2208C189.174 38.7318 188.191 38.4833 186.728 38.4833ZM188.956 41.9902H184.416V41.9038C184.434 40.9553 184.59 40.3387 184.894 40.0152C185.198 39.6918 185.816 39.5267 186.727 39.5267C187.638 39.5267 188.208 39.6828 188.494 40.001C188.784 40.3297 188.936 40.9496 188.953 41.902L188.956 41.9902ZM184.592 41.8213H188.78C188.756 40.9714 188.617 40.3985 188.365 40.1139C188.112 39.8293 187.567 39.6956 186.728 39.6956C185.868 39.6956 185.294 39.8417 185.022 40.13C184.761 40.407 184.616 40.9757 184.592 41.8213H184.592Z" fill="white"/>
<path d="M197.984 38.4995C198.405 38.5479 198.806 38.7019 199.148 38.9467C199.822 39.4087 199.99 40.2169 199.99 41.7754V46.1473C199.99 46.2896 199.889 46.3641 199.704 46.3641H198.625C198.457 46.3641 198.373 46.2918 198.373 46.1473V41.8906C198.373 41.0103 198.255 40.4768 198.103 40.1448C198.062 40.0596 198.004 39.9835 197.931 39.9214C197.859 39.8593 197.774 39.8125 197.682 39.7838C197.278 39.6249 197.008 39.6107 196.25 39.6107H193.942V46.1473C193.942 46.2918 193.858 46.3641 193.689 46.3641H192.577C192.409 46.3641 192.324 46.2918 192.324 46.1473V38.8604C192.324 38.6707 192.409 38.6583 192.577 38.6294C193.504 38.4705 194.684 38.3984 196.082 38.3984C196.906 38.3984 197.547 38.4274 197.984 38.4995Z" fill="white"/>
<path d="M199.709 46.4489H198.631C198.415 46.4489 198.291 46.3394 198.291 46.1478V41.891C198.291 41.136 198.203 40.5602 198.029 40.1793C197.992 40.1046 197.94 40.038 197.876 39.9837C197.813 39.9294 197.738 39.8885 197.657 39.8635C197.262 39.7084 196.991 39.6956 196.254 39.6956H194.033V46.1459C194.033 46.3356 193.909 46.447 193.693 46.447H192.582C192.366 46.447 192.242 46.3375 192.242 46.1459V38.8608C192.242 38.6023 192.4 38.5763 192.567 38.5469C193.479 38.3903 194.63 38.3145 196.086 38.3145C196.971 38.3145 197.58 38.3472 198.003 38.4164C198.437 38.4665 198.851 38.626 199.204 38.8793C199.941 39.3844 200.081 40.287 200.081 41.7758V46.1478C200.082 46.2383 200.045 46.4489 199.709 46.4489ZM193.861 39.5244H196.255C197.017 39.5244 197.299 39.5381 197.72 39.7036C197.821 39.7362 197.915 39.7887 197.996 39.8579C198.076 39.9271 198.141 40.0117 198.187 40.1063C198.371 40.5109 198.465 41.1099 198.465 41.8887V46.1454C198.465 46.2123 198.477 46.2777 198.631 46.2777H199.709C199.909 46.2777 199.909 46.1885 199.909 46.1454V41.7758C199.909 40.1253 199.706 39.429 199.104 39.0164C198.774 38.7789 198.386 38.6297 197.979 38.5834H197.975C197.567 38.516 196.949 38.4833 196.084 38.4833C194.658 38.4833 193.484 38.5606 192.593 38.7129C192.425 38.7418 192.411 38.7442 192.411 38.8608V46.1478C192.411 46.2146 192.424 46.2801 192.578 46.2801H193.689C193.843 46.2801 193.856 46.2146 193.856 46.1478L193.861 39.5244Z" fill="white"/>
<path d="M204.029 36.291C204.214 36.2479 204.315 36.3057 204.315 36.4807V38.4865H206.084C206.27 38.4865 206.353 38.5586 206.353 38.7028V39.381C206.353 39.5233 206.27 39.5973 206.084 39.5973H204.315V44.444C204.315 45.0791 204.517 45.2232 205.41 45.2232H206.219C206.404 45.2232 206.489 45.2953 206.489 45.4253V46.1178C206.489 46.2477 206.404 46.3198 206.236 46.3487C205.926 46.4102 205.609 46.4393 205.293 46.4355C204.635 46.4355 204.416 46.4355 203.86 46.3198C203.119 46.1614 202.765 45.7715 202.697 44.7907V39.5954H201.753C201.585 39.5954 201.5 39.5233 201.5 39.3791V38.7009C201.5 38.5567 201.584 38.4846 201.753 38.4846H202.697V36.753C202.697 36.623 202.764 36.5509 202.915 36.522L204.029 36.291Z" fill="white"/>
<path d="M205.296 46.5204C204.634 46.5204 204.411 46.5204 203.846 46.4032C203.027 46.2277 202.682 45.7776 202.615 44.7963V39.6802H201.757C201.542 39.6802 201.418 39.5707 201.418 39.3795V38.7013C201.418 38.5116 201.542 38.4006 201.757 38.4006H202.615V36.7534C202.615 36.5817 202.712 36.4759 202.904 36.4394L204.013 36.2089C204.14 36.1795 204.239 36.1918 204.309 36.2454C204.342 36.2743 204.369 36.3105 204.386 36.3511C204.402 36.3917 204.409 36.4356 204.406 36.4793V38.4006H206.089C206.398 38.4006 206.444 38.5903 206.444 38.7013V39.3795C206.444 39.4919 206.398 39.6802 206.089 39.6802H204.406V44.4444C204.406 44.9998 204.524 45.1392 205.415 45.1392H206.223C206.544 45.1392 206.579 45.3399 206.579 45.4238V46.1163C206.579 46.2344 206.523 46.3847 206.255 46.4303C205.939 46.4936 205.618 46.5238 205.296 46.5204ZM201.756 38.5694C201.603 38.5694 201.59 38.6344 201.59 38.7013V39.3795C201.59 39.4464 201.603 39.5114 201.756 39.5114H202.787V44.7911C202.848 45.6866 203.145 46.0802 203.881 46.2382C204.427 46.3515 204.646 46.3515 205.295 46.3515C205.605 46.3555 205.916 46.327 206.22 46.2666C206.391 46.2372 206.405 46.1746 206.405 46.1182V45.4257C206.405 45.3845 206.405 45.3081 206.221 45.3081H205.413C204.54 45.3081 204.231 45.1777 204.231 44.4444V39.5118H206.087C206.256 39.5118 206.269 39.4497 206.269 39.38V38.7013C206.269 38.6316 206.256 38.5694 206.087 38.5694H204.231V36.4793C204.233 36.4612 204.231 36.4429 204.226 36.4255C204.221 36.4081 204.212 36.3919 204.201 36.3778C204.175 36.3588 204.123 36.3569 204.051 36.3735H204.049L202.937 36.6045C202.81 36.6287 202.787 36.6751 202.787 36.7529V38.569L201.756 38.5694Z" fill="white"/>
</svg>
