<svg width="192" height="59" viewBox="0 0 192 59" fill="none" xmlns="http://www.w3.org/2000/svg">
<path d="M62.0206 31.6759C61.9595 31.6872 61.8981 31.6977 61.8379 31.7129C61.5167 31.7946 61.196 31.878 60.8748 31.9602L56.8707 32.9836C55.9375 33.2223 55.0046 33.4613 54.072 33.7007C53.7106 33.7928 53.3487 33.8827 52.9877 33.9757C52.9486 33.9879 52.9118 34.0064 52.8787 34.0305C52.8714 34.0372 52.8659 34.0456 52.8627 34.0549C52.8594 34.0642 52.8585 34.0742 52.86 34.084C52.8728 34.1231 52.8916 34.1599 52.9159 34.193C53.202 34.5624 53.4902 34.9318 53.7768 35.2991C53.8789 35.4294 53.9789 35.5628 54.0798 35.6954C54.0922 35.7121 54.1006 35.7314 54.1044 35.7519C54.1089 35.7717 54.1063 35.7925 54.0971 35.8106C54.0733 35.8445 54.0454 35.8753 54.014 35.9023C53.8322 36.0565 53.6465 36.2065 53.466 36.3625C53.1916 36.6002 52.9219 36.8436 52.648 37.0817C51.5269 38.0543 50.4145 39.0373 49.2974 40.013C48.1569 41.0125 47.0163 42.0073 45.8468 42.9712C45.2305 43.4792 44.6167 43.9903 43.9951 44.4922C43.3332 45.0273 42.6635 45.5517 41.9859 46.0654C41.2011 46.6617 40.4038 47.2411 39.5941 47.8037C38.2956 48.7007 36.9689 49.5495 35.5895 50.3156C34.6554 50.8341 33.7028 51.3152 32.722 51.7398C31.8293 52.13 30.9147 52.4678 29.983 52.7515C29.4471 52.9123 28.9052 53.0509 28.3568 53.1613C27.5345 53.3297 26.7004 53.4332 25.862 53.4707C25.3237 53.4928 24.7845 53.4822 24.2475 53.439C23.7517 53.399 23.2589 53.3289 22.7715 53.2291C22.0199 53.0762 21.285 52.8502 20.5771 52.5542C19.8017 52.2309 19.0611 51.8293 18.3666 51.3556C17.6634 50.877 17.002 50.339 16.3898 49.7476C16.3158 49.6755 16.2388 49.606 16.16 49.5386C16.1513 49.5312 16.124 49.5421 16.1072 49.5486C16.103 49.5513 16.0996 49.5551 16.0973 49.5595C16.0949 49.5639 16.0937 49.5688 16.0938 49.5738C16.1141 49.6538 16.131 49.7355 16.1587 49.8128C16.4283 50.5668 16.717 51.3126 17.0594 52.037C17.5403 53.0548 18.0952 54.0265 18.7881 54.9166C19.227 55.4834 19.7258 56.0008 20.2758 56.4598C21.0339 57.0934 21.8987 57.5857 22.8295 57.9135C23.5707 58.1715 24.3416 58.3337 25.1236 58.3963C25.7372 58.4393 26.3532 58.4349 26.9661 58.3832C27.7402 58.3168 28.5082 58.1919 29.2636 58.0095C30.3847 57.7427 31.4711 57.372 32.5419 56.9461C33.0137 56.7579 33.476 56.5476 33.9382 56.3377C34.4667 56.0973 34.9874 55.8405 35.5021 55.5719C36.8997 54.8423 38.2588 54.0448 39.5859 53.1926C41.1925 52.1613 42.7521 51.0631 44.2808 49.9184C44.9534 49.4147 45.6226 48.9054 46.2784 48.3809C46.7484 48.0054 47.2237 47.6364 47.6907 47.257C48.1737 46.8659 48.6503 46.4644 49.1294 46.0667C49.4489 45.8016 49.7709 45.54 50.0847 45.2688C51.011 44.4679 51.9459 43.6791 52.8549 42.8543C53.1539 42.5814 53.4608 42.3184 53.7638 42.0473C54.1412 41.7065 54.5148 41.3615 54.8892 41.0182C55.1805 40.7522 55.4726 40.4875 55.7618 40.2194C56.028 39.9726 56.2903 39.7214 56.5552 39.4728C56.6686 39.3663 56.7828 39.2611 56.898 39.156C56.9143 39.1436 56.9315 39.1324 56.9495 39.1225C56.964 39.1161 56.9801 39.1145 56.9957 39.1177C57.0112 39.121 57.0253 39.1291 57.036 39.1408C57.0875 39.2186 57.1412 39.295 57.1888 39.375C57.4671 39.8378 57.7433 40.302 58.0216 40.7657C58.0493 40.8092 58.0795 40.8512 58.1121 40.8913C58.1198 40.8979 58.1288 40.9029 58.1386 40.9058C58.1484 40.9087 58.1586 40.9095 58.1687 40.9081C58.1788 40.9068 58.1885 40.9033 58.1972 40.8979C58.2058 40.8925 58.2133 40.8854 58.219 40.8769C58.2371 40.84 58.2558 40.803 58.2718 40.7652C58.5701 40.0676 58.8679 39.3701 59.1651 38.6727C59.499 37.8905 59.8324 37.1065 60.1654 36.3208C60.3651 35.8526 60.5642 35.3841 60.7627 34.9153L62.082 31.8189C62.0898 31.7998 62.0937 31.7794 62.0998 31.7594C62.105 31.7203 62.0587 31.669 62.0206 31.6759Z" fill="#E8BB2E"/>
<path d="M15.4925 16.3344C15.8119 16.0532 16.1287 15.7694 16.4503 15.4913C16.8269 15.1654 17.2074 14.8442 17.5869 14.5218C17.9332 14.2267 18.2795 13.9272 18.634 13.6396C19.2378 13.1489 19.8459 12.6648 20.4562 12.1807C20.6185 12.0503 20.7873 11.9308 20.9531 11.8065C21.4188 11.4588 21.8794 11.1046 22.3507 10.7635C22.9988 10.2976 23.6572 9.84622 24.3258 9.40932C25.813 8.4389 27.3474 7.55322 28.9606 6.80921C29.591 6.51949 30.2325 6.25483 30.8849 6.01523C31.1381 5.92309 31.3961 5.8453 31.6511 5.75882C32.2997 5.54303 32.9611 5.3677 33.6313 5.23385C34.4732 5.05853 35.3286 4.95674 36.188 4.92964C36.8302 4.90825 37.473 4.93541 38.1111 5.0109C38.6871 5.08037 39.2572 5.19295 39.8165 5.34771C40.0061 5.40029 40.1935 5.4607 40.3818 5.5185C40.7576 5.63516 41.1262 5.77433 41.4855 5.93526C42.1875 6.24476 42.8605 6.61681 43.4964 7.04693C43.9103 7.32335 44.3089 7.62205 44.6906 7.94173C44.9274 8.14381 45.1581 8.35285 45.3931 8.5571C45.4409 8.59599 45.4909 8.63198 45.5429 8.66488C45.5472 8.66792 45.5606 8.66271 45.5676 8.65793C45.5745 8.65314 45.5853 8.64185 45.5844 8.63446C45.5835 8.60381 45.5786 8.57341 45.5697 8.54406C45.4706 8.28331 45.3732 8.01822 45.2689 7.7579C44.9628 6.98453 44.6098 6.23071 44.2119 5.50068C43.8252 4.78785 43.3777 4.10997 42.8745 3.47465C42.6857 3.23954 42.4927 3.00921 42.2867 2.78975C41.7909 2.2577 41.2335 1.78718 40.6263 1.38822C40.2112 1.1132 39.7716 0.877369 39.3131 0.683761C38.3944 0.297096 37.4164 0.0713237 36.4218 0.0162417C35.7905 -0.0163216 35.1577 9.64427e-05 34.529 0.0653496C33.8078 0.14204 33.0932 0.271307 32.3908 0.452128C31.669 0.63935 30.9571 0.86301 30.2578 1.12226C29.4968 1.39865 28.755 1.71807 28.023 2.06139C26.8583 2.60809 25.729 3.2252 24.6261 3.88664C23.3709 4.63629 22.1482 5.4381 20.9509 6.27684C20.2723 6.75489 19.5979 7.23771 18.9365 7.73835C18.1756 8.31417 17.4272 8.90738 16.6754 9.49537C16.3651 9.7383 16.0586 9.98645 15.7522 10.2342C15.4942 10.4433 15.2378 10.6541 14.983 10.8665C14.7435 11.0655 14.5052 11.2657 14.268 11.4671C14.0312 11.6692 13.7979 11.8747 13.5624 12.0781C13.3815 12.2341 13.2002 12.3888 13.0192 12.5444C12.8227 12.713 12.6236 12.8795 12.4297 13.0516C12.0413 13.3958 11.6548 13.7415 11.2702 14.0889C10.8373 14.477 10.4045 14.8625 9.97511 15.2549C9.5241 15.6686 9.07684 16.0858 8.63332 16.5065C7.97599 17.1259 7.3201 17.7469 6.66566 18.3696C6.14279 18.8719 5.62685 19.3821 5.10745 19.8889C4.95553 20.0366 4.9209 20.0318 4.80447 19.8519C4.78759 19.8254 4.77157 19.7985 4.75512 19.7724C4.49542 19.3592 4.23572 18.946 3.97602 18.5325C3.92062 18.4456 3.86406 18.3587 3.80635 18.2718C3.77086 18.2183 3.70637 18.2153 3.68126 18.2657C3.64923 18.3309 3.6172 18.3961 3.59037 18.4634C3.28969 19.2167 2.9893 19.97 2.6892 20.7233C2.43874 21.3505 2.18769 21.9775 1.93607 22.6041C1.56874 23.5188 1.20184 24.4346 0.835371 25.3516C0.567014 26.0269 0.297502 26.7025 0.0268358 27.3785C0.012101 27.4169 0.00305959 27.4573 0 27.4984C0 27.5123 0.0233731 27.5284 0.0402536 27.5488C0.0692771 27.5491 0.0982627 27.5466 0.126821 27.5414C0.476118 27.445 0.822386 27.3463 1.17342 27.2481C1.98152 27.0234 2.79049 26.8009 3.59729 26.5749C4.7342 26.2562 5.87112 25.9375 7.00803 25.6188L8.95362 25.0752C9.01335 25.0587 9.07222 25.0382 9.13109 25.0178C9.14063 25.0139 9.14925 25.008 9.15636 25.0005C9.16348 24.993 9.16893 24.984 9.17236 24.9743C9.1758 24.9645 9.17713 24.9541 9.17628 24.9438C9.17544 24.9335 9.17242 24.9234 9.16744 24.9144C9.08088 24.7975 8.99777 24.6788 8.90774 24.5667C8.62077 24.2112 8.33077 23.8583 8.04207 23.5042C7.99619 23.4477 7.95551 23.389 7.91222 23.3303C7.89986 23.3137 7.89362 23.2932 7.89457 23.2725C7.89551 23.2517 7.90359 23.2319 7.91742 23.2165C7.95421 23.18 7.99143 23.1439 8.02995 23.1096C8.29312 22.8744 8.55801 22.6419 8.81944 22.4051C9.13455 22.1196 9.44619 21.8306 9.75999 21.5437C10.3339 21.0188 10.9083 20.4941 11.4831 19.9697C11.8805 19.6055 12.2765 19.2392 12.6734 18.8745C13.0174 18.559 13.3619 18.2442 13.707 17.9302C14.0215 17.6442 14.3374 17.3596 14.6545 17.0762C14.9328 16.8263 15.2124 16.5812 15.4925 16.3344Z" fill="#E8BB2E"/>
<path d="M23.0842 45.2593C23.6339 45.3462 24.3441 45.4518 25.2557 45.5756C26.1672 45.6995 27.2247 45.7208 28.4028 45.6443C29.581 45.5678 30.8851 45.3084 32.2693 44.8733C33.6535 44.4383 35.1507 43.7052 36.7163 42.6956C38.2337 41.7214 39.6762 40.6342 41.0316 39.4432C42.3414 38.2868 43.572 37.1026 44.6882 35.9231C45.8045 34.7436 46.8463 33.5933 47.7813 32.5051C48.7088 31.4247 49.5897 30.4139 50.3986 29.5008L50.4138 29.4834C50.744 29.0719 50.8674 28.663 50.78 28.2666C50.7061 27.9307 50.5311 27.6258 50.2787 27.3931C50.018 27.1473 49.6796 27.0013 49.3226 26.9807C48.9369 26.9546 48.5664 27.0924 48.2522 27.3792L48.2223 27.4066L48.1972 27.4383C47.5441 28.2775 46.8277 29.1684 46.0681 30.0858C45.315 30.9949 44.4753 31.9319 43.5724 32.871C41.7735 34.7397 39.9833 36.3042 38.2516 37.5211C36.5198 38.7379 34.8495 39.6805 33.2839 40.335C31.7344 40.9825 30.2848 41.3532 28.9755 41.4371C27.6843 41.5214 26.5685 41.3763 25.6556 41.0056C24.9341 40.7179 24.3571 40.3015 23.9364 39.7679C23.5021 39.2158 23.1811 38.5827 22.992 37.9052C22.7898 37.1817 22.6831 36.4346 22.6747 35.6832C22.6646 35.0282 22.7195 34.3738 22.8387 33.7298C26.9793 33.2516 31.0008 32.0315 34.7123 30.1275C38.5294 28.1688 41.8441 25.421 44.5623 21.9599C45.6387 20.7535 46.3694 19.548 46.7338 18.3759C47.1035 17.1843 47.1628 16.0727 46.9104 15.0688C46.6582 14.0644 46.1044 13.1623 45.3241 12.4847C44.5324 11.7859 43.5265 11.3335 42.3349 11.1375C40.5841 10.8059 38.7515 10.8068 36.895 11.1414C35.0573 11.4735 33.2633 12.0154 31.5482 12.7568C29.8967 13.4657 28.308 14.3139 26.7992 15.2921C25.3431 16.2439 24.1437 17.1669 23.2335 18.0357C20.4084 20.7431 18.2252 23.3784 16.744 25.8616C15.2516 28.367 14.3227 31.0145 13.9829 33.7372C13.6453 36.7549 14.2651 39.3246 15.8251 41.3741C17.385 43.4236 19.8262 44.7308 23.0842 45.2593ZM26.3508 26.3032C27.6066 24.5072 29.0295 22.8351 30.6003 21.3094C32.1821 19.7613 33.9507 18.4181 35.8649 17.3112C37.7231 16.2395 39.6379 15.6685 41.5511 15.6137C41.7662 15.6084 41.9814 15.6219 42.1942 15.6541C43.0577 15.7941 43.2629 16.2695 43.3352 16.6941C43.4828 17.5672 43.1621 18.5819 42.3769 19.7101C40.0084 22.8713 37.1296 25.3953 33.8202 27.2119C30.7221 28.9086 27.3456 30.0325 23.8516 30.5299C24.4415 29.2618 25.2804 27.8425 26.3508 26.3032Z" fill="#E8BB2E"/>
<path d="M79.6233 26.5994H71.6474V22.725H78.4659C79.3424 22.725 80.0288 22.0267 80.0288 21.1353C80.0288 20.2584 79.3276 19.5452 78.4659 19.5452H71.6474V15.7526H79.425C80.3015 15.7526 80.988 15.0542 80.988 14.1629C80.988 13.2716 80.3015 12.5728 79.425 12.5728H70.0845C69.2227 12.5728 68.5215 13.2859 68.5215 14.1629V28.1895C68.5215 29.066 69.2227 29.7792 70.0845 29.7792H79.6233C80.4998 29.7792 81.1862 29.0808 81.1862 28.1895C81.1862 27.2982 80.4998 26.5994 79.6233 26.5994Z" fill="#E8BB2E"/>
<path d="M92.4177 26.5994H85.2802V14.1629C85.2802 13.2711 84.5938 12.5728 83.7173 12.5728C82.8551 12.5728 82.1543 13.2859 82.1543 14.1629V28.1895C82.1543 29.066 82.8551 29.7792 83.7173 29.7792H92.4172C93.2937 29.7792 93.9802 29.0808 93.9802 28.1895C93.9802 27.2982 93.2942 26.5994 92.4177 26.5994Z" fill="#E8BB2E"/>
<path d="M107.224 15.1094L107.219 15.1042C106.417 14.3204 105.478 13.6919 104.449 13.2503C103.388 12.8036 102.249 12.5733 101.099 12.5728H96.5292C96.1131 12.5795 95.7153 12.7457 95.4173 13.0373C95.2667 13.1826 95.1473 13.3572 95.0663 13.5504C94.9853 13.7437 94.9445 13.9515 94.9463 14.1612V28.1895C94.9467 28.6109 95.1136 29.015 95.4103 29.3131C95.7071 29.6111 96.1095 29.7787 96.5292 29.7792H101.059C103.351 29.7757 105.55 28.8665 107.179 27.2482C107.977 26.4699 108.615 25.5419 109.058 24.5168C109.525 23.4802 109.766 22.3553 109.766 21.2175C109.763 20.0817 109.537 18.9576 109.101 17.9097C108.664 16.8617 108.027 15.9103 107.224 15.1098V15.1094ZM106.213 23.2066C105.911 23.8586 105.498 24.4526 104.993 24.9618C104.482 25.4629 103.879 25.8598 103.218 26.1304C102.546 26.4091 101.827 26.5608 101.1 26.5781H98.0931V15.7526H101.1C101.828 15.7512 102.549 15.8952 103.221 16.1761C103.892 16.4571 104.502 16.8695 105.014 17.3892C105.517 17.8905 105.922 18.4821 106.209 19.1332C106.495 19.7909 106.643 20.5013 106.642 21.2192C106.642 21.9048 106.496 22.5826 106.213 23.2066Z" fill="#E8BB2E"/>
<path d="M125.389 14.9718C123.765 13.2648 121.587 12.3252 119.256 12.3252C117.522 12.3396 115.831 12.8611 114.388 13.826C112.946 14.7908 111.814 16.1571 111.133 17.7575C110.665 18.8487 110.426 20.0248 110.429 21.2129C110.43 22.39 110.662 23.5554 111.111 24.6426C111.539 25.6665 112.168 26.6186 112.985 27.4782C113.783 28.2931 114.731 28.9455 115.775 29.3995C116.852 29.8775 118.017 30.1239 119.195 30.1227C121.532 30.1227 123.723 29.1827 125.365 27.4782C126.158 26.6643 126.781 25.7004 127.199 24.6426C127.639 23.5913 127.862 22.4375 127.862 21.2129C127.867 20.0388 127.643 18.875 127.201 17.7879C126.759 16.6988 126.149 15.751 125.389 14.9718ZM124.319 23.4344C124.01 24.1641 123.627 24.7595 123.142 25.254C122.078 26.344 120.675 26.9446 119.196 26.9446C117.702 26.9446 116.286 26.3362 115.202 25.2267C114.679 24.6994 114.264 24.0737 113.981 23.3853C113.698 22.6969 113.554 21.9592 113.555 21.2146C113.549 20.4642 113.702 19.721 114.004 19.0347L114.014 19.0113C114.288 18.3273 114.702 17.7086 115.229 17.1951C115.744 16.6644 116.359 16.2416 117.038 15.9514C117.74 15.656 118.493 15.5042 119.254 15.505C119.985 15.502 120.709 15.6502 121.381 15.9404C122.052 16.2306 122.657 16.6565 123.158 17.1917C124.175 18.2529 124.736 19.6814 124.736 21.2146C124.734 21.974 124.593 22.7266 124.319 23.4344Z" fill="#E8BB2E"/>
<path d="M141.654 18.5591C141.654 17.6265 141.507 16.7617 141.218 15.9859C140.961 15.301 140.566 14.6773 140.055 14.1546C139.396 13.4784 138.525 12.9869 137.541 12.7353C137.11 12.6189 136.666 12.5576 136.22 12.5527H130.292C129.431 12.5527 128.729 13.2659 128.729 14.1429V28.169C128.729 29.0308 129.445 29.7592 130.292 29.7592C131.155 29.7592 131.856 29.046 131.856 28.169V15.7321H136.218C136.647 15.7551 137.066 15.8739 137.443 16.0798C137.765 16.2901 137.999 16.5283 138.158 16.8073C138.403 17.278 138.528 17.8668 138.528 18.5587C138.528 19.5495 138.215 20.174 137.513 20.5825C136.975 20.8946 136.245 21.0819 135.344 21.1388C134.964 21.1091 134.582 21.134 134.209 21.2127C133.43 21.3539 132.875 22.107 132.963 22.9075C133.03 23.7237 133.704 24.3612 134.503 24.3612C134.652 24.3612 134.802 24.3556 134.948 24.3504C135.069 24.346 135.188 24.3412 135.303 24.3408C135.621 24.3634 135.93 24.4522 136.212 24.6016L136.229 24.6107C136.71 24.8511 137.118 25.2171 137.41 25.6702C137.881 26.3581 138.234 27.2973 138.459 28.4676C138.611 29.2164 139.255 29.7601 139.991 29.7601C140.049 29.7594 140.107 29.7541 140.164 29.744L140.19 29.7396H140.242L140.295 29.7296C141.13 29.571 141.68 28.7344 141.523 27.8609C141.204 26.1813 140.661 24.798 139.907 23.7463C139.752 23.5339 139.585 23.33 139.408 23.1357C140.86 22.1336 141.654 20.5247 141.654 18.5591Z" fill="#E8BB2E"/>
<path d="M151.886 13.5106C151.659 12.9578 151.078 12.5728 150.468 12.5728C149.859 12.5728 149.321 12.9135 149.043 13.4854L142.723 27.5394C142.36 28.3955 142.51 29.1721 143.121 29.5706C143.355 29.7208 143.626 29.8009 143.904 29.8014C144.331 29.8014 144.763 29.6119 145.119 29.2477C145.941 28.4398 146.845 27.7188 147.814 27.0961C148.676 26.5473 149.632 26.1628 150.633 25.9618C151.727 25.7147 152.861 25.7134 153.955 25.9579L155.218 28.847L155.232 28.8757C155.624 29.6514 156.535 29.9913 157.302 29.6488L157.322 29.6393C158.086 29.2638 158.424 28.3425 158.089 27.5294L151.886 13.5106ZM150.071 23.0327C149.378 23.1727 148.573 23.4347 147.795 23.7641L150.44 17.9916L152.568 22.7863C151.729 22.7675 150.89 22.8502 150.071 23.0327Z" fill="#E8BB2E"/>
<path d="M171.36 15.1094L171.355 15.1042C170.553 14.3204 169.614 13.6919 168.585 13.2503C167.524 12.8036 166.385 12.5733 165.235 12.5728H160.666C160.25 12.5794 159.852 12.7456 159.554 13.0373C159.404 13.1826 159.284 13.3572 159.203 13.5504C159.122 13.7437 159.081 13.9515 159.083 14.1612V28.1895C159.084 28.6109 159.25 29.0149 159.547 29.3129C159.844 29.6109 160.246 29.7786 160.666 29.7792H165.196C167.488 29.776 169.687 28.8667 171.317 27.2482C172.115 26.4698 172.753 25.5418 173.196 24.5168C173.663 23.4801 173.904 22.3553 173.904 21.2175C173.9 20.0815 173.674 18.9574 173.237 17.9093C172.801 16.8613 172.163 15.9098 171.36 15.1094ZM170.35 23.2066C170.023 23.8936 169.614 24.4847 169.13 24.9618C168.619 25.463 168.016 25.8599 167.355 26.1304C166.682 26.4091 165.964 26.5608 165.236 26.5781H162.228V15.7526H165.234C165.962 15.7512 166.683 15.8952 167.355 16.1761C168.027 16.4571 168.636 16.8695 169.148 17.3892C169.651 17.8905 170.057 18.482 170.343 19.1332C170.63 19.791 170.777 20.5013 170.776 21.2192C170.777 21.9047 170.632 22.5824 170.35 23.2066Z" fill="#E8BB2E"/>
<path d="M191.341 17.7901C190.897 16.6988 190.286 15.7501 189.53 14.9762C187.905 13.2674 185.726 12.3252 183.394 12.3252C181.661 12.3396 179.969 12.8611 178.527 13.826C177.084 14.7908 175.953 16.1571 175.272 17.7575C174.804 18.8486 174.564 20.0248 174.567 21.2129C174.568 22.39 174.8 23.5554 175.25 24.6426C175.678 25.6665 176.307 26.6186 177.123 27.4782C177.922 28.2931 178.869 28.9454 179.914 29.3995C180.991 29.8775 182.156 30.1239 183.333 30.1227C185.67 30.1227 187.862 29.1827 189.504 27.4782C190.296 26.6643 190.919 25.7004 191.337 24.6426C191.777 23.5913 192 22.4375 192 21.2129C192.006 20.0396 191.782 18.8766 191.341 17.7901ZM188.456 23.4357C188.147 24.1654 187.763 24.7608 187.279 25.2553C186.215 26.3453 184.812 26.9459 183.333 26.9459C181.839 26.9459 180.423 26.3375 179.339 25.228C178.815 24.7008 178.4 24.075 178.117 23.3866C177.835 22.6982 177.69 21.9605 177.692 21.2159C177.685 20.4655 177.838 19.7223 178.141 19.036L178.151 19.0126C178.425 18.3286 178.839 17.7099 179.366 17.1964C179.882 16.6655 180.497 16.2427 181.176 15.9527C181.878 15.6573 182.632 15.5056 183.392 15.5063C184.124 15.5032 184.847 15.6513 185.519 15.9415C186.19 16.2317 186.795 16.6577 187.295 17.193C188.313 18.2542 188.873 19.6827 188.873 21.2159C188.872 21.9754 188.73 22.728 188.456 23.4357Z" fill="#E8BB2E"/>
<path d="M129.472 31.4946H73.7437C73.5757 31.4946 73.4395 31.6314 73.4395 31.8001V45.8168C73.4395 45.9855 73.5757 46.1223 73.7437 46.1223H129.472C129.64 46.1223 129.776 45.9855 129.776 45.8168V31.8001C129.776 31.6314 129.64 31.4946 129.472 31.4946Z" fill="#E8BB2E"/>
<path d="M120.072 31.5049H186.757C186.843 31.5049 186.924 31.5389 186.985 31.5995C187.045 31.66 187.079 31.7421 187.079 31.8278V45.8096C187.079 45.8953 187.045 45.9774 186.985 46.0379C186.924 46.0985 186.843 46.1325 186.757 46.1325H120.072V31.5049Z" fill="black"/>
<path d="M83.0536 35.3239C83.1904 35.3374 83.2665 35.4182 83.2665 35.5412V36.1209C83.2665 36.2556 83.1904 36.323 83.038 36.323H80.2064C79.4602 36.323 79.0944 36.5525 79.0944 37.024V37.1978C79.0944 37.6154 79.4143 37.9388 80.0389 38.1413L82.0646 38.8557C83.3289 39.2869 83.5877 39.8531 83.5877 40.7562V40.9044C83.5877 41.6188 83.344 42.1043 82.8718 42.3468C82.3996 42.5893 81.6226 42.7105 80.5111 42.7105C79.4299 42.7105 78.5007 42.6701 77.7237 42.5893C77.5713 42.5756 77.4951 42.5083 77.4951 42.3872V41.794C77.4951 41.6592 77.5713 41.5919 77.7237 41.5919H80.5414C81.7754 41.5919 82.1429 41.4706 82.1429 40.8909V40.7292C82.1429 40.3112 81.9299 40.0821 81.2595 39.8262L79.0953 39.0982C78.1206 38.761 77.6332 38.1278 77.6332 37.1704V36.8875C77.6332 36.1731 77.9682 35.7011 78.5776 35.4856C79.2022 35.2683 79.7961 35.2026 80.7254 35.2026C81.503 35.202 82.2802 35.2425 83.0536 35.3239Z" fill="black"/>
<path d="M80.5041 42.8625C79.422 42.8625 78.4797 42.8217 77.7006 42.7404C77.4721 42.7204 77.334 42.5874 77.334 42.3845V41.7913C77.334 41.5714 77.4807 41.4345 77.7166 41.4345H80.5344C81.8489 41.4345 81.9796 41.2763 81.9796 40.8882V40.7266C81.9796 40.4154 81.8623 40.2224 81.1957 39.9678L79.0389 39.2407C78.0001 38.8813 77.4716 38.1834 77.4716 37.1665V36.8835C77.4716 36.1135 77.8339 35.5798 78.5191 35.3356C79.1354 35.123 79.731 35.044 80.7179 35.044C81.5015 35.0433 82.2845 35.0841 83.0639 35.1661C83.2772 35.1874 83.4153 35.3321 83.4153 35.5355V36.1152C83.4153 36.3355 83.2686 36.472 83.0327 36.472H80.2011C79.2432 36.472 79.2432 36.8688 79.2432 37.0183V37.1921C79.2432 37.5398 79.525 37.8083 80.0808 37.9883L82.1103 38.704C83.4703 39.1677 83.7365 39.8057 83.7365 40.7505V40.8987C83.7365 41.6744 83.4673 42.2059 82.9366 42.4788C82.4367 42.7382 81.6416 42.8625 80.5041 42.8625ZM77.6474 41.7557C77.643 41.767 77.6412 41.7792 77.6422 41.7913V42.3845C77.6422 42.4062 77.6422 42.4249 77.7287 42.4327C78.5 42.5127 79.4324 42.5531 80.5028 42.5531C81.5732 42.5531 82.3453 42.4366 82.7933 42.2054C83.2127 41.9882 83.4253 41.551 83.4253 40.9017V40.7535C83.4253 39.9113 83.2058 39.4085 82.0069 38.9995L79.9812 38.2846C79.1155 38.0048 78.9337 37.5376 78.9337 37.1956V37.0217C78.9337 36.4542 79.3596 36.166 80.1998 36.166H83.0327C83.0564 36.1683 83.0803 36.1642 83.1019 36.1543C83.1063 36.143 83.1081 36.1308 83.1071 36.1187V35.5368C83.1071 35.5116 83.1071 35.4824 83.0331 35.4751C82.2644 35.3943 81.4921 35.3541 80.7192 35.3547C79.77 35.3547 79.2012 35.429 78.6217 35.6293C78.0646 35.8262 77.7811 36.2491 77.7811 36.8848V37.1678C77.7811 38.0508 78.2256 38.6332 79.1393 38.9495L81.2996 39.6753C81.9281 39.9152 82.2882 40.1629 82.2882 40.7253V40.8869C82.2882 41.6853 81.626 41.7426 80.5348 41.7426H77.717C77.6933 41.7404 77.6695 41.7444 77.6478 41.7544L77.6474 41.7557Z" fill="black"/>
<path d="M95.7241 35.6996C96.2573 36.1312 96.4703 36.8995 96.4703 38.3015L96.44 42.4396C96.44 42.5743 96.3638 42.6417 96.2114 42.6417H95.2367C95.0843 42.6417 95.0081 42.5743 95.0081 42.4396V38.4631C95.0081 37.6409 94.9017 37.142 94.7645 36.8322C94.7279 36.7509 94.6753 36.678 94.61 36.6177C94.5446 36.5574 94.4677 36.5111 94.384 36.4814C94.0334 36.3333 93.7897 36.3198 93.1197 36.3198C92.5234 36.3135 91.9276 36.354 91.3377 36.441C91.5052 36.8456 91.5814 37.4792 91.5814 38.3554L91.5507 42.4404C91.5507 42.5752 91.4901 42.6425 91.3529 42.6425H90.3474C90.195 42.6425 90.1188 42.5752 90.1188 42.4404V38.3823C90.1188 37.3984 90.0582 36.886 89.6925 36.6166C89.3423 36.3467 89.0679 36.3333 88.2304 36.3333H86.7072V42.4396C86.7072 42.5743 86.6315 42.6417 86.4791 42.6417H85.4737C85.3213 42.6417 85.2451 42.5743 85.2451 42.4396V35.6323C85.2451 35.511 85.3213 35.4437 85.4737 35.415C86.3135 35.2685 87.1645 35.1958 88.017 35.1977C89.0376 35.1977 89.8907 35.3324 90.5456 35.6018C91.4442 35.3189 92.2514 35.1842 92.9976 35.1842C94.3381 35.1742 95.1761 35.282 95.7241 35.6996Z" fill="black"/>
<path d="M96.2131 42.7954H95.2383C95.0024 42.7954 94.8557 42.659 94.8557 42.4386V38.4622C94.8557 37.7669 94.7782 37.2397 94.6254 36.8942C94.5973 36.8319 94.5568 36.7759 94.5064 36.7298C94.4561 36.6837 94.3968 36.6484 94.3324 36.6261C93.9995 36.4853 93.7641 36.4735 93.1205 36.4735C92.5944 36.4695 92.0687 36.5003 91.5467 36.5657C91.6739 36.979 91.7362 37.5652 91.7362 38.3544L91.7055 42.4395C91.7055 42.6616 91.5757 42.795 91.3536 42.795H90.3481C90.1123 42.795 89.9655 42.6585 89.9655 42.4382V38.3814C89.9655 37.4509 89.9114 36.9681 89.6024 36.7399C89.3016 36.5087 89.089 36.487 88.2311 36.487H86.8621V42.4408C86.8621 42.6611 86.7158 42.7976 86.4799 42.7976H85.4744C85.2385 42.7976 85.0918 42.6611 85.0918 42.4408V35.6313C85.0918 35.5175 85.1381 35.318 85.4476 35.2632C86.2964 35.1163 87.1564 35.0436 88.0178 35.0459C89.0371 35.0459 89.8898 35.1789 90.5529 35.441C91.4393 35.1659 92.2409 35.0325 92.9984 35.0325C94.2817 35.0194 95.2011 35.1059 95.8179 35.5761L95.8213 35.5787C96.3923 36.0407 96.6251 36.829 96.6251 38.301L96.5948 42.4404C96.5957 42.659 96.449 42.7954 96.2131 42.7954ZM93.1213 36.1641C93.7974 36.1641 94.0679 36.1785 94.4454 36.3379C94.5465 36.3745 94.6393 36.431 94.7183 36.5041C94.7974 36.5773 94.861 36.6656 94.9055 36.7638C95.0786 37.1524 95.1652 37.7221 95.1652 38.4609V42.4373C95.164 42.4496 95.1659 42.462 95.1708 42.4734C95.1924 42.4829 95.2161 42.4868 95.2396 42.4847H96.2144C96.2382 42.4868 96.2622 42.4828 96.284 42.473C96.2878 42.4615 96.2894 42.4494 96.2888 42.4373L96.3191 38.2979C96.3191 36.9342 96.12 36.2154 95.6318 35.8208C95.1595 35.4614 94.4233 35.3267 93.0023 35.3428C92.2587 35.3428 91.4718 35.477 90.5944 35.7534L90.5416 35.7704L90.4897 35.7491C89.8569 35.4883 89.0258 35.358 88.0199 35.358C87.1765 35.3556 86.3345 35.427 85.5034 35.5713C85.4021 35.5892 85.4021 35.6148 85.4021 35.6344V42.4386C85.401 42.4509 85.4029 42.4633 85.4078 42.4747C85.4294 42.4843 85.4531 42.4882 85.4766 42.486H86.4825C86.5062 42.4882 86.5301 42.4842 86.5517 42.4743C86.5558 42.4628 86.5574 42.4507 86.5565 42.4386V36.1776H88.2337C89.0856 36.1776 89.4002 36.1932 89.7898 36.4927C90.2031 36.7969 90.2763 37.3449 90.2763 38.3814V42.4386C90.2751 42.4509 90.2771 42.4633 90.2819 42.4747C90.3036 42.4842 90.3272 42.4881 90.3507 42.486H91.3562C91.37 42.4868 91.3837 42.4851 91.3969 42.4812C91.3969 42.4812 91.3999 42.466 91.3999 42.4378L91.4307 38.3527C91.4307 37.4835 91.3549 36.8751 91.1987 36.4992L91.1238 36.318L91.3164 36.2871C91.9139 36.1992 92.5174 36.1581 93.1213 36.1641Z" fill="black"/>
<path d="M104.589 37.319V42.0364C104.589 42.2254 104.498 42.3467 104.3 42.414C103.706 42.6161 102.579 42.7104 100.919 42.7104C99.8528 42.7104 99.091 42.5622 98.6495 42.2793C98.208 41.9825 97.9795 41.4032 97.9795 40.541C97.9795 38.9908 98.8452 38.465 100.675 38.465L103.128 38.4515V37.5484C103.128 36.6992 102.565 36.3351 101.147 36.3351H98.8629C98.6798 36.3351 98.6344 36.2947 98.6344 36.133V35.5798C98.6344 35.4316 98.6777 35.4059 98.8473 35.3625C99.609 35.2518 100.378 35.1978 101.147 35.2008C103.523 35.2017 104.589 35.8496 104.589 37.319ZM103.128 39.504H100.704C99.8355 39.504 99.4239 39.7739 99.4239 40.5149C99.4239 41.378 99.8809 41.607 101.176 41.607C102.014 41.607 102.653 41.5531 103.125 41.4453L103.128 39.504Z" fill="black"/>
<path d="M100.919 42.8628C99.8297 42.8628 99.038 42.7099 98.5662 42.4074C98.0736 42.0762 97.8252 41.4483 97.8252 40.5387C97.8252 38.9742 98.6774 38.308 100.675 38.308L102.973 38.2954V37.5461C102.973 36.9108 102.663 36.4875 101.147 36.4875H98.8627C98.6736 36.4875 98.4801 36.444 98.4801 36.1307V35.5775C98.4801 35.3133 98.6298 35.2555 98.8112 35.2116C99.5851 35.0977 100.366 35.0422 101.149 35.0456C103.636 35.0456 104.744 35.7457 104.744 37.3167V42.0341C104.744 42.2123 104.677 42.4474 104.351 42.5582C103.747 42.7633 102.626 42.8628 100.919 42.8628ZM98.79 36.1737C98.8141 36.1768 98.8384 36.1782 98.8627 36.1776H101.147C102.202 36.1776 103.282 36.3402 103.282 37.5457V38.6026L100.676 38.617C98.8458 38.617 98.1334 39.1554 98.1334 40.5382C98.1334 41.3383 98.3355 41.8802 98.7346 42.1462C99.1536 42.4143 99.8894 42.5512 100.919 42.5512C102.591 42.5512 103.681 42.4569 104.251 42.2631C104.406 42.2105 104.436 42.1358 104.436 42.0319V37.3167C104.436 35.9417 103.453 35.355 101.147 35.355C100.385 35.3519 99.6237 35.4053 98.8696 35.5149C98.8423 35.521 98.8156 35.5293 98.7896 35.5397C98.7888 35.5523 98.7888 35.5649 98.7896 35.5775V36.1303C98.7883 36.1503 98.7891 36.1642 98.79 36.1737ZM101.177 41.7577C99.9418 41.7577 99.273 41.5591 99.273 40.5109C99.273 39.4779 100.039 39.3453 100.707 39.3453H103.283V41.5647L103.163 41.5921C102.673 41.7034 102.025 41.7577 101.177 41.7577ZM100.706 39.6547C99.7682 39.6547 99.5803 39.9824 99.5803 40.5109C99.5803 41.1719 99.8024 41.4483 101.178 41.4483C101.933 41.4483 102.522 41.4048 102.974 41.3179V39.6547H100.706Z" fill="black"/>
<path d="M110.713 35.3508C110.865 35.3913 110.941 35.4721 110.941 35.5799V36.1448C110.941 36.293 110.865 36.3469 110.697 36.3334H109.372C108.321 36.3334 108.047 36.4816 108.047 37.0883V42.4411C108.047 42.5758 107.971 42.6431 107.819 42.6431H106.829C106.676 42.6431 106.601 42.5758 106.601 42.4411V36.7797C106.601 36.2 106.875 35.7685 107.179 35.5664C107.366 35.4496 107.572 35.3675 107.788 35.3239C108.276 35.2026 108.534 35.2026 109.007 35.2026C109.829 35.2018 110.393 35.2565 110.713 35.3508Z" fill="black"/>
<path d="M107.822 42.7953H106.83C106.595 42.7953 106.448 42.6589 106.448 42.4385V36.7772C106.448 36.1045 106.783 35.643 107.097 35.4348C107.3 35.3076 107.524 35.218 107.758 35.1701C108.261 35.0454 108.527 35.0454 109.01 35.0454C109.822 35.0454 110.41 35.0971 110.758 35.1993C111.065 35.2818 111.099 35.4913 111.099 35.5773V36.1423C111.102 36.1903 111.094 36.2384 111.077 36.2833C111.06 36.3283 111.034 36.3691 111 36.403C110.928 36.4695 110.827 36.4956 110.689 36.4852H109.375C108.3 36.4852 108.205 36.6408 108.205 37.0853V42.4385C108.203 42.6589 108.056 42.7953 107.822 42.7953ZM109.01 35.3548C108.534 35.3548 108.298 35.3548 107.828 35.4713C107.629 35.5114 107.438 35.5869 107.265 35.6942C107.021 35.8568 106.758 36.227 106.758 36.7772V42.4385C106.757 42.4508 106.758 42.4632 106.763 42.4746C106.785 42.4841 106.808 42.488 106.832 42.4859H107.822C107.845 42.4881 107.869 42.4841 107.891 42.4742C107.895 42.4628 107.897 42.4507 107.896 42.4385V37.0871C107.896 36.3092 108.352 36.1775 109.375 36.1775H110.7C110.729 36.1814 110.758 36.1814 110.787 36.1775C110.787 36.1736 110.787 36.1632 110.787 36.1453V35.5804C110.787 35.5395 110.725 35.5148 110.673 35.5009H110.669C110.451 35.4318 109.986 35.3548 109.008 35.3548H109.01Z" fill="black"/>
<path d="M113.818 33.2326C113.986 33.1921 114.078 33.2465 114.078 33.4064V35.2799H115.677C115.844 35.2799 115.921 35.3472 115.921 35.482V36.1156C115.921 36.2503 115.844 36.3177 115.677 36.3177H114.078V40.8495C114.078 41.4427 114.261 41.5774 115.068 41.5774H115.799C115.966 41.5774 116.043 41.6448 116.043 41.766V42.414C116.043 42.5352 115.966 42.6026 115.814 42.6313C115.533 42.6886 115.248 42.7156 114.961 42.7121C114.367 42.7121 114.169 42.7121 113.666 42.6043C112.996 42.4561 112.677 42.0924 112.615 41.1754V36.3194H111.763C111.61 36.3194 111.534 36.252 111.534 36.1173V35.4837C111.534 35.349 111.61 35.2816 111.763 35.2816H112.615V33.6641C112.615 33.5428 112.677 33.4755 112.814 33.4468L113.818 33.2326Z" fill="black"/>
<path d="M114.959 42.8632C114.353 42.8632 114.15 42.8632 113.632 42.752C112.862 42.5816 112.522 42.127 112.459 41.1822V36.474H111.761C111.525 36.474 111.378 36.3375 111.378 36.1172V35.4836C111.378 35.2637 111.525 35.1268 111.761 35.1268H112.459V33.664C112.459 33.5501 112.502 33.3515 112.782 33.2963L113.783 33.0816C113.92 33.0486 114.032 33.0647 114.113 33.1294C114.167 33.1729 114.23 33.2537 114.23 33.408V35.1268H115.675C115.924 35.1268 116.072 35.2602 116.072 35.4836V36.1172C116.072 36.3406 115.924 36.474 115.675 36.474H114.23V40.8494C114.23 41.2944 114.265 41.4226 115.066 41.4226H115.797C116.09 41.4226 116.195 41.5999 116.195 41.7659V42.4139C116.195 42.5277 116.148 42.7272 115.839 42.7819C115.549 42.8404 115.254 42.8676 114.959 42.8632ZM111.691 35.4484C111.686 35.4595 111.685 35.4716 111.686 35.4836V36.1172C111.685 36.1295 111.686 36.1419 111.691 36.1533C111.713 36.1628 111.737 36.1666 111.76 36.1646H112.767V41.1718C112.828 42.0805 113.154 42.3295 113.697 42.4495C114.183 42.5538 114.363 42.5538 114.959 42.5538C115.234 42.5575 115.509 42.5317 115.779 42.4769C115.886 42.4577 115.886 42.4334 115.886 42.4121V41.765C115.886 41.758 115.885 41.7509 115.883 41.7442C115.856 41.7335 115.826 41.729 115.797 41.7311H115.066C114.274 41.7311 113.922 41.6038 113.922 40.8485V36.1646H115.675C115.705 36.1683 115.735 36.1634 115.762 36.1502C115.765 36.1395 115.766 36.1283 115.766 36.1172V35.4836C115.767 35.472 115.765 35.4605 115.761 35.4497C115.734 35.4376 115.704 35.433 115.674 35.4362H113.921V33.408C113.921 33.3968 113.92 33.3856 113.918 33.3745C113.896 33.3744 113.873 33.3772 113.852 33.3828H113.848L112.843 33.6001C112.766 33.6149 112.766 33.6275 112.766 33.6644V35.4366H111.76C111.736 35.4342 111.712 35.4384 111.69 35.4488L111.691 35.4484Z" fill="black"/>
<path d="M130.222 35.2792C130.673 35.7682 130.899 36.7468 130.899 38.2275C130.899 39.7216 130.673 40.7002 130.237 41.1891C129.801 41.6781 128.868 41.9166 127.454 41.9166C126.658 41.9166 125.996 41.8901 125.469 41.8371V44.2708C125.469 44.4011 125.394 44.4694 125.243 44.4694H124.251C124.101 44.4694 124.026 44.4032 124.025 44.2708V35.0016C124.025 34.8825 124.101 34.8029 124.266 34.7764C125.297 34.6316 126.337 34.5565 127.379 34.5518C128.823 34.5518 129.771 34.7899 130.222 35.2792ZM125.469 35.6626V40.7002C126.099 40.7675 126.731 40.8028 127.364 40.8058C128.267 40.8058 128.838 40.6472 129.079 40.33C129.335 39.9993 129.455 39.3117 129.455 38.2409C129.455 37.1701 129.335 36.4822 129.094 36.1519C128.853 35.8216 128.282 35.6626 127.394 35.6626H125.469Z" fill="#E8BB2E"/>
<path d="M125.244 44.5466H124.251C124.059 44.5466 123.948 44.4462 123.948 44.2706V35.0022C123.948 34.9079 123.988 34.7415 124.251 34.7006C125.287 34.5556 126.331 34.4803 127.377 34.4751C128.861 34.4751 129.81 34.7211 130.277 35.2274C130.744 35.7337 130.974 36.718 130.974 38.2282C130.974 39.7205 130.745 40.7344 130.293 41.2416C129.841 41.7487 128.912 41.9947 127.452 41.9947C126.698 41.9947 126.057 41.9704 125.544 41.923V44.2697C125.546 44.4462 125.435 44.5466 125.244 44.5466ZM127.379 34.6298C126.341 34.635 125.305 34.7099 124.276 34.8541C124.103 34.8819 124.103 34.9662 124.103 35.0022V44.2706C124.103 44.3319 124.114 44.3919 124.252 44.3919H125.244C125.381 44.3919 125.393 44.3319 125.393 44.2706V41.75L125.479 41.7587C125.999 41.8113 126.666 41.8378 127.457 41.8378C128.85 41.8378 129.767 41.6018 130.184 41.1364C130.61 40.6583 130.826 39.6792 130.826 38.2247C130.826 36.7701 130.605 35.801 130.17 35.3291C129.734 34.8571 128.799 34.6298 127.379 34.6298ZM127.365 40.8839C126.728 40.881 126.093 40.8456 125.46 40.7779L125.391 40.7705V35.5859H127.393C128.324 35.5859 128.9 35.7562 129.155 36.1074C129.411 36.4585 129.531 37.153 129.531 38.2421C129.531 39.3385 129.401 40.0373 129.139 40.3785C128.877 40.7196 128.301 40.8839 127.365 40.8839ZM125.547 40.631C126.212 40.697 126.807 40.7292 127.365 40.7292C128.237 40.7292 128.793 40.5793 129.018 40.2837C129.26 39.97 129.378 39.3024 129.378 38.2412C129.378 37.2008 129.262 36.5133 129.032 36.1987C128.811 35.8944 128.26 35.741 127.394 35.741H125.546L125.547 40.631Z" fill="#E8BB2E"/>
<path d="M138.736 36.6279V41.2558C138.736 41.4409 138.645 41.56 138.45 41.6256C137.863 41.8242 136.75 41.9168 135.111 41.9168C134.058 41.9168 133.306 41.7712 132.87 41.4935C132.434 41.2027 132.208 40.6343 132.208 39.7882C132.208 38.2671 133.065 37.7517 134.87 37.7517L137.292 37.7387V36.8526C137.292 36.0195 136.735 35.6627 135.337 35.6627H133.081C132.9 35.6627 132.855 35.6231 132.855 35.4645V34.9221C132.855 34.7766 132.898 34.7483 133.065 34.7105C133.818 34.602 134.577 34.5489 135.337 34.5519C137.684 34.5519 138.736 35.1868 138.736 36.6279ZM137.294 38.7699H134.902C134.045 38.7699 133.639 39.0342 133.639 39.7617C133.639 40.6078 134.09 40.8325 135.37 40.8325C136.197 40.8325 136.829 40.7794 137.296 40.6738L137.294 38.7699Z" fill="#E8BB2E"/>
<path d="M135.114 41.9948C134.053 41.9948 133.285 41.8484 132.832 41.5602C132.368 41.2517 132.134 40.6559 132.134 39.7897C132.134 38.2883 132.927 37.6759 134.873 37.6759L137.218 37.6633V36.8533C137.218 36.0632 136.674 35.7407 135.339 35.7407H133.083C132.892 35.7407 132.78 35.6973 132.78 35.4652V34.9229C132.78 34.7156 132.883 34.6764 133.05 34.636C133.808 34.5258 134.573 34.472 135.339 34.4752C137.743 34.4752 138.815 35.1393 138.815 36.6286V41.2565C138.815 41.4738 138.702 41.6241 138.477 41.6997C137.89 41.8983 136.79 41.9948 135.114 41.9948ZM135.339 34.6299C134.583 34.6268 133.828 34.6795 133.08 34.7877C132.935 34.8229 132.935 34.8312 132.935 34.9229V35.4652C132.935 35.5699 132.935 35.586 133.083 35.586H135.339C136.764 35.586 137.374 35.965 137.374 36.8533V37.8163L134.875 37.8298C133.014 37.8298 132.29 38.3791 132.29 39.7889C132.29 40.6002 132.501 41.1522 132.917 41.4299C133.344 41.7019 134.085 41.8401 135.116 41.8401C136.775 41.8401 137.859 41.7462 138.43 41.5533C138.593 41.4981 138.663 41.4094 138.663 41.2565V36.6286C138.661 35.2462 137.637 34.6299 135.339 34.6299ZM135.37 40.9105C134.171 40.9105 133.563 40.7328 133.563 39.7624C133.563 39.0127 133.963 38.6933 134.904 38.6933H137.372V40.7358L137.311 40.7493C136.835 40.858 136.2 40.9105 135.37 40.9105ZM134.903 38.8502C134.05 38.8502 133.717 39.1066 133.717 39.7628C133.717 40.5333 134.088 40.7563 135.37 40.7563C136.154 40.7563 136.759 40.7093 137.218 40.6124V38.8502H134.903Z" fill="#E8BB2E"/>
<path d="M147.324 34.6196C147.474 34.6196 147.549 34.6861 147.549 34.8182V41.191C147.549 42.5529 147.414 43.2804 146.888 43.8224C146.361 44.3643 145.534 44.5364 144.074 44.5364C143.315 44.5408 142.557 44.5011 141.803 44.4173C141.668 44.4043 141.592 44.3247 141.592 44.2061V43.6372C141.592 43.5051 141.667 43.4391 141.818 43.4391H144.046C144.874 43.4391 145.431 43.333 145.7 43.1218C145.969 42.9106 146.107 42.5004 146.107 41.8919V41.8124C145.611 41.8789 144.949 41.9185 144.121 41.9185C142.722 41.9185 141.79 41.6803 141.339 41.2044C140.903 40.7151 140.677 39.7499 140.677 38.3088V34.8182C140.677 34.6879 140.752 34.6196 140.903 34.6196H141.88C142.031 34.6196 142.106 34.6861 142.106 34.8182V38.2293C142.106 39.3005 142.226 39.988 142.467 40.3183C142.722 40.649 143.294 40.8077 144.212 40.8077C144.845 40.8136 145.477 40.7827 146.107 40.7151V34.8182C146.107 34.6879 146.182 34.6196 146.332 34.6196H147.324Z" fill="#E8BB2E"/>
<path d="M144.074 44.6139C143.312 44.6186 142.551 44.5787 141.794 44.4944C141.621 44.4779 141.515 44.3671 141.515 44.2063V43.6374C141.515 43.4636 141.625 43.3619 141.818 43.3619H144.045C144.856 43.3619 145.397 43.2607 145.652 43.0607C145.901 42.8665 146.027 42.4762 146.029 41.9004C145.395 41.9701 144.758 42.002 144.12 41.996C142.701 41.996 141.747 41.7479 141.282 41.2572C140.828 40.7483 140.599 39.7566 140.599 38.3081V34.8184C140.599 34.6446 140.709 34.5425 140.902 34.5425H141.879C142.072 34.5425 142.182 34.6429 142.182 34.8184V38.2295C142.182 39.2699 142.298 39.9574 142.528 40.272C142.766 40.5797 143.317 40.7296 144.211 40.7296C144.818 40.735 145.425 40.7069 146.029 40.6453V34.8184C146.029 34.6446 146.139 34.5425 146.332 34.5425H147.325C147.517 34.5425 147.628 34.6429 147.628 34.8184V41.1912C147.628 42.4762 147.519 43.285 146.944 43.8765C146.419 44.414 145.642 44.6139 144.074 44.6139ZM141.818 43.5166C141.681 43.5166 141.669 43.5766 141.669 43.6374V44.2063C141.669 44.2863 141.717 44.3315 141.81 44.3406C142.561 44.4243 143.317 44.4639 144.074 44.4592C145.575 44.4592 146.348 44.2658 146.831 43.7687C147.314 43.2715 147.471 42.6257 147.471 41.1912V34.8184C147.471 34.7572 147.46 34.6972 147.323 34.6972H146.33C146.193 34.6972 146.181 34.7572 146.181 34.8184V40.7844L146.113 40.7922C145.481 40.8602 144.845 40.8913 144.209 40.8852C143.264 40.8852 142.673 40.7153 142.403 40.3663C142.149 40.0187 142.026 39.3185 142.026 38.2295V34.8184C142.026 34.7572 142.014 34.6972 141.877 34.6972H140.9C140.763 34.6972 140.751 34.7572 140.751 34.8184V38.309C140.751 39.7179 140.967 40.6753 141.393 41.1534C141.826 41.6092 142.743 41.8413 144.12 41.8413C144.907 41.8413 145.572 41.8061 146.096 41.7361L146.182 41.7244V41.8935C146.182 42.524 146.035 42.9582 145.746 43.1842C145.457 43.4101 144.891 43.5179 144.044 43.5179L141.818 43.5166Z" fill="#E8BB2E"/>
<path d="M159.959 35.0411C160.486 35.4644 160.695 36.2179 160.695 37.593L160.665 41.652C160.665 41.7844 160.59 41.8506 160.44 41.8506H159.477C159.327 41.8506 159.252 41.7844 159.252 41.652V37.7516C159.252 36.945 159.146 36.4557 159.011 36.1519C158.975 36.072 158.923 36.0004 158.858 35.9412C158.793 35.8821 158.717 35.8367 158.635 35.8077C158.289 35.6625 158.048 35.6491 157.387 35.6491C156.798 35.643 156.209 35.6828 155.627 35.7681C155.792 36.1649 155.867 36.7864 155.867 37.646L155.837 41.652C155.837 41.7823 155.777 41.8506 155.642 41.8506H154.651C154.501 41.8506 154.426 41.7844 154.426 41.652V37.672C154.426 36.7068 154.366 36.2045 154.005 35.9402C153.659 35.6756 153.388 35.6625 152.561 35.6625H151.057V41.652C151.057 41.7823 150.982 41.8506 150.831 41.8506H149.838C149.688 41.8506 149.613 41.7844 149.613 41.652V34.975C149.613 34.856 149.688 34.7899 149.838 34.7634C150.668 34.6202 151.507 34.5494 152.349 34.5517C153.357 34.5517 154.199 34.6821 154.846 34.9485C155.733 34.6708 156.53 34.5387 157.268 34.5387C158.59 34.5252 159.417 34.6313 159.959 35.0411Z" fill="#E8BB2E"/>
<path d="M160.44 41.9287H159.477C159.285 41.9287 159.174 41.8283 159.174 41.6528V37.7524C159.174 37.0605 159.095 36.5329 158.94 36.184C158.908 36.1132 158.862 36.0497 158.805 35.9974C158.748 35.945 158.681 35.905 158.608 35.8798C158.269 35.7372 158.032 35.7255 157.386 35.7255C156.833 35.7208 156.281 35.7555 155.733 35.8294C155.875 36.2287 155.944 36.8246 155.944 37.645L155.914 41.6519C155.914 41.8292 155.817 41.927 155.641 41.927H154.65C154.458 41.927 154.348 41.8266 154.348 41.651V37.6729C154.348 36.735 154.289 36.2461 153.958 36.0036C153.629 35.752 153.378 35.7429 152.559 35.7429H151.131V41.6532C151.131 41.827 151.021 41.9292 150.828 41.9292H149.835C149.643 41.9292 149.532 41.8288 149.532 41.6532V34.9758C149.532 34.8676 149.582 34.7303 149.821 34.6881C150.655 34.5442 151.5 34.473 152.346 34.4752C153.356 34.4752 154.197 34.6056 154.847 34.8663C155.725 34.5938 156.516 34.4613 157.265 34.4613C158.513 34.4478 159.411 34.5308 160.003 34.9793C160.547 35.4165 160.769 36.1735 160.769 37.5916L160.739 41.6515C160.742 41.8283 160.632 41.9287 160.44 41.9287ZM157.386 35.5725C158.056 35.5725 158.303 35.5856 158.665 35.7372C158.756 35.7698 158.84 35.8204 158.911 35.886C158.982 35.9516 159.04 36.0309 159.08 36.1192C159.245 36.4899 159.329 37.0388 159.329 37.7524V41.6528C159.329 41.714 159.34 41.774 159.477 41.774H160.44C160.576 41.774 160.588 41.714 160.588 41.6528L160.618 37.5933C160.618 36.2292 160.413 35.5073 159.911 35.1027C159.355 34.6829 158.451 34.6043 157.267 34.6169C156.526 34.6169 155.741 34.7499 154.867 35.0232L154.841 35.0315L154.815 35.021C154.181 34.7603 153.351 34.6299 152.348 34.6299C151.511 34.6277 150.675 34.6981 149.85 34.8402C149.701 34.8668 149.688 34.9241 149.688 34.9758V41.6528C149.688 41.714 149.7 41.774 149.837 41.774H150.829C150.967 41.774 150.978 41.714 150.978 41.6528V35.586H152.559C153.4 35.586 153.684 35.5995 154.05 35.8793C154.434 36.1605 154.501 36.682 154.501 37.6729V41.6528C154.501 41.714 154.512 41.774 154.65 41.774H155.643C155.732 41.774 155.761 41.7445 155.761 41.6528L155.791 37.6459C155.791 36.782 155.714 36.1775 155.556 35.7989L155.518 35.7081L155.615 35.6925C156.202 35.6067 156.794 35.5666 157.386 35.5725Z" fill="#E8BB2E"/>
<path d="M168.533 35.2527C168.969 35.7156 169.21 36.6408 169.225 38.0428V38.4261C169.225 38.7038 169.12 38.7963 168.684 38.7963H163.9C163.915 39.6025 164.051 40.1435 164.307 40.4095C164.562 40.6755 165.103 40.8058 165.901 40.8058H168.368C168.519 40.8058 168.594 40.872 168.594 41.0044V41.5872C168.594 41.7063 168.519 41.7858 168.383 41.7989C167.721 41.8784 166.879 41.9179 165.873 41.9179C164.474 41.9179 163.541 41.6798 163.105 41.2039C162.667 40.7133 162.442 39.735 162.442 38.2409C162.442 36.7468 162.668 35.7682 163.104 35.2792C163.54 34.7903 164.472 34.5518 165.871 34.5518C167.209 34.5518 168.097 34.7899 168.533 35.2527ZM164.291 36.0854C164.035 36.3631 163.901 36.9185 163.885 37.7651H167.78C167.765 36.9055 167.63 36.3501 167.391 36.0724C167.151 35.7947 166.639 35.6626 165.871 35.6626C165.073 35.6626 164.547 35.8073 164.291 36.0854H164.291Z" fill="#E8BB2E"/>
<path d="M165.871 41.9947C164.447 41.9947 163.497 41.7461 163.047 41.2559C162.595 40.7479 162.365 39.7349 162.365 38.2416C162.365 36.7484 162.595 35.735 163.047 35.2282C163.492 34.7285 164.442 34.4751 165.871 34.4751C167.222 34.4751 168.136 34.7189 168.589 35.2C169.043 35.6811 169.288 36.6424 169.302 38.0422V38.4268C169.302 38.8031 169.086 38.8744 168.684 38.8744H163.98C164.001 39.6175 164.13 40.116 164.362 40.3559C164.594 40.5958 165.131 40.7292 165.901 40.7292H168.369C168.561 40.7292 168.672 40.8296 168.672 41.0051V41.5879C168.672 41.7491 168.564 41.8595 168.392 41.8765C167.73 41.9547 166.882 41.9947 165.871 41.9947ZM165.871 34.6298C164.488 34.6298 163.577 34.8658 163.162 35.3312C162.735 35.8093 162.519 36.7884 162.519 38.2429C162.519 39.6975 162.736 40.6766 163.161 41.1546C163.58 41.6114 164.492 41.843 165.871 41.843C166.876 41.843 167.718 41.803 168.374 41.7248C168.469 41.7153 168.517 41.6702 168.517 41.5897V41.0051C168.517 40.9439 168.505 40.8839 168.368 40.8839H165.901C165.076 40.8839 164.52 40.7427 164.251 40.4641C163.982 40.1855 163.839 39.6258 163.823 38.7983V38.7197H168.685C169.128 38.7197 169.149 38.6188 169.149 38.4268V38.0435C169.134 36.6845 168.908 35.7632 168.478 35.3056C168.054 34.8575 167.177 34.6298 165.871 34.6298ZM167.86 37.8431H163.807V37.764C163.823 36.8949 163.963 36.3299 164.234 36.0335C164.506 35.7371 165.057 35.5859 165.87 35.5859C166.683 35.5859 167.193 35.7289 167.447 36.0205C167.707 36.3216 167.842 36.8896 167.857 37.7623L167.86 37.8431ZM163.964 37.6884H167.703C167.681 36.9096 167.557 36.3847 167.332 36.1239C167.107 35.8632 166.62 35.7406 165.871 35.7406C165.104 35.7406 164.591 35.8745 164.348 36.1387C164.115 36.3925 163.986 36.9135 163.965 37.6884H163.964Z" fill="#E8BB2E"/>
<path d="M175.918 34.6443C176.294 34.6887 176.652 34.8299 176.957 35.0541C177.559 35.4774 177.709 36.2179 177.709 37.646V41.652C177.709 41.7824 177.619 41.8506 177.453 41.8506H176.49C176.34 41.8506 176.265 41.7844 176.265 41.652V37.7516C176.265 36.945 176.16 36.4557 176.024 36.1519C175.988 36.0738 175.935 36.0042 175.871 35.9473C175.806 35.8904 175.73 35.8474 175.648 35.8212C175.288 35.6756 175.047 35.6626 174.37 35.6626H172.31V41.652C172.31 41.7844 172.234 41.8506 172.084 41.8506H171.091C170.941 41.8506 170.865 41.7844 170.865 41.652V34.975C170.865 34.8012 170.941 34.7899 171.091 34.7634C171.918 34.6178 172.971 34.5518 174.22 34.5518C174.956 34.5518 175.527 34.5783 175.918 34.6443Z" fill="#E8BB2E"/>
<path d="M177.453 41.9286H176.49C176.298 41.9286 176.187 41.8282 176.187 41.6527V37.7523C176.187 37.0604 176.108 36.5328 175.953 36.1839C175.92 36.1154 175.874 36.0544 175.817 36.0046C175.76 35.9548 175.693 35.9173 175.621 35.8944C175.268 35.7523 175.026 35.7406 174.369 35.7406H172.386V41.6509C172.386 41.8248 172.275 41.9269 172.083 41.9269H171.09C170.897 41.9269 170.787 41.8265 170.787 41.6509V34.9757C170.787 34.7389 170.928 34.715 171.077 34.688C171.891 34.5446 172.919 34.4751 174.219 34.4751C175.008 34.4751 175.552 34.5051 175.93 34.5685C176.318 34.6144 176.687 34.7606 177.002 34.9927C177.66 35.4555 177.785 36.2825 177.785 37.6467V41.6527C177.786 41.7357 177.753 41.9286 177.453 41.9286ZM172.232 35.5837H174.37C175.05 35.5837 175.301 35.5963 175.677 35.748C175.768 35.7778 175.851 35.8259 175.923 35.8893C175.995 35.9528 176.053 36.0302 176.094 36.117C176.259 36.4877 176.342 37.0365 176.342 37.7501V41.6505C176.342 41.7118 176.353 41.7717 176.49 41.7717H177.453C177.632 41.7717 177.632 41.69 177.632 41.6505V37.6467C177.632 36.1343 177.45 35.4964 176.913 35.1183C176.618 34.9007 176.272 34.764 175.908 34.7215H175.905C175.541 34.6598 174.989 34.6298 174.216 34.6298C172.943 34.6298 171.896 34.7006 171.1 34.8401C170.95 34.8667 170.938 34.8688 170.938 34.9757V41.6527C170.938 41.7139 170.949 41.7739 171.087 41.7739H172.079C172.216 41.7739 172.228 41.7139 172.228 41.6527L172.232 35.5837Z" fill="#E8BB2E"/>
<path d="M181.32 32.6234C181.485 32.5838 181.576 32.6368 181.576 32.7972V34.6351H183.155C183.32 34.6351 183.395 34.7011 183.395 34.8332V35.4547C183.395 35.5851 183.32 35.6529 183.155 35.6529H181.576V40.0939C181.576 40.6758 181.756 40.8079 182.553 40.8079H183.275C183.441 40.8079 183.516 40.8739 183.516 40.993V41.6275C183.516 41.7466 183.441 41.8126 183.29 41.8391C183.013 41.8955 182.731 41.9221 182.448 41.9187C181.861 41.9187 181.666 41.9187 181.17 41.8126C180.508 41.6675 180.192 41.3103 180.131 40.4115V35.6511H179.288C179.138 35.6511 179.063 35.5851 179.062 35.4529V34.8315C179.062 34.6994 179.138 34.6333 179.288 34.6333H180.131V33.0467C180.131 32.9276 180.19 32.8615 180.326 32.835L181.32 32.6234Z" fill="#E8BB2E"/>
<path d="M182.444 41.9957C181.853 41.9957 181.654 41.9957 181.15 41.8884C180.419 41.7276 180.111 41.3152 180.051 40.416V35.7282H179.285C179.093 35.7282 178.982 35.6278 178.982 35.4526V34.8312C178.982 34.6574 179.093 34.5557 179.285 34.5557H180.051V33.0464C180.051 32.889 180.138 32.7921 180.309 32.7587L181.299 32.5475C181.412 32.5205 181.501 32.5318 181.563 32.5809C181.593 32.6074 181.617 32.6405 181.632 32.6777C181.647 32.7149 181.653 32.7552 181.65 32.7952V34.5557H183.152C183.428 34.5557 183.469 34.7295 183.469 34.8312V35.4526C183.469 35.5556 183.428 35.7282 183.152 35.7282H181.65V40.0936C181.65 40.6025 181.756 40.7302 182.55 40.7302H183.272C183.559 40.7302 183.59 40.9141 183.59 40.991V41.6255C183.59 41.7337 183.54 41.8714 183.3 41.9132C183.019 41.9712 182.732 41.9989 182.444 41.9957ZM179.285 34.7104C179.147 34.7104 179.136 34.7699 179.136 34.8312V35.4526C179.136 35.5139 179.147 35.5735 179.285 35.5735H180.204V40.4112C180.259 41.2317 180.524 41.5924 181.181 41.7372C181.669 41.841 181.864 41.841 182.443 41.841C182.721 41.8446 182.997 41.8186 183.269 41.7632C183.422 41.7363 183.434 41.6789 183.434 41.6272V40.9927C183.434 40.9549 183.434 40.8849 183.271 40.8849H182.549C181.769 40.8849 181.494 40.7654 181.494 40.0936V35.5739H183.15C183.301 35.5739 183.313 35.517 183.313 35.4531V34.8312C183.313 34.7673 183.301 34.7104 183.15 34.7104H181.494V32.7952C181.496 32.7786 181.494 32.7619 181.489 32.7459C181.485 32.73 181.477 32.7151 181.466 32.7022C181.444 32.6848 181.397 32.683 181.333 32.6983H181.331L180.338 32.9099C180.226 32.9321 180.204 32.9747 180.204 33.0459V34.7099L179.285 34.7104Z" fill="#E8BB2E"/>
</svg>
