<svg width="25" height="24" viewBox="0 0 25 24" fill="none" xmlns="http://www.w3.org/2000/svg">
<path d="M24.1068 2.10027V12.1216C24.1068 12.6739 23.883 13.1739 23.521 13.5358C23.1591 13.8978 22.6591 14.1216 22.1068 14.1216C21.0022 14.1216 20.1068 13.2262 20.1068 12.1216L20.1068 6.92875L3.72203 23.3135C2.94098 24.0946 1.67464 24.0946 0.893599 23.3135C0.112555 22.5325 0.112556 21.2661 0.893599 20.4851L17.2784 4.10033L12.0855 4.10037C10.981 4.10033 10.0855 3.20491 10.0855 2.10036C10.0855 0.99573 10.9809 0.100354 12.0856 0.100311L22.1068 0.100311C23.2113 0.100313 24.1068 0.995775 24.1068 2.10027Z" fill="#007EFF"/>
</svg>
