<svg width="34" height="25" viewBox="0 0 34 25" fill="none" xmlns="http://www.w3.org/2000/svg">
<path d="M15.182 18.7559H9.58203C7.64536 18.7559 5.99476 18.1707 4.63023 17.0003C3.2657 15.8299 2.58296 14.4151 2.58203 12.7559C2.58203 11.0959 3.26476 9.68106 4.63023 8.51146C5.9957 7.34186 7.6463 6.75666 9.58203 6.75586H15.182V9.15586H9.58203C8.41536 9.15586 7.4237 9.50586 6.60703 10.2059C5.79036 10.9059 5.38203 11.7559 5.38203 12.7559C5.38203 13.7559 5.79036 14.6059 6.60703 15.3059C7.4237 16.0059 8.41536 16.3559 9.58203 16.3559H15.182V18.7559ZM10.982 13.9559V11.5559H22.182V13.9559H10.982ZM17.982 18.7559V16.3559H23.582C24.7487 16.3559 25.7404 16.0059 26.557 15.3059C27.3737 14.6059 27.782 13.7559 27.782 12.7559C27.782 11.7559 27.3737 10.9059 26.557 10.2059C25.7404 9.50586 24.7487 9.15586 23.582 9.15586H17.982V6.75586H23.582C25.5187 6.75586 27.1698 7.34106 28.5352 8.51146C29.9007 9.68186 30.583 11.0967 30.582 12.7559C30.582 14.4159 29.8993 15.8311 28.5338 17.0015C27.1684 18.1719 25.5178 18.7567 23.582 18.7559H17.982Z" fill="white"/>
</svg>
