<svg width="492" height="464" viewBox="0 0 492 464" fill="none" xmlns="http://www.w3.org/2000/svg">
<g clip-path="url(#clip0_1613_6407)">
<path opacity="0.18" d="M288.309 458.202C293.303 460.269 298.824 460.572 304.213 460.829C349.696 463.031 395.211 464.085 440.756 463.992C445.309 463.992 449.962 463.946 454.229 462.36C458.495 460.775 462.359 457.293 463.11 452.785C434.592 450.562 405.873 450.779 377.456 449.722C362.558 449.171 347.087 451.044 332.266 452.466C324.756 453.191 317.258 454.041 309.773 455.015C305.065 455.637 292.498 459.935 288.309 458.202Z" fill="#1D2741"/>
<path d="M377.378 444.142L380.885 452.793L366.715 459.523L353.63 460.479C353.63 460.479 351.392 451.829 357.501 451.059C361.072 450.65 364.48 449.328 367.397 447.22L377.378 444.142ZM388.629 448.051C386.853 448.787 385.309 449.993 384.161 451.539C383.013 453.086 382.304 454.915 382.109 456.834L381.729 460.479H397.82V448.044L388.629 448.051Z" fill="#68A4FD"/>
<path opacity="0.22" d="M490.839 51.6542V267.628C490.84 270.771 490.224 273.883 489.026 276.787C487.828 279.691 486.072 282.329 483.858 284.552C481.644 286.774 479.015 288.537 476.122 289.739C473.229 290.941 470.128 291.56 466.997 291.559H23.8412C17.5181 291.559 11.454 289.037 6.98292 284.549C2.51183 280.062 0 273.975 0 267.628V51.6542C0.00819522 45.31 2.52266 39.2279 6.99197 34.7418C11.4613 30.2558 17.5206 27.7319 23.8412 27.7236H467.013C473.331 27.736 479.386 30.2617 483.852 34.7473C488.318 39.2329 490.83 45.3126 490.839 51.6542Z" fill="url(#paint0_linear_1613_6407)"/>
<path d="M492 50.8534V266.819C492.001 272.296 490.131 277.607 486.703 281.867C483.275 286.127 478.495 289.079 473.16 290.229C471.518 290.577 469.844 290.751 468.166 290.75H24.9944C21.8626 290.752 18.7611 290.134 15.8672 288.933C12.9733 287.731 10.3438 285.968 8.12889 283.746C5.91401 281.523 4.15723 278.885 2.95898 275.98C1.76072 273.076 1.14449 269.963 1.14551 266.819V50.8534C1.15166 44.5064 3.66628 38.4212 8.13749 33.9332C12.6087 29.4453 18.6712 26.9212 24.9944 26.915H468.166C473.957 26.9161 479.549 29.0331 483.898 32.8706C488.247 36.7081 491.055 42.0036 491.798 47.7678C491.936 48.7905 492.003 49.8215 492 50.8534Z" fill="#68A4FD"/>
<path d="M492 50.8534V266.819C492.001 272.296 490.131 277.607 486.703 281.867C483.275 286.127 478.495 289.079 473.16 290.229C471.518 290.577 469.844 290.751 468.166 290.75H24.9944C21.8626 290.752 18.7611 290.134 15.8672 288.933C12.9733 287.731 10.3438 285.968 8.12889 283.746C5.91401 281.523 4.15723 278.885 2.95898 275.98C1.76072 273.076 1.14449 269.963 1.14551 266.819V50.8534C1.15166 44.5064 3.66628 38.4212 8.13749 33.9332C12.6087 29.4453 18.6712 26.9212 24.9944 26.915H468.166C473.957 26.9161 479.549 29.0331 483.898 32.8706C488.247 36.7081 491.055 42.0036 491.798 47.7678C491.936 48.7905 492.003 49.8215 492 50.8534Z" fill="url(#paint1_linear_1613_6407)"/>
<path d="M490.653 48.5764H0.201172C0.946024 42.8116 3.75597 37.516 8.10623 33.6786C12.4565 29.8412 18.0496 27.7244 23.841 27.7236H467.013C472.805 27.7228 478.399 29.839 482.749 33.6766C487.1 37.5143 489.909 42.8109 490.653 48.5764Z" fill="url(#paint2_linear_1613_6407)"/>
<path d="M320.334 216.852H154.429C151.043 216.852 148.297 219.608 148.297 223.008V233.135C148.297 236.534 151.043 239.29 154.429 239.29H320.334C323.721 239.29 326.467 236.534 326.467 233.135V223.008C326.467 219.608 323.721 216.852 320.334 216.852Z" fill="white" stroke="#68A4FD" stroke-width="0.88" stroke-miterlimit="10"/>
<path d="M162.823 233.259C165.512 233.259 167.693 231.07 167.693 228.37C167.693 225.67 165.512 223.481 162.823 223.481C160.133 223.481 157.952 225.67 157.952 228.37C157.952 231.07 160.133 233.259 162.823 233.259Z" fill="#68A4FD"/>
<path d="M177.976 233.259C180.666 233.259 182.846 231.07 182.846 228.37C182.846 225.67 180.666 223.481 177.976 223.481C175.286 223.481 173.105 225.67 173.105 228.37C173.105 231.07 175.286 233.259 177.976 233.259Z" fill="#68A4FD"/>
<path d="M193.137 233.259C195.827 233.259 198.007 231.07 198.007 228.37C198.007 225.67 195.827 223.481 193.137 223.481C190.447 223.481 188.267 225.67 188.267 228.37C188.267 231.07 190.447 233.259 193.137 233.259Z" fill="#68A4FD"/>
<path d="M208.29 233.259C210.98 233.259 213.161 231.07 213.161 228.37C213.161 225.67 210.98 223.481 208.29 223.481C205.601 223.481 203.42 225.67 203.42 228.37C203.42 231.07 205.601 233.259 208.29 233.259Z" fill="#68A4FD"/>
<path d="M338.492 227.034V224.453H340.521V222.79H338.492V221.547H340.521V219.883H336.456V227.034C335.221 227.287 334.123 227.992 333.376 229.011C332.629 230.03 332.286 231.291 332.413 232.55C332.539 233.809 333.127 234.976 334.062 235.825C334.998 236.673 336.213 237.143 337.474 237.143C338.735 237.143 339.95 236.673 340.886 235.825C341.821 234.976 342.409 233.809 342.535 232.55C342.662 231.291 342.319 230.03 341.572 229.011C340.825 227.992 339.727 227.287 338.492 227.034ZM337.478 235.583C336.778 235.585 336.093 235.378 335.51 234.988C334.927 234.599 334.472 234.045 334.203 233.396C333.934 232.747 333.863 232.033 333.999 231.343C334.134 230.654 334.471 230.02 334.965 229.522C335.46 229.025 336.09 228.686 336.777 228.548C337.464 228.41 338.175 228.48 338.822 228.749C339.47 229.018 340.023 229.473 340.412 230.057C340.801 230.641 341.009 231.328 341.009 232.031C341.009 232.973 340.637 233.876 339.976 234.543C339.314 235.21 338.416 235.587 337.478 235.591V235.583Z" fill="#68A4FD"/>
<path d="M267.634 97.7974H216.824C211.795 97.7974 207.718 101.89 207.718 106.937V157.939C207.718 162.987 211.795 167.079 216.824 167.079H267.634C272.663 167.079 276.74 162.987 276.74 157.939V106.937C276.74 101.89 272.663 97.7974 267.634 97.7974Z" fill="url(#paint3_linear_1613_6407)"/>
<path d="M267.913 97.7974H220.765C215.894 97.7974 211.945 101.761 211.945 106.65V158.226C211.945 163.115 215.894 167.079 220.765 167.079H267.913C272.784 167.079 276.732 163.115 276.732 158.226V106.65C276.732 101.761 272.784 97.7974 267.913 97.7974Z" fill="#68A4FD"/>
<path d="M279.404 132.664L275.842 136.06L274.294 137.521C273.073 136.059 271.524 134.908 269.774 134.164C268.024 133.419 266.123 133.102 264.227 133.239C263.398 133.34 262.558 133.202 261.804 132.843C259.241 131.381 263.26 126.399 263.26 126.399C264.144 126.38 265.028 126.419 265.908 126.516C265.985 126.508 266.063 126.508 266.14 126.516L266.845 126.601C270.205 127.083 275.68 128.692 279.404 132.664Z" fill="white"/>
<path opacity="0.39" d="M275.703 135.742L275.842 136.06L274.293 137.521C273.073 136.059 271.524 134.908 269.774 134.164C268.024 133.419 266.123 133.102 264.227 133.239C263.398 133.34 262.558 133.202 261.804 132.843L263.259 126.399C263.259 126.399 264.692 126.399 265.908 126.516C265.985 126.508 266.063 126.508 266.14 126.516C266.376 126.53 266.612 126.559 266.845 126.601C266.845 126.601 267.689 130.223 267.061 131.747C267.061 131.77 273 132.765 275.703 135.742Z" fill="url(#paint4_linear_1613_6407)"/>
<path d="M243.43 112.401H241.029C239.101 112.401 237.537 113.971 237.537 115.907V148.97C237.537 150.905 239.101 152.475 241.029 152.475H243.43C245.358 152.475 246.922 150.905 246.922 148.97V115.907C246.922 113.971 245.358 112.401 243.43 112.401Z" fill="url(#paint5_linear_1613_6407)"/>
<path d="M264.212 131.894C264.173 136.089 262.486 140.1 259.519 143.054C256.551 146.008 252.541 147.668 248.362 147.671H244.947C244.431 147.671 243.926 147.525 243.49 147.25C243.053 146.975 242.702 146.583 242.477 146.117C242.268 145.696 242.17 145.228 242.193 144.758C242.215 144.288 242.356 143.832 242.604 143.432C242.851 143.033 243.197 142.703 243.607 142.475C244.017 142.247 244.478 142.128 244.947 142.13H246.217C247.593 142.13 248.956 141.855 250.225 141.319C251.494 140.784 252.644 139.999 253.607 139.012C254.57 138.024 255.326 136.854 255.832 135.569C256.338 134.284 256.584 132.91 256.554 131.529C256.461 128.79 255.307 126.196 253.337 124.299C251.367 122.401 248.738 121.351 246.008 121.37H244.459C243.859 121.37 243.284 121.131 242.86 120.706C242.436 120.28 242.198 119.703 242.198 119.101V118.137C242.198 117.535 242.436 116.958 242.86 116.532C243.284 116.107 243.859 115.868 244.459 115.868H248.09C256.863 115.86 264.274 123.073 264.212 131.894Z" fill="white"/>
<path opacity="0.39" d="M259.984 132.531C259.953 136.18 258.489 139.668 255.909 142.238C253.33 144.809 249.844 146.253 246.209 146.257H243.235C242.972 146.257 242.711 146.215 242.461 146.133C242.252 145.711 242.155 145.243 242.177 144.773C242.199 144.304 242.341 143.847 242.588 143.448C242.836 143.048 243.181 142.719 243.591 142.491C244.001 142.263 244.462 142.144 244.931 142.145H246.201C247.578 142.146 248.94 141.87 250.209 141.335C251.478 140.799 252.628 140.015 253.591 139.027C254.554 138.04 255.311 136.869 255.817 135.584C256.323 134.299 256.568 132.926 256.538 131.544C256.445 128.806 255.291 126.211 253.322 124.314C251.352 122.417 248.722 121.366 245.992 121.386H244.443C243.844 121.386 243.269 121.147 242.845 120.721C242.421 120.296 242.182 119.718 242.182 119.116V118.689C242.382 118.623 242.591 118.589 242.802 118.588H245.953C249.653 118.58 253.205 120.042 255.834 122.654C258.463 125.267 259.955 128.818 259.984 132.531Z" fill="url(#paint6_linear_1613_6407)"/>
<path d="M256.058 128.606C256.058 128.606 257.096 131.397 255.803 135.656C255.803 135.656 250.901 140.716 255.082 148.76L258.536 152.467L254.517 156.439C252.019 154.497 250.081 151.923 248.901 148.981C247.722 146.039 247.343 142.835 247.804 139.697C248.694 132.842 256.058 128.606 256.058 128.606Z" fill="white"/>
<path d="M251.087 159.641L282.911 129.329L309.61 152.467L276.732 184.123L251.087 159.641ZM251.087 159.641L253.201 171.656L276.732 194.32V184.123L251.087 159.641Z" fill="#68A4FD"/>
<path d="M309.61 152.467V163.496L276.732 194.321V184.123L309.61 152.467Z" fill="#68A4FD"/>
<path d="M251.087 159.641L253.201 171.656L276.732 194.32V184.123L251.087 159.641Z" fill="url(#paint7_linear_1613_6407)"/>
<path d="M309.61 152.467V163.496L276.732 194.321V184.123L309.61 152.467Z" fill="url(#paint8_linear_1613_6407)"/>
<path d="M256.957 165.245L289.083 134.677L292.049 137.249L259.985 168.136L256.957 165.245Z" fill="url(#paint9_linear_1613_6407)"/>
<path d="M266.442 174.097L299.335 143.529L302.301 146.094L269.47 176.981L266.442 174.097Z" fill="url(#paint10_linear_1613_6407)"/>
<path opacity="0.21" d="M358.198 204.191C357.875 208.992 358.135 213.816 358.973 218.554C359.499 221.484 360.204 224.71 358.702 227.29C357.927 228.689 356.534 229.668 355.287 230.702C347.373 237.231 342.797 246.923 336.038 254.648C335.59 255.284 334.94 255.747 334.195 255.962C333.428 256.012 332.668 255.795 332.042 255.348C327.926 252.963 324.466 249.587 321.976 245.524C320.76 243.534 319.653 241.264 317.562 240.246C313.691 238.334 308.998 242.399 308.573 246.728C308.147 251.057 310.462 255.13 312.7 258.853L323.052 276.092C326.204 281.346 329.525 286.778 334.667 290.082C338.225 292.259 342.222 293.613 346.367 294.045C352.236 294.823 358.191 294.434 364.099 293.975C374.903 293.136 385.679 292.058 396.426 290.742C400.112 290.291 404.301 289.483 406.167 286.273C407.422 284.112 407.251 281.447 407.034 278.96C406.276 269.949 405.501 260.941 404.712 251.936C404.286 246.829 403.651 241.28 400.066 237.643C397.921 235.482 394.916 234.254 393.012 231.868C391.65 229.955 390.773 227.738 390.456 225.409C388.621 215.694 390.379 205.256 386.585 196.108C385.81 194.258 384.773 192.424 383.062 191.39C381.491 190.573 379.723 190.215 377.959 190.356C369.48 190.597 358.818 194.655 358.198 204.191Z" fill="url(#paint11_linear_1613_6407)"/>
<path opacity="0.18" d="M473.393 341.37C468.802 394.478 323.238 377.465 218.558 355.936C113.879 334.407 27.5116 377.465 7.59626 341.37C-1.22319 325.391 4.66935 305.432 13.9844 288.146C17.5347 290.133 21.5345 291.169 25.5991 291.154H464.822C470.869 305.447 475.027 322.546 473.393 341.37Z" fill="#FD6868"/>
<path d="M359.042 319.305L349.51 388.991C349.111 391.925 349.416 394.912 350.401 397.703L367.436 448.052L377.394 444.943L369.883 394.851C369.722 393.812 369.791 392.751 370.084 391.742L383.007 346.943L388.629 447.982H397.82L405.726 348.272C408.405 331.609 403.496 319.305 403.496 319.305H359.042Z" fill="#3F3D56"/>
<path d="M407.894 300.854L398.463 239.873L397.146 232.443C397.146 232.443 414.754 242.547 419.803 260.221C426.408 283.421 407.894 300.854 407.894 300.854Z" fill="#68ADFD"/>
<path d="M407.894 300.854L398.463 239.873L397.146 232.443C397.146 232.443 414.754 242.547 419.803 260.221C426.408 283.421 407.894 300.854 407.894 300.854Z" fill="url(#paint12_linear_1613_6407)"/>
<path d="M417.573 286.662C424.72 272.478 410.604 247.801 410.604 247.801L398.447 239.881L399.818 231.075C399.818 231.075 419.423 233.088 421.336 260.874C421.971 269.82 421.305 280.872 417.573 286.662Z" fill="#68ADFD"/>
<path d="M316.563 239.049C315.905 236.811 314.759 234.145 312.436 233.943C313.066 235.984 312.973 238.181 312.173 240.161C307.109 238.28 305.932 230.834 300.876 228.907C300.102 229.731 300.535 231.075 301.015 232.101C301.898 234.013 302.786 235.925 303.679 237.837C302.492 235.961 301.229 234.148 299.892 232.396C299.498 231.86 298.816 231.277 298.259 231.619C297.701 231.961 297.902 232.684 298.104 233.244C298.986 235.731 299.993 238.179 301.1 240.573C299.858 238.478 298.435 236.497 296.849 234.65C295.812 234.907 296.029 236.446 296.478 237.417L299.8 244.521L297.136 240.635C296.276 240.72 296.408 242.042 296.826 242.803C300.398 249.205 305.979 254.241 312.7 257.128C314.062 257.71 315.642 258.192 316.982 257.563C322.742 254.928 317.678 242.889 316.563 239.049Z" fill="url(#paint13_linear_1613_6407)"/>
<path d="M407.894 257.912V305.727C407.894 311.587 406.942 316.351 401.096 316.351H360.274C354.451 316.351 354.227 311.634 354.188 305.797L353.886 273.301C353.886 273.301 345.074 289.055 338.043 287.524C331.013 285.993 310.168 257.151 310.168 257.151L320.544 248.399L338.028 265.995C338.028 265.995 340.839 259.583 344.927 245.228C349.015 230.873 362.303 230.834 362.303 230.834H397.797C410.612 230.834 407.894 257.912 407.894 257.912Z" fill="#68A4FD"/>
<path d="M407.894 263.299C407.894 263.299 414.026 271.949 407.894 280.6V263.299Z" fill="#3F3D56"/>
<path d="M359.042 316.048H403.495V319.305H359.042V316.048Z" fill="url(#paint14_linear_1613_6407)"/>
<path d="M374.18 198.315H387.01V231.06H374.18V198.315Z" fill="url(#paint15_linear_1613_6407)"/>
<path d="M387.019 194.725V231.067H380.251V228.852C380.251 228.208 380.124 227.569 379.878 226.974C379.632 226.378 379.272 225.837 378.817 225.382C378.363 224.926 377.823 224.565 377.23 224.319C376.636 224.073 376 223.947 375.357 223.948H374.97C371.746 223.948 368.654 222.662 366.374 220.374C364.094 218.086 362.813 214.982 362.813 211.746V194.725H387.019Z" fill="url(#paint16_linear_1613_6407)"/>
<path d="M362.813 198.315C362.813 198.315 351.585 192.167 355.604 185.437C359.623 178.706 366.174 182.942 366.174 182.942H387.816C387.816 182.942 390.301 182.553 391.261 186.781C392.221 191.009 387.049 217.256 387.049 217.256H376.294L374.916 210.432C374.916 210.432 377.06 208.1 376.867 205.621C376.885 205.157 376.743 204.701 376.465 204.33C376.187 203.958 375.79 203.694 375.342 203.582C374.893 203.47 374.419 203.516 374 203.713C373.581 203.911 373.243 204.247 373.042 204.665C372.074 206.391 372.461 199.085 369.015 198.315C366.974 197.85 364.854 197.85 362.813 198.315Z" fill="#3F3D56"/>
<path d="M384.146 230.997C384.146 230.997 379.167 237.541 372.268 237.541C365.369 237.541 345.267 257.337 343.92 263.298C342.573 269.26 338.043 265.995 338.043 265.995C338.043 265.995 340.854 259.583 344.942 245.228C349.031 230.873 362.302 230.834 362.302 230.834H380.344L384.146 230.997Z" fill="url(#paint17_linear_1613_6407)"/>
<path d="M377.378 444.142L380.885 452.793L366.716 459.523L353.63 460.479C353.63 460.479 351.392 451.829 357.501 451.059C361.072 450.65 364.48 449.328 367.397 447.22L377.378 444.142Z" fill="url(#paint18_linear_1613_6407)"/>
<path d="M388.629 448.051C386.853 448.787 385.309 449.992 384.161 451.539C383.013 453.085 382.304 454.915 382.109 456.834L381.729 460.479H397.82V448.043L388.629 448.051Z" fill="url(#paint19_linear_1613_6407)"/>
<path opacity="0.18" d="M93.0186 28.1275C93.0186 28.1275 192.41 -35.1615 319.692 28.1275H93.0186Z" fill="#F05C5C"/>
</g>
<defs>
<linearGradient id="paint0_linear_1613_6407" x1="0" y1="159.641" x2="490.854" y2="159.641" gradientUnits="userSpaceOnUse">
<stop stop-color="#68E1FD"/>
<stop offset="1" stop-color="#69B9EB"/>
</linearGradient>
<linearGradient id="paint1_linear_1613_6407" x1="-69.9908" y1="93.9813" x2="677.137" y2="245.904" gradientUnits="userSpaceOnUse">
<stop stop-color="#F9F9FA"/>
<stop offset="1" stop-color="white"/>
</linearGradient>
<linearGradient id="paint2_linear_1613_6407" x1="-41.9216" y1="44.224" x2="835.257" y2="26.5507" gradientUnits="userSpaceOnUse">
<stop offset="0.02" stop-opacity="0"/>
<stop offset="0.99" stop-color="#3F3D56"/>
</linearGradient>
<linearGradient id="paint3_linear_1613_6407" x1="243.058" y1="132.119" x2="90.6545" y2="189.412" gradientUnits="userSpaceOnUse">
<stop stop-color="#6880FD"/>
<stop offset="0.01" stop-color="#6790F9"/>
<stop offset="0.12" stop-color="#5CB3CE"/>
<stop offset="0.24" stop-color="#5366A9"/>
<stop offset="0.37" stop-color="#4C718B"/>
<stop offset="0.5" stop-color="#465A73"/>
<stop offset="0.63" stop-color="#424A63"/>
<stop offset="0.79" stop-color="#404059"/>
<stop offset="0.99" stop-color="#3F3D56"/>
</linearGradient>
<linearGradient id="paint4_linear_1613_6407" x1="261.788" y1="131.964" x2="275.842" y2="131.964" gradientUnits="userSpaceOnUse">
<stop stop-color="#68E1FD"/>
<stop offset="1" stop-color="#69B9EB"/>
</linearGradient>
<linearGradient id="paint5_linear_1613_6407" x1="232.249" y1="132.399" x2="311.67" y2="132.654" gradientUnits="userSpaceOnUse">
<stop stop-opacity="0"/>
<stop offset="0.02" stop-color="#030304" stop-opacity="0.04"/>
<stop offset="0.18" stop-color="#181821" stop-opacity="0.39"/>
<stop offset="0.35" stop-color="#292839" stop-opacity="0.66"/>
<stop offset="0.53" stop-color="#363449" stop-opacity="0.85"/>
<stop offset="0.73" stop-color="#3D3B53" stop-opacity="0.96"/>
<stop offset="0.99" stop-color="#3F3D56"/>
</linearGradient>
<linearGradient id="paint6_linear_1613_6407" x1="272.59" y1="131.498" x2="248.415" y2="132.292" gradientUnits="userSpaceOnUse">
<stop stop-color="#68E1FD"/>
<stop offset="1" stop-color="#69B9EB"/>
</linearGradient>
<linearGradient id="paint7_linear_1613_6407" x1="257.831" y1="193.302" x2="283.965" y2="123.65" gradientUnits="userSpaceOnUse">
<stop stop-opacity="0"/>
<stop offset="0.02" stop-color="#030304" stop-opacity="0.04"/>
<stop offset="0.18" stop-color="#181821" stop-opacity="0.39"/>
<stop offset="0.35" stop-color="#292839" stop-opacity="0.66"/>
<stop offset="0.53" stop-color="#363449" stop-opacity="0.85"/>
<stop offset="0.73" stop-color="#3D3B53" stop-opacity="0.96"/>
<stop offset="0.99" stop-color="#3F3D56"/>
</linearGradient>
<linearGradient id="paint8_linear_1613_6407" x1="297.043" y1="186.929" x2="277.192" y2="117.975" gradientUnits="userSpaceOnUse">
<stop stop-opacity="0"/>
<stop offset="0.02" stop-color="#030304" stop-opacity="0.04"/>
<stop offset="0.18" stop-color="#181821" stop-opacity="0.39"/>
<stop offset="0.35" stop-color="#292839" stop-opacity="0.66"/>
<stop offset="0.53" stop-color="#363449" stop-opacity="0.85"/>
<stop offset="0.73" stop-color="#3D3B53" stop-opacity="0.96"/>
<stop offset="0.99" stop-color="#3F3D56"/>
</linearGradient>
<linearGradient id="paint9_linear_1613_6407" x1="287.759" y1="132.306" x2="188.819" y2="272.681" gradientUnits="userSpaceOnUse">
<stop stop-opacity="0"/>
<stop offset="0.02" stop-color="#030304" stop-opacity="0.04"/>
<stop offset="0.18" stop-color="#181821" stop-opacity="0.39"/>
<stop offset="0.35" stop-color="#292839" stop-opacity="0.66"/>
<stop offset="0.53" stop-color="#363449" stop-opacity="0.85"/>
<stop offset="0.73" stop-color="#3D3B53" stop-opacity="0.96"/>
<stop offset="0.99" stop-color="#3F3D56"/>
</linearGradient>
<linearGradient id="paint10_linear_1613_6407" x1="298.515" y1="139.884" x2="199.574" y2="280.267" gradientUnits="userSpaceOnUse">
<stop stop-opacity="0"/>
<stop offset="0.02" stop-color="#030304" stop-opacity="0.04"/>
<stop offset="0.18" stop-color="#181821" stop-opacity="0.39"/>
<stop offset="0.35" stop-color="#292839" stop-opacity="0.66"/>
<stop offset="0.53" stop-color="#363449" stop-opacity="0.85"/>
<stop offset="0.73" stop-color="#3D3B53" stop-opacity="0.96"/>
<stop offset="0.99" stop-color="#3F3D56"/>
</linearGradient>
<linearGradient id="paint11_linear_1613_6407" x1="329.208" y1="212.88" x2="523.973" y2="395.569" gradientUnits="userSpaceOnUse">
<stop stop-opacity="0"/>
<stop offset="0.02" stop-color="#030304" stop-opacity="0.04"/>
<stop offset="0.18" stop-color="#181821" stop-opacity="0.39"/>
<stop offset="0.35" stop-color="#292839" stop-opacity="0.66"/>
<stop offset="0.53" stop-color="#363449" stop-opacity="0.85"/>
<stop offset="0.73" stop-color="#3D3B53" stop-opacity="0.96"/>
<stop offset="0.99" stop-color="#3F3D56"/>
</linearGradient>
<linearGradient id="paint12_linear_1613_6407" x1="424.526" y1="260.12" x2="258.933" y2="308.833" gradientUnits="userSpaceOnUse">
<stop stop-opacity="0"/>
<stop offset="0.02" stop-color="#030304" stop-opacity="0.04"/>
<stop offset="0.18" stop-color="#181821" stop-opacity="0.39"/>
<stop offset="0.35" stop-color="#292839" stop-opacity="0.66"/>
<stop offset="0.53" stop-color="#363449" stop-opacity="0.85"/>
<stop offset="0.73" stop-color="#3D3B53" stop-opacity="0.96"/>
<stop offset="0.99" stop-color="#3F3D56"/>
</linearGradient>
<linearGradient id="paint13_linear_1613_6407" x1="296.106" y1="243.402" x2="319.692" y2="243.402" gradientUnits="userSpaceOnUse">
<stop stop-color="#ECC4D7"/>
<stop offset="0.42" stop-color="#EFD4D1"/>
<stop offset="1" stop-color="#F2EAC9"/>
</linearGradient>
<linearGradient id="paint14_linear_1613_6407" x1="359.042" y1="317.68" x2="403.495" y2="317.68" gradientUnits="userSpaceOnUse">
<stop stop-color="#68E1FD"/>
<stop offset="1" stop-color="#69B9EB"/>
</linearGradient>
<linearGradient id="paint15_linear_1613_6407" x1="376.634" y1="214.761" x2="397.703" y2="214.383" gradientUnits="userSpaceOnUse">
<stop stop-color="#ECC4D7"/>
<stop offset="0.42" stop-color="#EFD4D1"/>
<stop offset="1" stop-color="#F2EAC9"/>
</linearGradient>
<linearGradient id="paint16_linear_1613_6407" x1="377.866" y1="211.334" x2="373.515" y2="213.621" gradientUnits="userSpaceOnUse">
<stop stop-color="#ECC4D7"/>
<stop offset="0.42" stop-color="#EFD4D1"/>
<stop offset="1" stop-color="#F2EAC9"/>
</linearGradient>
<linearGradient id="paint17_linear_1613_6407" x1="387.661" y1="259.008" x2="332.824" y2="237.619" gradientUnits="userSpaceOnUse">
<stop stop-color="white" stop-opacity="0"/>
<stop offset="1" stop-color="white"/>
</linearGradient>
<linearGradient id="paint18_linear_1613_6407" x1="353.227" y1="452.311" x2="380.885" y2="452.311" gradientUnits="userSpaceOnUse">
<stop stop-opacity="0"/>
<stop offset="0.02" stop-color="#030304" stop-opacity="0.04"/>
<stop offset="0.18" stop-color="#181821" stop-opacity="0.39"/>
<stop offset="0.35" stop-color="#292839" stop-opacity="0.66"/>
<stop offset="0.53" stop-color="#363449" stop-opacity="0.85"/>
<stop offset="0.73" stop-color="#3D3B53" stop-opacity="0.96"/>
<stop offset="0.99" stop-color="#3F3D56"/>
</linearGradient>
<linearGradient id="paint19_linear_1613_6407" x1="381.714" y1="454.269" x2="397.804" y2="454.269" gradientUnits="userSpaceOnUse">
<stop stop-opacity="0"/>
<stop offset="0.02" stop-color="#030304" stop-opacity="0.04"/>
<stop offset="0.18" stop-color="#181821" stop-opacity="0.39"/>
<stop offset="0.35" stop-color="#292839" stop-opacity="0.66"/>
<stop offset="0.53" stop-color="#363449" stop-opacity="0.85"/>
<stop offset="0.73" stop-color="#3D3B53" stop-opacity="0.96"/>
<stop offset="0.99" stop-color="#3F3D56"/>
</linearGradient>
<clipPath id="clip0_1613_6407">
<rect width="492" height="464" fill="white"/>
</clipPath>
</defs>
</svg>
