<svg width="601" height="559" viewBox="0 0 601 559" fill="none" xmlns="http://www.w3.org/2000/svg">
<path fill-rule="evenodd" clip-rule="evenodd" d="M298.673 128.874C406.931 213.79 520.569 181.247 533.311 278.979C546.846 382.863 510.641 320.341 423.442 385.157C296.182 479.76 105.088 446.753 98.0102 277.992C93.3002 165.563 212.664 61.4129 298.673 128.874Z" fill="#F5F2FD"/>
<path d="M69.007 356.622C69.9611 354.656 70.5323 352.649 71.6577 350.991C72.927 349.377 75.0614 348.13 77.2695 348.861C87.1537 351.839 97.0938 351.771 102.443 344.176C102.407 344.291 102.392 344.412 102.4 344.532C102.401 344.644 102.545 344.686 102.665 344.684C102.787 344.905 103.243 345.078 103.484 345.186C104.733 345.706 106.143 345.756 107.504 345.608C109.221 345.344 110.617 344.283 112.112 343.511C113.078 342.974 114.096 342.523 115.154 342.166C115.178 342.683 115.12 343.2 114.983 343.701C114.955 343.694 114.925 343.692 114.896 343.696C114.867 343.7 114.84 343.71 114.816 343.725C113.617 345.25 111.114 345.723 109.025 346.836C107.244 347.634 105.779 348.895 104.531 350.332C103.35 351.614 102.385 353.057 101.671 354.609C99.9947 357.984 99.5417 361.724 99.3505 365.393C99.3355 366.127 98.9336 370.065 100.263 369.428C101.537 368.147 102.209 366.539 103.608 365.701C107.66 363.031 112.72 362.62 116.31 359.334C119.921 355.87 122.534 349.195 118.064 345.467C117.403 344.939 116.645 344.526 115.826 344.247C115.682 344.205 115.585 344.139 115.441 344.096C115.645 343.401 115.732 342.68 115.7 341.96C116.55 341.715 117.435 341.592 118.324 341.596C119.638 341.581 121.003 341.766 122.289 341.484C124.506 341.037 126.252 339.306 126.87 337.276C127.053 336.63 127.33 335.826 127.319 335.049C128.429 335.859 129.634 336.623 131.001 337.03C132.967 337.541 135.426 337.313 136.187 335.215C136.648 333.876 136.295 332.48 136.158 331.148C136.027 330.261 136.32 328.946 136.497 327.855C136.594 328.352 136.795 328.825 137.089 329.249C137.455 329.8 137.868 330.329 138.281 330.858C138.08 333.75 138.05 336.951 139.756 339.487C135.519 338.891 134.573 345.214 128.654 342.124C127.886 341.822 125.811 340.356 125.542 341.715C125.476 342.138 125.672 342.491 125.82 342.868C126.215 343.799 126.758 344.669 127.431 345.45C129.468 347.716 132.979 349.388 136.147 348.597C137.266 348.339 138.307 347.505 138.994 347.009C139.811 346.467 140.718 346.052 141.678 345.779C143.63 345.179 145.729 344.955 147.461 343.957C147.86 343.714 148.225 343.426 148.549 343.101C148.831 344.587 149.925 346.019 152.284 347.348C155.483 348.89 158.648 349.721 161.213 352.182C161.648 352.532 162.523 353.678 163.105 354.294C163.832 355.064 164.353 354.702 164.508 353.789C165.609 350.243 165.797 346.351 164.032 342.948C163.22 341.157 161.903 339.105 161.38 337.51C161.05 336.047 161.083 334.913 161.182 333.356C161.392 331.114 162.113 328.939 163.298 326.975C163.718 326.215 164.354 325.519 164.871 324.824C166.043 326.722 166.266 329.187 165.837 331.125C165.157 333.911 163.474 336.842 164.754 339.695C165.274 341.067 166.27 342.322 167.852 342.683C168.716 342.94 169.671 342.929 170.511 343.253C170.993 343.413 171.453 343.624 171.882 343.882L172.098 343.946C172.139 343.935 172.178 343.916 172.211 343.891C172.245 343.866 172.272 343.834 172.292 343.798C172.312 343.763 172.323 343.724 172.326 343.684C172.329 343.643 172.323 343.603 172.308 343.566C172.685 343.161 172.956 341.913 173.119 341.667C175.039 336.778 177.963 333.811 175.977 328.054C175.733 327.321 175.436 326.604 175.088 325.909C175.637 325.813 176.16 325.674 176.709 325.579C179.687 324.879 182.843 325.043 185.395 326.503C186.237 326.938 187.369 327.57 187.877 328.053C188.191 328.294 188.364 328.715 188.771 328.799C189.558 328.701 188.9 327.731 188.847 327.309C188.149 325.072 187.786 322.898 187.901 320.718C187.922 316.851 190.194 313.358 191.34 309.566C192.157 306.268 191.441 302.697 189.777 299.693C187.454 295.607 182.283 293.11 177.43 294.765L176.67 295.129C174.898 293.015 172.251 291.6 169.539 290.72C167.811 290.095 165.991 289.849 164.239 289.29C161.119 288.214 157.465 286.611 154.526 288.467C154.573 288.333 154.643 288.243 154.666 288.176C156.54 285.266 156.637 281.753 156.977 278.459C157.044 276.857 157.337 275.269 157.847 273.737C157.85 273.743 157.855 273.749 157.86 273.753C157.865 273.757 157.871 273.76 157.878 273.762C157.885 273.764 157.892 273.765 157.899 273.764C157.906 273.764 157.913 273.762 157.919 273.759C159.04 273.613 160.1 274.223 161.392 274.386C162.56 274.492 163.735 274.508 164.906 274.436C165.176 275.033 165.447 275.63 165.86 276.159C166.832 277.37 168.157 278.244 169.647 278.872C172.987 280.234 174.505 277.55 175.958 275.289C176.497 274.527 177.423 274.027 178.345 273.306C179.269 272.593 180.03 271.716 180.582 270.725C181.47 269.181 181.779 267.244 181.041 265.585C180.501 264.502 179.253 264.094 178.101 263.751C176.326 263.26 174.532 263.058 172.803 262.433C171.555 262.025 170.424 261.393 169.105 261.074C168.098 260.775 166.999 260.854 165.973 260.954C164.875 261.179 163.756 261.303 162.632 261.325C163.268 258.784 163.782 256.023 165.408 254.293C166.844 252.654 168.986 251.963 171.16 251.872C171.483 251.836 171.81 251.871 172.117 251.972C173.045 253.54 174.213 255.105 176.131 255.638C177.5 256.157 179.217 255.893 180.257 254.947C180.428 254.75 180.57 254.531 180.678 254.298C181.5 256.867 183.239 258.27 186.247 258.058C187.084 258.049 187.894 257.884 188.729 257.763C189.063 257.715 189.444 257.644 189.705 257.463C190.274 257.079 190.334 256.212 189.733 255.885C188.867 255.517 187.821 255.907 186.939 256.05C185.962 256.239 185.344 256.535 184.6 256.276C183.447 255.823 182.428 254.634 181.413 253.779C182.962 253.428 184.338 252.657 185.229 251.446C186.219 250.412 187.336 249.933 188.837 249.605C190.244 249.322 191.767 248.927 192.734 247.85C194.096 246.078 194.108 243.278 192.295 241.742C189.589 239.462 186.381 240.831 186.474 244.253C186.464 245.32 186.625 246.696 186.372 247.433C186.002 248.393 185.104 249.158 183.941 249.772C182.966 250.183 181.969 250.661 181.31 251.424C181.301 248.912 179.421 247.689 177.153 245.981C175.333 244.62 173.24 243.608 170.996 243.005C170.085 242.771 169.053 242.427 168.102 242.771C167.08 243.205 167.31 244.381 167.869 245.063C169.039 246.851 171.348 247.98 171.468 249.824C171.591 250.156 171.407 250.691 171.46 251.113C169.142 251.05 166.715 251.878 165.159 253.518C163.012 255.609 162.644 258.525 161.962 261.2C160.099 261.31 158.188 261.331 156.327 261.552C156.255 261.531 156.207 261.554 156.137 261.643C156.077 261.616 156.01 261.609 155.945 261.623C155.888 261.643 155.837 261.677 155.797 261.72C155.758 261.764 155.731 261.816 155.72 261.872C155.709 261.928 155.713 261.986 155.733 262.04C155.753 262.094 155.787 262.142 155.833 262.18C157.63 263.027 159.192 264.25 160.396 265.752C159.169 268.744 157.653 271.65 156.858 274.771C156.065 278.114 156.377 281.822 155.412 284.856C155.002 286.394 154.251 287.425 153.553 288.878C153.624 288.788 153.53 288.945 153.436 289.102C153.232 289.293 153.072 289.522 152.967 289.774L152.895 289.752C149.225 288.66 145.555 291.258 142.438 292.249C141.415 292.571 140.293 292.717 139.459 292.838C138.552 292.937 135.995 292.988 137.803 294.19C139.634 295.325 141.654 296.258 143.439 297.527C144.453 298.383 145.402 299.661 146.087 300.898C147.924 304.322 149.337 308.174 151.957 311.167C151.934 311.24 151.935 311.317 151.96 311.389C153.061 313.377 152.061 315.478 149.9 316.569C148.903 317.047 147.351 317.176 146.141 317.812C142.682 316.451 138.913 318.76 137.036 321.449C136.312 322.746 136.069 324.26 136.016 325.683C136.013 326.121 136.035 326.558 136.081 326.994C136 326.895 135.894 326.817 135.772 326.768C135.65 326.718 135.516 326.699 135.384 326.713C134.143 326.86 133.329 328.536 132.834 329.053C132.174 329.816 131.079 330.117 130.077 330.262C131.308 327.492 131.79 324.13 131.858 322.085C131.85 321.418 132.031 320.66 131.927 320.039C131.973 320.02 132.013 319.992 132.045 319.957C132.078 319.922 132.102 319.881 132.116 319.837C132.182 319.414 133.225 318.802 133.67 318.086C134.209 317.213 134.362 316.189 134.349 315.189C134.466 313.12 133.556 311.152 132.173 309.523C130.86 307.804 128.483 306.987 126.824 306.161C124.538 304.964 122.679 303.563 121.814 301.35C121.432 300.339 121.288 299.265 121.391 298.198C121.635 296.795 121.534 294.551 119.388 294.909C116.374 296.521 116.486 303.232 117.263 306.046C118.371 310.324 120.275 315.281 119.539 319.268C119.268 320.515 118.682 321.411 117.727 321.422C117.655 321.401 117.607 321.423 117.535 321.402C116.552 319.301 115.284 317.338 113.968 315.396C113.87 315.22 113.749 315.11 113.651 314.933C114.138 314.276 114.531 313.561 114.819 312.809C115.203 311.85 115.479 310.856 115.64 309.844C115.901 309.663 115.751 309.176 115.724 308.909C115.587 307.577 114.854 306.363 114.288 305.125C113.355 303.224 113.303 301.068 112.416 299.033C111.24 296.802 108.898 294.961 106.195 294.747C105.98 294.724 105.762 294.734 105.55 294.777C105.279 293.131 105.162 291.466 105.199 289.802C106.484 289.41 107.644 288.574 108.106 287.346C108.372 286.801 108.495 286.205 108.465 285.607C109.942 285.235 111.536 284.639 112.163 283.276C112.301 282.875 112.439 282.473 112.53 282.094C112.892 282.752 113.35 283.36 113.892 283.901C115.848 285.48 117.798 282.924 118.687 281.491C119.952 279.543 122.704 278.001 123.531 275.48C124.455 273.024 124.153 269.983 122.168 268.027C120.836 266.708 119.008 265.796 117.091 265.373C115.638 265.167 114.152 265.338 112.796 265.866L112.748 265.888C111.636 265.232 110.367 264.842 109.054 264.752C107.139 264.551 105.357 265.35 103.524 265.837C103.008 265.946 102.475 265.974 101.948 265.921L101.876 265.899C101.817 265.872 101.749 265.865 101.685 265.88C100.9 264.355 100.116 262.83 99.4261 261.26C98.8358 259.977 98.221 258.65 97.6539 257.301C98.4861 257.406 99.3329 257.344 100.137 257.117C101.446 256.769 102.458 255.558 102.345 254.27C102.263 253.47 101.823 252.675 101.863 252.097C101.833 251.608 102.282 251.225 102.679 250.532C103.285 249.347 102.646 247.976 101.939 246.917C100.745 245.197 98.3445 244.335 96.151 244.715C95.3637 244.813 94.8124 244.686 94.1172 244.516C95.4873 243.3 95.8901 241.207 96.9248 239.928C97.1591 239.652 97.4197 239.396 97.7034 239.163C97.6849 239.224 97.6868 239.288 97.709 239.348C97.7312 239.407 97.7725 239.459 97.8273 239.495C97.8348 239.597 97.8688 239.696 97.9266 239.783C98.4899 241.758 99.4907 243.602 100.865 245.196C101.91 246.54 103.405 247.612 105.246 247.68C106.228 247.824 107.13 247.392 107.913 246.961C108.791 246.484 109.694 246.052 110.596 245.619C111.739 245.084 113.028 244.877 114.298 245.025C115.568 245.173 116.762 245.669 117.728 246.45C118.379 246.865 118.891 247.682 119.592 248.296C119.634 248.362 119.699 248.412 119.776 248.439C119.853 248.465 119.938 248.466 120.016 248.442C120.093 248.418 120.16 248.37 120.204 248.305C120.249 248.241 120.268 248.164 120.259 248.088C120.208 247.889 119.991 247.714 119.893 247.537C118.652 245.839 117.739 243.649 116.353 241.798C114.554 239.418 112.586 236.951 109.913 235.381C108.133 234.445 106.025 234.113 103.994 234.136C102.984 234.151 101.992 234.383 101.094 234.813C100.196 235.244 99.4168 235.861 98.8173 236.617C98.4292 237.149 98.1231 237.728 97.9077 238.339C97.8218 238.371 97.7479 238.426 97.6946 238.497C95.9648 239.606 95.6051 241.343 94.7171 242.887C94.2494 243.67 93.8969 244.119 93.2089 244.504L93.0189 244.595C91.8685 240.674 90.908 236.662 91.2159 232.769C91.2299 232.567 91.2592 232.366 91.3036 232.168C91.6375 232.12 91.9958 232.116 92.3053 232.023C93.5202 231.721 94.2239 230.713 94.5678 229.597C95.1218 228.102 95.1706 226.345 94.1255 225.001C93.9555 224.803 93.6878 224.428 93.4229 224.276C93.4539 224.198 93.4692 224.114 93.468 224.031C94.3101 224.466 95.142 224.123 95.8285 223.627L95.8529 223.671C96.1667 223.912 96.6432 223.795 97.003 223.902C97.3384 223.965 98.2725 224.132 98.5619 224.329C99.4759 224.785 99.8661 225.381 100.474 226.152C101.009 226.787 101.716 227.278 102.523 227.574C104.302 228.398 106.453 228.374 107.403 229.764C108.157 230.8 108.657 232.461 109.651 233.606C110.186 234.23 110.786 234.804 111.442 235.319C111.78 235.604 112.191 235.911 112.646 235.972C113.818 236.026 113.158 234.944 112.959 234.369C112.664 233.56 112.5 232.716 112.472 231.862C112.406 230.441 113.274 229.186 113.229 227.586C113.308 226.318 112.886 225.123 112.227 224.041C111.423 222.566 110.261 221.286 108.833 220.301C107.803 219.604 106.623 219.123 105.374 218.891C104.125 218.66 102.837 218.683 101.598 218.96C100.408 219.307 99.4135 220.007 98.442 220.64C96.997 221.613 95.5621 223.363 94.3215 223.51C93.8681 223.559 93.8667 223.448 93.4579 223.253C93.77 221.538 93.9872 219.868 94.2993 218.153C94.5223 216.928 95.1958 215.432 96.0873 214.11C96.1592 214.132 96.2075 214.109 96.3017 214.063C97.2032 213.52 98.452 214.039 99.8425 214.379C102.333 214.751 104.938 214.788 104.899 211.788C104.887 210.899 104.801 209.767 104.983 209.12C105.28 208.028 105.67 206.778 105.058 205.674C106.053 204.974 107.072 204.318 108.115 203.706C109.887 202.706 111.767 201.88 113.723 201.242C114.444 201.567 115.167 202.004 115.957 202.128C117.489 202.4 119.495 202.221 120.787 202.385C122.345 202.701 123.382 203.489 124.872 204.117C126.433 204.655 128.173 204.324 129.798 204.328C130.324 204.3 131.472 204.42 130.984 203.648C128.099 200.502 124.903 197.337 120.725 195.762C117.724 194.684 112.758 195.052 111.847 198.507C111.86 199.507 112.299 200.191 112.453 201.012C111.935 201.193 111.427 201.399 110.932 201.629C108.727 202.593 106.642 203.78 104.715 205.167C104.106 204.285 103.165 203.562 102.249 202.995C101.237 202.361 100.25 201.772 99.0741 201.386C96.7696 200.589 94.206 201.93 92.4 202.684C91.6803 203.011 90.8894 203.179 90.0884 203.176C89.4435 203.206 88.7253 203.103 88.2044 203.464C87.3049 204.119 87.5122 205.361 87.9772 206.201C88.2953 206.775 88.9689 207.123 89.5936 207.383C90.5782 207.75 92.2493 207.62 92.9675 207.723C93.8772 207.846 94.4788 208.172 94.9165 208.745C95.0989 209.008 95.1866 209.319 95.167 209.631C95.1267 210.21 94.9427 210.745 94.9497 211.301C94.8636 212.014 95.1832 212.698 95.6207 213.271C95.6597 213.349 95.7179 213.417 95.7907 213.469C94.7817 214.903 94.0134 216.446 93.7012 218.161C93.3443 220.12 93.1302 222.012 92.7245 223.884C92.6299 223.823 92.524 223.779 92.4122 223.754C89.9855 222.737 86.7222 219.884 83.6608 221.519C82.187 222.114 81.1076 223.637 80.0657 224.36C78.0277 225.672 75.811 226.12 73.5511 225.078C71.726 224.388 71.2397 225.571 72.1897 226.961C72.9441 227.997 74.0064 228.83 75.1623 229.506C76.0777 230.073 77.0637 230.551 78.2108 230.56C79.9537 230.451 81.8319 229.719 83.2212 229.948C84.5382 230.155 85.7645 230.741 87.0126 231.15C88.1165 231.515 89.363 231.812 90.5821 231.843C90.5377 232.041 90.5085 232.242 90.4945 232.444C90.3292 234.424 90.5222 236.4 90.8347 238.375C91.1932 240.215 91.6238 242.078 92.1494 243.895C91.5008 243.637 90.7881 243.553 90.0909 243.651C88.7552 243.844 87.6658 244.59 86.4293 245.071C85.2875 245.506 83.5219 245.681 82.7461 244.823C81.8983 243.944 81.2849 242.728 79.9895 242.343C78.9828 242.154 79.1188 243.375 79.1505 243.975C79.1881 245.019 79.7264 245.991 80.2879 246.896C81.1938 248.379 82.4531 249.65 83.969 250.61C85.8243 251.79 87.5761 252.348 89.4531 253.35C90.9472 254.311 92.4198 255.45 94.1484 256.075C95.005 256.422 95.8972 256.687 96.8113 256.867C97.2549 257.884 97.7226 258.946 98.166 259.963C99.764 263.39 101.551 266.615 102.838 270.024C100.539 269.672 98.2418 269.431 96.0764 268.344C94.8744 267.802 93.3118 267.042 92.0332 266.145C90.5376 265.073 87.5421 262.595 86.5751 265.406C86.2125 266.922 86.8547 268.515 87.7789 269.749C89.0658 271.313 90.7342 272.805 91.5201 274.441C93.0563 278.625 94.0759 283.503 97.8703 286.772C99.3687 288.066 101.013 289.515 103.141 289.668C103.583 289.682 104.025 289.639 104.454 289.543C104.433 289.721 104.458 289.876 104.437 290.054C104.456 291.505 104.595 292.952 104.852 294.384C101.32 294.735 98.0004 296.773 95.7629 299.243C93.2084 302.38 91.1606 305.847 89.6842 309.535C89.2237 310.874 88.3099 312.262 88.7827 313.658C89.2045 314.853 90.6252 315.682 91.9883 315.755C93.016 315.766 93.9659 315.311 94.9418 315.011C95.3146 314.88 95.6964 314.771 96.0846 314.687C95.9257 315.739 95.4867 316.737 94.8074 317.591C93.7973 318.913 92.2382 320.331 91.3765 322.03C90.506 321.547 89.5323 321.247 88.5238 321.15C87.5152 321.054 86.4963 321.165 85.5385 321.474C83.0399 322.28 81.3465 324.322 79.4549 325.899C78.298 326.957 77.4702 327.633 75.8489 327.851C74.3937 328.045 71.977 327.806 70.2872 328.336C68.5485 328.778 67.3469 330.081 66.6489 331.534C64.7119 335.089 64.9095 339.244 64.9603 343.133C65.1277 346.798 65.0805 350.511 65.7012 354.126C66.005 355.434 66.1448 356.989 66.7335 358.16C67.8745 359.569 68.7018 357.048 69.007 356.622ZM161.076 266.543C161.759 267.669 162.276 268.819 162.865 269.99C163.428 271.006 164.014 271.955 164.482 273.017C164.64 273.316 164.772 273.627 164.876 273.946C163.587 274.005 162.153 274.021 161.122 273.788C160.236 273.598 159.346 273.186 158.415 273.241C158.376 273.254 158.334 273.254 158.295 273.243C159.055 271.033 160.101 268.799 161.076 266.543ZM153.927 290.095C154.083 290.009 154.201 289.874 154.257 289.713C156.736 287.352 160.072 288.492 163.673 289.785C165.93 290.604 168.347 290.844 170.533 291.752C172.334 292.399 174.405 293.642 175.639 294.784C175.905 295.02 176.148 295.278 176.366 295.554C174.397 296.665 172.865 298.349 172.224 300.446C170.837 304.018 170.89 308.129 170.003 311.518C169.246 313.949 168.056 316.141 166.239 317.962C164.85 315.888 162.654 316.046 160.321 316.717C159.153 316.997 158.271 317.14 157.689 316.524C157.254 316.063 156.983 315.466 156.64 314.847C156.809 314.935 157.024 314.999 157.193 315.085C158.392 315.405 159.704 315.279 160.896 315.043C163.539 314.28 164.673 311.444 165.025 309.151C165.082 308.499 164.966 307.844 164.689 307.243C165.156 307.176 165.606 307.035 166.022 306.828C166.9 306.351 167.559 305.588 168.171 304.848C169.627 302.919 169.954 300.471 169.351 298.189C168.069 293.38 163.795 291.85 158.871 291.75C157.198 291.658 155.397 291.012 153.644 290.342C153.857 290.185 153.88 290.118 153.927 290.095ZM147.984 318.101C149.199 317.798 150.438 317.54 151.384 316.751C152.418 315.907 153.076 314.735 153.229 313.463C153.252 313.105 153.215 312.745 153.119 312.397C153.239 312.507 153.361 312.617 153.506 312.771C153.001 314.355 152.856 316.046 152.758 317.714C152.722 318.625 152.782 319.492 153.199 320.354C153.224 320.398 153.176 320.421 153.201 320.465C154.083 322.167 155.967 323.724 156.893 325.069C157.945 326.969 157.092 329.334 155.774 330.861C154.337 332.499 152.538 333.809 150.813 335.251L150.739 335.118C150.444 334.607 150.049 334.152 149.575 333.776C147.787 332.284 145.323 332.068 143.61 330.82C142.838 330.295 142.491 329.344 142.937 328.738C142.985 328.715 143.008 328.648 143.055 328.626C143.316 328.445 143.601 328.309 143.862 328.128C145.925 326.971 148.152 325.457 148.552 323.141C148.692 321.986 148.653 320.819 148.435 319.675C148.315 319.143 148.165 318.618 147.984 318.101ZM103.694 332.004C103.904 331.939 104.119 331.892 104.338 331.864C105.03 331.811 105.389 331.918 106.085 332.088C107.837 332.646 109.715 333.759 111.659 334.448C111.612 334.471 111.612 334.471 111.589 334.538C111.082 336.01 109.924 336.957 108.16 337.355C106.73 337.593 105.666 338.494 104.892 339.592C104.685 339.857 104.497 340.134 104.329 340.421C104.49 339.952 104.699 339.461 104.86 338.992C105.233 337.686 105.297 336.321 105.047 334.99C104.843 333.969 104.328 332.93 103.694 332.004ZM95.6541 318.359C96.4297 317.372 96.7738 316.257 96.9491 315.055C97.3781 314.961 97.8315 314.912 98.2129 314.841C100.432 314.615 102.279 315.128 103.969 316.443C105.249 317.451 106.741 318.301 108.438 318.326C110.515 318.169 112.245 317.06 113.468 315.58C115.101 317.983 116.661 320.367 117.773 323.132C118.389 324.57 118.789 325.944 119.214 327.362C118.828 327.555 118.385 327.63 117.95 327.576C117.137 327.518 115.935 326.976 114.952 326.721C111.859 325.911 108.59 326.303 105.591 327.182C104.116 327.665 102.552 328.639 101.383 328.807C101.247 328.806 101.112 328.815 100.977 328.834C98.5605 328.595 96.1122 327.755 94.7245 325.793C94.0681 324.934 93.5772 323.939 92.7077 323.238C92.5148 323.106 92.3218 322.975 92.1046 322.8C92.9915 321.256 94.4093 320.017 95.6541 318.358V318.359Z" fill="url(#paint0_linear_1613_6362)"/>
<path fill-rule="evenodd" clip-rule="evenodd" d="M113.445 377.341C113.978 380.849 115.751 384.454 118.18 387.939C121.304 392.418 125.407 396.741 128.593 400.425C131.394 403.732 134.356 406.877 137.43 409.911C140.517 412.953 143.752 415.846 147.123 418.627C151.605 422.345 156.346 425.782 161.315 428.917C173.029 436.268 186.514 442.127 202.43 445.963C202.827 446.047 203.237 446.057 203.638 445.994C204.039 445.93 204.423 445.794 204.767 445.592C205.112 445.391 205.41 445.128 205.645 444.82C205.88 444.511 206.048 444.162 206.138 443.793C206.229 443.424 206.24 443.042 206.172 442.669C206.103 442.296 205.957 441.939 205.74 441.619C205.523 441.299 205.241 441.021 204.909 440.802C204.577 440.584 204.202 440.428 203.806 440.344C188.3 437.462 174.888 432.671 163.324 426.033C158.35 423.195 153.647 419.966 149.267 416.38C145.989 413.676 142.896 410.782 140.008 407.717C137.133 404.647 134.427 401.443 131.902 398.117C129.088 394.361 125.382 389.955 122.717 385.42C121.019 382.526 119.792 379.587 119.618 376.781C119.535 376.022 119.132 375.325 118.497 374.842C117.863 374.36 117.048 374.13 116.232 374.204C115.416 374.278 114.665 374.65 114.143 375.238C113.621 375.826 113.37 376.582 113.446 377.342L113.445 377.341ZM204.992 101.743C207.558 99.8628 210.447 98.4031 213.495 97.2378C218.268 95.4115 223.412 94.268 228.332 93.326C239.736 91.169 251.573 90.6755 263.026 92.2919C274.491 93.9105 285.535 97.6252 295.365 103.73C303.57 108.9 310.846 115.241 318.196 121.441C323.191 125.669 328.224 129.834 333.653 133.498C339.491 137.453 345.775 140.84 352.902 143.137C358.79 145.051 364.727 145.942 370.689 146.368C384.249 147.335 397.946 145.749 411.469 148.457C417.059 149.584 422.166 151.556 426.963 154.043C434.35 157.87 441.006 162.931 447.588 168.113C447.902 168.356 448.264 168.539 448.654 168.651C449.044 168.763 449.454 168.803 449.86 168.767C450.267 168.732 450.662 168.622 451.022 168.444C451.383 168.266 451.702 168.024 451.962 167.731C452.221 167.438 452.416 167.1 452.535 166.737C452.654 166.373 452.694 165.992 452.654 165.614C452.614 165.236 452.494 164.869 452.301 164.535C452.108 164.2 451.846 163.905 451.53 163.664C444.502 158.433 437.387 153.36 429.566 149.559C424.236 146.974 418.608 144.961 412.461 143.878C398.653 141.424 384.769 143.309 370.962 142.602C365.322 142.314 359.695 141.575 354.092 139.871C347.275 137.779 341.238 134.646 335.623 130.942C330.256 127.403 325.273 123.364 320.365 119.217C312.903 112.917 305.615 106.378 297.323 101.062C287.171 94.4695 275.669 90.4068 263.707 88.4307C251.771 86.4582 239.364 86.5814 227.365 88.5091C222.072 89.3461 216.544 90.4125 211.376 92.196C207.756 93.4434 204.323 95.0563 201.237 97.158C200.583 97.6213 200.154 98.3071 200.044 99.0647C199.934 99.8222 200.152 100.589 200.65 101.197C201.148 101.805 201.885 102.204 202.7 102.307C203.514 102.409 204.339 102.206 204.993 101.743L204.992 101.743Z" fill="#F5F2FD"/>
<path fill-rule="evenodd" clip-rule="evenodd" d="M320.684 194.534C320.682 189.579 318.565 184.827 314.798 181.322C311.032 177.817 305.923 175.847 300.595 175.843H152.383C147.055 175.847 141.947 177.817 138.18 181.322C134.413 184.827 132.297 189.579 132.295 194.534V389.269C132.297 394.225 134.413 398.977 138.18 402.482C141.947 405.987 147.055 407.958 152.383 407.961H300.596C305.924 407.958 311.032 405.987 314.799 402.482C318.566 398.977 320.683 394.225 320.684 389.269L320.684 194.534Z" fill="white"/>
<mask id="mask0_1613_6362" style="mask-type:luminance" maskUnits="userSpaceOnUse" x="132" y="175" width="189" height="233">
<path d="M320.684 194.534C320.682 189.579 318.565 184.827 314.798 181.322C311.032 177.817 305.923 175.847 300.595 175.843H152.383C147.055 175.847 141.947 177.817 138.18 181.322C134.413 184.827 132.297 189.579 132.295 194.534V389.269C132.297 394.225 134.413 398.977 138.18 402.482C141.947 405.987 147.055 407.958 152.383 407.961H300.596C305.924 407.958 311.032 405.987 314.799 402.482C318.566 398.977 320.683 394.225 320.684 389.269L320.684 194.534Z" fill="white"/>
</mask>
<g mask="url(#mask0_1613_6362)">
<path fill-rule="evenodd" clip-rule="evenodd" d="M343.025 206.285V179.478C343.025 177.472 340.859 175.843 338.199 175.843H114.784C112.123 175.843 109.958 177.472 109.958 179.478V206.285C109.958 208.291 112.123 209.919 114.784 209.919H338.199C340.859 209.919 343.025 208.291 343.025 206.285Z" fill="#6562F9"/>
<path d="M153.214 197.498C155.955 197.498 158.178 195.431 158.178 192.881C158.178 190.331 155.955 188.264 153.214 188.264C150.472 188.264 148.25 190.331 148.25 192.881C148.25 195.431 150.472 197.498 153.214 197.498Z" fill="white"/>
<path d="M168.941 197.498C171.683 197.498 173.905 195.431 173.905 192.881C173.905 190.331 171.683 188.264 168.941 188.264C166.2 188.264 163.978 190.331 163.978 192.881C163.978 195.431 166.2 197.498 168.941 197.498Z" fill="white"/>
<path d="M185.145 197.498C187.886 197.498 190.109 195.431 190.109 192.881C190.109 190.331 187.886 188.264 185.145 188.264C182.403 188.264 180.181 190.331 180.181 192.881C180.181 195.431 182.403 197.498 185.145 197.498Z" fill="white"/>
</g>
<path d="M186.95 291.9C205.813 291.9 221.105 277.677 221.105 260.132C221.105 242.586 205.813 228.363 186.95 228.363C168.086 228.363 152.794 242.586 152.794 260.132C152.794 277.677 168.086 291.9 186.95 291.9Z" fill="#E3E3FE"/>
<mask id="mask1_1613_6362" style="mask-type:luminance" maskUnits="userSpaceOnUse" x="152" y="228" width="70" height="64">
<path d="M186.95 291.9C205.813 291.9 221.105 277.677 221.105 260.132C221.105 242.586 205.813 228.363 186.95 228.363C168.086 228.363 152.794 242.586 152.794 260.132C152.794 277.677 168.086 291.9 186.95 291.9Z" fill="white"/>
</mask>
<g mask="url(#mask1_1613_6362)">
<path fill-rule="evenodd" clip-rule="evenodd" d="M153.069 275.891C169.815 251.139 177.55 249.797 186.945 259.638C196.353 269.479 199.228 272.371 209.975 267.831C220.709 263.291 225.717 268.212 229.027 274.995C232.337 281.779 188.099 300.344 179.917 300.194C171.736 300.044 136.311 300.642 153.069 275.891Z" fill="url(#paint1_linear_1613_6362)"/>
</g>
<path d="M206.183 253.926C212.811 253.926 218.185 248.928 218.185 242.763C218.185 236.598 212.811 231.601 206.183 231.601C199.555 231.601 194.182 236.598 194.182 242.763C194.182 248.928 199.555 253.926 206.183 253.926Z" fill="url(#paint2_linear_1613_6362)"/>
<path fill-rule="evenodd" clip-rule="evenodd" d="M219.747 317.072C219.748 316.703 219.671 316.338 219.52 315.998C219.369 315.657 219.147 315.348 218.866 315.088C218.586 314.827 218.253 314.621 217.887 314.481C217.52 314.341 217.128 314.27 216.732 314.272H162.596C162.201 314.272 161.809 314.344 161.444 314.485C161.079 314.625 160.748 314.832 160.469 315.092C160.19 315.352 159.969 315.661 159.819 316C159.668 316.34 159.591 316.704 159.593 317.072V317.074C159.591 317.441 159.668 317.805 159.818 318.145C159.969 318.485 160.19 318.794 160.469 319.054C160.748 319.314 161.079 319.52 161.444 319.661C161.809 319.801 162.201 319.874 162.596 319.873H216.732C217.128 319.875 217.52 319.804 217.887 319.664C218.253 319.524 218.586 319.318 218.866 319.058C219.147 318.798 219.369 318.488 219.52 318.148C219.671 317.807 219.748 317.442 219.747 317.074V317.072Z" fill="#E3E3FE"/>
<path fill-rule="evenodd" clip-rule="evenodd" d="M311.746 265.393C311.745 263.156 310.788 261.01 309.086 259.428C307.384 257.847 305.076 256.959 302.67 256.959H240.035C238.844 256.959 237.665 257.177 236.566 257.601C235.466 258.025 234.467 258.647 233.625 259.43C232.784 260.213 232.117 261.143 231.662 262.166C231.207 263.19 230.974 264.286 230.975 265.393V265.396C230.974 266.503 231.207 267.599 231.662 268.622C232.117 269.646 232.784 270.575 233.626 271.358C234.467 272.142 235.466 272.763 236.566 273.187C237.666 273.61 238.844 273.828 240.035 273.828H302.67C305.076 273.829 307.384 272.941 309.086 271.36C310.788 269.779 311.745 267.633 311.746 265.396V265.393Z" fill="#EFEFFE"/>
<path fill-rule="evenodd" clip-rule="evenodd" d="M215.983 356.137C215.983 355.395 215.667 354.684 215.103 354.159C214.54 353.634 213.776 353.339 212.978 353.337H160.919C160.122 353.339 159.357 353.634 158.794 354.159C158.231 354.684 157.914 355.395 157.914 356.137V356.139C157.914 356.881 158.231 357.592 158.794 358.117C159.357 358.642 160.122 358.937 160.919 358.938H212.979C213.776 358.937 214.541 358.642 215.104 358.117C215.667 357.592 215.984 356.881 215.984 356.139L215.983 356.137ZM287.099 355.821C287.099 355.079 286.782 354.368 286.219 353.843C285.656 353.318 284.891 353.023 284.094 353.021H232.035C231.237 353.023 230.473 353.318 229.91 353.843C229.346 354.368 229.03 355.079 229.03 355.821V355.823C229.03 356.565 229.346 357.276 229.91 357.801C230.473 358.326 231.237 358.621 232.035 358.622H284.095C284.892 358.621 285.656 358.326 286.22 357.801C286.783 357.276 287.1 356.565 287.1 355.823L287.099 355.821ZM287.096 327.461C287.098 327.094 287.022 326.73 286.871 326.39C286.721 326.051 286.5 325.742 286.221 325.482C285.652 324.957 284.883 324.662 284.082 324.662H162.61C161.808 324.662 161.039 324.957 160.471 325.482C160.192 325.742 159.97 326.05 159.82 326.39C159.669 326.73 159.593 327.094 159.594 327.461V327.464C159.593 327.831 159.67 328.195 159.82 328.535C159.97 328.875 160.192 329.183 160.471 329.443C161.04 329.968 161.808 330.263 162.61 330.263H284.082C284.883 330.263 285.652 329.968 286.221 329.443C286.5 329.183 286.721 328.874 286.871 328.535C287.021 328.195 287.098 327.831 287.096 327.464V327.461ZM215.983 366.527C215.983 365.785 215.667 365.074 215.103 364.549C214.54 364.024 213.776 363.728 212.978 363.727H160.919C160.122 363.728 159.357 364.024 158.794 364.549C158.231 365.074 157.914 365.785 157.914 366.527V366.529C157.914 367.271 158.231 367.982 158.794 368.507C159.357 369.032 160.122 369.327 160.919 369.328H212.979C213.776 369.327 214.541 369.032 215.104 368.507C215.667 367.982 215.984 367.271 215.984 366.529L215.983 366.527ZM287.099 366.211C287.099 365.469 286.782 364.758 286.219 364.233C285.656 363.708 284.891 363.412 284.094 363.411H232.035C231.237 363.412 230.473 363.708 229.91 364.233C229.346 364.758 229.03 365.469 229.03 366.211V366.213C229.03 366.955 229.346 367.666 229.91 368.191C230.473 368.716 231.237 369.011 232.035 369.012H284.095C284.892 369.011 285.656 368.716 286.22 368.191C286.783 367.666 287.1 366.955 287.1 366.213L287.099 366.211ZM287.096 338.482C287.098 338.114 287.022 337.75 286.871 337.411C286.721 337.071 286.5 336.762 286.221 336.502C285.652 335.977 284.883 335.682 284.082 335.682H162.61C161.808 335.682 161.039 335.977 160.471 336.502C160.191 336.762 159.97 337.071 159.82 337.411C159.669 337.75 159.593 338.114 159.594 338.482V338.484C159.593 338.851 159.669 339.215 159.82 339.555C159.97 339.895 160.192 340.204 160.471 340.463C161.04 340.988 161.808 341.283 162.61 341.283H284.082C284.883 341.283 285.652 340.988 286.221 340.463C286.5 340.204 286.721 339.895 286.871 339.555C287.021 339.215 287.098 338.851 287.096 338.484V338.482ZM215.983 377.547C215.983 376.805 215.667 376.094 215.103 375.569C214.54 375.044 213.776 374.749 212.978 374.747H160.919C160.122 374.749 159.357 375.044 158.794 375.569C158.231 376.094 157.914 376.805 157.914 377.547V377.549C157.914 378.291 158.231 379.002 158.794 379.527C159.357 380.052 160.122 380.347 160.919 380.349H212.979C213.776 380.347 214.541 380.052 215.104 379.527C215.667 379.002 215.984 378.291 215.984 377.549L215.983 377.547ZM287.099 377.231C287.099 376.49 286.782 375.778 286.219 375.253C285.656 374.728 284.891 374.433 284.094 374.431H232.035C231.237 374.433 230.473 374.728 229.91 375.253C229.346 375.778 229.03 376.49 229.03 377.231V377.233C229.03 377.975 229.346 378.686 229.91 379.211C230.473 379.736 231.237 380.031 232.035 380.033H284.095C284.892 380.031 285.656 379.736 286.22 379.211C286.783 378.686 287.1 377.975 287.1 377.233L287.099 377.231Z" fill="#E3E3FE"/>
<path fill-rule="evenodd" clip-rule="evenodd" d="M438.21 208.717C450.108 208.717 458.782 218.907 457.09 232.739C455.888 242.54 443.025 252.745 430.298 257.636C419.305 261.861 419.246 246.402 419.246 232.481C419.246 218.56 426.32 208.717 438.21 208.717Z" fill="url(#paint3_linear_1613_6362)"/>
<path fill-rule="evenodd" clip-rule="evenodd" d="M429.136 282.281C440.576 306.933 363.925 385.915 338.373 383.888C312.816 381.851 275.799 270.078 275.799 270.078L265.03 256.959L293.438 260.304L291.461 263.891C291.461 263.891 331.525 328.762 342.414 333.62C347.827 336.037 361.941 296.328 391.899 280.539C424.567 263.337 422.593 268.18 429.136 282.281Z" fill="url(#paint4_linear_1613_6362)"/>
<mask id="mask2_1613_6362" style="mask-type:luminance" maskUnits="userSpaceOnUse" x="265" y="256" width="166" height="128">
<path d="M429.136 282.281C440.576 306.933 363.925 385.915 338.373 383.888C312.816 381.851 275.799 270.078 275.799 270.078L265.03 256.959L293.438 260.304L291.461 263.891C291.461 263.891 331.525 328.762 342.414 333.62C347.827 336.037 361.941 296.328 391.899 280.539C424.567 263.337 422.593 268.18 429.136 282.281Z" fill="white"/>
</mask>
<g mask="url(#mask2_1613_6362)">
<path fill-rule="evenodd" clip-rule="evenodd" d="M357.646 298.746C366.082 297.616 380.053 299.733 384.84 306.998C387.585 311.162 386.684 316.121 387.994 320.677C390.912 330.833 401.09 340.593 413.088 340.189C427.771 339.708 432.538 321.435 435.32 311.051C439.051 297.072 442.745 279.142 430.16 268.023C427.911 266.034 425.33 264.461 422.557 263.194C418.877 261.525 414.948 260.38 410.902 259.797C405.853 259.043 400.593 259.011 395.551 259.852C387.263 261.25 379.555 265.172 373.144 270.173C364.835 276.677 358.78 284.696 353.971 293.688L357.646 298.746Z" fill="url(#paint5_linear_1613_6362)"/>
</g>
<path fill-rule="evenodd" clip-rule="evenodd" d="M445.797 264.665C485.929 267.949 499.494 268.774 497.348 337.79C495.181 408.169 395.764 405.698 395.764 405.698C395.764 405.698 410.362 361.677 398.639 324.14C384.466 278.827 417.45 262.344 445.797 264.665Z" fill="url(#paint6_linear_1613_6362)"/>
<path fill-rule="evenodd" clip-rule="evenodd" d="M347.687 247.996C347.686 244.733 346.292 241.605 343.812 239.298C341.332 236.991 337.969 235.695 334.461 235.693H259.236C255.728 235.693 252.363 236.989 249.882 239.297C247.401 241.604 246.008 244.733 246.008 247.997C246.008 251.26 247.401 254.389 249.882 256.697C252.363 259.004 255.728 260.3 259.236 260.3H334.461C337.969 260.299 341.332 259.002 343.812 256.694C346.292 254.387 347.686 251.258 347.687 247.996Z" fill="#ABDBFF"/>
<path d="M265.654 242.629V244.443C265.184 244.358 264.707 244.313 264.228 244.308C262.964 244.308 262.034 244.559 261.439 245.061C260.844 245.564 260.497 246.409 260.423 247.603H260.522C261.03 246.783 261.885 246.373 263.088 246.373C264.117 246.373 264.935 246.674 265.542 247.275C266.149 247.877 266.447 248.701 266.447 249.746C266.447 250.892 266.1 251.797 265.406 252.461C264.711 253.126 263.757 253.458 262.555 253.458C261.765 253.476 260.988 253.272 260.324 252.875C259.671 252.464 259.169 251.877 258.886 251.193C258.564 250.46 258.402 249.576 258.402 248.54C258.402 246.565 258.873 245.07 259.84 244.057C260.807 243.043 262.233 242.535 264.129 242.535C264.639 242.53 265.149 242.561 265.654 242.629ZM264.315 249.801C264.315 249.244 264.166 248.816 263.869 248.517C263.559 248.217 263.125 248.067 262.555 248.067C262.042 248.052 261.542 248.217 261.154 248.528C260.979 248.654 260.837 248.814 260.739 248.998C260.64 249.182 260.587 249.384 260.584 249.589C260.563 250.13 260.752 250.66 261.117 251.082C261.284 251.26 261.487 251.404 261.715 251.507C261.943 251.611 262.191 251.67 262.444 251.683C262.697 251.695 262.95 251.66 263.189 251.58C263.427 251.5 263.646 251.376 263.831 251.216C264.154 250.903 264.315 250.432 264.315 249.801ZM277.182 247.713V247.768C279.004 247.979 279.921 248.827 279.921 250.313C279.921 251.291 279.537 252.06 278.743 252.619C277.962 253.178 276.835 253.458 275.372 253.458C274.12 253.458 273.029 253.267 272.1 252.883V250.991C273.077 251.435 274.148 251.672 275.236 251.685C276.066 251.685 276.686 251.564 277.095 251.322C277.296 251.204 277.46 251.038 277.569 250.842C277.678 250.645 277.729 250.425 277.715 250.204C277.715 249.641 277.479 249.245 277.02 249.014C276.562 248.784 275.831 248.667 274.814 248.667H273.846V247.004H274.763C275.656 247.004 276.325 246.897 276.784 246.681C277.242 246.466 277.478 246.085 277.478 245.539C277.486 245.368 277.452 245.198 277.379 245.041C277.306 244.884 277.196 244.744 277.056 244.633C276.784 244.417 276.35 244.309 275.767 244.309C275.338 244.31 274.912 244.373 274.503 244.494C274.04 244.64 273.598 244.84 273.189 245.089L272.111 243.569C273.241 242.899 274.551 242.54 275.891 242.536C277.056 242.536 277.974 242.763 278.643 243.218C278.963 243.425 279.223 243.703 279.398 244.028C279.574 244.352 279.659 244.711 279.647 245.074C279.661 245.689 279.431 246.288 279.002 246.756C278.582 247.215 277.962 247.535 277.182 247.713ZM291.249 247.697C292.092 248.106 292.699 248.545 293.084 249.009C293.533 249.559 293.729 250.252 293.629 250.936C293.529 251.62 293.141 252.239 292.551 252.658C291.807 253.192 290.84 253.458 289.663 253.458C288.398 253.458 287.407 253.206 286.7 252.702C286.006 252.197 285.647 251.498 285.647 250.605C285.637 250.021 285.828 249.449 286.192 248.973C286.539 248.507 287.097 248.104 287.841 247.768C286.613 247.058 285.994 246.171 285.994 245.104C285.985 244.737 286.074 244.374 286.254 244.047C286.433 243.72 286.697 243.44 287.023 243.232C287.704 242.767 288.584 242.535 289.663 242.534C290.741 242.534 291.621 242.765 292.29 243.225C292.615 243.438 292.878 243.723 293.055 244.053C293.233 244.384 293.319 244.751 293.307 245.12C293.307 246.224 292.612 247.083 291.249 247.697ZM289.663 246.831C290.245 246.605 290.642 246.37 290.865 246.125C291.084 245.89 291.203 245.589 291.199 245.278C291.206 245.121 291.171 244.965 291.098 244.823C291.024 244.681 290.914 244.559 290.778 244.466C290.443 244.253 290.043 244.148 289.638 244.166C289.246 244.151 288.859 244.254 288.535 244.458C288.397 244.551 288.286 244.675 288.212 244.818C288.139 244.961 288.104 245.119 288.113 245.278C288.109 245.59 288.233 245.892 288.46 246.122C288.807 246.429 289.215 246.67 289.663 246.83V246.831ZM289.526 248.62C288.336 249.086 287.741 249.706 287.742 250.479C287.732 250.67 287.772 250.859 287.859 251.032C287.945 251.205 288.075 251.356 288.237 251.471C288.56 251.714 289.031 251.835 289.625 251.835C290.245 251.835 290.716 251.717 291.051 251.484C291.215 251.37 291.345 251.22 291.432 251.047C291.518 250.875 291.558 250.685 291.547 250.495C291.539 250.156 291.392 249.832 291.138 249.589C290.853 249.304 290.394 249.018 289.762 248.729L289.526 248.62ZM307.35 253.3H299.38V251.732L302.343 249.005C303.446 247.986 304.14 247.279 304.413 246.885C304.678 246.525 304.825 246.1 304.834 245.663C304.845 245.487 304.813 245.31 304.743 245.147C304.672 244.983 304.564 244.835 304.425 244.714C304.132 244.474 303.749 244.351 303.359 244.371C302.908 244.371 302.461 244.455 302.045 244.619C301.515 244.842 301.019 245.13 300.57 245.474L299.343 244.048C299.796 243.72 300.272 243.421 300.769 243.154C301.148 242.96 301.552 242.81 301.971 242.708C302.443 242.59 302.931 242.531 303.421 242.534C304.499 242.534 305.367 242.808 306.024 243.354C306.344 243.613 306.599 243.935 306.77 244.296C306.942 244.657 307.025 245.049 307.015 245.443C307.016 245.951 306.906 246.454 306.693 246.921C306.45 247.437 306.119 247.913 305.714 248.331C305.083 248.994 304.412 249.624 303.706 250.218L302.367 251.376V251.463H307.35L307.35 253.3ZM313.672 253.364V251.543C314.139 251.643 314.618 251.69 315.097 251.685C316.374 251.685 317.316 251.426 317.923 250.909C318.531 250.392 318.853 249.53 318.903 248.328H318.803C318.506 248.806 318.159 249.138 317.737 249.325C317.254 249.524 316.729 249.62 316.2 249.605C315.159 249.605 314.341 249.301 313.759 248.695C313.164 248.087 312.866 247.24 312.866 246.153C312.866 245.033 313.213 244.152 313.92 243.505C314.614 242.859 315.568 242.535 316.746 242.535C318.035 242.535 319.051 242.961 319.795 243.812C320.551 244.663 320.923 245.875 320.923 247.446C320.923 249.406 320.44 250.898 319.485 251.923C318.531 252.947 317.105 253.46 315.209 253.46C314.695 253.466 314.181 253.434 313.672 253.364ZM314.998 246.121C314.998 247.313 315.581 247.91 316.733 247.91C317.254 247.926 317.763 247.76 318.159 247.445C318.333 247.32 318.475 247.16 318.573 246.978C318.672 246.795 318.726 246.594 318.73 246.389C318.742 245.86 318.553 245.344 318.197 244.931C318.032 244.749 317.829 244.6 317.601 244.494C317.372 244.387 317.123 244.325 316.868 244.311C316.613 244.297 316.357 244.332 316.117 244.413C315.876 244.494 315.656 244.619 315.47 244.782C315.159 245.096 314.998 245.542 314.998 246.121ZM330.579 253.458C329.265 253.458 328.273 252.999 327.604 252.079C326.935 251.16 326.6 249.807 326.6 248.02C326.6 246.171 326.935 244.794 327.592 243.89C328.249 242.986 329.252 242.535 330.579 242.535C333.231 242.535 334.57 244.359 334.57 248.005C334.57 249.902 334.235 251.284 333.591 252.154C332.934 253.024 331.93 253.458 330.579 253.458ZM330.579 251.685C331.223 251.685 331.682 251.397 331.955 250.821C332.24 250.246 332.376 249.308 332.376 248.005C332.376 246.68 332.24 245.734 331.955 245.163C331.682 244.594 331.223 244.308 330.579 244.308C330.378 244.298 330.177 244.33 329.99 244.401C329.804 244.472 329.637 244.58 329.5 244.718C329.24 244.991 329.054 245.396 328.942 245.932C328.827 246.623 328.773 247.321 328.781 248.02C328.781 249.312 328.93 250.246 329.202 250.821C329.488 251.397 329.947 251.685 330.579 251.685Z" fill="#20238C"/>
<path fill-rule="evenodd" clip-rule="evenodd" d="M287.407 260.3C287.283 258.928 290.468 254.189 291.794 253.458C293.071 252.757 295.228 254.546 295.364 255.917C295.488 257.289 293.876 260.957 292.55 261.686C291.224 262.416 287.531 261.671 287.407 260.3Z" fill="#FB9C9A"/>
<path fill-rule="evenodd" clip-rule="evenodd" d="M439.468 208.718C439.468 208.718 442.071 214.069 440.187 218.286C439.692 219.398 438.526 220.211 437.584 221.017C435.167 223.06 432.13 224.147 429.516 225.883C428.735 226.393 427.074 227.381 427.173 228.441C427.309 229.679 429.925 229.097 430.644 228.898C433.47 228.112 435.701 227.181 437.226 229.322C438.775 231.508 437.536 236.884 435.937 240.526C435.651 241.172 434.363 243.908 435.838 244.182C436.792 244.356 437.635 243.326 438.155 242.748C439.655 241.048 440.052 235.249 441.539 233.531C442.233 232.736 443.299 231.829 444.291 233.264C447.34 237.694 444.266 242.254 440.87 243.772C436.78 245.61 436.259 254.872 436.259 254.872C436.259 254.872 445.134 257.458 447.885 250.817C452.757 252.394 461.991 251.312 461.929 242.579C470.68 239.205 474.696 226.431 466.49 222.012C467.68 221.474 468.412 219.9 468.734 218.81C472.093 207.798 458.248 195.447 445.208 202.353C442.332 203.875 440.237 205.837 439.468 208.718Z" fill="url(#paint7_linear_1613_6362)"/>
<path d="M316.84 471.993C341.363 471.993 361.244 453.502 361.244 430.692C361.244 407.883 341.363 389.392 316.84 389.392C292.316 389.392 272.436 407.883 272.436 430.692C272.436 453.502 292.316 471.993 316.84 471.993Z" fill="url(#paint8_linear_1613_6362)"/>
<path fill-rule="evenodd" clip-rule="evenodd" d="M290.824 434.299L305.524 451.351C306.128 452.051 306.898 452.61 307.775 452.985C308.652 453.359 309.61 453.538 310.574 453.507C311.538 453.476 312.481 453.236 313.328 452.807C314.175 452.377 314.902 451.77 315.453 451.033L342.908 414.235C343.845 412.979 344.207 411.427 343.914 409.922C343.621 408.417 342.698 407.082 341.346 406.211C339.995 405.339 338.327 405.002 336.709 405.275C335.091 405.547 333.656 406.406 332.719 407.663L309.999 438.114L300.492 427.087C299.461 425.903 297.968 425.148 296.339 424.985C294.711 424.823 293.079 425.266 291.801 426.219C290.524 427.172 289.704 428.557 289.52 430.071C289.337 431.585 289.806 433.105 290.824 434.298V434.299Z" fill="white"/>
<path fill-rule="evenodd" clip-rule="evenodd" d="M477.813 272.543C506.569 274.891 548.514 369.085 530.826 395.096C513.127 421.108 401.484 423.794 371.661 428.609C349.004 447.019 339.744 424.118 342.992 424.088C357.42 423.953 357.035 413.19 357.035 413.19C357.035 413.19 357.271 412.063 353.193 407.484C357.692 404.54 367.745 413.041 367.745 413.041C367.745 413.041 475.42 374.515 485.188 367.91C490.046 364.628 459.716 334.199 458.476 302.193C458.055 291.222 461.364 271.2 477.813 272.543Z" fill="url(#paint9_linear_1613_6362)"/>
<mask id="mask3_1613_6362" style="mask-type:luminance" maskUnits="userSpaceOnUse" x="342" y="272" width="194" height="164">
<path d="M477.813 272.543C506.569 274.891 548.514 369.085 530.826 395.096C513.127 421.108 401.484 423.794 371.661 428.609C349.004 447.019 339.744 424.118 342.992 424.088C357.42 423.953 357.035 413.19 357.035 413.19C357.035 413.19 357.271 412.063 353.193 407.484C357.692 404.54 367.745 413.041 367.745 413.041C367.745 413.041 475.42 374.515 485.188 367.91C490.046 364.628 459.716 334.199 458.476 302.193C458.055 291.222 461.364 271.2 477.813 272.543Z" fill="white"/>
</mask>
<g mask="url(#mask3_1613_6362)">
<path fill-rule="evenodd" clip-rule="evenodd" d="M459.431 338.877C462.369 331.435 471.008 321.006 480.155 320.539C485.399 320.271 489.662 323.364 494.596 324.456C505.59 326.892 519.658 323.198 524.976 313.186C531.496 300.939 516.473 288.358 507.97 281.148C496.517 271.454 481.308 259.913 464.811 264.931C461.861 265.827 459.146 267.192 456.63 268.86C453.303 271.08 450.353 273.752 447.879 276.786C444.768 280.561 442.239 284.851 440.64 289.377C438.025 296.825 438.075 304.996 439.76 312.619C441.967 322.508 446.677 331.274 452.899 339.482L459.431 338.877Z" fill="url(#paint10_linear_1613_6362)"/>
</g>
<defs>
<linearGradient id="paint0_linear_1613_6362" x1="73.2152" y1="210.91" x2="175.503" y2="398.904" gradientUnits="userSpaceOnUse">
<stop stop-color="#E3DBF9"/>
<stop offset="0.61" stop-color="#D1C1FA"/>
<stop offset="0.82" stop-color="#A685FB"/>
<stop offset="1" stop-color="#7846FD"/>
</linearGradient>
<linearGradient id="paint1_linear_1613_6362" x1="199.097" y1="264.049" x2="177.927" y2="305.15" gradientUnits="userSpaceOnUse">
<stop stop-color="#AADBFF"/>
<stop offset="1" stop-color="#0500E3"/>
</linearGradient>
<linearGradient id="paint2_linear_1613_6362" x1="211.135" y1="232.788" x2="188.873" y2="280.031" gradientUnits="userSpaceOnUse">
<stop stop-color="#AADBFF"/>
<stop offset="1" stop-color="#0500E3"/>
</linearGradient>
<linearGradient id="paint3_linear_1613_6362" x1="422.624" y1="214.218" x2="451.944" y2="261.978" gradientUnits="userSpaceOnUse">
<stop stop-color="#FB9C9A"/>
<stop offset="0.64" stop-color="#FC8886"/>
<stop offset="0.84" stop-color="#FD5450"/>
<stop offset="1" stop-color="#FF1712"/>
</linearGradient>
<linearGradient id="paint4_linear_1613_6362" x1="347.168" y1="282.196" x2="403.883" y2="386.385" gradientUnits="userSpaceOnUse">
<stop stop-color="#FB9C9A"/>
<stop offset="0.63" stop-color="#FC8784"/>
<stop offset="0.83" stop-color="#FD524E"/>
<stop offset="1" stop-color="#FF1712"/>
</linearGradient>
<linearGradient id="paint5_linear_1613_6362" x1="392.231" y1="281.217" x2="420.482" y2="336.623" gradientUnits="userSpaceOnUse">
<stop stop-color="#20238C"/>
<stop offset="0.54" stop-color="#1A1D7F"/>
<stop offset="1" stop-color="#050751"/>
</linearGradient>
<linearGradient id="paint6_linear_1613_6362" x1="402.52" y1="288.111" x2="471.099" y2="393.439" gradientUnits="userSpaceOnUse">
<stop stop-color="#20238C"/>
<stop offset="0.51" stop-color="#191C7E"/>
<stop offset="1" stop-color="#050751"/>
</linearGradient>
<linearGradient id="paint7_linear_1613_6362" x1="436.697" y1="251.826" x2="463.14" y2="197.906" gradientUnits="userSpaceOnUse">
<stop/>
<stop offset="1" stop-color="#4D4D4D"/>
</linearGradient>
<linearGradient id="paint8_linear_1613_6362" x1="334.699" y1="391.233" x2="296.491" y2="489.06" gradientUnits="userSpaceOnUse">
<stop stop-color="#AADBFF"/>
<stop offset="0.6" stop-color="#92D1FF"/>
<stop offset="0.81" stop-color="#5BB9FF"/>
<stop offset="1" stop-color="#22A1FF"/>
</linearGradient>
<linearGradient id="paint9_linear_1613_6362" x1="436.156" y1="381.172" x2="447.038" y2="458.943" gradientUnits="userSpaceOnUse">
<stop stop-color="#FB9C9A"/>
<stop offset="0.47" stop-color="#FC7875"/>
<stop offset="1" stop-color="#FF1712"/>
</linearGradient>
<linearGradient id="paint10_linear_1613_6362" x1="492.811" y1="271.714" x2="470.789" y2="348.362" gradientUnits="userSpaceOnUse">
<stop stop-color="#20238C"/>
<stop offset="0.49" stop-color="#191C7D"/>
<stop offset="1" stop-color="#050751"/>
</linearGradient>
</defs>
</svg>
