<svg width="17" height="20" viewBox="0 0 17 20" fill="none" xmlns="http://www.w3.org/2000/svg">
<path d="M9.78717 5.73321C9.78717 4.85094 9.06945 4.09766 8.18717 4.09766C7.3049 4.09766 6.58717 4.85094 6.58717 5.73321V7.33321H9.78717V5.73321ZM8.18717 13.7332C9.658 13.7332 10.8538 12.5369 10.8538 11.0665V8.39988H5.52051V11.0665C5.52051 12.5369 6.71635 13.7332 8.18717 13.7332ZM7.65384 9.46654H8.72051V12.6665H7.65384V9.46654Z" fill="#A5A5A5"/>
<path d="M8.04062 19.0602L8.1875 19.1019L8.33438 19.0602C12.9583 17.7389 16.1875 13.4367 16.1875 8.63407V1.96413H13.7417L12.675 0.897461H3.7L2.63333 1.96413H0.1875V8.63407C0.1875 13.4367 3.41666 17.7389 8.04062 19.0602ZM4.45417 7.33302H5.52083V5.73302C5.52083 4.26269 6.71667 3.03079 8.1875 3.03079C9.65833 3.03079 10.8542 4.26269 10.8542 5.73302V7.33302H11.9208V11.0663C11.9208 13.1247 10.2458 14.7997 8.1875 14.7997C6.12915 14.7997 4.45417 13.1247 4.45417 11.0663V7.33302Z" fill="#A5A5A5"/>
</svg>
