<svg width="686" height="580" viewBox="0 0 686 580" fill="none" xmlns="http://www.w3.org/2000/svg">
<path d="M519.667 347.158C516.664 347.158 513.642 346.984 510.671 346.638C509.392 346.489 508.219 345.857 507.391 344.872C506.564 343.887 506.144 342.622 506.217 341.338C506.609 334.401 502.586 327.946 496.207 325.277C490.131 322.729 482.206 324.513 477.759 329.428C475.963 331.411 472.928 331.648 470.855 329.974C466.274 326.284 462.116 322.081 458.497 317.474C456.873 315.414 457.117 312.411 459.049 310.64C464.111 306.001 465.773 298.648 463.187 292.34C460.627 286.109 454.499 282.035 447.973 282.202C445.439 282.202 442.436 280.366 442.141 277.736C441.48 271.807 441.486 265.826 442.173 259.974C442.5 257.26 444.656 255.431 447.402 255.521C454.634 255.521 460.974 251.594 463.527 245.518C466.203 239.139 464.541 231.722 459.389 227.057C457.419 225.26 457.181 222.231 458.85 220.159C462.539 215.552 466.793 211.349 471.484 207.666C473.557 206.049 476.56 206.305 478.331 208.243C482.739 213.088 490.612 214.884 496.65 212.414C502.951 209.834 507.02 203.488 506.782 196.623C506.692 193.998 508.669 191.72 511.274 191.431C517.113 190.786 523.007 190.801 528.843 191.476C531.499 191.784 533.456 194.114 533.296 196.777C532.904 203.707 536.921 210.162 543.293 212.844C549.382 215.385 557.32 213.601 561.747 208.699C563.538 206.716 566.566 206.472 568.645 208.14C573.201 211.785 577.359 215.994 581.023 220.64C582.653 222.706 582.409 225.709 580.471 227.48C575.415 232.12 573.753 239.473 576.332 245.781C578.854 251.941 584.873 255.919 591.662 255.919C594.126 255.919 597.077 257.754 597.373 260.391C598.034 266.32 598.027 272.301 597.341 278.153C597.026 280.816 594.639 282.818 592.015 282.599L591.097 282.574C584.578 282.574 578.488 286.603 575.979 292.603C573.304 298.975 574.972 306.392 580.125 311.064C582.101 312.854 582.338 315.883 580.67 317.962C576.948 322.593 572.709 326.785 568.036 330.455C565.924 332.085 562.986 331.841 561.189 329.884C556.774 325.039 548.895 323.243 542.857 325.713C536.555 328.293 532.487 334.639 532.731 341.498C532.821 344.122 530.845 346.407 528.239 346.696C525.403 346.997 522.522 347.158 519.667 347.158ZM490.266 322.639C492.518 322.639 494.744 323.05 496.779 323.904C503.741 326.817 508.13 333.856 507.7 341.421C507.648 342.327 507.943 343.219 508.527 343.914C509.11 344.609 509.936 345.056 510.837 345.162C516.563 345.825 522.344 345.84 528.073 345.207C529.914 345.002 531.307 343.391 531.242 341.543C530.973 334.068 535.413 327.15 542.286 324.333C548.875 321.645 557.467 323.596 562.273 328.883C563.538 330.262 565.617 330.436 567.105 329.281C571.68 325.694 575.851 321.568 579.496 317.031C580.065 316.325 580.342 315.427 580.27 314.523C580.199 313.618 579.784 312.776 579.111 312.167C573.49 307.073 571.674 298.981 574.587 292.032C577.333 285.487 583.968 281.092 591.097 281.092L592.072 281.117C593.953 281.265 595.621 279.86 595.845 277.979C596.519 272.237 596.532 266.372 595.878 260.558C595.679 258.787 593.439 257.408 591.643 257.408C584.25 257.408 577.693 253.064 574.933 246.345C572.123 239.46 573.932 231.439 579.444 226.383C580.811 225.132 580.984 223.014 579.836 221.558C576.249 217.002 572.161 212.876 567.702 209.302C566.994 208.735 566.096 208.46 565.192 208.533C564.288 208.606 563.446 209.021 562.838 209.693C558.006 215.045 549.35 216.989 542.709 214.217C535.753 211.291 531.377 204.252 531.801 196.693C531.853 195.787 531.557 194.896 530.974 194.2C530.391 193.505 529.564 193.059 528.663 192.952C522.933 192.291 517.132 192.272 511.428 192.907C509.586 193.113 508.194 194.717 508.258 196.571C508.521 204.053 504.081 210.97 497.202 213.787C490.612 216.476 482.027 214.525 477.221 209.238C475.976 207.871 473.852 207.691 472.389 208.833C467.803 212.429 463.646 216.539 459.998 221.083C459.432 221.791 459.157 222.687 459.228 223.591C459.3 224.494 459.713 225.337 460.383 225.947C465.998 231.035 467.814 239.127 464.894 246.089C462.109 252.717 455.237 257.003 447.377 257.003C445.368 256.946 443.88 258.203 443.648 260.148C442.975 265.89 442.968 271.749 443.616 277.569C443.815 279.34 446.106 280.713 447.954 280.713C455.096 280.527 461.763 284.974 464.56 291.775C467.384 298.654 465.568 306.675 460.049 311.738C458.689 312.989 458.516 315.106 459.658 316.556C463.222 321.089 467.289 325.202 471.779 328.819C473.242 329.999 475.385 329.826 476.649 328.434C480.012 324.712 485.19 322.639 490.266 322.639ZM519.879 295.766C505.242 295.766 493.333 283.857 493.333 269.221C493.333 254.584 505.242 242.675 519.879 242.675C534.515 242.675 546.424 254.584 546.424 269.221C546.424 283.857 534.515 295.766 519.879 295.766ZM519.879 244.157C506.057 244.157 494.815 255.399 494.815 269.221C494.815 283.042 506.057 294.284 519.879 294.284C533.694 294.284 544.936 283.042 544.936 269.221C544.936 255.399 533.7 244.157 519.879 244.157ZM190.678 447.251C187.316 448.746 183.831 450.062 180.328 451.152C177.203 452.134 173.847 450.498 172.692 447.431C169.67 439.455 161.938 434.225 153.455 434.411C145.37 434.585 137.368 440.539 134.834 448.271C133.807 451.39 130.522 453.167 127.358 452.327C120.383 450.479 113.62 447.835 107.268 444.466C104.419 442.971 103.193 439.481 104.476 436.522C107.839 428.79 106.036 419.711 99.9911 413.929C94.0108 408.219 85.1044 406.704 77.8729 410.144C75.0303 411.408 70.7504 410.849 69.1077 408.045C65.4053 401.725 62.4344 395.013 60.2848 388.109C59.2966 384.907 60.8045 381.769 63.9294 380.505C72.0401 376.899 77.1927 369.334 77.0259 361.242C76.8462 352.753 71.2765 345.258 63.1723 342.602C60.0666 341.575 58.2892 338.296 59.1234 335.139C60.9649 328.132 63.6343 321.298 67.0608 314.824C68.5815 311.981 72.0786 310.762 75.0239 312.052C82.3838 315.286 92.1114 313.374 97.649 307.592C103.43 301.554 104.829 292.404 101.133 284.826C99.728 281.926 100.8 278.384 103.584 276.76C109.783 273.135 116.424 270.209 123.316 268.046C126.447 267.071 129.803 268.707 130.952 271.768C133.967 279.738 141.693 284.974 150.176 284.8C158.274 284.614 166.282 278.653 168.803 270.947C169.824 267.835 173.096 266.051 176.26 266.885C183.183 268.701 189.953 271.345 196.369 274.726C199.225 276.228 200.45 279.718 199.161 282.676C195.805 290.396 197.608 299.475 203.646 305.263C209.549 310.91 218.282 312.373 225.899 308.985C228.665 307.753 232.887 308.343 234.536 311.147C238.238 317.468 241.209 324.173 243.359 331.084C244.334 334.228 242.653 337.661 239.605 338.726L238.565 339.156C231.25 342.409 226.438 349.968 226.611 357.95C226.791 366.433 232.361 373.921 240.471 376.584C243.583 377.605 245.361 380.884 244.52 384.047C242.659 391.092 239.99 397.926 236.583 404.362C235.03 407.243 231.61 408.43 228.62 407.134C221.253 403.9 211.519 405.819 205.982 411.594C200.2 417.632 198.801 426.776 202.504 434.341C203.915 437.241 202.837 440.783 200.059 442.407C197.037 444.21 193.88 445.827 190.678 447.251ZM145.472 434.418C147.994 433.295 150.696 432.64 153.41 432.583C162.669 432.377 171.101 438.082 174.399 446.783C174.791 447.825 175.567 448.678 176.568 449.167C177.569 449.655 178.72 449.741 179.782 449.407C186.494 447.315 193.058 444.415 199.135 440.86C201.099 439.718 201.856 437.215 200.861 435.169C196.825 426.917 198.359 416.945 204.666 410.355C210.711 404.054 221.324 401.956 229.351 405.485C231.456 406.396 233.875 405.556 234.972 403.522C238.315 397.214 240.933 390.509 242.756 383.604C243.04 382.528 242.903 381.385 242.372 380.406C241.842 379.428 240.957 378.69 239.9 378.343C231.058 375.436 224.981 367.267 224.782 358.015C224.596 349.307 229.845 341.062 237.84 337.507L238.95 337.045C241.132 336.275 242.3 333.862 241.613 331.648C239.48 324.822 236.576 318.26 232.957 312.09C231.847 310.204 228.652 309.774 226.637 310.672C218.34 314.362 208.824 312.764 202.382 306.598C195.792 300.284 193.822 290.383 197.486 281.964C198.397 279.879 197.531 277.421 195.516 276.356C189.221 273.032 182.58 270.446 175.791 268.662C174.715 268.378 173.57 268.517 172.593 269.05C171.615 269.584 170.879 270.471 170.536 271.531C167.783 279.943 159.05 286.437 150.214 286.642C140.955 286.828 132.53 281.117 129.245 272.429C128.436 270.267 126.068 269.112 123.861 269.805C117.098 271.922 110.591 274.797 104.508 278.352C102.545 279.5 101.788 281.996 102.782 284.043C106.812 292.301 105.278 302.279 98.9709 308.869C92.9264 315.17 82.3132 317.262 74.2924 313.733C72.2134 312.822 69.7429 313.682 68.6714 315.69C65.309 322.036 62.691 328.735 60.8879 335.614C60.2976 337.841 61.5553 340.157 63.7434 340.882C72.5791 343.782 78.6493 351.957 78.8482 361.223C79.0343 370.046 73.4582 378.278 64.6481 382.199C62.3702 383.129 61.3243 385.285 62.0301 387.583C64.1412 394.352 67.0544 400.936 70.6862 407.141C71.7899 409.027 75.0495 409.425 77.1157 408.501C85.0339 404.728 94.7294 406.39 101.255 412.627C107.852 418.934 109.821 428.835 106.151 437.26C105.246 439.346 106.113 441.803 108.121 442.862C114.358 446.16 120.986 448.753 127.833 450.569C130.066 451.159 132.376 449.901 133.101 447.707C135.007 441.861 139.787 436.946 145.472 434.418ZM165.281 389.508C148.86 396.81 129.566 389.392 122.263 372.978C114.961 356.558 122.379 337.263 138.793 329.961C155.213 322.659 174.508 330.076 181.81 346.49C189.112 362.904 181.701 382.205 165.281 389.508ZM139.537 331.623C124.041 338.514 117.04 356.731 123.932 372.227C130.823 387.724 149.04 394.724 164.536 387.833C180.033 380.941 187.033 362.724 180.142 347.228C173.25 331.732 155.04 324.731 139.537 331.623Z" fill="#FFBE55"/>
<path d="M166.108 43.7393H512.884V553.267H166.108V43.7393Z" fill="#F7F7F7"/>
<path d="M185.468 65.1196H493.532V531.887H185.468V65.1196Z" fill="white"/>
<path opacity="0.1" d="M467.865 173.131H211.135C206.9 173.131 203.435 169.666 203.435 165.431V112.994C203.435 108.759 206.9 105.294 211.135 105.294H467.872C472.107 105.294 475.572 108.759 475.572 112.994V165.431C475.565 169.666 472.1 173.131 467.865 173.131ZM289.777 199.285H208.427C205.68 199.285 203.435 197.039 203.435 194.293C203.435 191.547 205.68 189.301 208.427 189.301H289.777C292.524 189.301 294.769 191.547 294.769 194.293C294.769 197.039 292.524 199.285 289.777 199.285ZM470.573 228.115H208.427C205.68 228.115 203.435 225.87 203.435 223.123C203.435 220.377 205.68 218.131 208.427 218.131H470.573C473.32 218.131 475.565 220.377 475.565 223.123C475.565 225.863 473.32 228.115 470.573 228.115ZM470.573 251.081H208.427C205.68 251.081 203.435 248.835 203.435 246.088C203.435 243.342 205.68 241.096 208.427 241.096H470.573C473.32 241.096 475.565 243.342 475.565 246.088C475.565 248.835 473.32 251.081 470.573 251.081ZM470.573 274.046H208.427C205.68 274.046 203.435 271.8 203.435 269.054C203.435 266.307 205.68 264.062 208.427 264.062H470.573C473.32 264.062 475.565 266.307 475.565 269.054C475.565 271.8 473.32 274.046 470.573 274.046ZM470.573 297.018H208.427C205.68 297.018 203.435 294.772 203.435 292.025C203.435 289.279 205.68 287.033 208.427 287.033H470.573C473.32 287.033 475.565 289.279 475.565 292.025C475.565 294.772 473.32 297.018 470.573 297.018ZM470.573 319.983H208.427C205.68 319.983 203.435 317.737 203.435 314.991C203.435 312.244 205.68 309.998 208.427 309.998H470.573C473.32 309.998 475.565 312.244 475.565 314.991C475.565 317.737 473.32 319.983 470.573 319.983ZM470.573 342.954H208.427C205.68 342.954 203.435 340.709 203.435 337.962C203.435 335.216 205.68 332.97 208.427 332.97H470.573C473.32 332.97 475.565 335.216 475.565 337.962C475.565 340.709 473.32 342.954 470.573 342.954ZM470.573 365.92H208.427C205.68 365.92 203.435 363.674 203.435 360.928C203.435 358.181 205.68 355.935 208.427 355.935H470.573C473.32 355.935 475.565 358.181 475.565 360.928C475.565 363.674 473.32 365.92 470.573 365.92ZM470.573 388.891H208.427C205.68 388.891 203.435 386.646 203.435 383.899C203.435 381.153 205.68 378.907 208.427 378.907H470.573C473.32 378.907 475.565 381.153 475.565 383.899C475.565 386.639 473.32 388.891 470.573 388.891ZM470.573 411.857H208.427C205.68 411.857 203.435 409.611 203.435 406.864C203.435 404.118 205.68 401.872 208.427 401.872H470.573C473.32 401.872 475.565 404.118 475.565 406.864C475.565 409.611 473.32 411.857 470.573 411.857ZM356.742 434.828H208.427C205.68 434.828 203.435 432.582 203.435 429.836C203.435 427.09 205.68 424.844 208.427 424.844H356.742C359.488 424.844 361.734 427.09 361.734 429.836C361.734 432.576 359.488 434.828 356.742 434.828Z" fill="#FFBE55"/>
<path d="M438.284 517.95C460.529 517.95 478.562 499.917 478.562 477.673C478.562 455.428 460.529 437.395 438.284 437.395C416.04 437.395 398.007 455.428 398.007 477.673C398.007 499.917 416.04 517.95 438.284 517.95Z" fill="#FFBE55"/>
<path d="M441.653 514.171C463.898 514.171 481.931 496.138 481.931 473.893C481.931 451.649 463.898 433.616 441.653 433.616C419.409 433.616 401.376 451.649 401.376 473.893C401.376 496.138 419.409 514.171 441.653 514.171Z" stroke="#FFBE55" stroke-miterlimit="10"/>
<path d="M544.322 579.092H31.946C29.183 579.092 26.9238 576.324 26.9238 572.938V549.385C26.9238 545.999 29.183 543.231 31.946 543.231H544.317C547.08 543.231 549.339 545.999 549.339 549.385V572.938C549.345 576.317 547.085 579.092 544.322 579.092Z" fill="#F2F2F2"/>
<path d="M289.289 341.023L290.874 354.87C290.874 354.87 300.486 354.999 304.182 350.757C303.508 348.203 301.789 346.266 301.789 346.266C301.789 346.266 302.7 346.445 305.953 345.592C303.848 343.994 293.909 338.367 293.909 338.367L289.289 341.023Z" fill="#FCD2B1"/>
<path d="M306.448 348.883C306.448 348.883 304.484 343.705 302.45 344.231C300.416 344.758 292.607 351.444 295.347 354.119C298.388 357.09 297.881 359.869 297.881 359.869C297.881 359.869 307.449 355.955 306.448 348.883Z" fill="#FCD2B1"/>
<path d="M460.981 386.774H430.957C429.404 386.774 428.146 385.516 428.146 383.963V366.433C428.146 364.88 429.411 363.623 430.957 363.623H460.981C462.533 363.623 463.791 364.887 463.791 366.433V383.963C463.791 385.516 462.527 386.774 460.981 386.774ZM431.996 382.924H459.941V367.473H431.996V382.924Z" fill="#9ACFF7"/>
<path d="M476.778 378.06V412.576C476.778 414.148 475.495 415.431 473.923 415.431H418.008C416.436 415.431 415.152 414.148 415.152 412.576V378.06C415.152 376.488 416.436 375.205 418.008 375.205H473.923C475.495 375.205 476.778 376.488 476.778 378.06Z" fill="#CCE9FF"/>
<path d="M476.778 378.06V395.321H415.152V378.06C415.152 376.488 416.436 375.205 418.008 375.205H473.923C475.495 375.205 476.778 376.488 476.778 378.06Z" fill="#9ACFF7"/>
<path d="M438.284 392.729H453.646V400.66H438.284V392.729Z" fill="#2A94F4"/>
<path d="M374.984 345.9L367.951 550.418H382.594C382.594 550.418 404.411 454.874 394.086 438.845C403.679 409.348 418.848 346.965 418.848 346.965L374.984 345.9Z" fill="#0D517F"/>
<path d="M379.188 346.965L389.531 368.378L431.349 554.538H445.966C445.966 554.538 445.85 460.348 430.065 444.255C428.204 409.534 430.835 363.726 423.334 340.048C393.4 333.317 379.188 346.965 379.188 346.965Z" fill="#0E538C"/>
<path d="M390.647 250.439C378.519 271.531 359.109 306.418 337.222 317.525C338.537 322.306 341.341 326.592 341.341 326.592C341.341 326.592 375.882 314.246 386.957 296.844C398.032 279.442 390.647 250.439 390.647 250.439Z" fill="#0B3A54"/>
<path d="M445.593 353.536C443.309 354.87 438.291 372.568 438.291 372.568C438.291 372.568 447.377 374.557 452.722 370.104C456.103 359.593 449.161 348.903 449.161 348.903L445.593 353.536ZM396.717 210.572C396.396 214.14 394.093 226.524 394.093 226.524L418.855 213.935L417.674 210.758L411.245 197.354C411.245 197.354 405.008 197.566 404.379 197.354C403.743 197.142 396.717 210.572 396.717 210.572Z" fill="#FCD2B1"/>
<path d="M423.18 158.495C429.417 169.807 437.22 162.396 432.343 176.237C433.87 178.579 442.289 183.648 425.131 200.999C419.67 209.777 417.668 210.746 417.668 210.746C417.668 210.746 413.722 205.041 411.239 200.383L399.586 165.117L423.18 158.495Z" fill="#0E538C"/>
<path d="M386.894 171.251C386.894 171.251 374.176 181.974 381.408 211.657C391.636 213.152 401.113 209.161 401.113 209.161L411.239 200.396C411.239 200.396 409.096 168.755 398.367 167.51C387.645 166.259 386.894 171.251 386.894 171.251Z" fill="#FFE3CA"/>
<path d="M399.977 173.118C392.174 173.51 372.045 165.316 379.187 156.351C386.329 147.387 393.548 159.078 398.418 157.327C403.295 155.569 416.943 147.188 423.18 158.495C423.18 158.495 426.69 172.143 399.977 173.118Z" fill="#0E538C"/>
<path d="M414.358 189.401C416.457 186.475 416.608 182.991 414.696 181.62C412.784 180.248 409.533 181.508 407.434 184.433C405.335 187.359 405.184 190.842 407.096 192.214C409.008 193.586 412.259 192.326 414.358 189.401Z" fill="#FFE3CA"/>
<path d="M399.586 169.955C398.476 179.111 399.021 184.251 400.503 185.759C401.485 188.018 402.127 192.156 402.127 192.156H405.881C405.881 192.156 411.162 181.569 411.239 178.181C411.309 174.793 409.641 167.305 409.641 167.305L399.586 169.955Z" fill="#0E538C"/>
<path d="M423.334 226.524V210.758C423.334 210.758 390.718 222.411 388.876 226.524C387.035 230.637 371.936 273.436 371.936 273.436C371.936 273.436 371.878 369.269 371.988 372.567C377.961 364.874 395.209 349.301 395.209 349.301L435.75 372.567C435.75 372.567 422.583 322.588 421.993 319.181C421.402 315.773 430.058 281.367 430.058 281.367L423.334 226.524Z" fill="#0B4870"/>
<path d="M421.602 228.302C407.029 229.784 401.383 235.135 401.383 241.084C410.899 262.195 448.359 297.692 443.309 354.87C448.064 355.255 454.609 354.87 454.609 354.87C454.609 354.87 476.009 282.715 421.602 228.302Z" fill="#125D87"/>
<path d="M341.746 321.574C341.612 321.484 341.483 321.401 341.361 321.311C339.026 319.72 338.127 318.802 337.223 317.519C336.273 316.171 332.333 313.688 330.434 315.517C328.534 317.339 328.361 320.92 328.81 322.267C329.266 323.615 328.682 329.377 329.632 330.474C330.581 331.571 334.085 333.612 337.004 333.317C339.924 333.028 341.746 329.89 342.401 327.189C343.062 324.494 341.746 321.574 341.746 321.574Z" fill="#EDBC9A"/>
<path d="M367.951 550.778L334.815 565.234H383.666L382.6 550.778H367.951ZM430.899 550.778L397.756 565.234H446.607L445.541 550.778H430.899Z" fill="#0B4870"/>
<path d="M509.644 87.9432H428.942C419.939 87.9432 412.58 95.3096 412.58 104.306V124.345C412.58 133.348 419.946 140.707 428.942 140.707H433.389L425.086 154.92L445.054 140.707H509.644C518.647 140.707 526.007 133.341 526.007 124.345V104.306C526.007 95.3032 518.647 87.9432 509.644 87.9432ZM413.606 16.083H374.574C355.651 16.083 340.174 31.5664 340.174 50.4827C340.174 69.29 355.465 84.6836 374.227 84.8761C383.005 90.5163 394.093 97.5169 394.093 97.5169L387.407 84.8825H413.613C432.535 84.8825 448.012 69.3991 448.012 50.4827C448.012 31.5664 432.529 16.083 413.606 16.083Z" fill="#FFBE55"/>
<path d="M271.855 176.628C267.248 169.538 261.723 161.806 253.395 160.356C248.293 159.464 243.102 161.177 238.38 163.301C230.109 167.016 222.011 172.586 218.629 180.998C215.331 189.211 217.128 198.445 218.295 207.217C219.463 215.988 219.662 225.812 214.028 232.633C207.971 239.954 197.428 241.244 189.003 245.64C180.873 249.887 174.508 257.408 171.685 266.141C170.267 270.517 169.747 275.419 171.569 279.642C173.558 284.236 177.986 287.303 182.535 289.395C201.901 298.295 226.117 292.667 241.838 278.275C257.559 263.882 265.259 242.098 265.477 220.788C265.554 213.203 264.771 205.491 266.574 198.124C267.582 194.005 269.372 190.11 270.296 185.971L271.855 176.628Z" fill="#0E538C"/>
<path d="M244.052 260.263C257.623 292.866 273.671 323.525 289.475 343.814C295.629 344.155 299.203 340.677 299.203 340.677C299.203 340.677 265.464 281.406 268.012 263.183C270.565 244.953 244.052 260.263 244.052 260.263Z" fill="#1989DD"/>
<path d="M285.543 309.64L316.43 327.877L291.243 370.533L260.357 352.296L285.543 309.64Z" fill="#CCE9FF"/>
<path d="M286.317 312.344L313.696 328.509L290.923 367.077L263.545 350.911L286.317 312.344Z" fill="white"/>
<path d="M295.135 313.297L308.578 321.234C308.755 321.338 308.909 321.476 309.032 321.64C309.156 321.803 309.246 321.99 309.297 322.188C309.348 322.387 309.36 322.593 309.331 322.796C309.302 322.999 309.234 323.194 309.13 323.371L306.967 327.035C306.863 327.211 306.726 327.366 306.562 327.489C306.398 327.613 306.212 327.703 306.013 327.754C305.815 327.805 305.608 327.817 305.405 327.788C305.202 327.759 305.007 327.691 304.831 327.587L291.388 319.649C291.211 319.545 291.057 319.408 290.933 319.244C290.81 319.08 290.72 318.894 290.669 318.695C290.617 318.497 290.606 318.29 290.634 318.087C290.663 317.884 290.732 317.689 290.836 317.513L292.998 313.849C293.441 313.104 294.397 312.854 295.135 313.297Z" fill="#0E538C"/>
<path d="M284.714 319.271L308.385 333.246C308.7 333.433 308.803 333.837 308.616 334.151C308.43 334.466 308.026 334.568 307.712 334.382L284.041 320.407C283.726 320.221 283.624 319.816 283.81 319.502C283.989 319.187 284.4 319.085 284.714 319.271ZM282.526 322.98L306.197 336.955C306.512 337.141 306.614 337.546 306.428 337.86C306.242 338.174 305.838 338.277 305.524 338.091L281.853 324.115C281.538 323.929 281.435 323.525 281.622 323.211C281.801 322.896 282.212 322.794 282.526 322.98ZM280.338 326.682L304.009 340.658C304.324 340.844 304.426 341.248 304.24 341.562C304.054 341.877 303.65 341.979 303.336 341.793L279.664 327.818C279.35 327.632 279.247 327.228 279.433 326.913C279.613 326.599 280.024 326.496 280.338 326.682ZM278.15 330.391L301.821 344.366C302.136 344.553 302.238 344.957 302.052 345.271C301.866 345.586 301.462 345.688 301.147 345.502L277.476 331.527C277.162 331.341 277.059 330.936 277.245 330.622C277.425 330.308 277.836 330.205 278.15 330.391ZM275.962 334.093L299.633 348.069C299.948 348.255 300.05 348.659 299.864 348.974C299.678 349.288 299.274 349.391 298.959 349.205L275.288 335.229C274.974 335.043 274.871 334.639 275.057 334.324C275.237 334.016 275.648 333.907 275.962 334.093ZM273.774 337.802L297.445 351.778C297.759 351.964 297.862 352.368 297.676 352.683C297.49 352.997 297.086 353.1 296.771 352.913L273.1 338.938C272.786 338.752 272.683 338.348 272.869 338.033C273.049 337.719 273.46 337.616 273.774 337.802ZM271.4 341.396L287.416 350.854C287.628 350.982 287.653 351.335 287.467 351.649C287.281 351.964 286.96 352.118 286.742 351.989L270.726 342.531C270.514 342.403 270.489 342.05 270.675 341.736C270.861 341.428 271.188 341.274 271.4 341.396Z" fill="#CCE9FF"/>
<path d="M289.085 363.488C291.225 363.488 292.96 361.753 292.96 359.612C292.96 357.472 291.225 355.737 289.085 355.737C286.944 355.737 285.209 357.472 285.209 359.612C285.209 361.753 286.944 363.488 289.085 363.488Z" fill="#FFBE55"/>
<path d="M254.376 541.39L262.224 552.696C263.963 555.199 266.189 557.323 268.769 558.933L278.868 565.234H253.612L245.406 555.597V565.234H241.658V541.39H254.376Z" fill="#FFBE55"/>
<path d="M266.222 422.111C265.034 426.371 254.376 540.96 254.376 540.96C254.376 540.96 241.344 544.688 241.742 540.96C242.14 537.232 228.318 445.564 246.086 422.111C258.323 412.518 266.222 422.111 266.222 422.111Z" fill="#F7C39F"/>
<path d="M247.857 541.39L255.705 552.696C257.444 555.199 259.671 557.323 262.25 558.933L272.35 565.234H247.094L238.887 555.597V565.234H235.14V541.39H247.857Z" fill="#FFBE55"/>
<path d="M259.702 422.111C258.515 426.371 247.857 540.96 247.857 540.96C247.857 540.96 234.825 544.688 235.222 540.96C235.62 537.232 221.799 445.564 239.567 422.111C251.803 412.518 259.702 422.111 259.702 422.111Z" fill="#FCD2B1"/>
<path d="M240.433 318.27C231.282 328.369 218.058 338.604 228.177 369.43C232.662 383.104 233.195 397.759 229.993 411.786C225.905 429.708 222.273 451.704 222.273 451.704L268.223 452.994C268.223 452.994 282.661 346.394 271.861 318.27C258.457 313.284 240.433 318.27 240.433 318.27Z" fill="#0E538C"/>
<path d="M258.304 229.906C263.694 237.741 281.988 265.595 280.942 269.477C279.697 274.11 271.849 318.27 271.849 318.27H240.427C240.427 318.27 244.392 308.151 241.081 301.407C237.77 294.663 211.411 247.103 244.829 222.54C250.591 224.734 258.304 229.906 258.304 229.906Z" fill="#2A94F4"/>
<path d="M259.952 218.009C259.234 223.592 258.335 227.91 260.851 236.014C253.471 232.774 245.367 226.114 244.828 223.592C247.35 217.65 250.051 213.8 247.889 208.705C251.489 209.186 259.952 218.009 259.952 218.009Z" fill="#FCD2B1"/>
<path d="M272.125 181.717C275.334 192.625 274.538 223.803 266.1 222.501C257.662 221.205 247.607 216.983 243.712 206.28C239.824 195.577 247.325 162.993 272.125 181.717Z" fill="#FFE3CA"/>
<path d="M243.575 208.581C245.067 207.72 245.16 205.088 243.783 202.704C242.406 200.319 240.081 199.084 238.589 199.945C237.098 200.806 237.005 203.438 238.382 205.822C239.758 208.207 242.084 209.442 243.575 208.581Z" fill="#FFE3CA"/>
<path d="M235.967 204.707C255.108 199.516 270.277 189.41 273.87 180.003C277.457 170.596 253.125 165.726 248.261 171.245C243.397 176.763 225.976 193.331 235.967 204.707Z" fill="#0E538C"/>
<path d="M243.647 211.92C245.423 211.92 246.862 210.48 246.862 208.705C246.862 206.93 245.423 205.49 243.647 205.49C241.872 205.49 240.433 206.93 240.433 208.705C240.433 210.48 241.872 211.92 243.647 211.92Z" fill="#FFBE55"/>
<path d="M246.863 228.411C239.753 226.89 230.462 241.873 231.36 245.011C232.259 248.148 255.275 334.619 325.903 328.787C326.128 327.888 325.903 321.613 325.903 321.613C325.903 321.613 266.947 329.512 246.863 228.411Z" fill="#34A2F4"/>
<path d="M192.276 80.2435H148.514C128.122 80.2435 111.586 96.7793 111.586 117.171C111.586 137.564 128.122 154.099 148.514 154.099H162.316C173.141 162.165 198.557 181.03 197.563 179.663C196.697 178.47 187.611 163.436 181.99 154.099H192.276C212.668 154.099 229.203 137.564 229.203 117.171C229.203 96.7793 212.668 80.2435 192.276 80.2435ZM288.763 45.632C288.763 23.7063 270.989 5.93213 249.063 5.93213C227.137 5.93213 209.363 23.7063 209.363 45.632C209.363 67.5578 227.137 85.3319 249.063 85.3319C251.54 85.3319 253.959 85.0945 256.307 84.6582L251.983 105.301L277.829 72.9863L277.81 72.9927C284.599 65.8702 288.763 56.2388 288.763 45.632Z" fill="#FFBE55"/>
<path d="M325.351 322.883C325.935 322.71 329.015 322.486 329.374 321.985C329.734 321.485 331.03 317.744 332.108 317.532C333.186 317.314 334.123 323.557 332.108 326.83C330.17 329.39 328.373 328.094 327.796 328.164C327.218 328.235 324.344 328.094 324.344 328.094L325.351 322.883Z" fill="#FCD2B1"/>
<path d="M72.0845 572.447C63.0434 572.447 59.2255 565.228 57.724 557.566C56.03 548.923 57.2748 539.728 57.2748 539.728H86.9006C86.9006 539.728 86.9455 540.081 87.0097 540.703C87.5615 546.145 89.3389 572.447 72.0845 572.447Z" fill="#B6E7FF"/>
<path d="M86.8958 539.728C86.8958 540.376 80.261 540.902 72.0798 540.902C63.8985 540.902 57.2637 540.376 57.2637 539.728C57.2637 539.08 63.8985 538.554 72.0798 538.554C80.2674 538.554 86.8958 539.08 86.8958 539.728Z" fill="#85DDFF"/>
<path d="M35.2031 457.601C35.2031 457.601 50.8277 481.369 60.196 495.877C69.5708 510.385 72.022 513.394 73.1385 518.085C74.255 522.769 75.256 540.068 75.256 540.068H76.4816C76.4816 540.068 77.2644 525.451 75.8142 520.651C74.364 515.852 74.9223 513.959 75.5896 508.935C76.257 503.91 77.1489 495.877 72.0733 490.301C66.9977 484.725 68.3324 479.251 66.5485 475.574C64.7647 471.891 50.924 467.432 49.1401 463.633C47.3691 459.834 39.56 457.492 35.2031 457.601Z" fill="#2A94F4"/>
<path d="M35.2031 457.601C35.2031 457.601 40.1119 463.184 43.4614 465.077C46.8109 466.976 48.3701 465.301 50.9368 469.876C53.5035 474.451 53.5997 476.46 55.9546 478.802C58.3031 481.144 61.0944 481.26 61.319 486.393C61.5435 491.526 60.2025 495.877 60.2025 495.877C60.2025 495.877 36.2105 458.827 35.2031 457.601Z" fill="#41AAF7"/>
<path d="M71.5857 540.062H70.4692C70.4692 540.062 70.1355 532.477 67.1197 528.794C65.1754 526.42 56.9236 523.719 48.7616 520.485C44.2699 518.701 39.8039 516.763 36.4352 514.62C26.9513 508.595 17.9103 489.178 17.1338 485.719C16.8579 484.513 16.736 483.781 16.7424 483.281V483.268C16.7617 482.338 17.2237 482.196 18.0193 481.26C18.4043 480.804 19.5593 480.964 20.971 481.394C25.0648 482.639 28.5106 485.443 30.6538 489.146C32.6301 492.572 35.7935 496.852 39.6692 497.885C46.3618 499.675 45.8099 500.785 48.2803 507.594C50.7443 514.402 56.9685 515.512 64.7776 523.545C72.5867 531.579 71.5857 540.062 71.5857 540.062Z" fill="#2A94F4"/>
<path d="M48.7616 520.485C44.2699 518.701 39.8039 516.763 36.4352 514.62C26.9513 508.595 17.9103 489.178 17.1338 485.719C16.8579 484.513 16.736 483.781 16.7424 483.281C16.7681 483.512 17.2108 486.579 22.1517 488.626C27.2786 490.743 28.286 490.743 28.9533 493.984C29.6207 497.218 30.1853 500.676 32.8611 501.35C35.5368 502.017 37.2116 499.008 39.3291 503.917C41.453 508.826 42.4604 510.5 44.4111 511.168C46.3618 511.835 47.8376 510.834 48.2739 514.626C48.537 516.936 48.6846 519.137 48.7616 520.485Z" fill="#41AAF7"/>
<path d="M72.0851 572.447C63.044 572.447 59.2261 565.228 57.7246 557.567C66.586 554.204 77.751 548.821 87.0103 540.704C87.5621 546.145 89.3395 572.447 72.0851 572.447Z" fill="#CCE9FF"/>
</svg>
