<svg width="21" height="20" viewBox="0 0 21 20" fill="none" xmlns="http://www.w3.org/2000/svg">
<path d="M12.5313 10.3652V8.37207L10.6094 10.3652H12.5313Z" fill="#A5A5A5"/>
<path d="M10.1876 5.16699C7.52263 5.16699 5.35449 7.33513 5.35449 10.0001C5.35449 12.6651 7.52263 14.8332 10.1876 14.8332C10.8567 14.8332 11.5029 14.6993 12.1101 14.4355C12.486 13.2422 13.4297 12.2985 14.623 11.9226C14.8868 11.3154 15.0208 10.6692 15.0208 10.0001C15.0208 7.33513 12.8526 5.16699 10.1876 5.16699ZM9.3558 12.3709H6.83799C6.8072 12.3709 6.77679 12.3642 6.7488 12.3514C6.72081 12.3386 6.69592 12.3199 6.6758 12.2966C6.65569 12.2733 6.64083 12.2459 6.63223 12.2164C6.62363 12.1868 6.6215 12.1558 6.62599 12.1253C6.74642 11.3091 7.38023 10.8388 7.99312 10.3839C8.51373 9.99754 9.00548 9.63265 9.1078 9.09594C9.19769 8.6243 9.00426 8.25709 8.59037 8.11359C8.13402 7.95534 7.50255 8.1213 7.1787 8.74469C7.16591 8.76998 7.14823 8.79248 7.12669 8.81088C7.10515 8.82929 7.08017 8.84325 7.0532 8.85194C7.02622 8.86063 6.9978 8.86388 6.96956 8.86151C6.94132 8.85914 6.91384 8.85119 6.88869 8.83813C6.86354 8.82507 6.84124 8.80714 6.82307 8.7854C6.80489 8.76366 6.79121 8.73853 6.78282 8.71147C6.77442 8.6844 6.77148 8.65594 6.77415 8.62773C6.77683 8.59952 6.78508 8.57212 6.79841 8.54712C7.23438 7.70795 8.10059 7.4902 8.73076 7.70866C9.3449 7.92159 9.65815 8.49762 9.5288 9.17619C9.39515 9.87715 8.81223 10.3097 8.24852 10.728C7.75698 11.0928 7.28902 11.4401 7.11091 11.9423H9.35573C9.41256 11.9423 9.46706 11.9649 9.50725 12.0051C9.54743 12.0453 9.57001 12.0998 9.57001 12.1566C9.57001 12.2134 9.54743 12.2679 9.50725 12.3081C9.46706 12.3483 9.41256 12.3709 9.35573 12.3709H9.3558ZM13.7515 10.5791C13.7515 10.6359 13.729 10.6904 13.6888 10.7306C13.6486 10.7708 13.5941 10.7934 13.5372 10.7934H12.9594V12.1595C12.9594 12.2163 12.9368 12.2708 12.8966 12.311C12.8564 12.3512 12.8019 12.3738 12.7451 12.3738C12.6883 12.3738 12.6338 12.3512 12.5936 12.311C12.5534 12.2708 12.5308 12.2163 12.5308 12.1595V10.7934H10.1045C10.0625 10.7934 10.0214 10.781 9.9863 10.7578C9.95123 10.7346 9.92376 10.7016 9.90732 10.6629C9.89087 10.6242 9.88618 10.5815 9.89382 10.5402C9.90146 10.4988 9.9211 10.4606 9.95029 10.4304L12.5909 7.69202C12.6205 7.66128 12.6587 7.64011 12.7004 7.63121C12.7422 7.62232 12.7857 7.62611 12.8253 7.64209C12.8649 7.65808 12.8988 7.68553 12.9227 7.72093C12.9466 7.75633 12.9593 7.79806 12.9594 7.84077V10.3648H13.5372C13.594 10.3648 13.6485 10.3874 13.6887 10.4276C13.7289 10.4678 13.7515 10.5223 13.7515 10.5791H13.7515Z" fill="#A5A5A5"/>
<path d="M15.775 12.1748C13.8933 12.1748 12.3623 13.7057 12.3623 15.5875C12.3623 17.4694 13.8933 19.0003 15.775 19.0003C17.6568 19.0003 19.1877 17.4694 19.1877 15.5875C19.1877 13.7057 17.6568 12.1748 15.775 12.1748ZM17.142 14.0047L15.2823 17.709C15.2697 17.7341 15.2523 17.7566 15.231 17.775C15.2097 17.7934 15.185 17.8074 15.1583 17.8163C15.1316 17.8251 15.1034 17.8286 15.0753 17.8266C15.0472 17.8245 15.0198 17.817 14.9947 17.8044C14.9695 17.7917 14.9471 17.7743 14.9287 17.753C14.9103 17.7317 14.8963 17.707 14.8874 17.6803C14.8786 17.6536 14.8751 17.6254 14.8771 17.5973C14.8791 17.5692 14.8867 17.5418 14.8993 17.5167L16.6032 14.1229H14.5996C14.5427 14.1229 14.4882 14.1003 14.4481 14.0601C14.4079 14.0199 14.3853 13.9654 14.3853 13.9086C14.3853 13.8518 14.4079 13.7972 14.4481 13.7571C14.4882 13.7169 14.5427 13.6943 14.5996 13.6943H16.9505C17.0249 13.6943 17.0939 13.7328 17.1329 13.7961C17.1719 13.8594 17.1754 13.9383 17.142 14.0048V14.0047Z" fill="#A5A5A5"/>
<path d="M11.9872 14.9465C11.4126 15.1561 10.809 15.2623 10.1874 15.2623C7.28612 15.2623 4.92573 12.9019 4.92573 10.0006C4.92573 7.09925 7.28615 4.73884 10.1875 4.73884C13.0888 4.73884 15.4492 7.09922 15.4492 10.0005C15.4492 10.6221 15.3431 11.2257 15.1334 11.8003C15.3453 11.7645 15.5599 11.7465 15.7748 11.7465C16.4032 11.7465 16.9969 11.8982 17.5211 12.1669L19.1006 11.255C19.1582 10.8411 19.1875 10.4196 19.1875 10.0005C19.1875 9.58146 19.1582 9.15971 19.1006 8.7461L17.4803 7.81061C17.4342 7.784 17.3996 7.74119 17.3834 7.6905C17.2569 7.29685 17.0982 6.91429 16.9089 6.54669C16.8845 6.49933 16.8787 6.44457 16.8925 6.39311L17.3767 4.58627C16.8704 3.91498 16.273 3.31758 15.6018 2.81131L13.7944 3.29563C13.743 3.30942 13.6882 3.30355 13.6409 3.27916C13.2735 3.08995 12.8911 2.93133 12.4977 2.80492C12.447 2.78865 12.4042 2.75412 12.3776 2.70802L11.4419 1.08749C10.6141 0.972102 9.76032 0.972173 8.93311 1.08749L7.99747 2.70806C7.97087 2.75416 7.92805 2.7887 7.87736 2.80495C7.4838 2.93136 7.10131 3.08996 6.73376 3.27913C6.68641 3.3035 6.63167 3.30936 6.58023 3.29559L4.77327 2.81138C4.10198 3.31762 3.50457 3.91502 2.99831 4.5863L3.48249 6.39315C3.49628 6.44461 3.49041 6.49936 3.46603 6.54672C3.2768 6.91432 3.11817 7.29687 2.99174 7.6905C2.97549 7.74119 2.94095 7.784 2.89485 7.81061L1.27439 8.7461C1.21671 9.15996 1.1875 9.58142 1.1875 10.0005C1.1875 10.4196 1.21671 10.8413 1.27439 11.255L2.89471 12.1904C2.94081 12.217 2.97535 12.2598 2.9916 12.3105C3.11806 12.7042 3.27674 13.0867 3.46603 13.4543C3.49043 13.5017 3.4963 13.5564 3.48249 13.6079L2.99828 15.4148C3.50452 16.0861 4.10192 16.6835 4.7732 17.1897L6.58051 16.7054C6.63197 16.6916 6.68672 16.6975 6.73408 16.7219C7.10149 16.911 7.48385 17.0697 7.87729 17.1961C7.92798 17.2124 7.97079 17.2469 7.9974 17.293L8.93304 18.9136C9.76096 19.029 10.6146 19.0288 11.4418 18.9136L12.3538 17.334C12.0851 16.8098 11.9334 16.2161 11.9334 15.5877C11.9334 15.3693 11.952 15.155 11.9872 14.9464V14.9465Z" fill="#A5A5A5"/>
</svg>
